# WaveFront *.obj file (generated by Cinema 4D)

v 49.5 198 49.5
v 49.5 198.00003051757812 181.5
v 99 76.32604217529297 -204.2099609375
v 181.5 75.13912963867188 -316.796142578125
v 181.5 56.08982467651367 304.12939453125
v 99 0.00002019466046 231
v -49.5 198 49.5
v -181.49993896484375 132.00003051757812 231
v -98.99996948242188 98.99994659423828 -280.5
v -181.49996948242188 75.13909912109375 -316.796142578125
v -181.49993896484375 73.49639129638672 304.12939453125
v -181.49996948242188 115.49996948242188 -165
v 99 198 264
v 99 158.20010375976562 321.45849609375
v -99 56.0898323059082 304.12939453125
v 99 32.9999885559082 -132
v 99 61.02412414550781 -318.61572265625
v 99 98.99997711181641 -280.5
v 99 115.49999237060547 -165
v 181.5 -0.00001153980611 -132
v -99 132.00003051757812 99
v -98.99996948242188 132.00003051757812 231
v -99 198 264
v -181.49996948242188 0.00004379810343 231
v -181.49993896484375 98.99994659423828 -280.5
v -99 33.00002670288086 231
v -98.99996948242188 75.13909912109375 -316.796142578125
v -181.49996948242188 -0.00001940761649 -132
v 99 33.00001907348633 231
v -98.99996948242188 -0.00001940761649 -132
v -99 32.99998474121094 -132
v -99 76.32601928710938 -204.2099609375
v -99 115.49998474121094 -165
v 99 132.00001525878906 99
v 99 132.00001525878906 231
v 181.5 132.00001525878906 231
v 181.5 132.00001525878906 99
v 181.5 98.99997711181641 -280.5
v 181.5 0.00002019466046 231
v -181.49993896484375 132.00003051757812 99
v -98.99996948242188 0.0000437980998 231
v 99 -0.00001153980611 -132
v -99 158.20014953613281 321.45849609375
v 181.5 115.49999237060547 -165
v -49.5 198.00001525878906 181.5
v 181.5 73.49636840820312 304.12939453125
v -181.49993896484375 56.08984756469727 304.12939453125
v 99 73.49636077880859 304.12939453125
v 99 56.08981704711914 304.12939453125
v -99 73.49637603759766 304.12939453125
v 99 134.65576171875 325.0283203125
v -99 134.65577697753906 325.0283203125
v 99 89.15639495849609 -204.51513671875
v -99 89.1563720703125 -204.51513671875
v 181.5 61.02412414550781 -318.61572265625
v -181.49996948242188 61.02409362792969 -318.61572265625
v 99 75.13912963867188 -316.796142578125
v -98.99996948242188 61.02409362792969 -318.61572265625
# 58 vertices

vn -0.00000001216959 0.97004002332687 -0.24294506013393
vn 0 0.98319518566132 -0.18255753815174
vn -0.00000002279826 0.90447413921356 -0.42652842402458
vn 0 0.70710676908493 -0.70710676908493
vn -0.00000005503344 0.87052476406097 -0.49212455749512
vn 0 -0.69431155920029 0.71967452764511
vn 0.729936003685 0.67286467552185 -0.12019388377666
vn 0.68133002519608 0.71377420425415 -0.16222141683102
vn 0.80636888742447 0.59113305807114 -0.01819168776274
vn 0.57735025882721 0.57735025882721 -0.57735025882721
vn 0.81237488985062 0.58199995756149 -0.03637505322695
vn 0.06237828731537 0.9980525970459 0
vn -0.00000015412918 1 -0.00000011559689
vn -1 0 -0.00000000000001
vn 0 1 -0.00000023119378
vn -0.00000006412149 0.83204853534698 -0.55470281839371
vn -0.57735025882721 -0.57735025882721 0.57735025882721
vn -0.00000009618223 0.83204865455627 -0.55470269918442
vn 0 0.98994946479797 -0.14142148196697
vn 0 -0.70710676908493 0.70710676908493
vn 0 0.93528735637665 -0.35388925671577
vn 0 0.90641909837723 -0.42237949371338
vn 0 0.83560937643051 -0.54932409524918
vn 0 0.83560937643051 -0.54932409524918
vn 1 0 0
vn 0.57735061645508 0.57735008001328 -0.57735008001328
vn 0.52631604671478 0.78947353363037 -0.31578934192657
vn 1 0 0
vn -0.00000015412918 1 0.00000009247751
vn 0 1 0.00000036991003
vn 0.00000009502669 0.82205212116241 0.56941223144531
vn 0.00000019005337 0.82205229997635 0.56941199302673
vn -0.00002048513852 0.71725505590439 -0.69681072235107
vn 0 0.82205200195312 0.56941246986389
vn 0 0.78086811304092 0.624695956707
vn -0.00000006319778 0.78086811304092 0.62469589710236
vn 0 0 -1
vn 0.00000003210928 -0.79348093271256 0.60859507322311
vn 0 -0.97708064317703 0.21286943554878
vn 0.00000002246184 -0.90484613180161 0.42573875188828
vn -0.57902371883392 -0.57398873567581 0.57902371883392
vn 0.00000006421858 -0.7934809923172 0.60859507322311
vn -0.00000000023283 1 0
vn 0 0 -1
vn 0 0 1
vn -0.06191127747297 0 0.99808168411255
vn -0.70710676908493 -0.70710676908493 0
vn 0 0 1
vn 0 -0.12111474573612 0.99263852834702
vn 0.00000005856904 -0.8574925661087 -0.51449632644653
vn 0.00000001759255 -0.96371483802795 -0.2669338285923
vn 0.00000004698019 -0.93509221076965 -0.35440453886986
vn 1 0 0
vn 0.00000010249581 -0.85749250650406 -0.51449644565582
vn -0.69640183448792 -0.69640183448792 0.17334645986557
vn 0 -0.95047253370285 -0.31080856919289
vn 0 -0.70710676908493 0.70710676908493
vn -0.80636882781982 0.59113311767578 -0.0181916821748
vn -0.81237477064133 0.58200001716614 -0.03637510165572
vn 0 -0.60770642757416 0.79416179656982
vn -0.79999989271164 0.6000000834465 -0.00000006935814
vn 0.00005902295743 0.00005902271005 -1
vn 0 1 0
vn 0 0.94362813234329 0.33100748062134
vn 0.00000005067262 0.89880102872849 0.43835687637329
vn 0 0.90641909837723 -0.4223795235157
vn 0 0.83560937643051 -0.54932409524918
vn 0 0.83560937643051 -0.54932415485382
vn 0 0.935287296772 -0.35388931632042
vn 0 -0.68957656621933 0.72421282529831
vn 0.0000000722128 0.78086811304092 0.62469589710236
vn 0.0000001444256 0.78086817264557 0.62469583749771
vn -0.00000005133196 -0.90484613180161 0.42573875188828
vn -0.00000000000002 -0.94696378707886 0.32134032249451
vn -0.00000007337922 -0.7934809923172 0.60859507322311
vn -0.00000014675841 -0.7934809923172 0.60859501361847
vn 0.00769716594368 0 0.99997037649155
vn -1 0 0
vn 0 -0.70087713003159 0.71328204870224
vn -1 0 0
vn -1 0.00000036700928 0.00000013581547
vn -1 0.00000013182101 0.00000005678442
vn -1 0.00000023119378 -0.00000000000004
vn -1 0.00000006370355 -0.00000004676367
vn -1 -0.00000002004156 -0.00000007014548
vn 0 -0.6653705239296 0.74651324748993
vn -1 -0.00000007253138 -0.00000025385981
vn 0 -0.65804094076157 0.7529821395874
vn -1 0.00000060502913 0.00000019784703
vn -1 -0.00000011842346 0.00000091864484
vn 0 -0.9504725933075 -0.31080847978592
vn 0 -0.51994693279266 0.85419857501984
vn 0 1 0
vn 1 0.00000092477501 -0.00000000000016
vn 1 0.00000092477552 -0.00000000000011
vn -0.70710676908493 -0.70710676908493 0
vn -0.0000001830962 0.98994946479797 -0.14142155647278
vn 0 0.98994946479797 -0.14142169058323
vn 0 0 1
vn -0.00000017900111 0.99805253744125 -0.06237851455808
vn -0.57734942436218 -0.57735067605972 0.57735067605972
vn 0 0.9980525970459 -0.06237846240401
vn -0.70710676908493 -0.70710676908493 0
vn 0 0.9980525970459 -0.06237836927176
vn -1 0 0
vn 0.21821708977222 0.8728683590889 0.43644252419472
vn 0 -1 0.00000008742278
vn -1 0 -0.00000000000001
vn -0.0000000385323 -1 0.00000011559689
vn 0.00000001926615 -1 0.00000008407046
vn 0 -1 0.00000017412044
vn -1 0 0
vn -0.5263158082962 0.78947371244431 -0.3157893717289
vn 0 0 1
vn 0 0 1
vn 0 0 1
vn 1 0.0000000140104 -0.0000000140104
vn -0.57734948396683 -0.57735067605972 0.57735067605972
vn 1 0.00000092477558 -0.00000029198776
vn 1 0 0
vn -1 -0.00000034344166 -0.00000023789217
vn -1 -0.0000000489999 -0.00000032317334
vn 0 0 1
vn -0.70710676908493 -0.70710676908493 0
vn 1 -0.00000003499014 0.0000002714286
vn 1 0.00000000644566 0.00000027099176
vn 1 0.00000000000083 -0.00000000000083
vn 0.00000000281472 -0.02377872914076 -0.99971723556519
vn 0.00000000000002 -1 0
vn 0 -1 0
vn 0 0.12785309553146 -0.99179309606552
vn 0 -1 0
vn 0 0.12785309553146 -0.99179309606552
vn 0 -1 0
vn 0 -1 0
vn 0 -1 0
vn 0 -1 0
vn 0 -1 0
vn 0 -1 0
vn 0 -1 0
vn 1 0.00000092477501 0.00000055486578
vn 0 -1 0
vn 1 0.00000057893749 0.00000018931496
vn 0.47594356536865 0 0.87947583198547
vn 1 -0.00000050441849 0.0000003362814
vn 0.48573523759842 -0.29554072022438 0.82262808084488
vn 1 -0.00000051036557 0.000000335511
vn -0.00000002950073 -0.87482225894928 0.48444408178329
vn 0 -1 0
vn -0.00000005900145 -0.87482219934464 0.48444414138794
vn 0.00000001132663 0.14990799129009 0.98869997262955
vn 0.00000003397986 0.14990781247616 0.98869997262955
vn -0.00000002861683 -0.32335484027863 0.94627779722214
vn 0.53372007608414 0 0.84566122293472
vn -1 -0.00000057798468 0.00000023119377
vn -1 0.00000011198608 -0.00000032772024
vn 0 0 0
# 157 normals

vt 0.52166247367859 0.70280587673187 0
vt 0.52166247367859 0.60510551929474 0
vt 0.29487973451614 0.55626302957535 0
vt 0 1 0
vt 0.29488044977188 0.75165176391602 0
vt 0.55263757705688 0.79202252626419 0
vt 0.64909470081329 0.72936004400253 0
vt 0.65190196037292 0.70280319452286 0
vt 0.65190160274506 0.60510891675949 0
vt 0.24900549650192 0.55626320838928 0
vt 0.24900621175766 0.75165164470673 0
vt 0.89731729030609 0.29842019081116 0
vt 0.78311026096344 0.29802024364471 0
vt 0.78311049938202 0.37943208217621 0
vt 0.89708733558655 0.37943136692047 0
vt 0.94394016265869 0.37943136692047 0
vt 0.94041693210602 0.29720842838287 0
vt 0.72773694992065 0.78235620260239 0
vt 0.67616581916809 0.83335298299789 0
vt 0.73859238624573 0.91067391633987 0
vt 0.76862621307373 0.85825145244598 0
vt 0.73331344127655 0.55626153945923 0
vt 0.73331558704376 0.75165039300919 0
vt 0.80284810066223 0.75153875350952 0
vt 0.80284702777863 0.55637145042419 0
vt 0.30013173818588 0.37988150119781 0
vt 0.39233338832855 0.37943351268768 0
vt 0.39195889234543 0.2982861995697 0
vt 0.29957813024521 0.29805147647858 0
vt 0.20435526967049 0.13164794445038 0
vt 0.29674643278122 0.13164806365967 0
vt 0.29674649238586 0.05023598670959 0
vt 0.20435535907745 0.05023610591888 0
vt 0.89708685874939 0.26545536518097 0
vt 0.93608117103577 0.23945903778076 0
vt 0.93470001220703 0.22914564609528 0
vt 0.3201676607132 0.24029016494751 0
vt 0.52259206771851 0.29802119731903 0
vt 0.3201676607132 0.22549521923065 0
vt 0.39233255386353 0.16776299476624 0
vt 0.75054526329041 0.16776168346405 0
vt 0.78311038017273 0.28173780441284 0
vt 0.02814476564527 0.31049084663391 0
vt 0.02814527973533 0.39357924461365 0
vt 0.223533898592 0.39357733726501 0
vt 0.22353327274323 0.31048893928528 0
vt 0.65495872497559 0.05023694038391 0
vt 0.65495872497559 0.13164782524109 0
vt 0.84900283813477 0.13164818286896 0
vt 0.8490024805069 0.05023622512817 0
vt 0.55263638496399 0.51588827371597 0
vt 0.64909398555756 0.57854998111725 0
vt 0.52259230613708 0.37943291664124 0
vt 0.89708721637726 0.37943136692047 0
vt 0.32016760110855 0.22549521923065 0
vt 0.39233249425888 0.16776299476624 0
vt 0.75054514408112 0.16776156425476 0
vt 0.78311026096344 0.28173780441284 0
vt 0.93608105182648 0.23945903778076 0
vt 0.22747853398323 0.88769161701202 0
vt 0.5856910943985 0.88768744468689 0
vt 0.58569025993347 0.85512292385101 0
vt 0.22747820615768 0.85512691736221 0
vt 0.02814774215221 0.75179141759872 0
vt 0.22353634238243 0.75178998708725 0
vt 0.72773611545563 0.5255531668663 0
vt 0.28238314390182 0.29823875427246 0
vt 0.28292334079742 0.37979328632355 0
vt 0.97232389450073 0.75142782926559 0
vt 0.88983738422394 0.75142824649811 0
vt 0.89813876152039 0.76662766933441 0
vt 0.9882755279541 0.77993714809418 0
vt 0.97231078147888 0.55648213624954 0
vt 0.98824882507324 0.52797222137451 0
vt 0.89811229705811 0.54128313064575 0
vt 0.88985049724579 0.55648225545883 0
vt 0.67616426944733 0.47455585002899 0
vt 0.7672506570816 0.46867835521698 0
vt 0.76676261425018 0.44960677623749 0
vt 0.76725232601166 0.83922922611237 0
vt 0.04332438856363 0.91651386022568 0
vt 0.15622121095657 0.93044698238373 0
vt 0.04194332659245 0.92682719230652 0
vt 0.15592008829117 0.94310808181763 0
vt 0.02814463526011 0.30011212825775 0
vt 0.22353315353394 0.30011022090912 0
vt 0.95826804637909 0.3788925409317 0
vt 0.95514440536499 0.29583621025085 0
vt 0.08093769848347 0.95282274484634 0
vt 0.1949146091938 0.96910375356674 0
vt 0.82629382610321 0.75142806768417 0
vt 0.82629382610321 0.55648213624954 0
vt 0.72628116607666 0.3969087600708 0
# 93 texture coordinates

o hull
usemtl 24 - Default
f 33/3/3 7/2/2 1/1/1
f 1/1/1 19/5/5 33/3/3
f 1/1/9 2/7/8 34/6/7
f 34/6/7 19/5/11 1/1/9
f 7/2/13 45/9/13 2/8/13
f 2/8/15 1/1/1 7/2/2
f 54/10/16 33/3/3 19/5/5
f 19/5/5 53/11/18 54/10/16
f 19/14/19 44/13/19 38/12/19
f 38/12/22 18/15/21 19/14/19
f 57/16/23 18/15/21 38/12/22
f 38/12/22 4/17/24 57/16/23
f 35/19/25 34/6/25 13/18/25
f 13/18/27 34/6/7 2/7/8
f 35/19/25 51/21/25 48/20/28
f 2/8/29 45/9/29 23/22/29
f 23/22/30 13/23/30 2/8/30
f 23/22/31 43/25/32 14/24/31
f 14/24/31 13/23/34 23/22/31
f 36/28/35 35/27/35 48/26/35
f 48/26/36 46/29/36 36/28/36
f 55/36/25 4/35/25 38/34/25
f 37/38/25 36/28/25 46/37/25
f 37/38/25 46/37/25 5/39/25
f 37/38/28 5/39/28 39/40/28
f 37/38/25 39/40/25 20/41/25
f 44/42/28 37/38/25 20/41/25
f 38/34/25 44/42/25 20/41/25
f 55/36/25 38/34/25 20/41/25
f 16/45/52 31/44/51 32/43/50
f 32/43/50 3/46/54 16/45/52
f 7/2/58 33/3/59 21/51/58
f 21/51/58 45/52/61 7/2/58
f 8/28/65 22/27/64 21/53/63
f 21/53/63 40/38/63 8/28/63
f 27/16/68 10/17/67 25/12/66
f 25/12/66 9/54/69 27/16/68
f 50/26/71 22/27/64 8/28/65
f 8/28/65 11/29/72 50/26/71
f 11/37/78 8/28/78 40/38/78
f 47/55/80 11/37/80 40/38/80
f 24/56/81 47/55/81 40/38/81
f 28/57/84 24/56/83 40/38/82
f 28/57/84 40/38/82 12/58/85
f 28/57/84 12/58/85 25/34/87
f 56/36/89 28/57/89 25/34/89
f 10/59/90 56/36/90 25/34/90
f 6/62/78 29/61/78 16/60/78
f 16/60/80 42/63/80 6/62/80
f 41/62/94 30/63/94 31/60/94
f 31/60/95 26/61/95 41/62/95
f 25/12/97 12/13/97 33/14/97
f 33/14/98 9/54/69 25/12/66
f 33/14/100 12/13/100 40/38/100
f 40/38/102 21/53/102 33/14/102
f 34/53/104 37/38/104 44/13/104
f 44/13/104 19/14/104 34/53/104
f 37/38/63 34/53/63 35/27/63
f 35/27/63 36/28/63 37/38/63
f 29/65/109 26/64/109 31/44/109
f 31/44/51 16/45/52 29/65/110
f 23/66/113 45/52/113 21/51/113
f 48/26/114 49/68/114 5/67/114
f 5/67/115 46/29/115 48/26/115
f 50/26/115 11/29/115 47/67/115
f 47/67/116 15/68/116 50/26/116
f 49/71/80 48/70/80 29/69/80
f 29/69/80 6/72/80 49/71/80
f 15/75/119 41/74/119 26/73/119
f 26/73/120 50/76/120 15/75/120
f 43/78/121 23/66/121 22/77/121
f 22/77/122 52/79/122 43/78/122
f 35/19/25 13/18/25 14/80/120
f 14/80/25 51/21/25 35/19/25
f 3/82/80 17/81/80 42/63/80
f 42/63/80 16/60/80 3/82/80
f 32/82/125 58/81/125 27/83/125
f 27/83/126 54/84/126 32/82/126
f 3/46/128 32/43/128 54/85/128
f 54/85/128 53/86/128 3/46/128
f 4/17/131 55/88/131 17/87/131
f 17/87/133 57/16/133 4/17/133
f 56/88/133 10/17/133 27/16/133
f 27/16/131 58/87/131 56/88/131
f 53/84/78 19/90/78 18/89/78
f 18/89/80 57/83/80 53/84/80
f 3/82/80 53/84/80 57/83/80
f 57/83/80 17/81/80 3/82/80
f 32/82/141 31/60/141 30/63/141
f 30/63/143 58/81/143 32/82/143
f 9/89/145 33/90/145 54/84/145
f 54/84/147 27/83/147 9/89/147
f 26/73/148 29/69/148 48/70/148
f 48/70/150 50/76/150 26/73/150
f 52/92/151 51/91/151 14/24/151
f 14/24/152 43/25/152 52/92/152
f 50/76/153 48/70/153 51/91/153
f 51/91/153 52/92/153 50/76/153
f 23/66/155 21/51/155 22/77/155
f 22/77/156 50/93/156 52/79/156

usemtl tracks
f 6/32/40 39/31/39 5/30/38
f 5/30/38 49/33/42 6/32/40
f 55/49/56 20/48/56 42/47/56
f 42/47/56 17/50/56 55/49/56
f 47/30/75 24/31/74 41/32/73
f 41/32/73 15/33/76 47/30/75
f 56/49/91 58/50/91 30/47/91
f 30/47/91 28/48/91 56/49/91
f 39/31/39 6/32/40 42/47/107
f 42/47/107 20/48/107 39/31/39
f 41/32/73 24/31/74 28/48/111
f 28/48/111 30/47/111 41/32/111

v -16.5 198.00001525878906 131.99996948242188
v 16.5 198.00001525878906 131.99996948242188
v -16.5 198.00001525878906 98.99996948242188
v 16.5 198.00001525878906 98.99996948242188
v -16.5 231.00001525878906 131.99996948242188
v 16.5 231.00001525878906 131.99996948242188
v -16.5 231.00001525878906 98.99996948242188
v 16.5 231.00001525878906 98.99996948242188
# 8 vertices

vn 0 -1 0
vn 0 -1 0
vn 0 -1 0
vn 0 1 0
vn 0 0 -1
vn 0 0 -1
vn 0 -1 0
vn 1 0 0
# 8 normals

vt 1 0 0
vt 0 0 0
vt 1 1 0
# 3 texture coordinates

o mount02
usemtl tracks
f 62/4/158 60/95/158 59/94/158
f 59/94/158 61/96/160 62/4/158
f 66/96/63 65/4/63 63/95/63
f 63/95/63 64/94/63 66/96/63
f 59/95/116 60/94/116 64/96/116
f 64/96/115 63/4/115 59/95/115
f 66/96/25 64/4/25 60/95/25
f 60/95/25 62/94/25 66/96/25
f 62/95/162 61/94/162 65/96/162
f 65/96/163 66/4/163 62/95/163
f 61/95/80 59/94/80 63/96/80
f 63/96/80 65/4/80 61/95/80

