v -33 39.09863662719727 -115.5
v 66 -0.00004917383194 82.5
v -66 -0.00004917383194 82.5
v -33 -0.00003933906555 115.500244140625
v -5.72100830078125 49.16255569458008 -280.5
v -20.9375 90.24684143066406 55.96240234375
v -33 39.55855941772461 115.500244140625
v 33 -0.00003933906555 115.500244140625
v -4.90057373046875 30.00288963317871 -280.5
v -66 -0.00003933906555 -66
v 33 -0.00003933906555 -115.5
v 66 -0.00003933906555 -66
v -33 -0.00003933906555 -115.5
v 30.9375 71.36747741699219 71.288330078125
v 30.9375 71.36746978759766 -66
v 20.9375 90.24684143066406 55.96240234375
v -30.9375 71.36747741699219 -66
v 5.72100830078125 49.16255569458008 -280.5
v -10.7314453125 39.24568939208984 -280.5
v 4.90057373046875 30.00288963317871 -280.5
v 10.7314453125 39.24568939208984 -280.5
v 5.72100830078125 49.16255950927734 -115.5
v -4.9005126953125 30.00288581848145 -115.5
v -5.72100830078125 49.16255950927734 -115.5
v -10.7314453125 39.24569320678711 -115.5
v 10.7314453125 39.24569320678711 -115.5
v 4.90057373046875 30.00288581848145 -115.5
v 66 63.36746978759766 -66
v 58 71.36746978759766 -66
v -66 63.36747741699219 82.5
v -58 71.36747741699219 82.5
v 58 71.36747741699219 82.5
v 66 63.36747741699219 82.5
v -58 71.36746978759766 -66
v -66 63.36746978759766 -66
v -25 48.5292854309082 -115.5
v 25 48.52928924560547 -115.5
v 33 39.09864044189453 -115.5
v -30.9375 90.35765075683594 43.861328125
v 20.9375 71.36747741699219 82.5
v 30.9375 90.35765075683594 43.861328125
v -20.9375 71.36747741699219 82.5
v -30.9375 71.36747741699219 71.288330078125
v -25.20458984375 48.53090286254883 115.500244140625
v 33 39.55856323242188 115.500244140625
v 25.20458984375 48.53090667724609 115.500244140625
# 46 vertices

vn 0.0000000311511 0.96283555030823 -0.27008828520775
vn 0 0.99870598316193 -0.05085582658648
vn 0.0000000473583 0.99383139610291 -0.11090141534805
vn 0 0 0
vn -0.00000005638306 0.97865730524063 -0.20549921691418
vn -0.00000003463802 0.90801501274109 -0.4189375936985
vn 0 0.97673308849335 -0.21445864439011
vn 1 0 0
vn 0.95709204673767 0 -0.28978416323662
vn 0 1 0
vn 0.83205032348633 0 -0.55470019578934
vn -0.98135322332382 0 -0.19221298396587
vn -1 0 0
vn -1 0 0
vn -0.92315584421158 0 -0.38442596793175
vn 0 1 0
vn -0.7071093916893 0 0.7071042060852
vn -0.7071093916893 0 0.7071042060852
vn 0 0 1
vn 0 1 0
vn 0 1 -0.00000002311938
vn 0.84576511383057 -0.53355538845062 0
vn 0.84576505422592 -0.53355550765991 -0.00000001269327
vn 0.84576523303986 -0.53355520963669 0.00000001269326
vn 0 1 0
vn -0.84576386213303 -0.53355741500854 0.00000015654982
vn -0.84576505422592 -0.53355550765991 0.00000001269327
vn -0.84576267004013 -0.53355926275253 0.00000030040636
vn 0 0 -1
vn 0 1 0
vn 0 -1 0.00000029802101
vn -0.00000009934107 -1 -0.00000006622739
vn 0 -1 0
vn 0.00000002292486 -1 -0.00000004584973
vn 0 1 0
vn 0.00000009366442 -1 0.00000001702987
vn -0.00000036425109 -1 -0.00000006622739
vn 0 1 0
vn -0.00000009397253 1 -0.00000001712547
vn -0.00000027138725 0.9767330288887 -0.21445871889591
vn 0 1 0
vn -1 0 0
vn -0.00000006851433 0.90801501274109 -0.41893768310547
vn 0 1 0
vn -0.00000002074296 0.81983155012131 0.57260471582413
vn 0 0.81734174489975 0.57615315914154
vn -0.00000003111386 0.82230591773987 0.56904572248459
vn -0.00000006222771 0.82230585813522 0.56904578208923
vn -0.89254713058472 0.45095404982567 -0.00000001042578
vn -0.89254713058472 0.45095404982567 -0.00000001042578
vn 0 1 0
vn 0.89254713058472 0.45095404982567 -0.00000001042578
vn 0.89254713058472 0.45095404982567 -0.00000001042578
vn 0 -1 -0.00000002311938
vn 0 -1 -0.00000002311938
vn 0 1 0
vn 0.7071093916893 0 0.70710414648056
vn 0.7071093916893 0 0.7071042060852
vn -0.70710676908493 0.70710676908493 -0.0000000363286
vn -0.70710676908493 0.70710676908493 -0.0000000363286
vn 0 1 0
vn 0.70710676908493 0.70710676908493 -0.0000000363286
vn 0.70710676908493 0.70710676908493 -0.0000000363286
vn -0.83205032348633 0 -0.55470019578934
vn 0 1 0
vn -0.5472965836525 0.5472965836525 -0.63319265842438
vn -0.59348654747009 0.50345343351364 -0.62793970108032
vn 0.59348648786545 0.50345349311829 -0.62793976068497
vn 0.5472965836525 0.5472965836525 -0.63319259881973
vn 0 1 0
vn 0 0.95118200778961 0.30863043665886
vn -0.54494708776474 0.68321645259857 0.48605346679688
vn 0 1 0
vn -0.56216871738434 0.67994540929794 0.47078719735146
vn 0.56216865777969 0.67994540929794 0.47078719735146
vn 0.54494714736938 0.68321645259857 0.48605343699455
vn 0 1 0
vn 0 1 -0.00000005557205
vn 0.00000002128463 1 -0.00000005137639
vn 0 0.82230585813522 0.56904578208923
vn 0 1 0
vn 0 0.82230591773987 0.56904572248459
vn -0.47665339708328 0.41412910819054 0.77543449401855
vn -0.45445442199707 0.45445442199707 0.76612162590027
vn 0.44885686039925 0.44885686039925 0.77269339561462
vn 0.48229974508286 0.41903477907181 0.76928329467773
vn 0 0 1
vn 0 -1 0
# 88 normals

vt 0.19739210605621 0.78984832763672 0
vt 0.4013888835907 0.78986942768097 0
vt 0.40139997005463 0.67665481567383 0
vt 0 1 0
vt 0.1974004805088 0.67663335800171 0
vt 0.09764802455902 0.77897864580154 0
vt 0.19739052653313 0.83936548233032 0
vt 0.46910566091537 0.86006724834442 0
vt 0.1973904967308 0.86006724834442 0
vt 0.19739046692848 0.97601288557053 0
vt 0.46910560131073 0.97601294517517 0
vt 0.08853681385517 0.90447276830673 0
vt 0.08853681385517 0.97601288557053 0
vt 0.19740089774132 0.6064139008522 0
vt 0.46911609172821 0.6064139008522 0
vt 0.46911609172821 0.4904682636261 0
vt 0.19740092754364 0.4904682636261 0
vt 0.55450820922852 0.56284987926483 0
vt 0.55450820922852 0.4904682636261 0
vt 0.6453572511673 0.79365581274033 0
vt 0.6453572511673 0.67289358377457 0
vt 0.57297563552856 0.67289352416992 0
vt 0.57297563552856 0.79365575313568 0
vt 0.03332890570164 0.38531231880188 0
vt 0.36186492443085 0.38531231880188 0
vt 0.36186492443085 0.36252987384796 0
vt 0.03332883119583 0.36252999305725 0
vt 0.36186480522156 0.34040713310242 0
vt 0.36186474561691 0.31864750385284 0
vt 0.03332870453596 0.31864750385284 0
vt 0.03332875669003 0.34040713310242 0
vt 0.36186504364014 0.42919480800629 0
vt 0.36186498403549 0.40743517875671 0
vt 0.03332894295454 0.40743517875671 0
vt 0.0333289578557 0.42919480800629 0
vt 0.38161069154739 0.35255336761475 0
vt 0.38161069154739 0.39528870582581 0
vt 0.40001434087753 0.38367855548859 0
vt 0.40001434087753 0.36416327953339 0
vt 0.80186295509338 0.44520926475525 0
vt 0.86273455619812 0.38433825969696 0
vt 0.86273455619812 0.26259613037109 0
vt 0.43663650751114 0.38433825969696 0
vt 0.52794313430786 0.44520926475525 0
vt 0.52794313430786 0.20172500610352 0
vt 0.43663650751114 0.2625960111618 0
vt 0.80186295509338 0.20172500610352 0
vt 0.44860172271729 0.67663240432739 0
vt 0.46911597251892 0.62711519002914 0
vt 0.19740077853203 0.62711572647095 0
vt 0.77131545543671 0.65264385938644 0
vt 0.8214989900589 0.61789751052856 0
vt 0.57029962539673 0.61789673566818 0
vt 0.0976514518261 0.68749195337296 0
vt 0.48313093185425 0.69496059417725 0
vt 0.48312592506409 0.77158057689667 0
vt 0.5565572977066 0.77939206361771 0
vt 0.55655944347382 0.68715679645538 0
vt 0.36186474561691 0.29913222789764 0
vt 0.03332869708538 0.29913222789764 0
vt 0.55449771881104 0.97601294517517 0
vt 0.55449771881104 0.90363126993179 0
vt 0.46910589933395 0.83936595916748 0
vt 0.08854727447033 0.4904682636261 0
vt 0.08854727447033 0.56200838088989 0
vt 0.18875581026077 0.60831880569458 0
vt 0.08715358376503 0.66745829582214 0
vt 0.08714784681797 0.79901099205017 0
vt 0.18874365091324 0.85816150903702 0
vt 0.42354083061218 0.69495505094528 0
vt 0.42353391647339 0.7715750336647 0
vt 0.63997113704681 0.86245447397232 0
vt 0.84098660945892 0.82770746946335 0
vt 0.58978772163391 0.82770812511444 0
vt 0.7989696264267 0.66040509939194 0
vt 0.84772109985352 0.6261385679245 0
vt 0.61231708526611 0.87021553516388 0
vt 0.56356573104858 0.83594912290573 0
vt 0.46911644935608 0.69492948055267 0
vt 0.46910613775253 0.77155160903931 0
vt 0.44859182834625 0.78984886407852 0
vt 0.54254591464996 0.68712067604065 0
vt 0.54253530502319 0.77935987710953 0
vt 0.55487143993378 0.66920906305313 0
vt 0.4799103140831 0.60945755243301 0
vt 0.47990024089813 0.85702341794968 0
vt 0.55486083030701 0.79727131128311 0
vt 0.0803941488266 0.67285400629044 0
vt 0.0803941488266 0.79361629486084 0
vt 0.00885403901339 0.67285400629044 0
vt 0.00885403901339 0.7936162352562 0
# 91 texture coordinates

o turret
usemtl tank_2j
f 39/3/3 41/2/2 15/1/1
f 15/1/1 17/5/5 39/3/3
f 29/7/7 37/6/6 15/1/1
f 12/10/9 28/9/9 33/8/8
f 33/8/8 2/11/8 12/10/9
f 38/12/11 28/9/9 12/10/9
f 12/10/9 11/13/11 38/12/11
f 3/16/14 30/15/13 35/14/12
f 35/14/12 10/17/15 3/16/14
f 3/16/17 4/19/18 7/18/17
f 7/18/17 30/15/17 3/16/17
f 7/22/19 4/21/19 8/20/19
f 8/20/19 45/23/19 7/22/19
f 18/26/21 5/25/21 24/24/21
f 24/24/21 22/27/21 18/26/21
f 27/30/22 20/29/23 21/28/22
f 21/28/22 26/31/24 27/30/22
f 25/34/26 19/33/27 9/32/26
f 9/32/26 23/35/28 25/34/26
f 9/38/29 19/37/29 21/36/29
f 21/36/29 20/39/29 9/38/29
f 8/42/31 4/41/31 3/40/31
f 3/40/32 10/44/32 13/43/32
f 13/43/33 11/46/33 12/45/33
f 3/40/34 13/43/34 12/45/34
f 8/42/36 3/40/36 12/45/36
f 2/47/37 8/42/37 12/45/37
f 31/49/39 43/48/38 17/5/5
f 17/5/5 34/50/40 31/49/39
f 17/53/42 43/52/42 39/51/42
f 34/50/40 17/5/5 36/54/43
f 36/54/43 17/5/5 15/1/1
f 15/1/1 37/6/6 36/54/43
f 46/57/47 40/56/46 42/55/45
f 42/55/45 44/58/48 46/57/47
f 5/25/49 19/33/50 25/34/49
f 25/34/49 24/24/50 5/25/49
f 21/28/52 18/26/53 22/27/52
f 22/27/52 26/31/53 21/28/52
f 9/59/54 20/29/54 27/30/54
f 27/30/55 23/60/55 9/59/55
f 45/62/57 8/61/57 2/11/57
f 2/11/58 33/8/58 45/62/58
f 30/15/59 31/49/60 34/50/59
f 34/50/59 35/14/60 30/15/59
f 28/9/62 29/7/63 32/63/62
f 32/63/62 33/8/63 28/9/62
f 1/65/64 13/64/64 10/17/15
f 10/17/15 35/14/12 1/65/64
f 1/67/66 35/66/66 34/50/66
f 34/50/67 36/54/67 1/67/67
f 38/68/68 37/6/68 29/7/68
f 29/7/69 28/69/69 38/68/69
f 40/56/46 16/71/71 6/70/71
f 6/70/71 42/55/45 40/56/46
f 14/74/8 15/73/8 41/72/8
f 43/52/72 42/76/72 6/75/72
f 6/75/74 39/51/74 43/52/74
f 14/74/75 41/72/75 16/77/75
f 16/77/76 40/78/76 14/74/76
f 42/79/38 43/48/38 31/49/39
f 32/63/38 14/81/38 40/80/38
f 29/7/7 15/1/1 14/81/78
f 14/81/79 32/63/79 29/7/79
f 42/79/80 31/49/80 44/82/80
f 46/83/82 32/63/82 40/80/82
f 6/70/71 16/71/71 41/2/2
f 41/2/2 39/3/3 6/70/71
f 30/85/83 7/84/83 44/82/83
f 44/82/84 31/49/84 30/85/84
f 45/87/85 33/86/85 32/63/85
f 32/63/86 46/83/86 45/87/86
f 46/57/19 44/58/19 7/22/19
f 7/22/87 45/23/87 46/57/87
f 5/25/29 18/26/29 21/36/29
f 21/36/29 19/37/29 5/25/29
f 38/89/29 1/88/29 36/54/29
f 36/54/29 37/6/29 38/89/29
f 38/89/29 11/91/29 13/90/29
f 13/90/29 1/88/29 38/89/29

v 48.72470855712891 78.86203002929688 80.87195587158203
v 64.01792144775391 78.86203002929688 80.87195587158203
v 48.72470855712891 78.86203002929688 66.79334259033203
v 64.01792144775391 78.86203002929688 66.79334259033203
v 48.72470855712891 71.04422760009766 80.87195587158203
v 64.01792144775391 71.04422760009766 80.87195587158203
v 48.72470855712891 71.04422760009766 66.79334259033203
v 64.01792144775391 71.04422760009766 66.79334259033203
# 8 vertices

vn 0 0 1
vn 0 0 -1
vn 0 -1 0
vn -0.71405273675919 0 0.70009195804596
vn -0.71405273675919 0 -0.70009195804596
vn 1 0 0
# 6 normals

vt 1 1 0
vt 0 0 0
vt 1 0 0
# 3 texture coordinates

o fmnt
usemtl Material #15
f 49/4/38 47/93/38 50/92/38
f 48/94/38 50/92/38 47/93/38
f 52/93/91 51/94/33 54/4/33
f 53/92/33 54/4/33 51/94/33
f 48/94/19 47/93/19 52/92/19
f 51/4/19 52/92/19 47/93/19
f 50/94/94 48/93/94 54/92/94
f 52/4/8 54/92/8 48/93/8
f 49/94/29 50/93/29 53/92/29
f 54/4/29 53/92/29 50/93/29
f 47/94/14 49/93/14 51/92/14
f 53/4/42 51/92/42 49/93/42

v -7.64666748046875 44.77779006958008 -274.6734619140625
v 7.64666748046875 44.77779006958008 -274.6734619140625
v -7.64666748046875 44.77779006958008 -288.7520751953125
v 7.64666748046875 44.77779006958008 -288.7520751953125
v -7.64666748046875 36.95998764038086 -274.6734619140625
v 7.64666748046875 36.95998764038086 -274.6734619140625
v -7.64666748046875 36.95998764038086 -288.7520751953125
v 7.64666748046875 36.95998764038086 -288.7520751953125
# 8 vertices

vn 0 1 0
vn 0 1 0
vn 0 1 0
vn 0 1 0
vn 0 1 0
vn 0 0 0
vn 0 0 0
vn 0 0 0
# 8 normals

# 0 texture coordinate

o muzzle01
usemtl Material #15
f 57/4/38 55/93/38 58/92/38
f 56/94/38 58/92/38 55/93/38
f 60/93/91 59/94/33 62/4/33
f 61/92/33 62/4/33 59/94/33
f 56/94/19 55/93/19 60/92/19
f 59/4/19 60/92/19 55/93/19
f 58/94/94 56/93/94 62/92/94
f 60/4/8 62/92/8 56/93/8
f 57/94/29 58/93/29 61/92/29
f 62/4/29 61/92/29 58/93/29
f 55/94/14 57/93/14 59/92/14
f 61/4/42 59/92/42 57/93/42

