v -24.0374755859375 19.76046371459961 -222.71923828125
v -25.07275390625 56.44462966918945 -68.779052734375
v -106.546142578125 -0.04164358973503 -33.03271484375
v -65.971435546875 -0.00178188830614 33.7421875
v -106.6400146484375 -0.11679576337337 7.656005859375
v -16.3824462890625 24.8428840637207 -274.21533203125
v -26.4893798828125 93.86359405517578 87.735107421875
v 0 105.18778228759766 87.734619140625
v 16.2509765625 44.9212646484375 -233.1533203125
v 65.971435546875 -0.00182618550025 33.7421875
v 106.819580078125 22.98172187805176 7.41162109375
v 65.9984130859375 25.27788352966309 131.86669921875
v 66.0279541015625 43.51052093505859 33.448486328125
v 42.1434326171875 71.85966491699219 -16.01220703125
v 26.489501953125 93.86358642578125 87.735107421875
v -16.4610595703125 44.89009094238281 -274.21533203125
v 0 51.23216247558594 -274.21484375
v -24.3724365234375 56.62301254272461 -222.369873046875
v 0 0.54780054092407 -218.88623046875
v 0 -0.07422837615013 -68.73193359375
v -106.819580078125 22.98178291320801 7.41162109375
v -65.9984130859375 25.27793502807617 131.86669921875
v -65.8902587890625 43.872802734375 131.868408203125
v -24.5079345703125 20.17195129394531 -65.5302734375
v -66.0279541015625 43.51055526733398 33.448486328125
v -26.4337158203125 93.82817840576172 -16.01220703125
v -42.1434326171875 71.85969543457031 -16.01220703125
v 0 18.10471343994141 -274.2177734375
v -45.3011474609375 53.46224594116211 131.8701171875
v 106.546142578125 -0.04171272739768 -33.03271484375
v 65.8902587890625 43.87276458740234 131.868408203125
v 25.0726318359375 56.44429397583008 -68.779052734375
v 0 51.17972946166992 -234.10498046875
v 24.5079345703125 20.17193794250488 -65.5302734375
v 45.232421875 53.27040863037109 -16.01220703125
v 24.7015380859375 53.27411651611328 -16.01220703125
v 42.2449951171875 71.90673828125 87.73046875
v 45.3011474609375 53.46221923828125 131.8701171875
v 106.6400146484375 -0.11686493456364 7.656005859375
v 16.4759521484375 24.85084342956543 -232.782470703125
v 0 18.07759475708008 -236.622802734375
v 0 105.13938903808594 -16.01220703125
v -16.255126953125 44.91907119750977 -233.150146484375
v -16.4677734375 24.85287284851074 -232.792724609375
v -106.667236328125 22.57084274291992 -38.546875
v -45.232421875 53.27044296264648 -16.01220703125
v -24.7015380859375 53.27412033081055 -16.01220703125
v 24.3768310546875 56.62112808227539 -222.36669921875
v 106.667236328125 22.57078170776367 -38.546875
v 16.385498046875 24.83787155151367 -274.2138671875
v 16.461181640625 44.89005279541016 -274.21533203125
v 26.4337158203125 93.82817077636719 -16.01220703125
v 0 69.57711029052734 -66.48388671875
v 0 69.37064361572266 -221.404296875
v -42.2449951171875 71.90675354003906 87.73046875
v 24.02783203125 19.76497077941895 -222.730224609375
# 56 vertices

vt 0.4061171412468 0.33993911743164 0
vt 0.60424113273621 0.21238851547241 0
vt 0.40611636638641 0.08483922481537 0
vt 0 1 0
vt 0.62664461135864 0.31381928920746 0
vt 0.62664461135864 0.60412949323654 0
vt 0.6869068145752 0.6115186214447 0
vt 0.68810629844666 0.30762910842896 0
vt 0.75959312915802 0.61087089776993 0
vt 0.75823640823364 0.31391072273254 0
vt 0.45655119419098 0.00621008872986 0
vt 0.53521943092346 0.00639128684998 0
vt 0.05096364021301 0.75573700666428 0
vt 0.00630448944867 0.75526452064514 0
vt 0.00644980184734 0.83393275737762 0
vt 0.05016897618771 0.84459358453751 0
vt 0.21021738648415 0.08478784561157 0
vt 0.17426589131355 0.08499693870544 0
vt 0.1557252407074 0.12480401992798 0
vt 0.21710869669914 0.5285958647728 0
vt 0.31067180633545 0.56828689575195 0
vt 0.31107014417648 0.48415958881378 0
vt 0.21765595674515 0.48393678665161 0
vt 0.10304720699787 0.51394039392471 0
vt 0.0541710332036 0.7036554813385 0
vt 0.13844951987267 0.70422321557999 0
vt 0.1389986872673 0.51393693685532 0
vt 0.18255645036697 0.79985511302948 0
vt 0.76914167404175 0.76395374536514 0
vt 0.76899409294128 0.84402072429657 0
vt 0.80752003192902 0.84399580955505 0
vt 0.80792081356049 0.76460635662079 0
vt 0.75886714458466 0.26728856563568 0
vt 0.75755703449249 0.14047729969025 0
vt 0.69362211227417 0.18599021434784 0
vt 0.69569182395935 0.30184817314148 0
vt 0.1986957192421 0.9214341044426 0
vt 0.22145628929138 0.80775797367096 0
vt 0.02782107144594 0.88364827632904 0
vt 0.22347137331963 0.97800225019455 0
vt 0.73475217819214 0.7713388800621 0
vt 0.73476266860962 0.84402549266815 0
vt 0.2713674902916 0.79981404542923 0
vt 0.32703071832657 0.79958933591843 0
vt 0.32699382305145 0.59926587343216 0
vt 0.27129524946213 0.5992648601532 0
vt 0.67199718952179 0.15270340442657 0
vt 0.70539236068726 0.13813710212708 0
vt 0.81292915344238 0.24965786933899 0
vt 0.81189382076263 0.12883520126343 0
vt 0.1828995347023 0.51393377780914 0
vt 0.81306302547455 0.60950815677643 0
vt 0.81292915344238 0.30947303771973 0
vt 0.2190460562706 0.59927356243134 0
vt 0.21908792853355 0.79984486103058 0
vt 0.80980086326599 0.85625702142715 0
vt 0.8099524974823 0.89501649141312 0
vt 0.84161472320557 0.90804415941238 0
vt 0.84162640571594 0.84399521350861 0
vt 0.89120268821716 0.6365515589714 0
vt 0.92999851703644 0.63537991046906 0
vt 0.93972599506378 0.61129999160767 0
vt 0.8662645816803 0.61087071895599 0
vt 0.93774938583374 0.30762887001038 0
vt 0.86762189865112 0.31391060352325 0
vt 0.45655244588852 0.41856825351715 0
vt 0.53522050380707 0.4183863401413 0
vt 0.60382699966431 0.75456303358078 0
vt 0.60462164878845 0.8434197306633 0
vt 0.64834070205688 0.83275878429413 0
vt 0.64848577976227 0.75409054756165 0
vt 0.17426499724388 0.33978247642517 0
vt 0.2102165222168 0.33999192714691 0
vt 0.15572479367256 0.29997515678406 0
vt 0.55093967914581 0.51394039392471 0
vt 0.5149884223938 0.51393693685532 0
vt 0.51553773880005 0.70422333478928 0
vt 0.59981596469879 0.70365536212921 0
vt 0.87568056583405 0.84399580955505 0
vt 0.91423964500427 0.84391623735428 0
vt 0.91409206390381 0.76384925842285 0
vt 0.87528002262115 0.76460629701614 0
vt 0.86492025852203 0.2672883272171 0
vt 0.92669427394867 0.30240643024445 0
vt 0.92918455600739 0.18726933002472 0
vt 0.8662303686142 0.14047718048096 0
vt 0.84160041809082 0.766446352005 0
vt 0.95156311988831 0.15419447422028 0
vt 0.91842794418335 0.13904774188995 0
vt 0.87345218658447 0.85625714063644 0
vt 0.87331211566925 0.89503580331802 0
vt 0.82918548583984 0.64918524026871 0
vt 0.86266565322876 0.64516931772232 0
vt 0.94561994075775 0.63684511184692 0
vt 0.97904002666473 0.6479212641716 0
vt 0.99921035766602 0.60412925481796 0
vt 0.06323465704918 0.29406642913818 0
vt 0.06323510408401 0.13071238994598 0
vt 0.02078339457512 0.16117417812347 0
vt 0.02078304067254 0.26360416412354 0
vt 0.00049305788707 0.21238899230957 0
vt 0.471431016922 0.79985517263412 0
vt 0.45589870214462 0.92077022790909 0
vt 0.43232107162476 0.8080450296402 0
vt 0.38268440961838 0.79981422424316 0
vt 0.38269245624542 0.59926497936249 0
vt 0.47108799219131 0.51393377780914 0
vt 0.43499803543091 0.79984480142593 0
vt 0.43494141101837 0.59927368164062 0
vt 0.43728131055832 0.52907007932663 0
vt 0.43673419952393 0.48441100120544 0
vt 0.34332001209259 0.4846339225769 0
vt 0.34371834993362 0.56876116991043 0
vt 0.43112307786942 0.97733849287033 0
vt 0.62677335739136 0.88298493623734 0
vt 0.99921035766602 0.31381916999817 0
vt 0.94847083091736 0.84392112493515 0
vt 0.94848144054413 0.77123445272446 0
vt 0.6963142156601 0.63599222898483 0
vt 0.73509836196899 0.63750284910202 0
vt 0.79733538627625 0.64853191375732 0
vt 0.76379108428955 0.64510130882263 0
vt 0.6468141078949 0.6479218006134 0
vt 0.68023467063904 0.63684529066086 0
# 124 texture coordinates

o turret
usemtl tank_2j
f 4/3 20/2 10/1
f 1/7 19/6 20/5
f 20/5 24/8 1/7
f 18/9 1/7 24/8
f 24/8 2/10 18/9
f 3/12 4/3 5/11
f 3/15 5/14 21/13
f 21/13 45/16 3/15
f 29/19 23/18 22/17
f 4/22 25/21 21/20
f 21/20 5/23 4/22
f 25/26 4/25 22/24
f 22/24 23/27 25/26
f 21/13 25/26 46/28
f 46/28 45/16 21/13
f 16/31 6/30 44/29
f 44/29 43/32 16/31
f 47/35 26/34 2/33
f 2/33 24/36 47/35
f 45/16 46/28 24/37
f 46/28 47/38 24/37
f 3/39 45/16 24/37
f 24/37 20/40 3/39
f 28/42 41/41 44/29
f 44/29 6/30 28/42
f 20/2 4/3 3/12
f 8/45 42/44 26/43
f 26/43 7/46 8/45
f 26/34 47/35 46/47
f 46/47 27/48 26/34
f 53/49 2/33 26/34
f 26/34 42/50 53/49
f 25/26 23/27 29/51
f 29/51 46/28 25/26
f 54/52 18/9 2/10
f 2/10 53/53 54/52
f 55/54 7/46 26/43
f 26/43 27/55 55/54
f 28/58 6/57 16/56
f 16/56 17/59 28/58
f 55/54 27/55 46/28
f 46/28 29/51 55/54
f 56/62 40/61 9/60
f 9/60 48/63 56/62
f 48/63 32/65 34/64
f 34/64 56/62 48/63
f 30/67 39/66 10/1
f 30/70 49/69 11/68
f 11/68 39/71 30/70
f 38/74 12/73 31/72
f 13/77 31/76 12/75
f 12/75 10/78 13/77
f 40/81 50/80 51/79
f 51/79 9/82 40/81
f 36/85 34/84 32/83
f 32/83 52/86 36/85
f 17/59 33/87 9/82
f 9/82 51/79 17/59
f 20/2 30/67 10/1
f 35/88 36/85 52/86
f 52/86 14/89 35/88
f 28/58 17/59 51/90
f 51/90 50/91 28/58
f 48/63 9/93 33/92
f 33/92 54/52 48/63
f 41/95 40/94 56/62
f 56/62 19/96 41/95
f 7/99 55/98 37/97
f 37/97 15/100 7/99
f 7/99 15/100 8/101
f 55/98 29/19 38/74
f 38/74 37/97 55/98
f 12/73 38/74 29/19
f 29/19 22/17 12/73
f 10/1 12/73 22/17
f 22/17 4/3 10/1
f 35/102 13/77 11/68
f 11/68 49/69 35/102
f 49/69 34/103 35/102
f 35/102 34/103 36/104
f 8/45 15/106 52/105
f 52/105 42/44 8/45
f 13/77 35/102 38/107
f 38/107 31/76 13/77
f 37/109 14/108 52/105
f 52/105 15/106 37/109
f 35/102 14/108 37/109
f 37/109 38/107 35/102
f 10/112 39/111 11/110
f 11/110 13/113 10/112
f 30/115 20/114 34/103
f 34/103 49/69 30/115
f 56/62 34/64 20/116
f 20/116 19/96 56/62
f 54/52 53/53 32/65
f 32/65 48/63 54/52
f 40/81 41/118 28/117
f 28/117 50/80 40/81
f 43/32 33/87 17/59
f 17/59 16/31 43/32
f 53/49 42/50 52/86
f 52/86 32/83 53/49
f 43/120 44/119 1/7
f 1/7 18/9 43/120
f 18/9 54/52 33/121
f 33/121 43/122 18/9
f 41/123 19/6 1/7
f 1/7 44/124 41/123

v 7.15402555465698 41.03841400146484 -267.6080322265625
v 7.15402555465698 41.03841781616211 -280.5802001953125
v -7.15407991409302 41.03841781616211 -267.6080322265625
v -7.15407991409302 41.03842163085938 -280.5802001953125
v 7.15402555465698 29.75480842590332 -267.6080322265625
v 7.15402555465698 29.75480842590332 -280.5802001953125
v -7.15407991409302 29.75481033325195 -267.6080322265625
v -7.15407991409302 29.75481224060059 -280.5802001953125
# 8 vertices

vn 0.00000026661093 1 0.00000029406783
vn 0.69922178983688 0 -0.71490484476089
vn 0.69922178983688 0 -0.71490478515625
vn -0.00000019995819 -1 -0.00000007351696
vn -0.00000013330546 -1 -0.00000014703392
vn -0.69922178983688 0 -0.71490484476089
vn -0.00000026661093 -1 0
vn -0.69922173023224 0 -0.71490484476089
vn 1 0 0
vn 1 0 0
vn 0 0 -1
vn 0 0 -1
vn -1 0 0
vn 0 0 1
vn -0.69922178983688 0 0.71490484476089
# 15 normals

vt 1 1 0
vt 1 0 0
vt 0 0 0
# 3 texture coordinates

o muzzle01
usemtl Default
f 57/127/1 58/126/1 60/125/1
f 60/125/1 59/4/1 57/127/1
f 61/126/4 63/125/5 64/4/4
f 64/4/4 62/127/7 61/126/4
f 57/127/9 61/4/9 62/125/9
f 62/125/10 58/126/10 57/127/10
f 58/127/11 62/4/11 64/125/11
f 64/125/12 60/126/12 58/127/12
f 60/127/13 64/4/13 63/125/13
f 63/125/13 59/126/13 60/127/13
f 59/127/14 63/4/14 61/125/14
f 61/125/14 57/126/14 59/127/14

v 61.17117309570312 55.69880676269531 123.90924835205078
v 61.17117309570312 55.69880676269531 101.83600616455078
v 40.85110473632812 55.69880676269531 123.90924835205078
v 40.85110473632812 55.69881057739258 101.83600616455078
v 61.17117309570312 44.41519546508789 123.90924835205078
v 61.17117309570312 44.41519546508789 101.83600616455078
v 40.85110473632812 44.41519927978516 123.90924835205078
v 40.85110473632812 44.41520309448242 101.83600616455078
# 8 vertices

vn 0.00000009386527 1 0.00000008640999
vn 0.00000018773054 1 0
vn 0 0 0
vn 0 1 0.00000017281998
vn 0 1 0
vn -0.00000028159582 -1 -0.00000008640999
vn -0.00000018773054 -1 -0.00000017281998
vn -0.00000037546107 -1 0
vn 0 1 0
# 9 normals

# 0 texture coordinate

o fmnt
usemtl Материал
f 65/127/16 66/126/17 68/125/16
f 68/125/16 67/4/19 65/127/16
f 69/126/21 71/125/22 72/4/21
f 72/4/21 70/127/23 69/126/21
f 65/127/9 69/4/9 70/125/9
f 70/125/10 66/126/10 65/127/10
f 66/127/11 70/4/11 72/125/11
f 72/125/12 68/126/12 66/127/12
f 68/127/13 72/4/13 71/125/13
f 71/125/13 67/126/13 68/127/13
f 67/127/14 71/4/14 69/125/14
f 69/125/14 65/126/14 67/127/14

