v -49.49998474121094 82.49995422363281 66
v 49.49996185302734 82.49995422363281 66
v 49.49996185302734 82.49995422363281 -49.5
v 82.50003051757812 16.49995231628418 115.5
v 66 0 99.000244140625
v -82.50010681152344 49.49996948242188 115.5
v -82.5001220703125 16.49996948242188 115.5
v -66.00007629394531 0.00001328463986 99.000244140625
v -66.00007629394531 -0.00000281597522 -82.5
v 115.49996185302734 49.5 82.5
v -115.5 49.5 -65.999755859375
v -115.5 49.5000114440918 82.5
v 22.91517639160156 82.49995422363281 -49.5
v 73.00379180908203 16.55184936523438 -247.5
v -73.0037841796875 16.55184936523438 -247.5
v -44.50588989257812 33.01038360595703 -99
v 82.51779174804688 32.99167633056641 -99
v 73.01309204101562 16.52033615112305 -99
v 73.01022338867188 49.46751403808594 -99
v -54.01153564453125 49.44863891601562 148.5
v -82.50045776367188 33.00054931640625 148.5
v -73.00416564941406 49.44863128662109 148.5
v 73.00379943847656 49.44806671142578 148.5
v 54.01118469238281 49.44806289672852 148.5
v -73.004150390625 16.55245208740234 115.5
v -53.99028015136719 16.53734588623047 115.5
v -54.01153564453125 49.44867324829102 115.5
v -82.52577209472656 33.00861358642578 115.5
v -73.02621459960938 49.46231842041016 115.5
v 44.51481628417969 32.99999237060547 115.5
v 82.50006866455078 32.99997329711914 115.5
v 73.0032958984375 16.51293563842773 115.5
v 73.01136779785156 49.48698425292969 115.5
v 54.01104736328125 49.48698425292969 115.5
v 82.50003051757812 49.49995422363281 115.5
v 82.50003051757812 16.49995613098145 -99
v 115.49996185302734 16.5 -65.999755859375
v 115.49996185302734 16.5 82.5
v -82.5001220703125 16.49995231628418 -99
v -115.5 16.50001335144043 82.5
v -115.5 16.49999809265137 -65.999755859375
v 82.50003051757812 49.49995422363281 -99
v -22.915283203125 49.49996185302734 -99
v -22.91519165039062 82.49995422363281 -49.5
v -82.50010681152344 49.49995422363281 -99
v 73.0037841796875 49.44803619384766 -247.5
v 53.99095916748047 49.47438049316406 -99
v 54.01116943359375 49.44803619384766 -247.5
v 54.01116943359375 16.55184936523438 -247.5
v 82.50009918212891 32.99993896484375 -247.5
v -53.99801635742188 49.46553802490234 -99
v -82.50009155273438 32.99993896484375 -247.5
v -73.0037841796875 49.44803619384766 -247.5
v -44.51484680175781 32.99993896484375 -247.5
v -54.01115417480469 49.44803619384766 -247.5
v -44.4945068359375 32.98450469970703 115.5
v -44.51522827148438 33.00054931640625 148.5
v -54.01153564453125 16.55245208740234 148.5
v -73.004150390625 16.55245208740234 148.5
v 54.01118469238281 16.55187606811523 148.5
v 54.01571655273438 16.51293563842773 115.5
v 44.51486968994141 32.99996948242188 148.5
v 82.50011444091797 32.99996948242188 148.5
v -49.49998474121094 82.49995422363281 -49.5
v 66 0 -82.5
v 115.49996185302734 49.5 -65.999755859375
v -9.95326232910156 73.19004821777344 -99
v 44.51485443115234 32.99993896484375 -247.5
v -54.01116943359375 16.55184936523438 -247.5
v 54.01448059082031 16.53241729736328 -99
v 44.50298309326172 33.01182174682617 -99
v -73.00776672363281 49.46102905273438 -99
v 73.00380706787109 16.55187606811523 148.5
v 22.91514587402344 49.49996566772461 -99
v 9.95317077636719 73.19004821777344 -99
v -54.01345825195312 16.53887939453125 -99
v -73.00848388671875 16.52895355224609 -99
v -82.51171875 32.99413299560547 -99
# 78 vertices

vn -0.15869623422623 0.96750712394714 -0.19683867692947
vn 0 0.98135322332382 -0.19221293926239
vn -0.11978639662266 0.96822738647461 0.21951515972614
vn 0 0.68821847438812 -0.72550350427628
vn -0.835533618927 0.45716187357903 -0.30477294325829
vn 0.57735025882721 0.57735025882721 -0.57735025882721
vn 0.11824426054955 0.86079162359238 0.49503135681152
vn -0.17779070138931 0.8693773150444 0.46105700731277
vn 0.16738490760326 0.9674089550972 0.19000564515591
vn -0.57735025882721 -0.57735025882721 0.57735025882721
vn 0.14032536745071 -0.7667453289032 0.62642669677734
vn 0.21132600307465 -0.78867298364639 0.57735282182693
vn -0.14032553136349 -0.7667453289032 0.62642669677734
vn -0.21132619678974 -0.78867298364639 0.57735276222229
vn 1 0 0
vn 0.14032520353794 -0.7667493224144 -0.62642180919647
vn 0.21132571995258 -0.78867638111114 -0.57734823226929
vn -0.14032527804375 -0.76674938201904 -0.62642168998718
vn -0.21132585406303 -0.78867650032043 -0.57734799385071
vn 1 0 0
vn 1 0 0
vn 0.70710754394531 0 0.70710605382919
vn 0.70710754394531 0 0.70710605382919
vn 0.99998533725739 0.00383124081418 -0.00383124081418
vn 0.70711010694504 0 -0.70710343122482
vn 0 1 0
vn 0.34815627336502 0.87038832902908 -0.34815418720245
vn 0.34815481305122 0.87038850784302 0.3481553196907
vn 0.44721308350563 0.8944274187088 0
vn 0 0.99999505281448 -0.00313903833739
vn 0.11912398785353 0.94788348674774 -0.29551038146019
vn 0.44721308350563 0.8944274187088 0
vn 0.40824979543686 -0.8164975643158 -0.40824484825134
vn 0.57735097408295 0.57734990119934 -0.57734990119934
vn 0.40825027227402 -0.81649565696716 0.40824821591377
vn 0.3162280023098 -0.94868320226669 0
vn 0.16018237173557 -0.98708742856979 0
vn 0.10663232207298 -0.99429851770401 0.00000002991258
vn 0.3162280023098 -0.94868320226669 0
vn 0 0 -1
vn -1 0 0
vn -0.70710808038712 0 0.70710545778275
vn -0.70710796117783 0.00000031705008 0.70710563659668
vn -0.70711064338684 0.00000015852449 -0.70710289478302
vn -0.70711070299149 0.00000031704897 -0.70710283517838
vn -0.57734870910645 -0.57735103368759 0.57735103368759
vn -0.70711052417755 0 -0.70710301399231
vn -0.34815636277199 0.87038844823837 -0.34815388917923
vn 1 0 0
vn -0.3481547832489 0.87038868665695 0.3481547832489
vn 0.5773503780365 0.57735019922256 -0.57735019922256
vn -0.44721299409866 0.89442747831345 0
vn 0 0 -1
vn -0.44721287488937 0.89442753791809 -0.00000006684003
vn 1 0 0
vn -0.40825048089027 -0.81649565696716 0.40824791789055
vn -0.31622824072838 -0.94868314266205 0.00000008378434
vn -0.16018252074718 -0.98708742856979 0.00000008737466
vn -0.10663246363401 -0.99429851770401 0.00000005816474
vn 0 1 0
vn -0.31622815132141 -0.94868314266205 0.00000010240339
vn 1 0 0
vn -0.40825003385544 -0.81649768352509 -0.40824437141418
vn 0 0 -1
vn 0 0.98968511819839 -0.14325970411301
vn 0.00000007990332 0.83205038309097 -0.55470007658005
vn 0.00000015980665 0.83205038309097 -0.55470007658005
vn 0 0 0
vn -0.00000010330945 0.83205032348633 -0.55470013618469
vn 0 0.83205038309097 -0.55470007658005
vn 0 0 -1
vn 0.00390619039536 0.99998474121094 -0.00390648888424
vn 1 0 0
vn 0 0.98276895284653 -0.18483811616898
vn 0 0.98276895284653 -0.18483813107014
vn 0.83553397655487 0.45716056227684 -0.30477410554886
vn 0.00000005678275 0 -1
vn 0 1 0
vn 1 0 0
vn 0 0 1
vn 0 0 1
vn 0 0.74660110473633 -0.66527199745178
vn 0 0 -1
vn 0.00383154093288 0.00383154093288 -0.99998533725739
vn 0 1 0
vn 0 0 -1
vn 0 0 -1
vn 0.00018051314692 1 -0.00015425874153
vn 0 1 -0.00013116393529
vn 0 1 0
vn 0.00036102629383 0.99999994039536 -0.00017735353322
vn -0.86602532863617 0.50000005960464 -0.00020656458219
vn 0 1 0
vn -0.8664054274559 0.49934124946594 -0.00010922054207
vn -0.86609119176865 -0.49988603591919 -0.00004610213
vn -0.57734972238541 -0.57735055685043 0.57735055685043
vn -0.86602526903152 -0.50000023841858 -0.00002922018211
vn 0 0.76446139812469 -0.64466953277588
vn -0.00063589611091 -0.99999976158142 -0.00021217032918
vn 0 -1 -0.00013085568207
vn 1 0 0
vn 0.86602544784546 -0.49999994039536 -0.00016034583678
vn 0.86613994836807 -0.49980148673058 -0.00013100651267
vn 1 0 0
vn 0.86607956886292 0.49990618228912 -0.00008923822315
vn 0.86613374948502 0.49981227517128 -0.00010311860387
vn 0 0 -1
vn 0.86602532863617 0.50000005960464 -0.00007535784971
vn -0.0001185962974 1 -0.00010266523168
vn -0.00023719258024 0.99999994039536 -0.00011783646187
vn 0 1 -0.00008749398694
vn 0.86621361970901 0.49967381358147 -0.00008739064651
vn 0.8660255074501 0.49999979138374 -0.0001355461136
vn 0.86607682704926 -0.49991092085838 -0.00003031338565
vn 0.86602509021759 -0.5000005364418 -0.00001706789044
vn 0 -1 -0.0000873398676
vn 0.00052254943876 -0.99999988079071 -0.00015416397946
vn 1 0 0
vn -0.86602544784546 -0.49999994039536 -0.00010449811816
vn -0.86609238386154 -0.49988400936127 -0.00008735716256
vn -0.866062104702 0.49993646144867 -0.00005761119246
vn -0.8660985827446 0.49987319111824 -0.00006696334458
vn -0.8660255074501 0.49999976158142 -0.0000482590367
vn 0 1 0
vn 0.86589521169662 0.50022542476654 0.00015041015286
vn 0.86602544784546 0.49999991059303 0.00000051125852
vn 1 0.00000001401047 -0.00000001401047
vn 0.8657648563385 0.50045090913773 0.00030030900962
vn 0.86602520942688 -0.49999976158142 0.00078680011211
vn 0.86602526903152 -0.49999958276749 0.00078689941438
vn 0.86602509021759 -0.49999994039536 0.00078670075163
vn 0 -0.99999988079071 0.00045776364277
vn -0.00079448299948 -0.99999970197678 0
vn -0.86579018831253 -0.50040715932846 0.00027079635765
vn -0.86602556705475 -0.49999976158142 0
vn -0.86555457115173 -0.50081431865692 0.0005415926571
vn -0.86602520942688 0.49999976158142 0.0007862545317
vn -0.86602538824081 0.49999934434891 0.00078651087824
vn -0.8660249710083 0.50000011920929 0.00078599818517
vn 0.00035860540811 0.99999994039536 0.0002079011465
vn -0.00000040170286 0.99999994039536 0.00041476186016
vn 0.00071761239087 0.99999976158142 0.00000104037599
vn 0 0 -1
vn -0.86622899770737 -0.49964720010757 0.0002356209443
vn -0.86643248796463 -0.49929404258728 0.00047018704936
vn -0.86602532863617 -0.50000011920929 0.0000010547468
vn 1 0 0
vn 0 -0.99999928474426 0.00118001224473
vn 0 0 0
vn 0 -0.99999928474426 0.00118001212832
vn 0.62737411260605 0 -0.77871799468994
vn 0.86627590656281 -0.49956575036049 0.00028766592732
vn 0.86652618646622 -0.49913161993027 -0.00000125971076
vn 0.64322310686111 0 -0.76567882299423
vn 0.86602538824081 -0.4999997317791 0.00057659146842
vn 0.86636745929718 0.49940690398216 0.00039294586168
vn 0.86670905351639 0.49881342053413 0.00078703503823
vn 0.75002992153168 0 0.66140389442444
vn 0.86602532863617 0.50000011920929 -0.00000114351963
vn 0.78822934627533 0 -0.61538153886795
vn -0.00000010042573 0.99999928474426 0.00117937650066
vn 0 0.99999928474426 0.00117943435907
vn 0.7308121919632 0 0.68257856369019
vn -0.00000020085146 0.99999928474426 0.00117931864224
vn 0.77065616846085 0 -0.63725119829178
vn -0.8662816286087 0.49955579638481 0.00029753512354
vn -0.86653786897659 0.4991112947464 0.00000174854142
vn -0.86602514982224 0.50000005960464 0.00059332151432
vn 0 0 0
vn 0.00253944261931 0 0.99999678134918
vn 0 0 0
vn 1 0 0
# 172 normals

vt 0.4104722738266 0.85087710618973 0
vt 0.41201078891754 0.80109512805939 0
vt 0.18727526068687 0.85309588909149 0
vt 0 1 0
vt 0.38835316896439 0.03089606761932 0
vt 0.40309995412827 0.08043086528778 0
vt 0.49949723482132 0.0556184053421 0
vt 0.07634687423706 0.59427267313004 0
vt 0.07634657621384 0.92229604721069 0
vt 0.18727546930313 0.66347336769104 0
vt 0.98813581466675 0.07970654964447 0
vt 0.94648957252502 0.11551177501678 0
vt 0.94648957252502 0.37423610687256 0
vt 0.98813581466675 0.41004145145416 0
vt 0.59047222137451 0.11551177501678 0
vt 0.5488258600235 0.07970654964447 0
vt 0.5488258600235 0.41004145145416 0
vt 0.59047222137451 0.37423610687256 0
vt 0.1101126074791 0.41358256340027 0
vt 0.40211260318756 0.41358256340027 0
vt 0.40211260318756 0.34869360923767 0
vt 0.1101126074791 0.34869360923767 0
vt 0.01834582909942 0.34869349002838 0
vt 0.01834582909942 0.41358244419098 0
vt 0.49387949705124 0.41358256340027 0
vt 0.49387949705124 0.34869360923767 0
vt 0.52113366127014 0.59248501062393 0
vt 0.44876849651337 0.52364534139633 0
vt 0.41047245264053 0.66569310426712 0
vt 0.1482969224453 0.52274590730667 0
vt 0.61908912658691 0.01247727870941 0
vt 0.91787278652191 0.01247727870941 0
vt 0.11011196672916 0.42828583717346 0
vt 0.11011196672916 0.49317479133606 0
vt 0.40211200714111 0.49317455291748 0
vt 0.40211200714111 0.42828559875488 0
vt 0.01834525167942 0.49317491054535 0
vt 0.01834519207478 0.42828595638275 0
vt 0.4938787817955 0.49317443370819 0
vt 0.4938787817955 0.42828547954559 0
vt 0.44876784086227 0.99292504787445 0
vt 0.52113330364227 0.92408561706543 0
vt 0.14829614758492 0.99382317066193 0
vt 0.91787278652191 0.47727060317993 0
vt 0.61908900737762 0.47727060317993 0
vt 0.41201084852219 0.71547496318817 0
vt 0.52527844905853 0.71169167757034 0
vt 0.52527844905853 0.80487895011902 0
vt 0.3577601313591 0.05562305450439 0
vt 0.3577601313591 0.14333748817444 0
vt 0.40310102701187 0.11852967739105 0
vt 0.49950128793716 0.14333271980286 0
vt 0.38835966587067 0.16806626319885 0
vt 0.01157319545746 0.59635019302368 0
vt 0.01157319545746 0.92021822929382 0
vt 0.58886766433716 0.92131555080414 0
vt 0.92189490795136 0.90809679031372 0
vt 0.95433628559113 0.92681604623795 0
vt 0.98677694797516 0.90808641910553 0
vt 0.92189598083496 0.87061637639999 0
vt 0.95433628559113 0.85189747810364 0
vt 0.98677694797516 0.87062710523605 0
vt 0.62900829315186 0.87061643600464 0
vt 0.62900650501251 0.90808683633804 0
vt 0.9218909740448 0.94557482004166 0
vt 0.62900328636169 0.94554442167282 0
vt 0.62900400161743 0.98307460546494 0
vt 0.92189180850983 0.98303180932999 0
vt 0.62901997566223 0.75813788175583 0
vt 0.62900876998901 0.79560899734497 0
vt 0.92189657688141 0.7956782579422 0
vt 0.92190766334534 0.75821894407272 0
vt 0.92189383506775 0.83313673734665 0
vt 0.62900590896606 0.83311784267426 0
vt 0.64287996292114 0.59071201086044 0
vt 0.6104394197464 0.60944157838821 0
vt 0.6104394197464 0.6469007730484 0
vt 0.67532026767731 0.60943454504013 0
vt 0.67532110214233 0.64690780639648 0
vt 0.64287996292114 0.66563034057617 0
vt 0.96820759773254 0.64689999818802 0
vt 0.96820640563965 0.60943466424942 0
vt 0.67532360553741 0.6843798160553 0
vt 0.96820998191834 0.68435460329056 0
vt 0.67532324790955 0.72183781862259 0
vt 0.96820962429047 0.7218661904335 0
vt 0.96819865703583 0.49698901176453 0
vt 0.67531228065491 0.49704432487488 0
vt 0.67531991004944 0.53450345993042 0
vt 0.96820628643036 0.53445279598236 0
vt 0.67532181739807 0.57196193933487 0
vt 0.96820819377899 0.57194876670837 0
vt 0.32261604070663 0.26614916324615 0
vt 0.36066716909409 0.2661474943161 0
vt 0.36066466569901 0.20003271102905 0
vt 0.32256442308426 0.20003461837769 0
vt 0.28456491231918 0.2661749124527 0
vt 0.28451532125473 0.20006024837494 0
vt 0.47485715150833 0.26617383956909 0
vt 0.51291644573212 0.26617383956909 0
vt 0.51295900344849 0.20005917549133 0
vt 0.47487336397171 0.20005917549133 0
vt 0.4367898106575 0.26615524291992 0
vt 0.43679922819138 0.20004057884216 0
vt 0.39872235059738 0.26614689826965 0
vt 0.3987517952919 0.20003247261047 0
vt 0.34164494276047 0.29910182952881 0
vt 0.41774731874466 0.29909932613373 0
vt 0.25717955827713 0.26465559005737 0
vt 0.25732201337814 0.19854116439819 0
vt 0.21919864416122 0.19850051403046 0
vt 0.21912831068039 0.26461505889893 0
vt 0.02881430089474 0.19846665859222 0
vt 0.02880524098873 0.26458132266998 0
vt 0.06686858832836 0.26458132266998 0
vt 0.06684331595898 0.19846677780151 0
vt 0.10494421422482 0.26459205150604 0
vt 0.10493849217892 0.19847750663757 0
vt 0.14301976561546 0.26457488536835 0
vt 0.14302560687065 0.1984601020813 0
vt 0.18107706308365 0.26457452774048 0
vt 0.18108016252518 0.19845998287201 0
vt 0.12399807572365 0.2975287437439 0
vt 0.20010048151016 0.29752719402313 0
vt 0.14302435517311 0.33048176765442 0
vt 0.18107563257217 0.33048093318939 0
vt 0.58886778354645 0.59525501728058 0
vt 0.36067181825638 0.33205449581146 0
vt 0.39872294664383 0.33205318450928 0
# 129 texture coordinates

o turret
usemtl tank_2j
f 1/3/3 44/2/2 64/1/1
f 44/7/5 67/6/5 43/5/5
f 1/3/3 6/9/8 35/8/7
f 35/8/7 2/10/9 1/3/3
f 8/13/13 5/12/12 4/11/11
f 4/11/11 7/14/14 8/13/13
f 39/17/18 36/16/17 65/15/16
f 65/15/16 9/18/19 39/17/18
f 37/21/20 66/20/21 10/19/20
f 10/19/20 38/22/20 37/21/20
f 35/24/22 4/23/22 38/22/22
f 38/22/23 10/19/23 35/24/23
f 36/26/25 42/25/25 66/20/25
f 66/20/25 37/21/25 36/26/25
f 3/29/27 66/28/27 42/27/27
f 35/8/7 10/30/28 2/10/9
f 2/10/29 10/30/29 66/28/29
f 66/28/32 3/29/31 2/10/9
f 37/31/33 65/15/16 36/16/17
f 4/11/11 5/12/12 38/32/35
f 65/15/36 37/31/36 38/32/36
f 38/32/39 5/12/38 65/15/37
f 41/35/41 40/34/41 12/33/41
f 12/33/41 11/36/41 41/35/41
f 12/33/42 40/34/42 7/37/42
f 7/37/43 6/38/43 12/33/43
f 45/40/44 39/39/45 41/35/44
f 41/35/44 11/36/47 45/40/44
f 64/1/48 45/42/48 11/41/48
f 6/9/8 1/3/3 12/43/50
f 1/3/3 64/1/1 11/41/52
f 11/41/54 12/43/54 1/3/54
f 7/14/14 40/44/56 8/13/13
f 9/18/59 8/13/58 40/44/57
f 40/44/61 41/45/61 9/18/61
f 39/17/18 9/18/19 41/45/63
f 5/12/38 8/13/58 9/18/59
f 9/18/59 65/15/37 5/12/38
f 74/47/66 13/46/65 3/29/31
f 3/29/31 42/27/67 74/47/66
f 43/48/69 45/42/69 64/1/69
f 64/1/1 44/2/2 43/48/70
f 75/51/71 74/50/71 43/49/71
f 43/49/71 67/6/71 75/51/71
f 67/6/74 44/7/74 13/52/74
f 13/52/75 75/51/75 67/6/75
f 13/52/76 74/53/76 75/51/76
f 2/10/9 3/29/31 13/46/65
f 13/46/65 44/2/2 1/3/3
f 1/3/3 2/10/9 13/46/65
f 7/55/80 4/54/80 35/8/80
f 35/8/81 6/9/81 7/55/81
f 43/48/83 39/56/83 45/42/83
f 49/59/71 68/58/71 48/57/71
f 49/59/71 48/57/71 46/60/71
f 49/59/71 46/60/71 50/61/71
f 49/59/71 50/61/71 14/62/86
f 19/63/88 46/60/89 48/57/88
f 48/57/88 47/64/91 19/63/88
f 47/64/92 48/57/92 68/65/92
f 68/65/94 71/66/94 47/64/94
f 49/68/95 70/67/95 71/66/95
f 71/66/97 68/65/97 49/68/97
f 14/71/99 18/70/99 70/69/99
f 70/69/100 49/72/100 14/71/100
f 18/70/102 14/71/102 50/73/102
f 50/73/103 17/74/103 18/70/103
f 46/60/105 19/63/106 17/74/105
f 17/74/105 50/73/108 46/60/105
f 69/77/71 15/76/71 52/75/71
f 69/77/71 52/75/71 53/78/71
f 69/77/71 53/78/71 55/79/71
f 69/77/71 55/79/71 54/80/71
f 72/82/109 51/81/110 55/79/109
f 55/79/109 53/78/111 72/82/109
f 51/81/112 16/84/112 54/83/112
f 54/83/113 55/79/113 51/81/113
f 16/84/114 76/86/114 69/85/114
f 69/85/115 54/83/115 16/84/115
f 15/89/116 69/88/116 76/87/116
f 76/87/117 77/90/117 15/89/117
f 52/91/119 15/89/119 77/90/119
f 77/90/120 78/92/120 52/91/120
f 78/92/121 72/82/122 53/78/121
f 53/78/121 52/91/123 78/92/121
f 27/95/125 20/94/126 57/93/125
f 57/93/125 56/96/128 27/95/125
f 56/96/129 57/93/130 58/97/129
f 58/97/129 26/98/131 56/96/129
f 26/101/132 58/100/132 59/99/132
f 59/99/133 25/102/133 26/101/133
f 25/102/134 59/99/135 21/103/134
f 21/103/134 28/104/136 25/102/134
f 28/104/137 21/103/138 22/105/137
f 22/105/137 29/106/139 28/104/137
f 29/106/140 22/105/141 20/94/140
f 20/94/140 27/95/142 29/106/140
f 22/105/81 21/108/81 57/107/81
f 57/107/81 20/94/81 22/105/81
f 30/111/144 61/110/145 60/109/144
f 60/109/144 62/112/146 30/111/144
f 73/115/148 60/114/148 61/113/148
f 61/113/150 32/116/150 73/115/150
f 32/116/152 31/118/153 63/117/152
f 63/117/152 73/115/155 32/116/152
f 31/118/156 33/120/157 23/119/156
f 23/119/156 63/117/159 31/118/156
f 33/120/161 34/122/162 24/121/161
f 24/121/161 23/119/164 33/120/161
f 34/122/166 30/111/167 62/112/166
f 62/112/166 24/121/168 34/122/166
f 62/124/80 63/123/80 23/119/80
f 23/119/81 24/121/81 62/124/81
f 73/125/81 63/123/81 62/124/81
f 62/124/81 60/126/81 73/125/81
f 74/47/86 42/27/86 36/127/86
f 43/48/71 74/47/71 36/127/71
f 36/127/71 39/56/71 43/48/71
f 59/129/81 58/128/81 57/107/81
f 57/107/81 21/108/81 59/129/81

v 95.50337219238281 66.45606231689453 68.05105590820312
v 110.79667663574219 66.45606231689453 68.05105590820312
v 95.50337219238281 66.45606231689453 53.97244262695312
v 110.79667663574219 66.45606231689453 53.97244262695312
v 95.50337219238281 58.63825988769531 68.05105590820312
v 110.79667663574219 58.63825988769531 68.05105590820312
v 95.50337219238281 58.63825988769531 53.97244262695312
v 110.79667663574219 58.63825988769531 53.97244262695312
# 8 vertices

vn 0 1 0
vn 0 0 1
vn 0 0 -1
vn 0 -1 0
vn 0 -1 0
vn -0.71405273675919 0 0.70009195804596
vn -0.71405273675919 0 -0.70009195804596
vn 1 0 0
vn -1 0 0
# 9 normals

vt 1 1 0
vt 0 0 0
vt 1 0 0
# 3 texture coordinates

o fmnt
usemtl Default
f 81/4/173 79/131/173 82/130/173
f 80/132/173 82/130/173 79/131/173
f 84/131/177 83/132/176 86/4/176
f 85/130/176 86/4/176 83/132/176
f 80/132/81 79/131/81 84/130/81
f 83/4/81 84/130/81 79/131/81
f 82/132/180 80/131/180 86/130/180
f 84/4/20 86/130/20 80/131/20
f 81/132/71 82/131/71 85/130/71
f 86/4/71 85/130/71 82/131/71
f 79/132/41 81/131/41 83/130/41
f 85/4/181 83/130/181 81/131/181

v -73.82521057128906 34.57524108886719 -242.771240234375
v -58.53190612792969 34.57524108886719 -242.771240234375
v -73.82521057128906 34.57524108886719 -256.849853515625
v -58.53190612792969 34.57524108886719 -256.849853515625
v -73.82521057128906 26.75743865966797 -242.771240234375
v -58.53190612792969 26.75743865966797 -242.771240234375
v -73.82521057128906 26.75743865966797 -256.849853515625
v -58.53190612792969 26.75743865966797 -256.849853515625
# 8 vertices

# 0 normal

# 0 texture coordinate

o muzzle02
usemtl Default
f 89/4/173 87/131/173 90/130/173
f 88/132/173 90/130/173 87/131/173
f 92/131/177 91/132/176 94/4/176
f 93/130/176 94/4/176 91/132/176
f 88/132/81 87/131/81 92/130/81
f 91/4/81 92/130/81 87/131/81
f 90/132/180 88/131/180 94/130/180
f 92/4/20 94/130/20 88/131/20
f 89/132/71 90/131/71 93/130/71
f 94/4/71 93/130/71 90/131/71
f 87/132/41 89/131/41 91/130/41
f 93/4/181 91/130/181 89/131/181

v 59.14881134033203 34.57524108886719 -242.771240234375
v 74.44211578369141 34.57524108886719 -242.771240234375
v 59.14881134033203 34.57524108886719 -256.849853515625
v 74.44211578369141 34.57524108886719 -256.849853515625
v 59.14881134033203 26.75743865966797 -242.771240234375
v 74.44211578369141 26.75743865966797 -242.771240234375
v 59.14881134033203 26.75743865966797 -256.849853515625
v 74.44211578369141 26.75743865966797 -256.849853515625
# 8 vertices

vn 0 1 0
vn 0 1 0
vn 0 1 0
vn 0 1 0
vn 0 0 0
vn 0 0 0
vn 0 0 0
vn 0 0 0
# 8 normals

# 0 texture coordinate

o muzzle01
usemtl Default
f 97/4/173 95/131/173 98/130/173
f 96/132/173 98/130/173 95/131/173
f 100/131/177 99/132/176 102/4/176
f 101/130/176 102/4/176 99/132/176
f 96/132/81 95/131/81 100/130/81
f 99/4/81 100/130/81 95/131/81
f 98/132/180 96/131/180 102/130/180
f 100/4/20 102/130/20 96/131/20
f 97/132/71 98/131/71 101/130/71
f 102/4/71 101/130/71 98/131/71
f 95/132/41 97/131/41 99/130/41
f 101/4/181 99/130/181 97/131/181

