v 36.956787109375 63.24354553222656 1.01513671875
v 98.232177734375 37.15174865722656 70.20947265625
v 98.232177734375 0.00005722045898 55.721923828125
v 98.232177734375 0.00005722045898 -56.338623046875
v 77.34521484375 63.24354553222656 -52.67529296875
v 77.344970703125 63.2435417175293 167.49365234375
v 98.232177734375 37.15174865722656 167.49365234375
v 36.956787109375 63.24354553222656 -76.815185546875
v 36.956787109375 0.00005722045898 -92.962646484375
v 15.857177734375 0.00005722045898 -128.158935546875
v 36.956787109375 35.2739372253418 -92.962646484375
v 15.857177734375 66.58898162841797 -128.158935546875
v 98.232177734375 35.27393341064453 -56.338623046875
v 25.8134765625 78.51103973388672 -92.962646484375
v 25.8134765625 78.51103210449219 -9.95166015625
v 67.344970703125 63.2435417175293 177.49365234375
v 88.232177734375 37.15174865722656 177.49365234375
v 15.857177734375 18.922119140625 -318.9580078125
v 15.857177734375 59.58897399902344 -318.9580078125
v 8.857177734375 11.92212009429932 -318.9580078125
v 8.857177734375 66.58897399902344 -318.9580078125
v 8.857177734375 66.58897399902344 -128.158935546875
v 15.857177734375 59.58898162841797 -128.158935546875
v 15.857177734375 18.92211723327637 -128.158935546875
v 8.857177734375 11.92212009429932 -128.158935546875
v -36.956787109375 63.24354553222656 1.01513671875
v -98.232177734375 37.15175628662109 70.20947265625
v -98.232177734375 0.0000620918363 55.721923828125
v -98.232177734375 0.00005229518138 -56.338623046875
v -77.34521484375 63.2435417175293 -52.67529296875
v -77.344970703125 63.24355697631836 167.49365234375
v -98.232177734375 37.15176391601562 167.49365234375
v -36.956787109375 63.24353790283203 -76.815185546875
v -36.956787109375 0.00004909341442 -92.962646484375
v -15.857177734375 0.00004577636719 -128.158935546875
v -36.956787109375 35.27392959594727 -92.962646484375
v -15.857177734375 66.58897399902344 -128.158935546875
v -98.232177734375 35.27392959594727 -56.338623046875
v -25.8134765625 78.51103210449219 -92.962646484375
v -25.8134765625 78.51103210449219 -9.95166015625
v -67.344970703125 63.24355697631836 177.49365234375
v -88.232177734375 37.15176391601562 177.49365234375
v -15.857177734375 18.92209053039551 -318.9580078125
v -15.857177734375 59.58894729614258 -318.9580078125
v -8.857177734375 11.92209243774414 -318.9580078125
v -8.857177734375 66.58894348144531 -318.9580078125
v -8.857177734375 66.58896636962891 -128.158935546875
v -15.857177734375 59.58897018432617 -128.158935546875
v -15.857177734375 18.92210578918457 -128.158935546875
v -8.857177734375 11.92210865020752 -128.158935546875
# 50 vertices

vt 0.59943532943726 0.30538320541382 0
vt 0.91893041133881 0.30537831783295 0
vt 0.91892945766449 0.24053144454956 0
vt 0 1 0
vt 0.59943425655365 0.24053585529327 0
vt 0.46532791852951 0.82278740406036 0
vt 0.52403855323792 0.82278740406036 0
vt 0.52403855323792 0.64099156856537 0
vt 0.46532791852951 0.61653745174408 0
vt 0.40996164083481 0.81631863117218 0
vt 0.40992671251297 0.45827496051788 0
vt 0.46532791852951 0.45825350284576 0
vt 0.35876113176346 0.90606045722961 0
vt 0.45840853452682 0.84650123119354 0
vt 0.34428125619888 0.85557532310486 0
vt 0.17466336488724 0.44201266765594 0
vt 0.22408157587051 0.72900569438934 0
vt 0.34428119659424 0.72900581359863 0
vt 0.39369922876358 0.44201266765594 0
vt 0.38830727338791 0.95484840869904 0
vt 0.48738640546799 0.89562904834747 0
vt 0.85641062259674 0.70701420307159 0
vt 0.88204944133759 0.78776848316193 0
vt 0.88862240314484 0.778435587883 0
vt 0.92711842060089 0.7236425280571 0
vt 0.94502747058868 0.69814831018448 0
vt 0.88973796367645 0.65930593013763 0
vt 0.80973136425018 0.73226177692413 0
vt 0.82162153720856 0.77156019210815 0
vt 0.68662714958191 0.77156084775925 0
vt 0.79536271095276 0.74082666635513 0
vt 0.66879594326019 0.74081724882126 0
vt 0.14069631695747 0.39958167076111 0
vt 0.42766642570496 0.39958155155182 0
vt 0.65606117248535 0.87364208698273 0
vt 0.68662714958191 0.85551702976227 0
vt 0.65606117248535 0.75343585014343 0
vt 0.73340010643005 0.604412317276 0
vt 0.73340034484863 0.63518393039703 0
vt 0.74478387832642 0.62380003929138 0
vt 0.82162165641785 0.85551774501801 0
vt 0.61569428443909 0.06606769561768 0
vt 0.59943246841431 0.08233022689819 0
vt 0.90266466140747 0.06606340408325 0
vt 0.91892719268799 0.08232533931732 0
vt 0.41447669267654 0.44562435150146 0
vt 0.44844383001328 0.40319347381592 0
vt 0.4245188832283 0.17959225177765 0
vt 0.4245188832283 0.11345875263214 0
vt 0.11423699557781 0.11345875263214 0
vt 0.11423699557781 0.17959225177765 0
vt 0.4245188832283 0.09736108779907 0
vt 0.11423690617085 0.09736108779907 0
vt 0.11423699557781 0.19568872451782 0
vt 0.4245188832283 0.19568872451782 0
vt 0.88204491138458 0.79915088415146 0
vt 0.89343285560608 0.78777235746384 0
vt 0.81928658485413 0.54717421531677 0
vt 0.91893303394318 0.48761391639709 0
vt 0.6990864276886 0.54717588424683 0
vt 0.59943795204163 0.4876184463501 0
vt 0.10303457081318 0.82278740406036 0
vt 0.10303457081318 0.61653745174408 0
vt 0.04432428628206 0.64099156856537 0
vt 0.04432428628206 0.82278740406036 0
vt 0.15843600034714 0.45827496051788 0
vt 0.10303457081318 0.45825350284576 0
vt 0.15840128064156 0.81631863117218 0
vt 0.20960158109665 0.90606045722961 0
vt 0.22408109903336 0.85557508468628 0
vt 0.10995419323444 0.84650123119354 0
vt 0.08097599446774 0.89562928676605 0
vt 0.18005537986755 0.95484840869904 0
vt 0.88979232311249 0.96781075000763 0
vt 0.94509994983673 0.92894011735916 0
vt 0.92717802524567 0.90343725681305 0
vt 0.85644090175629 0.92008650302887 0
vt 0.88865375518799 0.84862607717514 0
vt 0.88204967975616 0.83930933475494 0
vt 0.80973470211029 0.89483618736267 0
vt 0.66879606246948 0.88626062870026 0
vt 0.79536306858063 0.88625127077103 0
vt 0.78497445583344 0.60441136360168 0
vt 0.7849748134613 0.63518297672272 0
vt 0.7735915184021 0.62379944324493 0
vt 0.88204514980316 0.82792669534683 0
vt 0.11991871893406 0.40319347381592 0
vt 0.15388631820679 0.44562447071075 0
vt 0.42451900243759 0.06855392456055 0
vt 0.11423708498478 0.06855368614197 0
vt 0.42448270320892 0.24455940723419 0
vt 0.11423140764236 0.24455940723419 0
vt 0.11423140764236 0.31068646907806 0
vt 0.42448270320892 0.31068646907806 0
vt 0.11423140764236 0.22846472263336 0
vt 0.42448270320892 0.22846472263336 0
vt 0.43590241670609 0.10207521915436 0
vt 0.43590241670609 0.19097578525543 0
vt 0.47609055042267 0.17958891391754 0
vt 0.47609055042267 0.11346209049225 0
vt 0.46470838785172 0.10207962989807 0
vt 0.46470838785172 0.19097137451172 0
vt 0.11423140764236 0.32678246498108 0
vt 0.42448270320892 0.32678246498108 0
vt 0.89343285560608 0.8393052816391 0
# 105 texture coordinates

o turret
usemtl tank_2j
f 27/3 28/2 3/1
f 3/1 2/5 27/3
f 3/8 4/7 13/6
f 13/6 2/9 3/8
f 2/9 13/6 5/10
f 2/9 5/10 6/11
f 2/9 6/11 7/12
f 5/10 13/14 11/13
f 11/13 8/15 5/10
f 1/18 26/17 41/16
f 6/11 1/18 41/16
f 16/19 6/11 41/16
f 4/21 9/20 11/13
f 11/13 13/14 4/21
f 23/24 12/23 11/22
f 9/27 10/26 24/25
f 11/22 9/27 24/25
f 23/24 11/22 24/25
f 12/23 14/29 8/28
f 8/31 14/29 15/30
f 15/30 1/32 8/31
f 11/22 12/23 8/28
f 16/19 41/16 42/33
f 42/33 17/34 16/19
f 15/30 40/36 26/35
f 26/35 1/37 15/30
f 25/40 24/39 10/38
f 14/29 39/41 40/36
f 40/36 15/30 14/29
f 2/5 7/43 17/42
f 2/5 17/42 42/44
f 42/44 32/45 27/3
f 2/5 42/44 27/3
f 6/46 16/19 17/34
f 17/34 7/47 6/46
f 24/50 18/49 19/48
f 19/48 23/51 24/50
f 20/52 18/49 24/50
f 24/50 25/53 20/52
f 22/54 23/51 19/48
f 19/48 21/55 22/54
f 12/23 23/57 22/56
f 28/2 29/59 34/58
f 28/2 34/58 9/60
f 9/60 4/61 3/1
f 28/2 9/60 3/1
f 28/64 27/63 38/62
f 38/62 29/65 28/64
f 27/63 32/67 31/66
f 27/63 31/66 30/68
f 27/63 30/68 38/62
f 30/68 33/70 36/69
f 36/69 38/71 30/68
f 26/17 33/70 30/68
f 26/17 30/68 31/66
f 41/16 26/17 31/66
f 29/72 38/71 36/69
f 36/69 34/73 29/72
f 49/76 35/75 34/74
f 49/76 34/74 36/77
f 48/78 49/76 36/77
f 48/78 36/77 37/79
f 37/79 33/80 39/41
f 33/82 26/81 40/36
f 40/36 39/41 33/82
f 36/77 33/80 37/79
f 9/60 34/58 35/83
f 35/83 10/38 9/60
f 50/85 35/83 49/84
f 14/29 12/23 22/56
f 14/29 22/56 47/86
f 47/86 37/79 39/41
f 14/29 47/86 39/41
f 31/88 32/87 42/33
f 42/33 41/16 31/88
f 45/89 20/52 25/53
f 25/53 50/90 45/89
f 49/93 48/92 44/91
f 44/91 43/94 49/93
f 21/55 46/96 47/95
f 47/95 22/54 21/55
f 19/48 18/49 20/97
f 21/98 19/48 20/97
f 45/101 43/100 44/99
f 20/97 45/101 44/99
f 21/98 20/97 44/99
f 21/98 44/99 46/102
f 45/104 50/103 49/93
f 49/93 43/94 45/104
f 47/95 46/96 44/91
f 44/91 48/92 47/95
f 35/83 50/85 25/40
f 25/40 10/38 35/83
f 37/79 47/86 48/105
f 5/10 8/15 1/18
f 1/18 6/11 5/10

v 56.29893493652344 67.15444946289062 170.31172180175781
v 71.59239196777344 67.15444946289062 170.31172180175781
v 56.29893493652344 67.15444946289062 156.23310852050781
v 71.59239196777344 67.15444946289062 156.23310852050781
v 56.29893493652344 59.33664703369141 170.31172180175781
v 71.59239196777344 59.33664703369141 170.31172180175781
v 56.29893493652344 59.33664703369141 156.23310852050781
v 71.59239196777344 59.33664703369141 156.23310852050781
# 8 vertices

vn 0 1 0
vn 0 0 1
vn 0 0 -1
vn 0 -1 0
vn 0 -1 0
vn -0.71405273675919 0 0.70009195804596
vn -0.71405273675919 0 -0.70009195804596
vn 0 0 1
vn 1 0 0
vn 1 0 0
vn 0 0 -1
vn -1 0 0
vn -1 0 0
# 13 normals

vt 1 1 0
vt 1 0 0
vt 0 0 0
# 3 texture coordinates

o fmnt
usemtl Default
f 51/108/1 52/107/1 54/106/1
f 54/106/1 53/4/1 51/108/1
f 55/107/4 57/106/5 58/4/4
f 58/4/4 56/108/4 55/107/4
f 51/108/8 55/4/8 56/106/8
f 56/106/8 52/107/8 51/108/8
f 52/108/9 56/4/9 58/106/9
f 58/106/10 54/107/10 52/108/10
f 54/108/11 58/4/11 57/106/11
f 57/106/11 53/107/11 54/108/11
f 53/108/12 57/4/12 55/106/12
f 55/106/13 51/107/13 53/108/13

v -7.484619140625 57.28271484375 -309.03054809570312
v 7.808837890625 57.28271484375 -309.03054809570312
v -7.484619140625 57.28271484375 -323.10916137695312
v 7.808837890625 57.28271484375 -323.10916137695312
v -7.484619140625 49.46491241455078 -309.03054809570312
v 7.808837890625 49.46491241455078 -309.03054809570312
v -7.484619140625 49.46491241455078 -323.10916137695312
v 7.808837890625 49.46491241455078 -323.10916137695312
# 8 vertices

vn 0 0 0
vn 0 1 0
vn 0 1 0
vn 1 0 0
# 4 normals

# 0 texture coordinate

o muzzle01
usemtl Default
f 59/108/1 60/107/1 62/106/1
f 62/106/1 61/4/1 59/108/1
f 63/107/4 65/106/5 66/4/4
f 66/4/4 64/108/4 63/107/4
f 59/108/8 63/4/8 64/106/8
f 64/106/8 60/107/8 59/108/8
f 60/108/9 64/4/9 66/106/9
f 66/106/10 62/107/10 60/108/10
f 62/108/11 66/4/11 65/106/11
f 65/106/11 61/107/11 62/108/11
f 61/108/12 65/4/12 63/106/12
f 63/106/13 59/107/13 61/108/13

