# WaveFront *.obj file (generated by Cinema 4D)

v 49.5 198 49.5
v 49.5 198.00003051757812 181.5
v 99 76.32604217529297 -204.2099609375
v 181.5 75.13912963867188 -316.796142578125
v 181.5 56.08982467651367 304.12939453125
v 99 0.00002019466046 231
v -49.5 198 49.5
v -181.49993896484375 132.00003051757812 231
v -99 98.99994659423828 -280.5
v -181.5 75.13909912109375 -316.796142578125
v -181.49993896484375 73.49639129638672 304.12939453125
v -181.5 115.49996948242188 -165
v 99 198 264
v 99 158.20010375976562 321.45849609375
v -99 56.0898323059082 304.12939453125
v 99 32.9999885559082 -132
v 99 61.02412414550781 -318.61572265625
v 99 98.99997711181641 -280.5
v 99 115.49999237060547 -165
v 181.5 -0.00001153980611 -132
v -99 132.00003051757812 99
v -99 132.00003051757812 231
v -99 198 264
v -181.5 0.00004379810343 231
v -181.49993896484375 98.99994659423828 -280.5
v -99 33.00002670288086 231
v -99 75.13909912109375 -316.796142578125
v -181.5 -0.00001940761649 -132
v 99 33.00001907348633 231
v -99 -0.00001940761649 -132
v -99 32.99998474121094 -132
v -99 76.32601928710938 -204.2099609375
v -99 115.49998474121094 -165
v 99 132.00001525878906 99
v 99 132.00001525878906 231
v 181.5 132.00001525878906 231
v 181.5 132.00001525878906 99
v 181.5 98.99997711181641 -280.5
v 181.5 0.00002019466046 231
v -181.49993896484375 132.00003051757812 99
v -99 0.0000437980998 231
v 99 -0.00001153980611 -132
v -99 158.20014953613281 321.45849609375
v 181.5 115.49999237060547 -165
v -49.5 198.00001525878906 181.5
v 181.5 73.49636840820312 304.12939453125
v -181.49993896484375 56.08984756469727 304.12939453125
v 99 73.49636077880859 304.12939453125
v 99 56.08981704711914 304.12939453125
v -99 73.49637603759766 304.12939453125
v 99 134.65576171875 325.0283203125
v -99 134.65577697753906 325.0283203125
v 99 89.15639495849609 -204.51513671875
v -99 89.1563720703125 -204.51513671875
v 181.5 61.02412414550781 -318.61572265625
v -181.5 61.02409362792969 -318.61572265625
v 99 75.13912963867188 -316.796142578125
v -99 61.02409362792969 -318.61572265625
v -83.5 134.65577697753906 325.0283203125
v -83.5 73.49637603759766 304.12939453125
v 83.5 73.49636077880859 304.12939453125
v 83.5 134.65576171875 325.0283203125
v -15.5 134.65576171875 325.0283203125
v -15.5 73.49636840820312 304.12939453125
v 15.5 73.49636840820312 304.12939453125
v 15.5 134.65576171875 325.0283203125
v -83.5 121.83894348144531 339.228515625
v -15.5 121.83892822265625 339.228515625
v 15.5 121.83892822265625 339.228515625
v 83.5 121.83892822265625 339.228515625
# 70 vertices

vn -0.00000001216959 0.97004002332687 -0.24294506013393
vn 0 0.98319518566132 -0.18255753815174
vn -0.00000002279826 0.90447413921356 -0.42652842402458
vn 0 0 0
vn -0.00000005503344 0.87052476406097 -0.49212455749512
vn 0 -1 0
vn 0.729936003685 0.67286467552185 -0.12019388377666
vn 0.68133002519608 0.71377420425415 -0.16222141683102
vn 0.80636888742447 0.59113305807114 -0.01819168776274
vn 0.81237488985062 0.58199995756149 -0.03637505322695
vn -0.00000015412918 1 -0.00000011559689
vn 0 1 -0.00000023119378
vn -0.00000006412149 0.83204853534698 -0.55470281839371
vn -0.00000009618223 0.83204865455627 -0.55470269918442
vn 0 0.98994946479797 -0.14142148196697
vn 0 0.93528735637665 -0.35388925671577
vn 0 0.90641909837723 -0.42237949371338
vn 0 -1 0
vn 0 0.83560937643051 -0.54932409524918
vn 0 0.83560937643051 -0.54932409524918
vn 1 0 0
vn 0.52631604671478 0.78947353363037 -0.31578934192657
vn 1 0 0
vn -0.00000015412918 1 0.00000009247751
vn 0 -1 0
vn 0 1 0.00000036991003
vn 0.00000009502669 0.82205212116241 0.56941223144531
vn 0.00000019005337 0.82205229997635 0.56941199302673
vn 0 0.82205200195312 0.56941246986389
vn 0.00000000865748 -0.0892797857523 0.99600660800934
vn 0 -0.32335487008095 0.94627779722214
vn 0 0 0
vn 0 -0.08927980065346 0.99600660800934
vn 0 0.78086811304092 0.624695956707
vn 1 0 0
vn -0.00000006319778 0.78086811304092 0.62469589710236
vn 0.00000003210928 -0.79348093271256 0.60859507322311
vn 0 -0.97708064317703 0.21286943554878
vn 0.00000002246184 -0.90484613180161 0.42573875188828
vn 0.00000006421858 -0.7934809923172 0.60859507322311
vn 0 0 -1
vn 0.00000005856904 -0.8574925661087 -0.51449632644653
vn 0.00000001759255 -0.96371483802795 -0.2669338285923
vn 0.00000004698019 -0.93509221076965 -0.35440453886986
vn 0.00000010249581 -0.85749250650406 -0.51449644565582
vn 0 -0.95047253370285 -0.31080856919289
vn -0.80636882781982 0.59113311767578 -0.0181916821748
vn -0.81237477064133 0.58200001716614 -0.03637510165572
vn -0.79999989271164 0.6000000834465 -0.00000006935814
vn 0 1 0
vn 0 0.94362813234329 0.33100748062134
vn 0 0.90641903877258 -0.42237955331802
vn 0 0.83560937643051 -0.54932409524918
vn 0 0.83560931682587 -0.54932415485382
vn -0.97246491909027 0 -0.23304928839207
vn 0 0.935287296772 -0.35388934612274
vn 0 0.78086811304092 0.624695956707
vn 0 1 0
vn 0.0000001444256 0.78086817264557 0.62469583749771
vn -0.00000005133196 -0.90484613180161 0.42573875188828
vn -0.00000000000002 -0.94696378707886 0.32134032249451
vn -0.00000007337922 -0.7934809923172 0.60859507322311
vn 1 0.00000277142385 0
vn -0.00000014675841 -0.7934809923172 0.60859501361847
vn -1 0 0
vn -1 0 0
vn -1 0.00000073401856 0.00000027163094
vn -1 0.00000026364202 0.00000011356883
vn -1 0.00000046238756 -0.00000000000008
vn -1 0.00000012740711 -0.00000009352733
vn -1 -0.00000004008313 -0.00000014029095
vn -1 -0.00000014506276 -0.00000050771962
vn -1 0.00000121005826 0.00000039569406
vn -1 -0.00000023684693 0.00000183728969
vn 0 -0.9504725933075 -0.31080847978592
vn -0.00000018309612 0.98994946479797 -0.14142155647278
vn 0 0.98994946479797 -0.14142167568207
vn -0.00000017900105 0.99805253744125 -0.06237851455808
vn 0 0.9980525970459 -0.06237846240401
vn 0 0.9980525970459 -0.06237836927176
vn 0 -1 0.00000008742278
vn -0.0000000385323 -1 0.00000011559689
vn 0.00000001926615 -1 0.00000008407046
vn 0 -1 0.00000017412044
vn -0.5263158082962 0.78947371244431 -0.3157893717289
vn 0 0 1
vn 0 0 1
vn 0 0 1
vn 1 0 0
vn 0.70710676908493 0 -0.70710676908493
vn 0 -0.87482219934464 0.48444414138794
vn 0.00000000849497 0.14990796148777 0.98869997262955
vn 0 -0.00805086269975 0.99996757507324
vn 0.00000001390565 -0.04051006212831 0.99917912483215
vn 0.00000002253942 0.14990782737732 0.98869997262955
vn 0 -1 0
vn 0.00000000281472 -0.02377872914076 -0.99971723556519
vn 0 0.12785309553146 -0.99179309606552
vn 0 0.12785309553146 -0.99179309606552
vn 0 -0.32335489988327 0.94627773761749
vn 0 -0.32335489988327 0.94627773761749
vn 0 1 0
vn 0 -0.32335487008095 0.94627779722214
vn 0 1 0
vn -0.00000006009812 -0.58752447366714 0.80920642614365
vn -0.0000001201962 -0.58752435445786 0.80920648574829
vn -0.0000000600981 -0.58752435445786 0.80920648574829
vn 0 -0.58752447366714 0.80920642614365
vn 0.00000016422831 0.74234050512314 0.6700227856636
vn 0 1 0
vn 0 1 0
vn 0 0.74234050512314 0.6700227856636
vn 0 0.14990799129009 0.98869997262955
vn 0 0.14990800619125 0.98869997262955
vn -0.00000009815241 -0.87482219934464 0.48444411158562
vn 0 -0.87482225894928 0.48444408178329
vn 0 0 0
vn -0.00000009815241 -0.87482225894928 0.48444402217865
vn -0.00000002950073 -0.87482219934464 0.48444408178329
vn -1 0 0
vn 0 -0.87482219934464 0.48444408178329
vn 0 0 1
vn -1 0 0
# 123 normals

vt 0.39804607629776 0.77178919315338 0
vt 0.39804607629776 0.67408883571625 0
vt 0.17126330733299 0.6252464056015 0
vt 0 1 0
vt 0.17126402258873 0.82063508033752 0
vt 0.42902117967606 0.86100578308105 0
vt 0.5254784822464 0.7983433008194 0
vt 0.52828562259674 0.77178657054901 0
vt 0.52828514575958 0.67409229278564 0
vt 0.12538918852806 0.62524652481079 0
vt 0.1253899037838 0.82063496112823 0
vt 0.64894390106201 0.31403017044067 0
vt 0.53336977958679 0.31425511837006 0
vt 0.53368878364563 0.39586412906647 0
vt 0.64909887313843 0.39563941955566 0
vt 0.69206261634827 0.39555954933166 0
vt 0.69191551208496 0.31395018100739 0
vt 0.60412061214447 0.85133945941925 0
vt 0.55254948139191 0.90233623981476 0
vt 0.61497604846954 0.97965705394745 0
vt 0.64500987529755 0.92723453044891 0
vt 0.60969698429108 0.62524485588074 0
vt 0.60969936847687 0.82063376903534 0
vt 0.67923223972321 0.82063281536102 0
vt 0.67923009395599 0.625244140625 0
vt 0.70182955265045 0.64059996604919 0
vt 0.76508319377899 0.64052450656891 0
vt 0.76507914066315 0.62522614002228 0
vt 0.70182931423187 0.62531566619873 0
vt 0.04880738258362 0.39681506156921 0
vt 0.14145183563232 0.39664220809937 0
vt 0.14136016368866 0.3150327205658 0
vt 0.04865980148315 0.31520569324493 0
vt 0.68833518028259 0.01316666603088 0
vt 0.59594392776489 0.01316726207733 0
vt 0.59594440460205 0.09457921981812 0
vt 0.68833553791046 0.09457850456238 0
vt 0.64655208587646 0.28220355510712 0
vt 0.68554639816284 0.25620746612549 0
vt 0.68416523933411 0.24589407444 0
vt 0.06963312625885 0.25703632831573 0
vt 0.27196288108826 0.31477773189545 0
vt 0.06963300704956 0.24224150180817 0
vt 0.14179801940918 0.18450939655304 0
vt 0.50001084804535 0.18450939655304 0
vt 0.53273367881775 0.29847574234009 0
vt 0.97808742523193 0.55819636583328 0
vt 0.97808754444122 0.4751079082489 0
vt 0.7826988697052 0.47510838508606 0
vt 0.7826988697052 0.55819684267044 0
vt 0.23773220181465 0.09458100795746 0
vt 0.23773166537285 0.01317012310028 0
vt 0.04368761926889 0.01317095756531 0
vt 0.04368845373392 0.09458303451538 0
vt 0.42901998758316 0.58487164974213 0
vt 0.52547752857208 0.64753329753876 0
vt 0.27202808856964 0.39638376235962 0
vt 0.14145088195801 0.39663994312286 0
vt 0.14135837554932 0.31503009796143 0
vt 0.27196133136749 0.31477463245392 0
vt 0.64894199371338 0.3140252828598 0
vt 0.69191312789917 0.31394445896149 0
vt 0.69206237792969 0.39555382728577 0
vt 0.6490980386734 0.39563465118408 0
vt 0.04880690574646 0.39681434631348 0
vt 0.04865717887878 0.3152049779892 0
vt 0.06963109970093 0.2570333480835 0
vt 0.06963133811951 0.24223840236664 0
vt 0.14179635047913 0.18450665473938 0
vt 0.5000091791153 0.18450653553009 0
vt 0.53273177146912 0.29847300052643 0
vt 0.64655029773712 0.28220081329346 0
vt 0.68416357040405 0.24589121341705 0
vt 0.6855446100235 0.25620448589325 0
vt 0.21546074748039 0.46896135807037 0
vt 0.57367324829102 0.46895718574524 0
vt 0.57367241382599 0.43639266490936 0
vt 0.21546038985252 0.43639659881592 0
vt 0.21546050906181 0.43639659881592 0
vt 0.57367241382599 0.43639254570007 0
vt 0.57367324829102 0.46895706653595 0
vt 0.53368759155273 0.3958603143692 0
vt 0.53336811065674 0.31425142288208 0
vt 0.27202939987183 0.39638733863831 0
vt 0.97808766365051 0.11689579486847 0
vt 0.78269910812378 0.11689567565918 0
vt 0.60411965847015 0.59453642368317 0
vt 0.03144323825836 0.31523597240448 0
vt 0.03158640861511 0.39684534072876 0
vt 0.0314404964447 0.31523585319519 0
vt 0.84780061244965 0.82076716423035 0
vt 0.76513206958771 0.82065033912659 0
vt 0.77350294589996 0.83586144447327 0
vt 0.86362063884735 0.84929931163788 0
vt 0.84769523143768 0.62502014636993 0
vt 0.8634842634201 0.596470952034 0
vt 0.77338111400604 0.61000621318817 0
vt 0.64314639568329 0.51858985424042 0
vt 0.60266482830048 0.46589195728302 0
vt 0.55254781246185 0.54353904724121 0
vt 0.64363420009613 0.53766167163849 0
vt 0.70183002948761 0.73822259902954 0
vt 0.70182979106903 0.70765388011932 0
vt 0.64363586902618 0.9082123041153 0
vt 0.02979074418545 0.49778354167938 0
vt 0.14268752932549 0.51171666383743 0
vt 0.028409704566 0.50809687376022 0
vt 0.14390233159065 0.52437752485275 0
vt 0.97808754444122 0.56857508420944 0
vt 0.78269910812378 0.56857544183731 0
vt 0.706139087677 0.39553487300873 0
vt 0.70599555969238 0.31392550468445 0
vt 0.7059930562973 0.3139191865921 0
vt 0.70613884925842 0.39552855491638 0
vt 0.76510965824127 0.73823666572571 0
vt 0.765101313591 0.70763993263245 0
vt 0.70183050632477 0.80527639389038 0
vt 0.70183050632477 0.82056081295013 0
vt 0.76512777805328 0.80535197257996 0
vt 0.73658311367035 0.95225846767426 0
vt 0.79436862468719 0.95225846767426 0
vt 0.79436862468719 0.88648414611816 0
vt 0.73658311367035 0.88648414611816 0
vt 0.86796748638153 0.95369321107864 0
vt 0.92575252056122 0.95369333028793 0
vt 0.92575252056122 0.88791912794113 0
vt 0.86796748638153 0.88791912794113 0
vt 0.73462092876434 0.86808574199677 0
vt 0.73462092876434 0.97065675258636 0
vt 0.71808040142059 0.88648414611816 0
vt 0.71808040142059 0.95225846767426 0
vt 0.86600506305695 0.86952084302902 0
vt 0.86600506305695 0.97209125757217 0
vt 0.84946477413177 0.88791912794113 0
vt 0.84946477413177 0.95369333028793 0
vt 0.06740401685238 0.5340923666954 0
vt 0.18138089776039 0.5503733754158 0
# 137 texture coordinates

o hull
usemtl 24 - Default
f 33/3/3 7/2/2 1/1/1
f 1/1/1 19/5/5 33/3/3
f 1/1/9 2/7/8 34/6/7
f 34/6/7 19/5/10 1/1/9
f 7/2/11 45/9/11 2/8/11
f 2/8/12 1/1/1 7/2/2
f 54/10/13 33/3/3 19/5/5
f 19/5/5 53/11/14 54/10/13
f 19/14/15 44/13/15 38/12/15
f 38/12/17 18/15/16 19/14/15
f 57/16/19 18/15/16 38/12/17
f 38/12/17 4/17/20 57/16/19
f 35/19/21 34/6/21 13/18/21
f 13/18/22 34/6/7 2/7/8
f 35/19/21 51/21/21 48/20/23
f 2/8/24 45/9/24 23/22/24
f 23/22/26 13/23/26 2/8/26
f 23/22/27 43/25/28 14/24/27
f 14/24/27 13/23/29 23/22/27
f 50/28/31 60/27/31 59/26/30
f 59/26/30 52/29/33 50/28/31
f 36/32/34 35/31/34 48/30/34
f 48/30/36 46/33/36 36/32/36
f 55/40/21 4/39/21 38/38/21
f 37/42/21 36/32/21 46/41/21
f 37/42/21 46/41/21 5/43/21
f 37/42/23 5/43/23 39/44/23
f 37/42/21 39/44/21 20/45/21
f 44/46/23 37/42/21 20/45/21
f 38/38/21 44/46/21 20/45/21
f 55/40/21 38/38/21 20/45/21
f 16/49/44 31/48/43 32/47/42
f 32/47/42 3/50/45 16/49/44
f 7/2/47 33/3/48 21/55/47
f 21/55/47 45/56/49 7/2/47
f 8/59/51 22/58/51 21/57/50
f 21/57/50 40/60/50 8/59/50
f 27/63/54 10/62/53 25/61/52
f 25/61/52 9/64/56 27/63/54
f 50/65/57 22/58/51 8/59/51
f 8/59/59 11/66/59 50/65/59
f 11/67/65 8/59/65 40/60/65
f 47/68/66 11/67/66 40/60/66
f 24/69/67 47/68/67 40/60/67
f 28/70/70 24/69/69 40/60/68
f 28/70/70 40/60/68 12/71/71
f 28/70/70 12/71/71 25/72/72
f 56/73/73 28/70/73 25/72/73
f 10/74/74 56/73/74 25/72/74
f 6/77/65 29/76/65 16/75/65
f 16/75/66 42/78/66 6/77/66
f 41/80/21 30/79/21 31/75/21
f 31/75/21 26/81/21 41/80/21
f 25/61/76 12/83/76 33/82/76
f 33/82/77 9/64/56 25/61/52
f 33/82/78 12/83/78 40/60/78
f 40/60/79 21/57/79 33/82/79
f 34/84/80 37/42/80 44/13/80
f 44/13/80 19/14/80 34/84/80
f 37/42/50 34/84/50 35/31/50
f 35/31/50 36/32/50 37/42/50
f 29/86/82 26/85/82 31/48/82
f 31/48/43 16/49/44 29/86/83
f 23/87/85 45/56/85 21/55/85
f 48/30/86 49/89/86 5/88/86
f 5/88/87 46/33/87 48/30/87
f 50/65/87 11/66/87 47/90/87
f 47/90/88 15/89/88 50/65/88
f 49/93/66 48/92/66 29/91/66
f 29/91/66 6/94/66 49/93/66
f 15/97/21 41/96/21 26/95/21
f 26/95/89 50/28/89 15/97/89
f 50/28/91 26/95/91 60/27/91
f 22/100/66 50/99/66 52/98/66
f 52/98/66 43/101/66 22/100/66
f 63/103/94 66/102/93 14/24/92
f 14/24/92 43/25/95 63/103/94
f 35/19/21 13/18/21 14/104/89
f 35/19/21 14/104/89 51/21/21
f 3/106/66 17/105/66 42/78/66
f 42/78/66 16/75/66 3/106/66
f 32/106/21 58/105/21 27/107/21
f 27/107/89 54/108/89 32/106/89
f 3/50/97 32/47/97 54/109/97
f 54/109/97 53/110/97 3/50/97
f 4/17/98 55/112/98 17/111/98
f 17/111/99 57/16/99 4/17/99
f 56/113/99 10/62/99 27/63/99
f 27/63/98 58/114/98 56/113/98
f 65/115/100 66/102/93 63/103/94
f 63/103/94 64/116/101 65/115/100
f 48/92/31 51/118/31 62/117/31
f 62/117/103 61/119/103 48/92/103
f 60/122/105 64/121/105 68/120/105
f 68/120/106 67/123/106 60/122/106
f 65/126/107 61/125/107 70/124/107
f 70/124/108 69/127/108 65/126/108
f 59/128/66 60/122/66 67/123/66
f 64/121/89 63/129/89 68/120/89
f 63/131/109 59/130/109 67/123/109
f 67/123/109 68/120/109 63/131/109
f 66/132/66 65/126/66 69/127/66
f 61/125/89 62/133/89 70/124/89
f 62/135/112 66/134/112 69/127/112
f 69/127/112 70/124/112 62/135/112
f 43/25/95 52/29/33 59/26/30
f 62/117/114 51/118/113 14/24/92
f 66/102/93 62/117/114 14/24/92
f 43/25/95 59/26/30 63/103/94
f 26/95/115 64/116/115 60/27/115
f 29/91/116 48/92/116 61/119/116
f 29/91/118 61/119/118 65/115/118
f 26/95/119 29/91/119 65/115/119
f 65/115/121 64/116/121 26/95/121
f 53/108/65 19/137/65 18/136/65
f 18/136/66 57/107/66 53/108/66
f 3/106/66 53/108/66 57/107/66
f 57/107/66 17/105/66 3/106/66
f 32/106/21 31/75/21 30/79/21
f 30/79/21 58/105/21 32/106/21
f 9/136/23 33/137/23 54/108/23
f 54/108/21 27/107/21 9/136/21
f 23/87/66 21/55/66 22/100/66
f 22/100/123 43/101/123 23/87/123

usemtl tracks
f 6/36/39 39/35/38 5/34/37
f 5/34/37 49/37/40 6/36/39
f 55/53/46 20/52/46 42/51/46
f 42/51/46 17/54/46 55/53/46
f 47/34/62 24/35/61 41/36/60
f 41/36/60 15/37/64 47/34/62
f 56/53/75 58/54/75 30/51/75
f 30/51/75 28/52/75 56/53/75
f 39/35/38 6/36/39 42/51/81
f 42/51/81 20/52/81 39/35/38
f 41/36/60 24/35/61 28/52/84
f 28/52/84 30/51/84 41/36/84

v -16.5 198.00001525878906 131.99996948242188
v 16.5 198.00001525878906 131.99996948242188
v -16.5 198.00001525878906 98.99996948242188
v 16.5 198.00001525878906 98.99996948242188
v -16.5 231.00001525878906 131.99996948242188
v 16.5 231.00001525878906 131.99996948242188
v -16.5 231.00001525878906 98.99996948242188
v 16.5 231.00001525878906 98.99996948242188
# 8 vertices

vn 0 -1 0
vn 0 -1 0
vn 0 0 -1
vn 0 0 -1
# 4 normals

vt 1 0 0
vt 0 0 0
vt 1 1 0
# 3 texture coordinates

o mount01
usemtl tracks
f 74/4/124 72/139/124 71/138/124
f 71/138/124 73/140/125 74/4/124
f 78/140/50 77/4/50 75/139/50
f 75/139/50 76/138/50 78/140/50
f 71/139/88 72/138/88 76/140/88
f 76/140/87 75/4/87 71/139/87
f 78/140/21 76/4/21 72/139/21
f 72/139/21 74/138/21 78/140/21
f 74/139/126 73/138/126 77/140/126
f 77/140/127 78/4/127 74/139/127
f 73/139/66 71/138/66 75/140/66
f 75/140/66 77/4/66 73/139/66

