v -48.280517578125 97.17088317871094 64.49462890625
v 43.1585693359375 91.92893981933594 81.321044921875
v -82.5 49.5 -107.25
v 33.0001220703125 49.13158798217773 179.750244140625
v -22.9998779296875 49.06581115722656 189.75
v 23.0001220703125 49.06580352783203 189.75
v 16.5 33 -189.75
v -82.5 0.00001556797179 113.75
v 48.280517578125 97.17086791992188 64.49462890625
v 16.5 49.5 -189.75
v 82.5 0 -107.25
v -16.5 49.49999618530273 -189.75
v -16.5 33 -189.75
v 82.5 0 113.75
v 72.5 0.00000098993905 123.75
v -43.1585693359375 91.928955078125 81.321044921875
v 72.5 49.5 123.75
v 33.0001220703125 42.55707931518555 123.75
v 33.0001220703125 49.5 123.75
v -32.9998779296875 42.55708312988281 123.75
v -32.9998779296875 49.50000762939453 123.75
v -72.5 0.00001534405419 123.75
v 0 0.00000816699867 123.75
v 33.0001220703125 42.55707168579102 179.75
v -32.9998779296875 42.55709075927734 179.75
v -32.9998779296875 49.13159942626953 179.750244140625
v 82.5 49.5 -107.25
v -82.5 49.5000114440918 113.75
v 16.5 49.5 -321.75
v -82.5 -0.00000136116614 -107.25
v 16.5 33 -321.75
v 23.0001220703125 42.55707550048828 189.75
v -72.5 49.5000114440918 123.75
v -16.5 33 -321.75
v 82.5 49.5 113.75
v -22.9998779296875 42.55708312988281 189.75
v -16.5 49.5 -321.75
# 37 vertices

vn 0.08793157339096 0.9770165681839 -0.19418205320835
vn 0.26171189546585 0.94216310977936 -0.20936952531338
vn 0.09045621752739 0.99534493684769 -0.03325921297073
vn 0 0 0
vn 0.97286462783813 0.15788494050503 -0.16913534700871
vn 0.84438425302506 0.50929337739944 0.16623914241791
vn 0.65964609384537 0.71447771787643 0.23321363329887
vn -0.05424605309963 0.9985214471817 0.0035060569644
vn -0.1320293545723 0.97114813327789 -0.19859397411346
vn 0 0 1
vn 0 1 0
vn 0.94362831115723 0 -0.33100691437721
vn 1 0 0
vn -0.00000013939126 -0.84043341875076 0.54191488027573
vn 0 1 0
vn 0.79024970531464 -0.6127849817276 -0.00000008348533
vn -0.00000011559689 1 0
vn 0 1 0.00000002889922
vn 0 1 0
vn -1 0 0
vn 0.78086882829666 0 -0.62469506263733
vn 0 1 0
vn 0.78086876869202 0 -0.62469506263733
vn 0 -1 0
vn 0 -1 0
vn 0 -0.92847669124603 -0.37139067053795
vn 0 1 0
vn 0 0 -1
vn 0 0 -1
vn -0.26171192526817 0.94216305017471 -0.20936957001686
vn 0 1 0
vn -0.85465633869171 0.49854019284248 0.14498336613178
vn -0.97917246818542 0.20303036272526 -0.00000001051357
vn -0.68325167894363 0.70113581418991 0.20390138030052
vn 0 0 1
vn 0 1 0
vn -0.78086882829666 0 -0.62469506263733
vn -0.78086882829666 0 -0.62469506263733
vn -0.00000009899393 -1 -0.00000000000002
vn 0 1 0
vn 0.00000011388202 0.82928854227066 0.55882066488266
vn 0.00000004623599 0.70710694789886 0.70710664987564
vn 0.0000001169421 0.70710688829422 0.70710670948029
vn 0.00000015973703 0.85580080747604 0.51730543375015
vn 0.52251064777374 0.75586485862732 0.39452618360519
vn 0.44428050518036 0.77796494960785 0.44428074359894
vn 0 1 0
vn -0.50482285022736 0.76852869987488 0.39308723807335
vn -0.45354771614075 0.76719552278519 0.45354771614075
vn 0.70710676908493 0 0.70710676908493
vn 0 1 0
vn -0.70710676908493 0 0.70710676908493
vn -0.70710676908493 0 0.70710676908493
vn 0 1 0
vn 1 0 0
vn 0 1 0
vn 0 1 0
vn 0.0000001733958 0.99997836351395 0.00657867174596
vn 0.00000016585686 0.99997836351395 0.00657862983644
vn 0.00000006828836 0.70710682868958 0.70710670948029
vn 0 0.70710688829422 0.70710664987564
vn 0 1 0
vn 0.00000000824949 -1 0
vn -0.00000009435135 -1 0.00000007660243
vn -0.00000009435135 -1 0.00000003830128
vn -0.00000009899387 -1 0.00000007660211
vn 0 1 0
vn 0.39610257744789 -0.82837498188019 0.3961029946804
vn -0.39610409736633 -0.82837402820587 0.39610347151756
vn 0.70710247755051 -0.00001312898985 0.707111120224
vn 0.70710676908493 -0.00002625797606 0.70710676908493
vn 0.70709818601608 0 0.70711541175842
vn 0 1 0
vn -0.70710253715515 -0.00001312916174 0.70711100101471
vn -0.70710676908493 0 0.70710676908493
vn -0.70709824562073 -0.00002625832349 0.70711529254913
vn -0.79025185108185 -0.6127821803093 0.0000000809554
vn 0.00000011559438 0.99997836351395 0.00657854694873
vn 0.00000017339158 0.99997836351395 0.00657861493528
# 79 normals

vt 0.34378224611282 0.73570364713669 0
vt 0.47244304418564 0.58280968666077 0
vt 0.40389293432236 0.24645245075226 0
vt 0 1 0
vt 0.52587866783142 0.16824626922607 0
vt 0.22125849127769 0.24645245075226 0
vt 0.28136891126633 0.73570370674133 0
vt 0.37499135732651 0.08649754524231 0
vt 0.44970035552979 0.09962940216064 0
vt 0.4497007727623 0.00600647926331 0
vt 0.31257611513138 0.00600600242615 0
vt 0.56529784202576 0.59477865695953 0
vt 0.61873364448547 0.18021464347839 0
vt 0.81869053840637 0.81189072132111 0
vt 0.77518820762634 0.66335755586624 0
vt 0.73168563842773 0.81189072132111 0
vt 0.872154712677 0.69453936815262 0
vt 0.83972954750061 0.79537242650986 0
vt 0.43340885639191 0.89688789844513 0
vt 0.18374425172806 0.89688795804977 0
vt 0.1837443113327 0.95930409431458 0
vt 0.43340891599655 0.95930403470993 0
vt 0.43340873718262 0.86567980051041 0
vt 0.18374419212341 0.8656799197197 0
vt 0.43340891599655 0.99051213264465 0
vt 0.18374434113503 0.9905121922493 0
vt 0.47784870862961 0.78498643636703 0
vt 0.44689708948135 0.78099679946899 0
vt 0.18374413251877 0.80326384305954 0
vt 0.43340867757797 0.80326366424561 0
vt 0.84811687469482 0.62721121311188 0
vt 0.97294914722443 0.45915067195892 0
vt 0.66086852550507 0.45915067195892 0
vt 0.78570079803467 0.62721121311188 0
vt 0.46461695432663 0.95930403470993 0
vt 0.46461695432663 0.89688783884048 0
vt 0.15270802378654 0.58280956745148 0
vt 0.09927302598953 0.1682460308075 0
vt 0.25016021728516 0.08649742603302 0
vt 0.31257486343384 0.00600564479828 0
vt 0.17545026540756 0.00600647926331 0
vt 0.17545083165169 0.09962940216064 0
vt 0.00641812942922 0.18021416664124 0
vt 0.0598531588912 0.59477823972702 0
vt 0.14730143547058 0.78498631715775 0
vt 0.17825305461884 0.78099685907364 0
vt 0.67978262901306 0.02223801612854 0
vt 0.66086864471436 0.04115200042725 0
vt 0.81690895557404 0.02223801612854 0
vt 0.39420479536057 0.2131187915802 0
vt 0.37499123811722 0.09962928295135 0
vt 0.25016051530838 0.09962940216064 0
vt 0.2309465110302 0.2131187915802 0
vt 0.51472699642181 0.14396023750305 0
vt 0.40831553936005 0.21204030513763 0
vt 0.2168360054493 0.21204030513763 0
vt 0.11042466759682 0.14395999908447 0
vt 0.62215304374695 0.15368604660034 0
vt 0.52929818630219 0.14171767234802 0
vt 0.09585371613503 0.14171743392944 0
vt 0.0029988233 0.15368556976318 0
vt 0.81869006156921 0.82420140504837 0
vt 0.73168587684631 0.82420140504837 0
vt 0.95135736465454 0.82502502202988 0
vt 0.95135736465454 0.81189322471619 0
vt 0.84543919563293 0.8118931055069 0
vt 0.8454384803772 0.82432812452316 0
vt 0.70493745803833 0.82432836294174 0
vt 0.70493674278259 0.81189334392548 0
vt 0.59901857376099 0.81189346313477 0
vt 0.59901857376099 0.82502526044846 0
vt 0.25016033649445 0.09962928295135 0
vt 0.71277165412903 0.84311550855637 0
vt 0.83760380744934 0.84311550855637 0
vt 0.97294914722443 0.04115200042725 0
vt 0.95403516292572 0.02223801612854 0
vt 0.71064686775208 0.79537212848663 0
vt 0.67822194099426 0.69453907012939 0
vt 0.71277165412903 0.94903647899628 0
vt 0.83760380744934 0.94903647899628 0
# 80 texture coordinates

o turret
usemtl tank_2j
f 9/3/3 27/2/2 10/1/1
f 9/3/7 35/5/6 27/2/5
f 1/6/8 9/3/3 10/1/1
f 10/1/1 12/7/9 1/6/8
f 15/10/10 17/9/10 18/8/10
f 18/8/10 23/11/10 15/10/10
f 14/13/13 11/12/12 27/2/5
f 27/2/5 35/5/6 14/13/13
f 36/16/14 23/15/14 32/14/14
f 24/18/16 23/15/16 18/17/16
f 12/21/17 10/20/17 29/19/17
f 29/19/18 37/22/18 12/21/18
f 7/24/13 31/23/13 29/19/13
f 29/19/13 10/20/13 7/24/13
f 12/21/20 37/22/20 34/25/20
f 34/25/20 13/26/20 12/21/20
f 27/2/5 11/12/12 7/27/21
f 7/27/23 10/28/23 27/2/23
f 31/23/24 7/24/24 13/29/24
f 13/29/25 34/30/25 31/23/25
f 11/33/26 30/32/26 13/31/26
f 13/31/26 7/34/26 11/33/26
f 31/36/28 34/35/28 37/22/28
f 37/22/29 29/19/29 31/36/29
f 1/6/8 12/7/9 3/37/30
f 1/6/34 3/37/33 28/38/32
f 22/41/10 23/40/35 20/39/10
f 20/39/10 33/42/10 22/41/10
f 3/37/33 30/44/20 8/43/20
f 8/43/20 28/38/32 3/37/33
f 3/37/37 12/46/37 13/45/37
f 13/45/38 30/44/38 3/37/38
f 23/49/39 14/48/39 15/47/39
f 21/52/43 19/51/42 2/50/41
f 2/50/41 16/53/44 21/52/43
f 9/3/45 2/55/45 17/54/45
f 17/54/46 35/5/6 9/3/7
f 16/56/48 1/6/34 28/38/32
f 28/38/49 33/57/49 16/56/49
f 15/58/50 14/13/50 35/5/50
f 35/5/50 17/59/50 15/58/50
f 33/60/52 28/38/52 8/43/52
f 8/43/53 22/61/53 33/60/53
f 1/6/8 16/53/44 2/50/41
f 2/50/41 9/3/3 1/6/8
f 36/16/10 32/14/35 6/62/10
f 6/62/10 5/63/10 36/16/10
f 24/66/13 18/65/13 19/64/13
f 19/64/55 4/67/55 24/66/55
f 20/70/20 25/69/20 26/68/20
f 26/68/20 21/71/20 20/70/20
f 20/39/10 21/72/10 33/42/10
f 17/9/10 19/51/10 18/8/10
f 4/74/58 26/73/58 5/63/58
f 5/63/59 6/62/59 4/74/59
f 16/53/60 33/42/60 21/72/60
f 19/51/42 17/9/61 2/50/41
f 30/32/63 11/33/63 14/48/63
f 14/48/64 8/75/64 30/32/64
f 23/49/65 8/75/65 14/48/65
f 23/49/66 22/76/66 8/75/66
f 24/18/68 32/14/68 23/15/68
f 25/77/69 23/15/69 36/16/69
f 32/14/70 24/66/71 4/67/70
f 4/67/70 6/62/72 32/14/70
f 25/69/74 36/16/75 5/63/74
f 5/63/74 26/68/76 25/69/74
f 25/77/77 20/78/77 23/15/77
f 19/80/78 21/79/78 26/73/78
f 26/73/79 4/74/79 19/80/79

v -7.646728515625 42.21024322509766 -315.776123046875
v 7.646728515625 42.21024322509766 -315.776123046875
v -7.646728515625 42.21024322509766 -329.854736328125
v 7.646728515625 42.21024322509766 -329.854736328125
v -7.646728515625 34.39244079589844 -315.776123046875
v 7.646728515625 34.39244079589844 -315.776123046875
v -7.646728515625 34.39244079589844 -329.854736328125
v 7.646728515625 34.39244079589844 -329.854736328125
# 8 vertices

vn 0 1 0
vn 0 0 1
vn 0 0 -1
vn 0 -1 0
vn 0.67467767000198 0 0.73811250925064
vn 0.67467767000198 0 -0.73811250925064
vn -1 0 0
# 7 normals

vt 1 1 0
vt 0 0 0
vt 1 0 0
# 3 texture coordinates

o muzzle01
usemtl Default
f 40/4/80 38/82/80 41/81/80
f 39/83/80 41/81/80 38/82/80
f 43/82/83 42/83/24 45/4/24
f 44/81/24 45/4/24 42/83/24
f 39/83/10 38/82/10 43/81/10
f 42/4/10 43/81/10 38/82/10
f 41/83/55 39/82/55 45/81/55
f 43/4/13 45/81/13 39/82/13
f 40/83/28 41/82/28 44/81/28
f 45/4/28 44/81/28 41/82/28
f 38/83/20 40/82/20 42/81/20
f 44/4/86 42/81/86 40/82/86

v 55.32474517822266 80.65036773681641 106.15895843505859
v 70.61820220947266 80.65036773681641 106.15895843505859
v 55.32474517822266 80.65036773681641 92.08034515380859
v 70.61820220947266 80.65036773681641 92.08034515380859
v 55.32474517822266 72.83256530761719 106.15895843505859
v 70.61820220947266 72.83256530761719 106.15895843505859
v 55.32474517822266 72.83256530761719 92.08034515380859
v 70.61820220947266 72.83256530761719 92.08034515380859
# 8 vertices

vn 0 0 1
vn 0 0 -1
vn -0.71405273675919 0 0.70009195804596
vn -0.71405273675919 0 -0.70009195804596
# 4 normals

# 0 texture coordinate

o fmnt
usemtl Default
f 48/4/80 46/82/80 49/81/80
f 47/83/80 49/81/80 46/82/80
f 51/82/83 50/83/24 53/4/24
f 52/81/24 53/4/24 50/83/24
f 47/83/10 46/82/10 51/81/10
f 50/4/10 51/81/10 46/82/10
f 49/83/55 47/82/55 53/81/55
f 51/4/13 53/81/13 47/82/13
f 48/83/28 49/82/28 52/81/28
f 53/4/28 52/81/28 49/82/28
f 46/83/20 48/82/20 50/81/20
f 52/4/86 50/81/86 48/82/86

v -82.5 0 113.75
v -82.5 0 -107.25
v -82.5 49.5 113.75
# 3 vertices

vn 0 1 0
# 1 normal

# 0 texture coordinate

o Box01
usemtl tank_2j
f 54/83/24 55/81/25 11/4/24
f 11/4/24 14/82/24 54/83/24
f 56/82/80 35/83/80 27/81/80
f 27/81/80 3/4/80 56/82/80
f 54/82/35 14/83/35 35/81/35
f 35/81/10 56/4/10 54/82/10
f 14/82/13 11/83/13 27/81/13
f 27/81/13 35/4/13 14/82/13
f 11/82/28 55/83/28 3/81/28
f 3/81/29 27/4/29 11/82/29
f 55/82/20 54/83/20 56/81/20
f 56/81/20 3/4/20 55/82/20

v -82.5 50.40654754638672 83.22119140625
v 82.5 50.40654754638672 83.22119140625
v -82.5 12.03031158447266 -134.42138671875
v 82.5 12.03031158447266 -134.42138671875
v -82.5 92.19091033935547 75.853515625
v 82.5 92.19091033935547 75.853515625
v -82.5 53.81467437744141 -141.7890625
v 82.5 53.81467437744141 -141.7890625
# 8 vertices

vn 0 -0.98480778932571 0.17364808917046
vn 0 -0.98480778932571 0.17364808917046
vn 0 0.98480778932571 -0.17364808917046
vn 0 0.17364738881588 0.984807908535
vn 0 -0.17364738881588 -0.984807908535
# 5 normals

# 0 texture coordinate

o Box02
usemtl tank_2j
f 57/83/92 59/81/93 60/4/92
f 60/4/92 58/82/92 57/83/92
f 61/82/94 62/83/94 64/81/94
f 64/81/94 63/4/94 61/82/94
f 57/82/95 58/83/95 62/81/95
f 62/81/95 61/4/95 57/82/95
f 58/82/13 60/83/13 64/81/13
f 64/81/13 62/4/13 58/82/13
f 60/82/96 59/83/96 63/81/96
f 63/81/96 64/4/96 60/82/96
f 59/82/86 57/83/86 61/81/86
f 61/81/20 63/4/20 59/82/20

