v -49.5 82.49995422363281 66
v 49.49993896484375 82.49995422363281 66
v 49.49993896484375 82.49995422363281 -49.5
v -49.5 82.49995422363281 -49.5
v 82.07916259765625 49.14425277709961 -99.053955078125
v 82.5 49.49995422363281 115.5
v 82.5 16.49995231628418 115.5
v 66 0 99.000244140625
v 66 0 -82.5
v -82.07891845703125 49.14425659179688 -99.053955078125
v -82.5001220703125 49.49996948242188 115.5
v -82.5001220703125 16.49996948242188 115.5
v -66.00006103515625 0.00001328463986 99.000244140625
v -66.00006103515625 -0.00000281597522 -82.5
v 115.6231689453125 49.49739837646484 -66.123779296875
v 115.49993896484375 49.5 82.5
v 115.49993896484375 16.5 82.5
v 115.30072021484375 16.50421905517578 -65.799560546875
v -115.62139892578125 49.4974365234375 -66.1220703125
v -115.5 49.5000114440918 82.5
v -115.5 16.50001335144043 82.5
v -115.30364990234375 16.5041618347168 -65.802490234375
v 82.07916259765625 16.27750396728516 -99.053955078125
v -82.07891845703125 16.27761077880859 -99.053955078125
v 53.4066162109375 16.37607383728027 -247.35009765625
v 43.9102783203125 32.82416534423828 -247.35009765625
v 53.4066162109375 49.27226257324219 -247.35009765625
v 72.39923095703125 49.27226257324219 -247.35009765625
v 81.8955078125 32.82416534423828 -247.35009765625
v 72.399169921875 16.37607383728027 -247.35009765625
v 53.38641357421875 49.29860687255859 -98.85009765625
v 72.4056396484375 49.29174041748047 -98.85009765625
v 43.8984375 32.8360481262207 -98.85009765625
v 53.409912109375 16.35664176940918 -98.85009765625
v 72.4085693359375 16.34456062316895 -98.85009765625
v 81.9132080078125 32.81590270996094 -98.85009765625
v -53.4066162109375 16.37607765197754 -247.35009765625
v -43.9102783203125 32.82416534423828 -247.35009765625
v -53.4066162109375 49.27226257324219 -247.35009765625
v -72.39923095703125 49.27226257324219 -247.35009765625
v -81.8955078125 32.82416534423828 -247.35009765625
v -72.399169921875 16.37607765197754 -247.35009765625
v -53.38641357421875 49.29860687255859 -98.85009765625
v -72.4056396484375 49.29174041748047 -98.85009765625
v -43.8984375 32.8360481262207 -98.85009765625
v -53.409912109375 16.35664176940918 -98.85009765625
v -72.4085693359375 16.34456062316895 -98.85009765625
v -81.9132080078125 32.81590270996094 -98.85009765625
v -45.11962890625 33.00054931640625 148.80517578125
v -45.09893798828125 32.98450469970703 115.80517578125
v -54.615966796875 49.44867324829102 115.80517578125
v -54.615966796875 49.44863891601562 148.80517578125
v -54.615966796875 16.55245208740234 148.80517578125
v -54.5947265625 16.53734588623047 115.80517578125
v -73.60858154296875 16.55245208740234 148.80517578125
v -73.60858154296875 16.55245208740234 115.80517578125
v -83.1048583984375 33.00054931640625 148.80517578125
v -83.13018798828125 33.00861358642578 115.80517578125
v -73.60858154296875 49.44863128662109 148.80517578125
v -73.630615234375 49.46231842041016 115.80517578125
v 53.40673828125 16.55187606811523 148.80517578125
v 43.91046142578125 32.99996948242188 148.80517578125
v 43.910400390625 32.99999237060547 115.80517578125
v 53.4112548828125 16.51293563842773 115.80517578125
v 72.39886474609375 16.51293563842773 115.80517578125
v 72.39935302734375 16.55187606811523 148.80517578125
v 81.89569091796875 32.99996948242188 148.80517578125
v 81.8956298828125 32.99997329711914 115.80517578125
v 72.39935302734375 49.44806671142578 148.80517578125
v 72.40692138671875 49.48698425292969 115.80517578125
v 53.40673828125 49.44806289672852 148.80517578125
v 53.4066162109375 49.48698425292969 115.80517578125
# 72 vertices

vn -0.13998335599899 0.95629191398621 0.25673028826714
vn -0.20831394195557 0.94766449928284 -0.24194483458996
vn 0.13915951550007 0.95551723241806 -0.26004129648209
vn 0 -0.63839226961136 0.76971119642258
vn 0.20952779054642 0.94838672876358 0.23803503811359
vn 0.57735025882721 0.57735025882721 -0.57735025882721
vn -0.11644020676613 0.85770446062088 -0.50078415870666
vn 0.17505094408989 0.86622548103333 -0.46798560023308
vn -0.57735025882721 -0.57735025882721 0.57735025882721
vn 0.11824425309896 0.86079162359238 0.49503135681152
vn -0.1777907460928 0.8693773150444 0.46105700731277
vn 0 -0.54112714529037 0.84094077348709
vn 0.14032542705536 -0.76674515008926 0.62642687559128
vn -0.21132612228394 -0.78867304325104 0.577352643013
vn -0.14032548666 -0.7667453289032 0.6264266371727
vn 0.21132610738277 -0.78867280483246 0.57735300064087
vn -0.14111319184303 -0.77097284793854 -0.6210378408432
vn 0.21252982318401 -0.79199796915054 -0.5723375082016
vn 0.14112597703934 -0.77097922563553 -0.62102693319321
vn -1 0 0
vn -0.21251019835472 -0.79198914766312 -0.57235705852509
vn 0.9999880194664 -0.00488234870136 -0.00025704369182
vn 0.99995195865631 -0.00976457539946 0.00082927150652
vn 0.99999910593033 0 -0.00134335248731
vn 1 0.00000090920673 -0.00000090920673
vn 0.70710742473602 0 0.70710611343384
vn 0.70710748434067 0 0.70710611343384
vn 0 0.70710676908493 -0.70710676908493
vn 0.70055437088013 -0.0138577548787 -0.71346443891525
vn 0.70745599269867 0 -0.7067574262619
vn 0.34307160973549 0.86809080839157 -0.3587760925293
vn -1 0.0000000008058 0
vn 0.34815475344658 0.87038850784302 0.34815534949303
vn 0.44714200496674 0.89446288347244 0.00035508620203
vn 0.57735025882721 0.57735025882721 -0.57735025882721
vn 0.44657415151596 0.89474660158157 0
vn 0.41060957312584 -0.81711179018021 -0.40463337302208
vn 0.40825048089027 -0.81649535894394 0.40824857354164
vn 0 -1 0
vn 0.16018241643906 -0.98708742856979 0
vn 0.10663235187531 -0.99429851770401 0.00000002991258
vn 0.31622809171677 -0.94868320226669 0
vn 0.31758856773376 -0.9482284784317 -0.00045361043885
vn -0.99998837709427 -0.00481123756617 -0.00025351525983
vn -0.99999910593033 0 -0.00132398260757
vn -0.99995338916779 -0.0096223577857 0.00081695825793
vn -0.70710808038712 0 0.70710551738739
vn 0 0 1
vn -0.70710808038712 0 0.70710551738739
vn -0.70737165212631 -0.01365784369409 -0.70670980215073
vn -0.70058214664459 0 -0.71357178688049
vn 0.57735055685043 0.57735013961792 -0.57735013961792
vn -0.34309181571007 0.8680881857872 -0.35876303911209
vn 0.00000095367432 1 0.00000000045214
vn -0.34815490245819 0.87038868665695 0.34815475344658
vn -0.4465836584568 0.89474189281464 0
vn -0.4471430182457 0.89446240663528 0.00034974003211
vn 0.57735413312912 0.57734835147858 -0.57734835147858
vn -0.40825036168098 -0.81649577617645 0.40824779868126
vn -0.00032786981319 0.72377669811249 -0.69003421068192
vn -0.31756895780563 -0.94823509454727 -0.00044698131387
vn -0.31622815132141 -0.94868314266205 0.00000007733937
vn -0.16018249094486 -0.98708742856979 0.00000008411002
vn -0.10663243383169 -0.99429851770401 0.00000005599149
vn -0.41057416796684 -0.81710797548294 -0.40467694401741
vn -1 0 0
vn -1 0 -0.00000000043517
vn 0 0 -1
vn 0 0 -1
vn 0 0 1
vn 0.00000095367432 1 -0.00000095385644
vn 0 -1 0
vn 0 -0.4862879216671 0.87379860877991
vn 0 0 -1
vn 0 -1 0
vn 0.00018051351071 1 -0.00015425874153
vn 0 1 -0.00013116393529
vn 0 0 1
vn 0.00036102702143 0.99999994039536 -0.00017735356232
vn 0.70710676908493 0.70710676908493 0
vn -0.86602485179901 0.50000095367432 -0.00020652117382
vn -0.8664054274559 0.49934124946594 -0.00010904208466
vn -0.86609172821045 -0.49988508224487 -0.00004619395986
vn -0.86602473258972 -0.50000113248825 -0.00002904162466
vn 0.00000090937959 0.00000090937959 -1
vn -0.00063589459751 -0.99999976158142 -0.00021216990717
vn 0 -1 -0.00013085568207
vn 0.86602473258972 -0.50000113248825 -0.00016091916768
vn 0.86614137887955 -0.49979901313782 -0.00013104993559
vn -1 0 0
vn 0.86607998609543 0.49990537762642 -0.00008917077503
vn 0.86613374948502 0.49981227517128 -0.00010294034291
vn 0.86602622270584 0.4999985396862 -0.00007540119987
vn 0 0.00130642636213 0.99999916553497
vn -1 0 0
vn -1 0 0
vn -0.00018051351071 1 -0.00015425874153
vn -0.00036102702143 0.99999994039536 -0.00017735356232
vn 0.00135403929744 -0.70710611343384 0.70710611343384
vn 0 1 -0.00013116393529
vn 0.8664054274559 0.4993411898613 -0.0001090404985
vn 0.00000000032842 -0.65430444478989 0.75623124837875
vn 0.86602485179901 0.50000095367432 -0.00020651958766
vn -0.70710676908493 -0.70710676908493 0
vn 0.86602473258972 -0.5000011920929 -0.00002904402936
vn 0.86609172821045 -0.4998851120472 -0.00004620308391
vn 0 -1 -0.00013088135165
vn 0.00063589459751 -0.99999976158142 -0.0002121955913
vn -0.86614137887955 -0.49979901313782 -0.00013104734535
vn -0.86602473258972 -0.5000011920929 -0.00016093385057
vn -0.86607998609543 0.49990537762642 -0.00008917028754
vn -0.86602628231049 0.49999850988388 -0.00007540422666
vn -0.86613374948502 0.49981224536896 -0.00010293634841
vn 0.86589485406876 0.50022602081299 0.00015002113651
vn 0.86602473258972 0.50000113248825 0.00000053560376
vn 0.8657648563385 0.50045090913773 0.00029950664612
vn 0.86602467298508 -0.50000065565109 0.00078620319255
vn 0.86602461338043 -0.50000077486038 0.00078609545017
vn 0.86602473258972 -0.5000005364418 0.00078631087672
vn 0 -0.99999988079071 0.00045776364277
vn 0 0.70710676908493 -0.70710676908493
vn -0.00079448363977 -0.99999970197678 0
vn 0 0 1
vn -0.86579072475433 -0.50040620565414 0.00027099100407
vn -0.86602622270584 -0.4999985396862 0
vn -0.86555486917496 -0.50081378221512 0.00054198194994
vn -0.86602520942688 0.49999970197678 0.00078626675531
vn -0.86602574586868 0.49999874830246 0.00078692496754
vn 0 0 1
vn -0.86602467298508 0.50000065565109 0.00078560854308
vn 1 0 0
vn 0.00035860593198 0.99999994039536 0.00020790113194
vn -0.00000040170318 0.99999994039536 0.00041476186016
vn 0.00071761349682 0.99999976158142 0.00000104037758
vn -0.86622995138168 -0.49964544177055 0.00023592018988
vn -0.86643356084824 -0.49929219484329 0.00047058539349
vn -0.86602622270584 -0.49999862909317 0.00000125496911
vn 0 -0.99999928474426 0.00118001224473
vn 0 -0.99999928474426 0.00118001212832
vn 0.86627566814423 -0.49956622719765 0.00028776662657
vn 0.86652636528015 -0.49913135170937 -0.00000166038205
vn 0.86602467298508 -0.50000095367432 0.00057719356846
vn 0.86636710166931 0.49940750002861 0.00039274580195
vn 0.86670887470245 0.49881371855736 0.00078703532927
vn 0.86602485179901 0.50000095367432 -0.00000154395775
vn -0.00047599140089 -0.00000000045394 -0.99999988079071
vn -0.00000010042573 0.99999928474426 0.00117937650066
vn 0 0.99999928474426 0.00117943435907
vn -0.00000020085146 0.99999928474426 0.00117931864224
vn -0.8662822842598 0.49955475330353 0.00029743416235
vn -0.86653822660446 0.49911069869995 0.00000194888003
vn 1 0 0
vn -0.86602604389191 0.49999859929085 0.00059291935759
vn 0 0 0
vn 0 0 1
vn 0 0 0
vn -1 0 0
# 157 normals

vt 0.20344865322113 0.79148364067078 0
vt 0.44862043857574 0.79222798347473 0
vt 0.44862097501755 0.58142578601837 0
vt 0 1 0
vt 0.20344904065132 0.58216869831085 0
vt 0.57161796092987 0.86946582794189 0
vt 0.57161903381348 0.50418841838837 0
vt 0.08178246021271 0.504967212677 0
vt 0.08178202807903 0.86868464946747 0
vt 0.95086884498596 0.11409604549408 0
vt 0.95086884498596 0.38047587871552 0
vt 0.99383592605591 0.41656756401062 0
vt 0.99383592605591 0.07800424098969 0
vt 0.58408737182617 0.38049292564392 0
vt 0.58408737182617 0.11407887935638 0
vt 0.54126799106598 0.07886040210724 0
vt 0.54126763343811 0.41571068763733 0
vt 0.03511390089989 0.34395527839661 0
vt 0.35347533226013 0.34395110607147 0
vt 0.35278081893921 0.27327561378479 0
vt 0.03511390089989 0.27326798439026 0
vt 0.15738531947136 0.42826724052429 0
vt 0.10412010550499 0.3802273273468 0
vt 0.03297996520996 0.45239984989166 0
vt 0.45415216684341 0.34220004081726 0
vt 0.45345914363861 0.27180242538452 0
vt 0.49136209487915 0.42480087280273 0
vt 0.61379158496857 0.00830590724945 0
vt 0.92169690132141 0.00795161724091 0
vt 0.03670319914818 0.18626523017883 0
vt 0.03670319914818 0.25695240497589 0
vt 0.35437631607056 0.25694489479065 0
vt 0.35506069660187 0.18626916408539 0
vt 0.0329791456461 0.92125165462494 0
vt 0.10411877930164 0.99342477321625 0
vt 0.15738421678543 0.94538509845734 0
vt 0.45505523681641 0.2584034204483 0
vt 0.45573818683624 0.18800604343414 0
vt 0.49135679006577 0.94884967803955 0
vt 0.92169690132141 0.4866201877594 0
vt 0.61378574371338 0.48627114295959 0
vt 0.47432148456573 0.08009827136993 0
vt 0.47432136535645 0.41447293758392 0
vt 0.01012392342091 0.50767993927002 0
vt 0.01012393087149 0.86597180366516 0
vt 0.91483819484711 0.90157049894333 0
vt 0.94727945327759 0.92028957605362 0
vt 0.97971987724304 0.90156012773514 0
vt 0.91483950614929 0.86409026384354 0
vt 0.94727945327759 0.84537178277969 0
vt 0.97971987724304 0.86410123109818 0
vt 0.62195479869843 0.86409038305283 0
vt 0.62195289134979 0.9015606045723 0
vt 0.91483438014984 0.93904823064804 0
vt 0.62194967269897 0.93901783227921 0
vt 0.62195038795471 0.97654765844345 0
vt 0.91483521461487 0.9765048623085 0
vt 0.6219664812088 0.75161248445511 0
vt 0.62195539474487 0.78908342123032 0
vt 0.91484022140503 0.78915256261826 0
vt 0.91485130786896 0.751693546772 0
vt 0.91483724117279 0.82661086320877 0
vt 0.62195253372192 0.82659190893173 0
vt 0.64330315589905 0.60044455528259 0
vt 0.61086273193359 0.61917400360107 0
vt 0.61086273193359 0.65663290023804 0
vt 0.67574310302734 0.61916303634644 0
vt 0.67574441432953 0.65664327144623 0
vt 0.64330315589905 0.67536234855652 0
vt 0.96862971782684 0.6566333770752 0
vt 0.96862781047821 0.61916315555573 0
vt 0.67574822902679 0.69412100315094 0
vt 0.96863293647766 0.6940906047821 0
vt 0.67574739456177 0.7315776348114 0
vt 0.96863222122192 0.73162043094635 0
vt 0.96861612796783 0.50668525695801 0
vt 0.67573130130768 0.5067663192749 0
vt 0.67574238777161 0.54422533512115 0
vt 0.96862721443176 0.54415619373322 0
vt 0.67574536800385 0.58168363571167 0
vt 0.96863007545471 0.58166468143463 0
vt 0.28160184621811 0.06918394565582 0
vt 0.31965297460556 0.06918227672577 0
vt 0.31965047121048 0.00306761264801 0
vt 0.28155022859573 0.00306940078735 0
vt 0.24355074763298 0.06920969486237 0
vt 0.24350115656853 0.0030951499939 0
vt 0.43384295701981 0.06920862197876 0
vt 0.47190231084824 0.06920862197876 0
vt 0.47194486856461 0.003093957901 0
vt 0.43385916948318 0.00309407711029 0
vt 0.39577561616898 0.06919002532959 0
vt 0.39578503370285 0.00307548046112 0
vt 0.35770815610886 0.06918179988861 0
vt 0.35773760080338 0.00306725502014 0
vt 0.30063074827194 0.10213661193848 0
vt 0.37673312425613 0.1021341085434 0
vt 0.23384937644005 0.06907474994659 0
vt 0.23399183154106 0.00296020507812 0
vt 0.19586846232414 0.00291967391968 0
vt 0.19579812884331 0.06903421878815 0
vt 0.00548412650824 0.00288581848145 0
vt 0.00547506660223 0.06900036334991 0
vt 0.04353840649128 0.0690004825592 0
vt 0.04351313412189 0.00288581848145 0
vt 0.08161403238773 0.06901121139526 0
vt 0.08160831034184 0.0028965473175 0
vt 0.11968959867954 0.06899392604828 0
vt 0.11969543993473 0.00287926197052 0
vt 0.15774688124657 0.0689936876297 0
vt 0.1577499806881 0.00287914276123 0
vt 0.10066790878773 0.10194790363312 0
vt 0.17677029967308 0.10194635391235 0
vt 0.11969418823719 0.13490080833435 0
vt 0.15774545073509 0.13489997386932 0
vt 0.31965762376785 0.13508939743042 0
vt 0.3577087521553 0.13508808612823 0
# 117 texture coordinates

o turret
usemtl tank_2j
f 3/3/3 4/2/2 1/1/1
f 1/1/1 2/5/5 3/3/3
f 3/3/3 5/7/8 10/6/7
f 10/6/7 4/2/2 3/3/3
f 1/1/1 11/9/11 6/8/10
f 6/8/10 2/5/5 1/1/1
f 12/12/15 13/11/14 8/10/13
f 8/10/13 7/13/16 12/12/15
f 23/16/19 9/15/18 14/14/17
f 14/14/17 24/17/21 23/16/19
f 18/20/22 15/19/23 16/18/22
f 16/18/22 17/21/24 18/20/22
f 17/23/26 16/22/26 6/8/26
f 6/8/27 7/24/27 17/23/27
f 5/25/29 15/19/29 18/20/29
f 18/20/30 23/26/30 5/25/30
f 3/3/3 15/27/31 5/7/8
f 6/8/10 16/22/33 2/5/5
f 2/5/34 16/22/34 15/27/34
f 15/27/36 3/3/3 2/5/5
f 18/28/37 9/15/18 23/16/19
f 7/13/16 8/10/13 17/29/38
f 17/29/42 8/10/41 9/15/40
f 9/15/43 18/28/43 17/29/43
f 22/32/44 21/31/45 20/30/44
f 20/30/44 19/33/46 22/32/44
f 21/35/47 12/34/47 11/9/47
f 11/9/49 20/36/49 21/35/49
f 24/37/50 22/32/50 19/33/50
f 19/33/51 10/38/51 24/37/51
f 4/2/2 10/6/7 19/39/53
f 11/9/11 1/1/1 20/36/55
f 1/1/1 4/2/2 19/39/56
f 19/39/57 20/36/57 1/1/57
f 12/12/15 21/40/59 13/11/14
f 21/40/61 22/41/61 14/14/61
f 14/14/64 13/11/63 21/40/62
f 24/17/21 14/14/17 22/41/65
f 8/10/41 13/11/63 14/14/64
f 14/14/64 9/15/40 8/10/41
f 24/17/68 10/43/68 5/42/68
f 5/42/69 23/16/69 24/17/69
f 7/44/70 6/8/70 11/9/70
f 11/9/70 12/45/70 7/44/70
f 25/48/68 26/47/68 27/46/68
f 25/48/68 27/46/68 28/49/68
f 25/48/68 28/49/68 29/50/68
f 25/48/68 29/50/68 30/51/74
f 32/52/76 28/49/77 27/46/76
f 27/46/76 31/53/79 32/52/76
f 31/53/81 27/46/81 26/54/81
f 26/54/82 33/55/82 31/53/82
f 25/57/83 34/56/83 33/55/83
f 33/55/84 26/54/84 25/57/84
f 30/60/86 35/59/86 34/58/86
f 34/58/87 25/61/87 30/60/87
f 35/59/88 30/60/88 29/62/88
f 29/62/89 36/63/89 35/59/89
f 28/49/91 32/52/92 36/63/91
f 36/63/91 29/62/93 28/49/91
f 37/66/68 42/65/68 41/64/68
f 37/66/68 41/64/68 40/67/68
f 37/66/68 40/67/68 39/68/68
f 37/66/68 39/68/68 38/69/68
f 44/71/97 43/70/98 39/68/97
f 39/68/97 40/67/100 44/71/97
f 43/70/101 45/73/101 38/72/101
f 38/72/103 39/68/103 43/70/103
f 37/74/105 38/72/105 45/73/105
f 45/73/106 46/75/106 37/74/106
f 42/78/107 37/77/107 46/76/107
f 46/76/108 47/79/108 42/78/108
f 47/79/109 48/81/109 41/80/109
f 41/80/110 42/78/110 47/79/110
f 40/67/111 41/80/112 48/81/111
f 48/81/111 44/71/113 40/67/111
f 51/84/114 52/83/115 49/82/114
f 49/82/114 50/85/116 51/84/114
f 50/85/117 49/82/118 53/86/117
f 53/86/117 54/87/119 50/85/117
f 54/90/120 53/89/120 55/88/120
f 55/88/122 56/91/122 54/90/122
f 56/91/124 55/88/125 57/92/124
f 57/92/124 58/93/126 56/91/124
f 58/93/127 57/92/128 59/94/127
f 59/94/127 60/95/130 58/93/127
f 60/95/132 59/94/133 52/83/132
f 52/83/132 51/84/134 60/95/132
f 59/94/70 57/97/70 49/96/70
f 49/96/70 52/83/70 59/94/70
f 63/100/135 64/99/136 61/98/135
f 61/98/135 62/101/137 63/100/135
f 66/104/138 61/103/138 64/102/138
f 64/102/139 65/105/139 66/104/139
f 65/105/140 68/107/141 67/106/140
f 67/106/140 66/104/142 65/105/140
f 68/107/143 70/109/144 69/108/143
f 69/108/143 67/106/145 68/107/143
f 70/109/147 72/111/148 71/110/147
f 71/110/147 69/108/149 70/109/147
f 72/111/150 63/100/151 62/101/150
f 62/101/150 71/110/153 72/111/150
f 62/113/155 67/112/155 69/108/155
f 69/108/70 71/110/70 62/113/70
f 66/114/70 67/112/70 62/113/70
f 62/113/70 61/115/70 66/114/70
f 55/117/70 53/116/70 49/96/70
f 49/96/70 57/97/70 55/117/70

v -70.32267761230469 34.57524108886719 -242.771240234375
v -55.02934646606445 34.57524108886719 -242.771240234375
v -70.32267761230469 34.57524108886719 -256.849853515625
v -55.02934646606445 34.57524108886719 -256.849853515625
v -70.32267761230469 26.75743865966797 -242.771240234375
v -55.02934646606445 26.75743865966797 -242.771240234375
v -70.32267761230469 26.75743865966797 -256.849853515625
v -55.02934646606445 26.75743865966797 -256.849853515625
# 8 vertices

vn 0 1 0
vn 0 0 1
vn 0 0 -1
vn 0 -1 0
vn 0 -1 0
vn -0.71405273675919 0 0.70009195804596
vn -0.71405273675919 0 -0.70009195804596
vn 1 0 0
vn 1 0 0
vn -1 0 0
vn -1 0 0
# 11 normals

vt 1 1 0
vt 0 0 0
vt 1 0 0
# 3 texture coordinates

o muzzle04
usemtl Default
f 75/4/158 73/119/158 76/118/158
f 74/120/158 76/118/158 73/119/158
f 78/119/162 77/120/161 80/4/161
f 79/118/161 80/4/161 77/120/161
f 74/120/70 73/119/70 78/118/70
f 77/4/70 78/118/70 73/119/70
f 76/120/165 74/119/165 80/118/165
f 78/4/166 80/118/166 74/119/166
f 75/120/68 76/119/68 79/118/68
f 80/4/68 79/118/68 76/119/68
f 73/120/167 75/119/167 77/118/167
f 79/4/168 77/118/168 75/119/168

v 95.50335693359375 66.45606231689453 68.05105590820312
v 110.79669189453125 66.45606231689453 68.05105590820312
v 95.50335693359375 66.45606231689453 53.97244262695312
v 110.79669189453125 66.45606231689453 53.97244262695312
v 95.50335693359375 58.63825988769531 68.05105590820312
v 110.79669189453125 58.63825988769531 68.05105590820312
v 95.50335693359375 58.63825988769531 53.97244262695312
v 110.79669189453125 58.63825988769531 53.97244262695312
# 8 vertices

# 0 normal

# 0 texture coordinate

o fmnt
usemtl Default
f 83/4/158 81/119/158 84/118/158
f 82/120/158 84/118/158 81/119/158
f 86/119/162 85/120/161 88/4/161
f 87/118/161 88/4/161 85/120/161
f 82/120/70 81/119/70 86/118/70
f 85/4/70 86/118/70 81/119/70
f 84/120/165 82/119/165 88/118/165
f 86/4/166 88/118/166 82/119/166
f 83/120/68 84/119/68 87/118/68
f 88/4/68 87/118/68 84/119/68
f 81/120/167 83/119/167 85/118/167
f 87/4/168 85/118/168 83/119/168

v 55.88193130493164 34.57524108886719 -242.771240234375
v 71.17526245117188 34.57524108886719 -242.771240234375
v 55.88193130493164 34.57524108886719 -256.849853515625
v 71.17526245117188 34.57524108886719 -256.849853515625
v 55.88193130493164 26.75743865966797 -242.771240234375
v 71.17526245117188 26.75743865966797 -242.771240234375
v 55.88193130493164 26.75743865966797 -256.849853515625
v 71.17526245117188 26.75743865966797 -256.849853515625
# 8 vertices

vn 0 1 0
vn 0 1 0
vn 0 1 0
vn 0 1 0
vn 0 0 0
vn 0 0 0
vn 0 0 0
vn 0 0 0
# 8 normals

# 0 texture coordinate

o muzzle01
usemtl Default
f 91/4/158 89/119/158 92/118/158
f 90/120/158 92/118/158 89/119/158
f 94/119/162 93/120/161 96/4/161
f 95/118/161 96/4/161 93/120/161
f 90/120/70 89/119/70 94/118/70
f 93/4/70 94/118/70 89/119/70
f 92/120/165 90/119/165 96/118/165
f 94/4/166 96/118/166 90/119/166
f 91/120/68 92/119/68 95/118/68
f 96/4/68 95/118/68 92/119/68
f 89/120/167 91/119/167 93/118/167
f 95/4/168 93/118/168 91/119/168

