# WaveFront *.obj file (generated by Cinema 4D)

v 49.5 198 49.49998474121094
v 99 115.49998474121094 -165.00001525878906
v 49.5 198.00001525878906 181.49995422363281
v 99 132.00001525878906 98.99998474121094
v 99 82.49998474121094 -214.49998474121094
v 99 98.99997711181641 -280.5
v 99 132.00001525878906 230.99998474121094
v 181.5 132.00001525878906 230.99998474121094
v 181.5 132.00001525878906 98.99998474121094
v 181.5 98.99997711181641 -280.5
v 99 65.99996948242188 -330
v 181.5 65.99996948242188 -330
v 99 198 263.99993896484375
v 99 66.00002288818359 313.5
v 99 148.50003051757812 330
v -98.99998474121094 66.00003814697266 313.5
v 181.5 66.00002288818359 313.5
v 99 0.00002019466046 231.00001525878906
v 181.5 0.00002019466046 231.00001525878906
v 181.5 -0.00001153980611 -132
v 99 32.9999885559082 -132
v 99 33.00001907348633 231.00001525878906
v 99 -0.00001153980611 -132
v -98.99998474121094 115.49996948242188 -165.00001525878906
v -49.49998474121094 198 49.49998474121094
v -98.99998474121094 82.49996948242188 -214.49998474121094
v -181.49995422363281 98.99994659423828 -280.5
v -181.49995422363281 132.00003051757812 98.99998474121094
v -181.49995422363281 132.00003051757812 230.99995422363281
v -98.99996948242188 132.00003051757812 230.99995422363281
v -98.99996948242188 98.99994659423828 -280.5
v -98.99996948242188 65.99993896484375 -330
v -181.49995422363281 65.99993896484375 -330
v -98.99998474121094 148.50004577636719 330
v -181.49995422363281 66.00004577636719 313.5
v -181.49995422363281 0.0000437980998 231.00001525878906
v -98.99996948242188 0.0000437980998 231.00001525878906
v -181.49995422363281 -0.00001940761649 -131.99998474121094
v -98.99998474121094 32.99998474121094 -132
v -98.99998474121094 33.00002670288086 231.00001525878906
v -98.99996948242188 -0.00001940761649 -131.99998474121094
v 181.5 115.49999237060547 -165
v -181.49995422363281 115.49996948242188 -165
v -98.99999237060547 198 263.99993896484375
v -98.99998474121094 132.00003051757812 98.99998474121094
v -49.49999237060547 198.00001525878906 181.49995422363281
v -78.24327850341797 140.56109619140625 328.41217041015625
v 78.24298858642578 140.56108093261719 328.41217041015625
v 6.45400238037109 140.56108093261719 328.41217041015625
v -8.4538745880127 140.56108093261719 328.41217041015625
v -78.24327087402344 73.47615051269531 314.99517822265625
v 78.24298858642578 73.47614288330078 314.9952392578125
v 6.45400238037109 73.47614288330078 314.99517822265625
v -8.4538745880127 73.47614288330078 314.99517822265625
v 78.24298858642578 125.17381286621094 350.07269287109375
v 6.45400238037109 125.17381286621094 350.07269287109375
v -78.24327850341797 125.173828125 350.07269287109375
v -8.45387268066406 125.17381286621094 350.07269287109375
# 58 vertices

vt 0.58262157440186 0.61821293830872 0
vt 0.3522390127182 0.56859517097473 0
vt 0.35223972797394 0.767085313797 0
vt 0 1 0
vt 0.58262157440186 0.71746408939362 0
vt 0.61408829689026 0.80809688568115 0
vt 0.71207654476166 0.74443972110748 0
vt 0.71492791175842 0.61821639537811 0
vt 0.71492826938629 0.71746134757996 0
vt 0.29386126995087 0.56859540939331 0
vt 0.2938619852066 0.76708519458771 0
vt 0.79554069042206 0.36110496520996 0
vt 0.91132628917694 0.36110413074493 0
vt 0.91132628917694 0.27840006351471 0
vt 0.79554069042206 0.27840065956116 0
vt 0.97094941139221 0.36110413074493 0
vt 0.97094941139221 0.27840006351471 0
vt 0.7919670343399 0.7982771396637 0
vt 0.739577293396 0.85008335113525 0
vt 0.83894240856171 0.86588704586029 0
vt 0.79701459407806 0.93906962871552 0
vt 0.79763424396515 0.76708388328552 0
vt 0.79763197898865 0.56859362125397 0
vt 0.88029193878174 0.56859278678894 0
vt 0.88029420375824 0.76708269119263 0
vt 0.95697283744812 0.74627351760864 0
vt 0.88840806484222 0.74627423286438 0
vt 0.96461415290833 0.7670818567276 0
vt 0.39856088161469 0.36110651493073 0
vt 0.39856088161469 0.2784024477005 0
vt 0.29267662763596 0.27840256690979 0
vt 0.29267680644989 0.3611067533493 0
vt 0.29267549514771 0.03039658069611 0
vt 0.29267513751984 0.11310076713562 0
vt 0.39855921268463 0.11310088634491 0
vt 0.3985595703125 0.03039681911469 0
vt 0.31585627794266 0.21223962306976 0
vt 0.53088712692261 0.27840185165405 0
vt 0.76245856285095 0.14607453346252 0
vt 0.39855998754501 0.14607608318329 0
vt 0.79554069042206 0.26186001300812 0
vt 0.91132628917694 0.2453191280365 0
vt 0.96094918251038 0.21223700046539 0
vt 0.24282398819923 0.03200101852417 0
vt 0.04433408379555 0.0320029258728 0
vt 0.044334679842 0.12843823432922 0
vt 0.24282470345497 0.12843632698059 0
vt 0.24282720685005 0.49233496189117 0
vt 0.04433718323708 0.49233639240265 0
vt 0.04433771967888 0.58136731386185 0
vt 0.24282786250114 0.58136612176895 0
vt 0.08222243189812 0.95207387208939 0
vt 0.14838561415672 0.93553227186203 0
vt 0.23108932375908 0.88590902090073 0
vt 0.23108896613121 0.85282737016678 0
vt 0.03259974718094 0.91899293661118 0
vt 0.19800850749016 0.96861332654953 0
vt 0.9716067314148 0.03039920330048 0
vt 0.76245772838593 0.03039824962616 0
vt 0.76245737075806 0.11310231685638 0
vt 0.9716067314148 0.11310350894928 0
vt 0.71207571029663 0.59123587608337 0
vt 0.61408710479736 0.52757954597473 0
vt 0.53088736534119 0.36110591888428 0
vt 0.39856034517288 0.2784024477005 0
vt 0.91132628917694 0.27840042114258 0
vt 0.97094941139221 0.27840042114258 0
vt 0.97095024585724 0.3611044883728 0
vt 0.91132712364197 0.3611044883728 0
vt 0.79196608066559 0.53739786148071 0
vt 0.73957562446594 0.48559105396271 0
vt 0.83894050121307 0.46978580951691 0
vt 0.79701173305511 0.39660429954529 0
vt 0.29267627000809 0.27840256690979 0
vt 0.3985595703125 0.03039622306824 0
vt 0.39855980873108 0.11310076713562 0
vt 0.29267567396164 0.11310076713562 0
vt 0.31585568189621 0.21223962306976 0
vt 0.76245856285095 0.1460747718811 0
vt 0.79554033279419 0.26186001300812 0
vt 0.96094846725464 0.21223723888397 0
vt 0.59498775005341 0.8859047293663 0
vt 0.59498691558838 0.85282319784164 0
vt 0.67769229412079 0.91898554563522 0
vt 0.9716067314148 0.03039419651031 0
vt 0.97160744667053 0.11309862136841 0
vt 0.76245772838593 0.11309921741486 0
vt 0.76245772838593 0.03039479255676 0
vt 0.59498691558838 0.85282307863235 0
vt 0.79554033279419 0.27840089797974 0
vt 0.95697212219238 0.67430686950684 0
vt 0.8884072303772 0.67430764436722 0
vt 0.95697200298309 0.65936201810837 0
vt 0.88840711116791 0.65936291217804 0
vt 0.95697116851807 0.58939999341965 0
vt 0.88840627670288 0.58940076828003 0
vt 0.96461200714111 0.56859183311462 0
vt 0.05646139383316 0.70084309577942 0
vt 0.08422899246216 0.70078933238983 0
vt 0.05493128299713 0.6355693936348 0
vt 0.05646181106567 0.77369594573975 0
vt 0.08422875404358 0.77367395162582 0
vt 0.05550163984299 0.8390639424324 0
# 103 texture coordinates

o hull
usemtl Standard_1
f 2/3 24/2 25/1
f 25/1 1/5 2/3
f 4/6 2/3 1/5
f 1/5 3/7 4/6
f 1/5 25/1 46/8
f 46/8 3/9 1/5
f 26/10 24/2 2/3
f 2/3 5/11 26/10
f 10/14 6/13 2/12
f 2/12 42/15 10/14
f 11/16 6/13 10/14
f 10/14 12/17 11/16
f 7/19 4/6 13/18
f 13/18 4/6 3/7
f 7/19 13/18 15/20
f 15/20 14/21 7/19
f 13/22 3/9 46/8
f 46/8 44/23 13/22
f 13/22 44/23 34/24
f 34/24 15/25 13/22
f 15/25 48/27 52/26
f 52/26 14/28 15/25
f 17/31 8/30 7/29
f 7/29 14/32 17/31
f 19/35 17/34 14/33
f 14/33 18/36 19/35
f 9/38 8/30 17/37
f 17/37 19/40 20/39
f 9/38 17/37 20/39
f 42/41 9/38 20/39
f 10/42 42/41 20/39
f 12/43 10/42 20/39
f 39/46 26/45 5/44
f 5/44 21/47 39/46
f 16/50 40/49 22/48
f 22/48 14/51 16/50
f 21/54 5/53 6/52
f 23/55 21/54 6/52
f 23/55 6/52 11/56
f 6/52 5/53 2/57
f 20/60 23/59 11/58
f 11/58 12/61 20/60
f 45/63 46/62 25/1
f 25/1 24/2 45/63
f 29/65 30/29 45/64
f 45/64 28/38 29/65
f 32/68 33/67 27/66
f 27/66 31/69 32/68
f 30/71 44/70 45/63
f 30/71 16/73 34/72
f 34/72 44/70 30/71
f 35/74 16/32 30/29
f 30/29 29/65 35/74
f 36/76 37/75 16/33
f 16/33 35/77 36/76
f 38/79 36/40 35/78
f 35/78 29/65 28/38
f 38/79 35/78 28/38
f 38/79 28/38 43/80
f 38/79 43/80 27/42
f 33/81 38/79 27/42
f 16/84 37/83 40/82
f 31/52 24/57 26/53
f 38/87 33/86 32/85
f 32/85 41/88 38/87
f 21/54 23/55 18/89
f 18/89 22/82 21/54
f 22/82 18/89 14/84
f 41/55 32/56 31/52
f 39/54 41/55 31/52
f 39/54 31/52 26/53
f 39/54 40/82 37/83
f 37/83 41/55 39/54
f 27/66 43/90 24/12
f 24/12 31/69 27/66
f 24/12 43/90 28/38
f 28/38 45/64 24/12
f 4/64 9/38 42/15
f 42/15 2/12 4/64
f 7/29 8/30 9/38
f 9/38 4/64 7/29
f 23/59 20/60 19/35
f 19/35 18/36 23/59
f 22/48 40/49 39/46
f 39/46 21/47 22/48
f 38/87 41/88 37/75
f 37/75 36/76 38/87
f 44/70 46/62 45/63
f 53/91 52/26 55/27
f 55/27 56/92 53/91
f 54/93 53/91 49/92
f 49/92 50/94 54/93
f 51/95 54/93 58/94
f 58/94 57/96 51/95
f 15/25 49/92 48/27
f 16/97 51/95 47/96
f 47/96 34/24 16/97
f 52/26 53/91 14/28
f 53/91 54/93 16/97
f 16/97 14/28 53/91
f 54/93 51/95 16/97
f 34/24 47/96 50/94
f 34/24 50/94 49/92
f 49/92 15/25 34/24
f 52/100 48/99 55/98
f 48/99 49/102 56/101
f 56/101 55/98 48/99
f 49/102 53/103 56/101
f 47/102 51/103 57/101
f 54/100 50/99 58/98
f 50/99 47/102 57/101
f 57/101 58/98 50/99

v -16.5 198.00001525878906 131.99996948242188
v 16.5 198.00001525878906 131.99996948242188
v -16.5 198.00001525878906 98.99996948242188
v 16.5 198.00001525878906 98.99996948242188
v -16.5 231.00001525878906 131.99996948242188
v 16.5 231.00001525878906 131.99996948242188
v -16.5 231.00001525878906 98.99996948242188
v 16.5 231.00001525878906 98.99996948242188
# 8 vertices

vn 0 -1 0
vn 0 -1 0
vn 0 -1 0
vn 0 0 0
vn 0 1 0
vn 0 0 1
vn 0 0 1
vn 1 0 0
vn 0 0 -1
vn 0 0 -1
vn -1 0 0
# 11 normals

vt 1 1 0
vt 1 0 0
vt 0 0 0
# 3 texture coordinates

o mount
usemtl Standard_1
f 59/105/1 61/104/2 62/4/1
f 62/4/1 60/106/1 59/105/1
f 63/106/5 64/105/5 66/104/5
f 66/104/5 65/4/5 63/106/5
f 59/106/6 60/105/6 64/104/6
f 64/104/7 63/4/7 59/106/7
f 60/106/8 62/105/8 66/104/8
f 66/104/8 64/4/8 60/106/8
f 62/106/9 61/105/9 65/104/9
f 65/104/10 66/4/10 62/106/10
f 61/106/11 59/105/11 63/104/11
f 63/104/11 65/4/11 61/106/11

