v -28.9423828125 32.32239151000977 -172.44403076171875
v -17.21826171875 52.01286697387695 -277.0001220703125
v -73.2373046875 61.53855514526367 -1.87286376953125
v -19.91015625 31.36117744445801 -276.2344970703125
v -29.078125 62.23773193359375 -129.34170532226562
v -26.58251953125 -0.1781455129385 -131.4224853515625
v -36.71142578125 71.94288635253906 -1.37840270996094
v -44.40576171875 30.2432918548584 137.41183471679688
v -36.64013671875 95.01936340332031 -1.38015747070312
v -31.04931640625 24.26603889465332 -315.26409912109375
v -31.10009765625 54.92031097412109 -333.054443359375
v -48.11767578125 76.46533966064453 104.63311767578125
v -54.7470703125 31.86999320983887 152.17707824707031
v -48.1201171875 92.23210144042969 121.06871032714844
v -54.7451171875 47.67943572998047 168.66314697265625
v 29.0791015625 62.23838806152344 -129.3421630859375
v 36.64013671875 95.01936340332031 -1.38015747070312
v 31.046875 24.26572036743164 -315.26458740234375
v 31.09912109375 54.92021942138672 -333.0545654296875
v 48.11767578125 76.46533203125 104.63311767578125
v 54.7451171875 47.67942810058594 168.66314697265625
v -72.83349609375 -0.08652468770742 -0.00039672851562
v -88.6767578125 31.11426162719727 0.04595947265625
v -34.9345703125 0.21892605721951 119.37063598632812
v -38.79345703125 62.69404602050781 102.04953765869141
v 38.79150390625 62.6929931640625 102.04890441894531
v 44.40771484375 30.24441719055176 137.41252136230469
v 54.7470703125 31.8699951171875 152.17707824707031
v 48.12060546875 92.23210144042969 121.06871032714844
v 36.71142578125 71.94288635253906 -1.37840270996094
v 73.2373046875 61.53878021240234 -1.87152099609375
v 28.94140625 32.32159423828125 -172.44342041015625
v 0 57.02490615844727 -276.7320556640625
v 72.83349609375 -0.08652468770742 -0.00039672851562
v 34.9345703125 0.21892605721951 119.37063598632812
v 88.67626953125 31.11400032043457 0.0447998046875
v 26.58251953125 -0.1781455129385 -131.4224853515625
v 17.216796875 52.01264190673828 -277.00079345703125
v 19.90869140625 31.36096572875977 -276.2344970703125
# 39 vertices

vt 0.15342253446579 0.32804834842682 0
vt 0.22169256210327 0.34330821037292 0
vt 0.25832039117813 0.15616703033447 0
vt 0 1 0
vt 0.21852341294289 0.69005680084229 0
vt 0.25963360071182 0.87653636932373 0
vt 0.29691731929779 0.86880439519882 0
vt 0.25411766767502 0.60045838356018 0
vt 0.20938402414322 0.36341655254364 0
vt 0.1399137377739 0.37154829502106 0
vt 0.24201503396034 0.59719169139862 0
vt 0.26234889030457 0.35535454750061 0
vt 0.17548489570618 0.86170971393585 0
vt 0.15278708934784 0.965467274189 0
vt 0.18924197554588 0.97381836175919 0
vt 0.22064939141274 0.90862327814102 0
vt 0.119215041399 0.9654284119606 0
vt 0.97107684612274 0.33877992630005 0
vt 0.70340943336487 0.33877992630005 0
vt 0.78839755058289 0.58027112483978 0
vt 0.88608860969543 0.58027112483978 0
vt 0.568195104599 0.95292586088181 0
vt 0.59043610095978 0.97776651382446 0
vt 0.67888903617859 0.97002321481705 0
vt 0.68782675266266 0.93964868783951 0
vt 0.56136059761047 0.91152006387711 0
vt 0.68110430240631 0.89901828765869 0
vt 0.32987016439438 0.86625128984451 0
vt 0.22148662805557 0.36668312549591 0
vt 0.40165787935257 0.1562739610672 0
vt 0.39700269699097 0.35535454750061 0
vt 0.43828552961349 0.34341526031494 0
vt 0.06294383108616 0.86171054840088 0
vt 0.01860543340445 0.90940582752228 0
vt 0.05114690214396 0.97404235601425 0
vt 0.08730188012123 0.96574109792709 0
vt 0.43849152326584 0.36679017543793 0
vt 0.06128921359777 0.79659312963486 0
vt 0.17713844776154 0.79659241437912 0
vt 0.15551629662514 0.72422707080841 0
vt 0.08291040360928 0.72422760725021 0
vt 0.78436732292175 0.67651283740997 0
vt 0.80094015598297 0.8674607872963 0
vt 0.87354612350464 0.8674607872963 0
vt 0.89011883735657 0.67651283740997 0
vt 0.77304995059967 0.11943292617798 0
vt 0.90143644809723 0.11943292617798 0
vt 0.75574219226837 0.05512773990631 0
vt 0.91874420642853 0.05512773990631 0
vt 0.51938796043396 0.7103259563446 0
vt 0.49208831787109 0.7294242978096 0
vt 0.49208873510361 0.89242625236511 0
vt 0.51938891410828 0.91152399778366 0
vt 0.56135952472687 0.71033000946045 0
vt 0.68110370635986 0.72283053398132 0
vt 0.72299706935883 0.72250694036484 0
vt 0.72299766540527 0.89934158325195 0
vt 0.74867022037506 0.88230383396149 0
vt 0.74866962432861 0.73954439163208 0
vt 0.09704796969891 0.30041825771332 0
vt 0.23091799020767 0.07170963287354 0
vt 0.16285428404808 0.06249225139618 0
vt 0.04645293951035 0.2610125541687 0
vt 0.07863157987595 0.38498938083649 0
vt 0.02481051161885 0.4198637008667 0
vt 0.12939557433128 0.65351432561874 0
vt 0.56819415092468 0.66892427206039 0
vt 0.68782556056976 0.6822007894516 0
vt 0.67903292179108 0.65279340744019 0
vt 0.59065103530884 0.64427852630615 0
vt 0.50655543804169 0.32815539836884 0
vt 0.5198746919632 0.37258982658386 0
vt 0.45040452480316 0.36445796489716 0
vt 0.41777354478836 0.59823316335678 0
vt 0.40576583147049 0.6010325551033 0
vt 0.36287146806717 0.86984580755234 0
vt 0.5629301071167 0.30052518844604 0
vt 0.61352515220642 0.26111948490143 0
vt 0.49712383747101 0.0625993013382 0
vt 0.42906022071838 0.07181656360626 0
vt 0.44126516580582 0.6910982131958 0
vt 0.58115696907043 0.38603079319 0
vt 0.53039276599884 0.6545557975769 0
vt 0.63497793674469 0.4209052324295 0
vt 0.44126528501511 0.69109815359116 0
vt 0.40015512704849 0.87757778167725 0
# 86 texture coordinates

o turret_fre
usemtl 21 - Default [tu
f 25/3 7/2 3/1
f 2/7 4/6 1/5
f 1/5 5/8 2/7
f 5/11 3/10 7/9
f 7/2 25/3 9/12
f 4/15 2/14 11/13
f 11/13 10/16 4/15
f 2/14 33/17 11/13
f 37/20 34/19 22/18
f 22/18 6/21 37/20
f 25/24 8/23 13/22
f 13/22 12/25 25/24
f 12/25 13/22 15/26
f 15/26 14/27 12/25
f 7/29 9/12 33/28
f 5/8 7/29 33/28
f 33/28 2/7 5/8
f 30/32 17/31 26/30
f 39/35 18/34 19/33
f 19/33 38/36 39/35
f 38/36 19/33 33/17
f 30/37 33/28 17/31
f 11/13 33/17 19/33
f 11/13 19/33 18/38
f 18/38 10/39 11/13
f 4/40 10/39 18/38
f 18/38 39/41 4/40
f 4/44 39/43 32/42
f 32/42 1/45 4/44
f 6/21 1/45 32/42
f 32/42 37/20 6/21
f 9/12 17/31 33/28
f 22/18 34/19 35/46
f 35/46 24/47 22/18
f 24/47 35/46 27/48
f 27/48 8/49 24/47
f 8/52 27/51 28/50
f 28/50 13/53 8/52
f 13/53 28/50 21/54
f 21/54 15/26 13/53
f 15/26 21/54 29/55
f 29/55 14/27 15/26
f 14/27 29/55 20/56
f 20/56 12/57 14/27
f 25/58 12/57 20/56
f 20/56 26/59 25/58
f 25/3 26/30 17/31
f 17/31 9/12 25/3
f 24/62 8/61 23/60
f 23/60 22/63 24/62
f 23/64 3/10 5/11
f 5/11 1/5 23/64
f 25/3 3/1 23/60
f 23/60 8/61 25/3
f 6/66 22/65 23/64
f 23/64 1/5 6/66
f 26/69 20/68 28/67
f 28/67 27/70 26/69
f 20/68 29/55 21/54
f 21/54 28/67 20/68
f 26/30 31/71 30/32
f 16/74 30/73 31/72
f 16/75 33/28 30/37
f 33/28 16/75 38/76
f 35/79 34/78 36/77
f 36/77 27/80 35/79
f 36/82 32/81 16/74
f 16/74 31/72 36/82
f 26/30 27/80 36/77
f 36/77 31/71 26/30
f 37/83 32/81 36/82
f 36/82 34/84 37/83
f 38/76 16/75 32/85
f 32/85 39/86 38/76

v 39.1396484375 64.98586273193359 49.65367889404297
v 54.4326171875 64.98586273193359 49.65367889404297
v 39.1396484375 64.98586273193359 35.57500457763672
v 54.4326171875 64.98586273193359 35.57500457763672
v 39.1396484375 57.16806030273438 49.65367889404297
v 54.4326171875 57.16806030273438 49.65367889404297
v 39.1396484375 57.16806030273438 35.57500457763672
v 54.4326171875 57.16806030273438 35.57500457763672
# 8 vertices

vn 0 1 0
vn 0 -1 0
vn 0 -1 0
vn 0 -1 0
vn 0 -1 0
vn 0 -1 0
vn 0 -1 0
vn 0 0 1
vn 0 -1 0
vn 0 -1 0
vn 1 0 0
vn 0 -1 0
vn 1 0 0
vn 0 -1 0
vn 0 0 -1
vn 0 -1 0
vn 0 -1 0
vn -1 0 0
vn 0 0 0
vn -1 0 0
# 20 normals

vt 1 1 0
vt 1 0 0
vt 0 0 0
# 3 texture coordinates

o fmnt
usemtl Материал
f 40/89/1 41/88/1 43/87/1
f 43/87/1 42/4/1 40/89/1
f 44/88/4 46/87/5 47/4/4
f 47/4/4 45/89/4 44/88/4
f 40/89/8 44/4/8 45/87/8
f 45/87/8 41/88/8 40/89/8
f 41/89/11 45/4/11 47/87/11
f 47/87/13 43/88/13 41/89/13
f 43/89/15 47/4/15 46/87/15
f 46/87/15 42/88/15 43/89/15
f 42/89/18 46/4/18 44/87/18
f 44/87/20 40/88/20 42/89/20

v -7.646484375 43.01995849609375 -130.79127502441406
v 7.646484375 43.01995849609375 -130.79127502441406
v -7.646484375 43.01995849609375 -144.86994934082031
v 7.646484375 43.01995849609375 -144.86994934082031
v -7.646484375 35.20215606689453 -130.79127502441406
v 7.646484375 35.20215606689453 -130.79127502441406
v -7.646484375 35.20215606689453 -144.86994934082031
v 7.646484375 35.20215606689453 -144.86994934082031
# 8 vertices

vn 0 -1 0
# 1 normal

# 0 texture coordinate

o origin0
usemtl 21 - Default [tu
f 48/89/1 49/88/1 51/87/1
f 51/87/1 50/4/1 48/89/1
f 52/88/4 54/87/5 55/4/4
f 55/4/4 53/89/4 52/88/4
f 48/89/8 52/4/8 53/87/8
f 53/87/8 49/88/8 48/89/8
f 49/89/11 53/4/11 55/87/11
f 55/87/13 51/88/13 49/89/13
f 51/89/15 55/4/15 54/87/15
f 54/87/15 50/88/15 51/89/15
f 50/89/18 54/4/18 52/87/18
f 52/87/20 48/88/20 50/89/20

v -7.646484375 43.01995849609375 -300.69802856445312
v 7.646484375 43.01995849609375 -300.69802856445312
v -7.646484375 43.01995849609375 -314.77670288085938
v 7.646484375 43.01995849609375 -314.77670288085938
v -7.646484375 35.20215606689453 -300.69802856445312
v 7.646484375 35.20215606689453 -300.69802856445312
v -7.646484375 35.20215606689453 -314.77670288085938
v 7.646484375 35.20215606689453 -314.77670288085938
# 8 vertices

# 0 normal

# 0 texture coordinate

o muzzle0
usemtl 21 - Default [tu
f 56/89/1 57/88/1 59/87/1
f 59/87/1 58/4/1 56/89/1
f 60/88/4 62/87/5 63/4/4
f 63/4/4 61/89/4 60/88/4
f 56/89/8 60/4/8 61/87/8
f 61/87/8 57/88/8 56/89/8
f 57/89/11 61/4/11 63/87/11
f 63/87/13 59/88/13 57/89/13
f 59/89/15 63/4/15 62/87/15
f 62/87/15 58/88/15 59/89/15
f 58/89/18 62/4/18 60/87/18
f 60/87/20 56/88/20 58/89/20

