v -49.49998474121094 82.49995422363281 66
v 49.49996185302734 82.49995422363281 66
v 49.49996185302734 82.49995422363281 -49.5
v -49.49998474121094 82.49995422363281 -49.5
v 82.50003051757812 49.49995422363281 -99
v 82.50003051757812 49.49995422363281 115.5
v 82.50003051757812 16.49995231628418 115.5
v 82.50003051757812 16.49995613098145 -99
v 66 0 99.0001220703125
v 66 0 -82.5
v -82.50010681152344 49.49995422363281 -99
v -82.50010681152344 49.49996948242188 115.5
v -82.5001220703125 16.49996948242188 115.5
v -82.5001220703125 16.49995231628418 -99
v -66.00007629394531 0.00001328463986 99.0001220703125
v -66.00007629394531 -0.00000281597522 -82.5
v 115.49996185302734 49.5 -65.9998779296875
v 115.49996185302734 49.5 82.5
v 115.49996185302734 16.5 82.5
v 115.49996185302734 16.5 -65.9998779296875
v -115.5 49.5 -65.9998779296875
v -115.5 49.5000114440918 82.5
v -115.5 16.50001335144043 82.5
v -115.5 16.49999809265137 -65.9998779296875
v 22.91517639160156 82.49995422363281 -49.5
v -22.91519165039062 82.49995422363281 -49.5
v 22.91514587402344 49.49996185302734 -99
v -22.915283203125 49.49995803833008 -99
v 9.95317077636719 82.49995422363281 -99
v -9.95326232910156 82.49995422363281 -99
v -73.0037841796875 49.44803619384766 -247.5
v -54.01115417480469 49.44803619384766 -247.5
v -44.51484680175781 32.99993896484375 -247.5
v -54.01116943359375 16.55184936523438 -247.5
v -73.0037841796875 16.55184936523438 -247.5
v -82.50009155273438 32.99993896484375 -247.5
v -54.01345825195312 16.53887939453125 -99
v -44.50588989257812 33.01038360595703 -99
v -53.99801635742188 49.46553802490234 -99
v -73.00776672363281 49.46102905273438 -99
v -73.00848388671875 16.52895355224609 -99
v -82.51171875 32.99413299560547 -99
v -54.01152038574219 49.44866180419922 148.5
v -44.51521301269531 33.00056838989258 148.5
v -54.01152038574219 16.55247116088867 148.5
v -73.004150390625 16.55247116088867 148.5
v -82.50045776367188 33.00057220458984 148.5
v -73.004150390625 49.44865417480469 148.5
v 44.51486968994141 32.99996948242188 148.5
v 54.01118469238281 16.55187606811523 148.5
v 73.00380706787109 16.55187606811523 148.5
v 82.50011444091797 32.99996948242188 148.5
v 73.00379943847656 49.44806671142578 148.5
v 54.01118469238281 49.44806289672852 148.5
v -73.00413513183594 16.55247497558594 115.5
v -53.99026489257812 16.5373649597168 115.5
v -44.4945068359375 32.98452377319336 115.5
v -54.01152038574219 49.44869232177734 115.5
v -82.5257568359375 33.00864410400391 115.5
v -73.02621459960938 49.46234130859375 115.5
v 54.01571655273438 16.51293563842773 115.5
v 44.51481628417969 32.99999237060547 115.5
v 82.50006866455078 32.99997329711914 115.5
v 73.0032958984375 16.51293563842773 115.5
v 73.01136779785156 49.48698425292969 115.5
v 54.01104736328125 49.48698425292969 115.5
v -49.49998474121094 82.49995422363281 -10.999755859375
v 49.49996948242188 82.49995422363281 -10.9996337890625
v 115.49997711181641 49.5 -10.99951171875
v -115.5 49.50000381469727 -10.99951171875
v 49.50007629394531 82.49990844726562 27.50048828125
v -115.5 49.50000762939453 27.50048828125
v -49.50019836425781 82.49985504150391 27.5003662109375
v 115.49997711181641 49.50000381469727 27.50048828125
v -86.97210693359375 82.5 -10.9996337890625
v -86.97222900390625 82.49995422363281 27.50048828125
v 73.0037841796875 49.44803619384766 -247.5
v 54.01116180419922 16.55184936523438 -247.5
v 73.0037841796875 16.55184936523438 -247.5
v 82.50009155273438 32.99993896484375 -247.5
v 53.99802398681641 49.46553802490234 -99
v 54.01115417480469 49.44803619384766 -247.5
v 73.00776672363281 49.46102905273438 -99
v 44.50588989257812 33.01038360595703 -99
v 44.51484680175781 32.99993896484375 -247.5
v 54.01345062255859 16.53887939453125 -99
v 73.00849151611328 16.52895355224609 -99
v 82.51171875 32.99413299560547 -99
v 86.97211456298828 82.5 -10.9996337890625
v 86.97222137451172 82.49995422363281 27.50048828125
# 90 vertices

vn -0.22975440323353 0.97324866056442 0.00000002960586
vn -0.00000248712104 1 0.00000000001675
vn -0.11978805810213 0.96822726726532 0.21951477229595
vn 0 0 0
vn -0.90430104732513 0.35519912838936 -0.23679772019386
vn 0 0 -1
vn 0.21791885793209 0.96303701400757 0.15833839774132
vn 0.11824426054955 0.86079162359238 0.49503135681152
vn 0 -1 0
vn -0.17779070138931 0.8693773150444 0.46105700731277
vn -0.1403251439333 -0.76674729585648 0.62642431259155
vn -0.21132561564445 -0.78867465257645 0.57735067605972
vn 0.14032498002052 -0.76674723625183 0.62642443180084
vn 0.21132542192936 -0.78867465257645 0.57735073566437
vn -0.14032499492168 -0.7667493224144 -0.62642192840576
vn -0.2113254070282 -0.78867644071579 -0.57734829187393
vn 0.14032493531704 -0.76674926280975 -0.62642198801041
vn 0.21132530272007 -0.7886763215065 -0.57734853029251
vn 1 -0.00000030825839 -0.00000009247687
vn 1 -0.00000023119382 -0.00000013871531
vn 1 0 -0.00000027743067
vn 0.70710754394531 0 0.70710605382919
vn 0.70710754394531 0 0.70710605382919
vn 0.70710879564285 0 -0.70710480213165
vn 0.34815552830696 0.87038844823837 -0.34815472364426
vn 0.40439230203629 0.89729201793671 -0.17701369524002
vn 0.21963730454445 0.94094806909561 -0.25763577222824
vn 0.40439194440842 0.897292137146 0.17701403796673
vn 0.15269757807255 0.98827296495438 0.00000009077883
vn 0.44721308350563 0.8944274187088 0.00000022598914
vn 0 -1 0
vn 0.40824902057648 -0.8164975643158 -0.4082455933094
vn 0.40824925899506 -0.81649661064148 0.40824720263481
vn 0.3162280023098 -0.94868320226669 0
vn 0.16018237173557 -0.98708742856979 0
vn 0.10663232207298 -0.99429851770401 0.00000002991261
vn 0.56292688846588 0.58011549711227 -0.58870983123779
vn -1 0 0
vn 0.56834095716476 0.57842993736267 -0.58515584468842
vn -0.70710808038712 0 0.70710545778275
vn 0.56324404478073 0.58005720376968 -0.58846396207809
vn -0.70710796117783 0.00000031705008 0.70710563659668
vn 0.57105380296707 0.57575386762619 -0.58515387773514
vn -0.70710933208466 0.00000015852478 -0.7071042060852
vn -0.70710927248001 0 -0.70710432529449
vn -0.7071093916893 0.00000031704957 -0.70710414648056
vn 0.55096727609634 0.56818503141403 -0.61122894287109
vn -0.40439230203629 0.89729207754135 -0.1770134717226
vn -0.34815564751625 0.87038850784302 -0.34815445542336
vn 0.55611616373062 0.57624709606171 -0.59889405965805
vn -0.42038628458977 0.89966750144958 0.11778675019741
vn 0.6972873210907 0.71679174900055 0
vn -0.40824949741364 -0.81649667024612 0.40824693441391
vn 1 0 0
vn -0.31622821092606 -0.94868314266205 0.00000008378439
vn -0.16018250584602 -0.98708742856979 0.00000008737472
vn -0.10663245618343 -0.99429851770401 0.00000005816478
vn 0 0 -1
vn -0.31622818112373 -0.94868314266205 0.00000010240331
vn 0.69647020101547 0 -0.7175857424736
vn -0.40824922919273 -0.81649768352509 -0.40824508666992
vn 0.50566279888153 0 -0.86273121833801
vn 1 0 0
vn 0 0 -1
vn 0.00000005326888 0.83205032348633 -0.55470013618469
vn 0.00000010653776 0.83205032348633 -0.55470019578934
vn 0.77761000394821 0 -0.62874686717987
vn 0.00000058783985 0.99550729990006 -0.09468505531549
vn 1 0 0
vn -0.00000006887296 0.83205032348633 -0.55470019578934
vn 1 0 0
vn 0 0.83205032348633 -0.55470013618469
vn 0 0.95709204673767 -0.2897841334343
vn 0.50092738866806 0 -0.8654893040657
vn 0 0 -1
vn 0.19699956476688 0 -0.98040360212326
vn 0.50278151035309 0 -0.86441349983215
vn 0 1 0
vn 1 0 0
vn 0 1 0
vn 0 0 -1
vn 0.90430116653442 0.35519796609879 -0.23679913580418
vn 0.75208127498627 0 -0.65907037258148
vn 1 0 0
vn 1 0 0
vn 0.49172487854958 0 -0.87075060606003
vn 0 0 1
vn 0.66129559278488 0 -0.75012540817261
vn 0 0 1
vn 0.50841253995895 0 -0.86111360788345
vn 0.81878584623337 0 -0.57409900426865
vn 0 0 -1
vn 0.79481947422028 0 -0.60684591531754
vn 0.51452726125717 0 -0.85747402906418
vn 1 0 0
vn 0.49857813119888 0 -0.86684477329254
vn -0.0001185962974 1 -0.00010266523168
vn 0 1 -0.00008749398694
vn 0.64894896745682 0 -0.76083195209503
vn -0.00023719258024 0.99999994039536 -0.00011783646187
vn 0.50078952312469 0 -0.86556905508041
vn 0.8660255074501 0.49999979138374 -0.0001355461136
vn 1 0 0
vn 0.86621361970901 0.49967381358147 -0.00008739064651
vn 0 0 -1
vn 0.86602509021759 -0.5000005364418 -0.00001706789044
vn 0.71983510255814 0 -0.69414514303207
vn 0.86607682704926 -0.49991092085838 -0.00003031338565
vn 1 0 0
vn 0 -1 -0.0000873398676
vn 1 0 0
vn 0.00052254943876 -0.99999988079071 -0.00015416397946
vn 0 0 -1
vn -0.86602544784546 -0.49999994039536 -0.00010449811816
vn 0.69129717350006 0 -0.72257053852081
vn -0.86609238386154 -0.49988400936127 -0.00008735716256
vn 0.50935405492783 0 -0.86055701971054
vn -0.8660255074501 0.49999976158142 -0.0000482590367
vn 1 0 0
vn -0.8660985827446 0.49987319111824 -0.00006696334458
vn 0 0 -1
vn 0.76093345880508 0 -0.6488299369812
vn 1 0 0
vn 0.86589539051056 0.50022512674332 0.00015019135026
vn 0.86576515436172 0.50045037269592 0.00029992009513
vn 1 0 0
vn 0.8660255074501 0.49999982118607 0.00000046256719
vn 0.50208306312561 0 -0.86481940746307
vn 0.86602544784546 -0.49999931454659 0.00078670104267
vn 0.18427024781704 0 -0.98287564516068
vn 0.86602526903152 -0.49999958276749 0.00078648555791
vn -0.00039734187885 -0.99999988079071 0.00022882386111
vn -0.00079468364129 -0.99999970197678 -0.00000011594
vn 0 -0.99999988079071 0.00045776361367
vn 0 0.00000000000023 -1
vn -0.86579024791718 -0.50040698051453 0.00027030959609
vn -0.86555463075638 -0.50081419944763 0.00054108171025
vn 0 0.00097653223202 -0.99999952316284
vn -0.86602556705475 -0.49999967217445 -0.00000046256704
vn 0.00000000046565 0.00000005960102 -1
vn -0.86602514982224 0.49999982118607 0.00078632764053
vn -0.86602520942688 0.49999967217445 0.0007864125655
vn 0 0.00024413317442 -1
vn -0.86602509021759 0.49999997019768 0.00078624271555
vn 0 0 -1
vn 0.00035870537977 0.99999994039536 0.00020784334629
vn 0.00071781233419 0.99999976158142 0.00000092477262
vn -0.00000040170286 0.99999994039536 0.00041476186016
vn 1 0 0
vn 0.70710676908493 0 -0.70710676908493
vn -0.86622899770737 -0.49964720010757 0.0002356209443
vn -0.86602532863617 -0.50000011920929 0.0000010547468
vn -0.86643248796463 -0.49929404258728 0.00047018704936
vn 0 -0.99999928474426 0.00118001224473
vn 0 -0.99999928474426 0.00118001212832
vn 0.86627590656281 -0.49956575036049 0.00028766592732
vn 0.86602538824081 -0.4999997317791 0.00057659146842
vn 0.86652618646622 -0.49913161993027 -0.00000125971076
vn 0.86636745929718 0.49940690398216 0.00039294586168
vn 0.86602532863617 0.50000011920929 -0.00000114351963
vn 0.86670905351639 0.49881342053413 0.00078703503823
vn 0 -1 0
vn -0.00000010042573 0.99999928474426 0.00117937650066
vn -0.00000020085146 0.99999928474426 0.00117931864224
vn 0 0.99999928474426 0.00117943435907
vn -0.8662816286087 0.49955579638481 0.00029753512354
vn -0.86602514982224 0.50000005960464 0.00059332151432
vn -0.86653786897659 0.4991112947464 0.00000174854142
vn 0 0 -1
vn 0.0000026468349 1 0.00000118900107
vn 0.00000122161964 1 0.00000257615784
vn 0.44721308350563 0.89442747831345 -0.00000010312367
vn 0.15269583463669 0.9882732629776 0.00000037662929
vn 0 -1 0
vn -0.44721299409866 0.89442747831345 0
vn 0 -1 0
vn -0.44721296429634 0.89442747831345 -0.00000006015554
vn -0.44721305370331 0.89442747831345 -0.00000006203637
vn 0.00000373082617 1 0.00000257617194
vn -1 0 0
vn 0 -1 0
vn 0 -1 0
vn 1 -0.00000023119374 0.0000001387175
vn 1 0 0.00000027743499
vn 1 -0.00000030825839 0.00000009247835
vn -0.00000325763131 -0.00000088293825 -1
vn 0.00000325763085 -0.00000281615439 1
vn -0.75650745630264 0.65398508310318 -0.00000007268576
vn -0.75650656223297 0.65398609638214 -0.00000163541984
vn 0 0 0
vn 0.00011859634833 1 -0.00010266523896
vn 0.00023719268211 0.99999994039536 -0.00011783646914
vn -1 0 0
vn 0 1 -0.00008749400149
vn -0.86621350049973 0.49967411160469 -0.00008738772885
vn -0.86602556705475 0.49999976158142 -0.00013550239964
vn -0.86607700586319 -0.49991062283516 -0.00003031496999
vn -0.86602526903152 -0.50000023841858 -0.00001706900002
vn -0.0005225490313 -0.99999988079071 -0.00015416396491
vn 0 0 1
vn 0.86609256267548 -0.49988368153572 -0.00008735476149
vn 0 -1 0
vn 0.86602544784546 -0.49999994039536 -0.00010454561561
vn 0.8660985827446 0.49987319111824 -0.00006696618948
vn 0.86602556705475 0.49999976158142 -0.00004825846554
vn 0 0 -1
vn -0.00000122161043 1 0.00000118899607
vn 0 0 1
vn 0.00000000000452 -0.00000369909662 -1
vn 1 0 0
vn 0.75650697946548 0.65398561954498 -0.00000132120556
vn 0.75650769472122 0.65398478507996 -0.0000000647988
# 212 normals

vt 0.26191413402557 0.77869510650635 0
vt 0.41027355194092 0.72747272253036 0
vt 0.1877353489399 0.77869468927383 0
vt 0 1 0
vt 0.73572838306427 0.94560581445694 0
vt 0.71975266933441 0.88383167982101 0
vt 0.62404263019562 0.9088938832283 0
vt 0.1877353489399 0.58794760704041 0
vt 0.07311053574085 0.52436518669128 0
vt 0.07313549518585 0.842240691185 0
vt 0.94496119022369 0.45644843578339 0
vt 0.9899206161499 0.48823976516724 0
vt 0.98992073535919 0.17032766342163 0
vt 0.94496119022369 0.2021187543869 0
vt 0.55029857158661 0.48823964595795 0
vt 0.59525811672211 0.4564483165741 0
vt 0.59525811672211 0.2021187543869 0
vt 0.55029845237732 0.17032754421234 0
vt 0.44206464290619 0.38219082355499 0
vt 0.33609312772751 0.44577312469482 0
vt 0.44206464290619 0.44577312469482 0
vt 0.15594407916069 0.38219082355499 0
vt 0.06602509319782 0.3821907043457 0
vt 0.06602509319782 0.44577300548553 0
vt 0.15594407916069 0.44577300548553 0
vt 0.53198373317719 0.44577300548553 0
vt 0.53198373317719 0.38219082355499 0
vt 0.52489829063416 0.52440011501312 0
vt 0.41027355194092 0.58794760704041 0
vt 0.26191377639771 0.58794760704041 0
vt 0.26191371679306 0.44577312469482 0
vt 0.62704932689667 0.10158622264862 0
vt 0.91316986083984 0.10158622264862 0
vt 0.33609312772751 0.92086905241013 0
vt 0.44206464290619 0.98445147275925 0
vt 0.44206464290619 0.92086905241013 0
vt 0.06602530181408 0.98445147275925 0
vt 0.15594407916069 0.98445147275925 0
vt 0.15594413876534 0.92086905241013 0
vt 0.06602530181408 0.92086905241013 0
vt 0.5319836139679 0.92086923122406 0
vt 0.5319836139679 0.98445159196854 0
vt 0.52487349510193 0.84224998950958 0
vt 0.41027355194092 0.77869468927383 0
vt 0.91316998004913 0.55698084831238 0
vt 0.62704932689667 0.55698072910309 0
vt 0.52489829063416 0.63933873176575 0
vt 0.41027355194092 0.63916957378387 0
vt 0.52489829063416 0.72747278213501 0
vt 0.71975255012512 0.84534192085266 0
vt 0.78355932235718 0.9088938832283 0
vt 0.78355896472931 0.82027930021286 0
vt 0.62404263019562 0.82027941942215 0
vt 0.73572790622711 0.78356766700745 0
vt 0.00990077853203 0.52425271272659 0
vt 0.00987135618925 0.84220397472382 0
vt 0.58829545974731 0.52508175373077 0
vt 0.58805537223816 0.84200769662857 0
vt 0.52484524250031 0.52477884292603 0
vt 0.17923855781555 0.09882342815399 0
vt 0.22446930408478 0.09882342815399 0
vt 0.2470298409462 0.05934381484985 0
vt 0.15664154291153 0.05934381484985 0
vt 0.35845977067947 0.33080184459686 0
vt 0.07314251363277 0.33080184459686 0
vt 0.07314251363277 0.36994111537933 0
vt 0.35845977067947 0.37000298500061 0
vt 0.35845977067947 0.12282013893127 0
vt 0.07314251363277 0.12280929088593 0
vt 0.07314251363277 0.16802358627319 0
vt 0.35845977067947 0.16798186302185 0
vt 0.07314251363277 0.20718264579773 0
vt 0.35845977067947 0.20718288421631 0
vt 0.07314251363277 0.24639904499054 0
vt 0.35845977067947 0.24638402462006 0
vt 0.07314251363277 0.29162979125977 0
vt 0.35845977067947 0.29160070419312 0
vt 0.22443276643753 0.01986408233643 0
vt 0.17923855781555 0.01986408233643 0
vt 0.36903536319733 0.33111822605133 0
vt 0.36903536319733 0.37069988250732 0
vt 0.43475252389908 0.37063765525818 0
vt 0.43475252389908 0.33111822605133 0
vt 0.36903542280197 0.12130296230316 0
vt 0.36903536319733 0.16689920425415 0
vt 0.43475252389908 0.16692745685577 0
vt 0.43475252389908 0.1212944984436 0
vt 0.36903530359268 0.20644664764404 0
vt 0.43475252389908 0.20644676685333 0
vt 0.36903530359268 0.24599039554596 0
vt 0.43475252389908 0.24596607685089 0
vt 0.36903536319733 0.29156875610352 0
vt 0.43475252389908 0.29159903526306 0
vt 0.47427177429199 0.3144154548645 0
vt 0.47427177429199 0.22314953804016 0
vt 0.51379108428955 0.29159903526306 0
vt 0.51379108428955 0.24596607685089 0
vt 0.44401049613953 0.02211225032806 0
vt 0.44401049613953 0.08782935142517 0
vt 0.40449106693268 0.08782935142517 0
vt 0.40442883968353 0.02211225032806 0
vt 0.6538257598877 0.02211225032806 0
vt 0.65383434295654 0.08782935142517 0
vt 0.60820126533508 0.08782935142517 0
vt 0.608229637146 0.02211225032806 0
vt 0.56868195533752 0.08782935142517 0
vt 0.56868207454681 0.02211213111877 0
vt 0.52916264533997 0.08782935142517 0
vt 0.5291383266449 0.02211213111877 0
vt 0.4835296869278 0.08782935142517 0
vt 0.48355996608734 0.02211225032806 0
vt 0.46071326732636 0.12734854221344 0
vt 0.5519791841507 0.12734854221344 0
vt 0.52916264533997 0.166867852211 0
vt 0.4835296869278 0.166867852211 0
vt 0.98195433616638 0.82793414592743 0
vt 0.90983319282532 0.82793426513672 0
vt 0.90983366966248 0.90203380584717 0
vt 0.98195493221283 0.90203380584717 0
vt 0.33609318733215 0.58794760704041 0
vt 0.33609366416931 0.77869468927383 0
vt 0.26191371679306 0.92086911201477 0
vt 0.82587718963623 0.90221953392029 0
vt 0.95708012580872 0.95652425289154 0
vt 0.95683825016022 0.77323532104492 0
vt 0.82587707042694 0.82818174362183 0
# 126 texture coordinates

o turret
usemtl Material #2
f 1/3/3 26/2/2 73/1/1
f 26/7/5 30/6/5 28/5/5
f 6/9/8 2/8/7 1/3/3
f 1/3/3 12/10/10 6/9/8
f 7/13/13 13/12/12 15/11/11
f 15/11/11 9/14/14 7/13/13
f 10/17/17 16/16/16 14/15/15
f 14/15/15 8/18/18 10/17/17
f 17/21/21 69/20/20 20/19/19
f 6/24/22 7/23/22 19/22/22
f 19/22/23 18/25/23 6/24/23
f 8/27/24 5/26/24 17/21/24
f 17/21/24 20/19/24 8/27/24
f 3/29/27 17/21/26 5/28/25
f 6/9/8 18/25/28 2/8/7
f 74/31/30 71/30/29 2/8/7
f 2/8/7 18/25/28 74/31/30
f 20/32/32 10/17/17 8/18/18
f 7/13/13 9/14/14 19/33/33
f 10/17/34 20/32/34 19/33/34
f 19/33/34 9/14/36 10/17/35
f 21/36/38 24/35/38 70/34/38
f 22/39/40 23/38/40 13/37/40
f 13/37/42 12/40/42 22/39/42
f 24/35/44 21/36/45 11/41/44
f 11/41/44 14/42/46 24/35/44
f 4/44/48 11/43/49 21/36/48
f 12/10/10 1/3/3 22/39/51
f 13/12/12 23/45/53 15/11/11
f 16/16/57 15/11/56 23/45/55
f 23/45/59 24/46/59 16/16/59
f 14/15/15 16/16/16 24/46/61
f 16/16/57 10/17/35 9/14/36
f 9/14/36 15/11/56 16/16/57
f 3/29/27 5/28/66 27/47/65
f 27/47/65 25/48/68 3/29/27
f 28/49/70 11/43/70 4/44/70
f 4/44/73 26/2/73 28/49/72
f 28/51/75 30/6/75 29/50/75
f 29/50/75 27/52/75 28/51/75
f 25/53/78 29/50/78 30/6/78
f 30/6/80 26/7/80 25/53/80
f 25/53/82 27/54/82 29/50/82
f 2/8/7 71/30/29 25/48/68
f 1/3/3 2/8/7 25/48/68
f 25/48/68 26/2/2 1/3/3
f 13/56/87 7/55/87 6/9/87
f 6/9/89 12/10/89 13/56/89
f 28/49/75 27/47/75 8/57/75
f 8/57/75 14/58/75 28/49/75
f 5/59/75 8/57/75 27/47/75
f 14/58/75 11/43/75 28/49/75
f 34/62/75 35/61/75 36/60/75
f 36/60/75 31/63/75 34/62/75
f 32/66/97 31/65/98 40/64/97
f 40/64/97 39/67/100 32/66/97
f 33/70/102 32/69/102 39/68/102
f 39/68/104 38/71/104 33/70/104
f 34/72/106 33/70/106 38/71/106
f 38/71/108 37/73/108 34/72/108
f 35/74/110 34/72/110 37/73/110
f 37/73/112 41/75/112 35/74/112
f 36/76/114 35/74/114 41/75/114
f 41/75/116 42/77/116 36/76/116
f 31/65/118 36/76/118 42/77/118
f 42/77/120 40/64/120 31/65/120
f 32/79/75 33/78/75 34/62/75
f 34/62/75 31/63/75 32/79/75
f 44/82/124 57/81/125 58/80/124
f 58/80/124 43/83/127 44/82/124
f 45/86/129 56/85/129 57/84/129
f 57/84/131 44/87/131 45/86/131
f 46/89/132 55/88/133 56/85/132
f 56/85/132 45/86/134 46/89/132
f 47/91/136 59/90/137 55/88/136
f 55/88/136 46/89/139 47/91/136
f 48/93/141 60/92/142 59/90/141
f 59/90/141 47/91/144 48/93/141
f 43/83/146 58/80/147 60/92/146
f 60/92/146 48/93/148 43/83/146
f 47/91/89 46/95/89 43/94/89
f 43/94/89 48/93/89 47/91/89
f 45/97/89 44/96/89 43/94/89
f 43/94/89 46/95/89 45/97/89
f 50/100/151 49/99/152 62/98/151
f 62/98/151 61/101/153 50/100/151
f 51/104/154 50/103/154 61/102/154
f 61/102/155 64/105/155 51/104/155
f 52/106/156 51/104/157 64/105/156
f 64/105/156 63/107/158 52/106/156
f 53/108/159 52/106/160 63/107/159
f 63/107/159 65/109/161 53/108/159
f 54/110/163 53/108/164 65/109/163
f 65/109/163 66/111/165 54/110/163
f 49/99/166 54/110/167 66/111/166
f 66/111/166 62/98/168 49/99/166
f 53/108/89 54/110/89 49/112/89
f 49/112/87 52/113/87 53/108/87
f 51/114/89 52/113/89 49/112/89
f 49/112/89 50/115/89 51/114/89
f 75/118/170 76/117/170 73/116/170
f 73/116/171 67/119/171 75/118/171
f 69/20/172 17/21/26 3/29/27
f 3/29/27 68/120/173 69/20/172
f 67/121/175 4/44/48 21/36/48
f 21/36/177 70/34/177 67/121/177
f 73/1/1 72/122/178 22/39/51
f 22/39/51 1/3/3 73/1/1
f 68/120/173 3/29/27 25/48/68
f 71/30/29 68/120/173 25/48/68
f 26/2/73 4/44/73 67/121/80
f 26/2/2 67/121/179 73/1/1
f 23/38/38 72/122/180 70/34/38
f 70/34/38 24/35/38 23/38/38
f 23/38/38 22/39/180 72/122/180
f 74/31/185 18/25/184 19/22/183
f 74/31/185 19/22/183 20/19/19
f 20/19/19 69/20/20 74/31/185
f 67/124/186 70/123/186 75/118/186
f 72/126/187 73/125/187 76/117/187
f 70/123/188 72/126/188 76/117/188
f 76/117/189 75/118/189 70/123/189
f 78/62/75 77/63/75 80/60/75
f 80/60/75 79/61/75 78/62/75
f 82/66/191 81/67/192 83/64/191
f 83/64/191 77/65/194 82/66/191
f 85/70/195 84/71/195 81/68/195
f 81/68/196 82/69/196 85/70/196
f 78/72/197 86/73/197 84/71/197
f 84/71/198 85/70/198 78/72/198
f 79/74/199 87/75/199 86/73/199
f 86/73/110 78/72/110 79/74/110
f 80/76/201 88/77/201 87/75/201
f 87/75/203 79/74/203 80/76/203
f 77/65/204 83/64/204 88/77/204
f 88/77/205 80/76/205 77/65/205
f 82/79/206 77/63/75 78/62/75
f 78/62/75 85/78/75 82/79/75
f 89/118/207 68/119/207 71/116/207
f 71/116/207 90/117/207 89/118/207
f 68/124/209 89/118/209 69/123/209
f 74/126/89 90/117/89 71/125/89
f 69/123/211 89/118/211 90/117/211
f 90/117/212 74/126/212 69/123/212

v 95.50337219238281 66.45606231689453 68.05105590820312
v 110.79667663574219 66.45606231689453 68.05105590820312
v 95.50337219238281 66.45606231689453 53.97244262695312
v 110.79667663574219 66.45606231689453 53.97244262695312
v 95.50337219238281 58.63825988769531 68.05105590820312
v 110.79667663574219 58.63825988769531 68.05105590820312
v 95.50337219238281 58.63825988769531 53.97244262695312
v 110.79667663574219 58.63825988769531 53.97244262695312
# 8 vertices

vn 0 0 1
vn 0 0 -1
vn 0 -1 0
vn 0 -1 0
vn -0.71405273675919 0 0.70009195804596
vn -0.71405273675919 0 -0.70009195804596
vn 1 0 0
vn 1 0 0
vn -1 0 0
# 9 normals

vt 1 1 0
vt 0 0 0
vt 1 0 0
# 3 texture coordinates

o fmnt
usemtl Default
f 93/4/80 91/128/80 94/127/80
f 92/129/80 94/127/80 91/128/80
f 96/128/216 95/129/215 98/4/215
f 97/127/215 98/4/215 95/129/215
f 92/129/89 91/128/89 96/127/89
f 95/4/89 96/127/89 91/128/89
f 94/129/219 92/128/219 98/127/219
f 96/4/220 98/127/220 92/128/220
f 93/129/75 94/128/75 97/127/75
f 98/4/75 97/127/75 94/128/75
f 91/129/38 93/128/38 95/127/38
f 97/4/221 95/127/221 93/128/221

v -73.82521057128906 34.57524108886719 -242.771240234375
v -58.53190612792969 34.57524108886719 -242.771240234375
v -73.82521057128906 34.57524108886719 -256.849853515625
v -58.53190612792969 34.57524108886719 -256.849853515625
v -73.82521057128906 26.75743865966797 -242.771240234375
v -58.53190612792969 26.75743865966797 -242.771240234375
v -73.82521057128906 26.75743865966797 -256.849853515625
v -58.53190612792969 26.75743865966797 -256.849853515625
# 8 vertices

# 0 normal

# 0 texture coordinate

o muzzle02
usemtl Default
f 101/4/80 99/128/80 102/127/80
f 100/129/80 102/127/80 99/128/80
f 104/128/216 103/129/215 106/4/215
f 105/127/215 106/4/215 103/129/215
f 100/129/89 99/128/89 104/127/89
f 103/4/89 104/127/89 99/128/89
f 102/129/219 100/128/219 106/127/219
f 104/4/220 106/127/220 100/128/220
f 101/129/75 102/128/75 105/127/75
f 106/4/75 105/127/75 102/128/75
f 99/129/38 101/128/38 103/127/38
f 105/4/221 103/127/221 101/128/221

v 59.14881134033203 34.57524108886719 -242.771240234375
v 74.44211578369141 34.57524108886719 -242.771240234375
v 59.14881134033203 34.57524108886719 -256.849853515625
v 74.44211578369141 34.57524108886719 -256.849853515625
v 59.14881134033203 26.75743865966797 -242.771240234375
v 74.44211578369141 26.75743865966797 -242.771240234375
v 59.14881134033203 26.75743865966797 -256.849853515625
v 74.44211578369141 26.75743865966797 -256.849853515625
# 8 vertices

vn 0 -1 0
vn 0 -1 0
vn 0 -1 0
vn 0 -1 0
vn 0 -1 0
vn -0.57735025882721 -0.57735025882721 0.57735025882721
vn -1 -0.00000004635917 0
vn -0.57735025882721 -0.57735025882721 0.57735025882721
vn 1 0 0
# 9 normals

# 0 texture coordinate

o muzzle01
usemtl Default
f 109/4/80 107/128/80 110/127/80
f 108/129/80 110/127/80 107/128/80
f 112/128/216 111/129/215 114/4/215
f 113/127/215 114/4/215 111/129/215
f 108/129/89 107/128/89 112/127/89
f 111/4/89 112/127/89 107/128/89
f 110/129/219 108/128/219 114/127/219
f 112/4/220 114/127/220 108/128/220
f 109/129/75 110/128/75 113/127/75
f 114/4/75 113/127/75 110/128/75
f 107/129/38 109/128/38 111/127/38
f 113/4/221 111/127/221 109/128/221

