v 58 71.36746978759766 -66
v 25 48.52928924560547 -115.5
v 66 -0.00004959106445 82.5
v 66 -0.00003814697266 -66
v 66 63.36746978759766 -66
v 66 63.36747741699219 82.5
v 33 39.09864044189453 -115.5
v 33 -0.00003814697266 -115.5
v -65.99993896484375 -0.00003814697266 -66
v -65.99993896484375 -0.00004959106445 82.5
v -66 63.36747741699219 82.5
v -66 63.36746978759766 -66
v -32.99993896484375 -0.00003814697266 115.500244140625
v -32.99993896484375 39.55855941772461 115.500244140625
v 33 39.55856323242188 115.500244140625
v 33 -0.00003814697266 115.500244140625
v -5.72100830078125 49.16255950927734 -115.5
v 5.7210693359375 49.16255950927734 -115.5
v 5.7210693359375 49.16255569458008 -280.5
v -5.72100830078125 49.16255569458008 -280.5
v 10.7314453125 39.24568939208984 -280.5
v 10.7314453125 39.24569320678711 -115.5
v 4.90057373046875 30.00288581848145 -115.5
v 4.90057373046875 30.00288963317871 -280.5
v -4.9005126953125 30.00288963317871 -280.5
v -4.9005126953125 30.00288581848145 -115.5
v -10.73138427734375 39.24569320678711 -115.5
v -10.73138427734375 39.24568939208984 -280.5
v -32.99993896484375 -0.00003814697266 -115.5
v -58 71.36746978759766 -66
v -58 71.36747741699219 82.5
v -24.99993896484375 48.5292854309082 -115.5
v 25.20465087890625 48.53090667724609 115.500244140625
v -25.20452880859375 48.53090286254883 115.500244140625
v 58 71.36747741699219 82.5
v -32.99993896484375 39.09863662719727 -115.5
# 36 vertices

vn 1 0 0
vn 0.95709204673767 0 -0.28978416323662
vn 0 0 0
vn 0.83205032348633 0 -0.55470019578934
vn -1 0 0
vn -0.70710676908493 -0.70710676908493 0
vn -0.98135322332382 -0.00000094803784 -0.19221314787865
vn -1 -0.00000096319297 0.00000000000005
vn -1 -0.00000096319309 -0.00000000000001
vn -0.57735025882721 -0.57735025882721 0.57735025882721
vn -0.92315578460693 -0.00000061427511 -0.38442611694336
vn -0.70710915327072 -0.00000034054119 0.70710438489914
vn -0.7071093916893 0 0.7071042060852
vn 0 -0.70710676908493 0.70710676908493
vn -0.70710897445679 -0.00000068108244 0.70710462331772
vn 0 0 1
vn 0 0 1
vn 0 1 -0.00000002311938
vn 0.84576511383057 -0.53355538845062 0
vn 0.84576505422592 -0.53355550765991 -0.00000001269327
vn 0.84576523303986 -0.53355520963669 0.00000001269326
vn -0.84576511383057 -0.53355538845062 0
vn -0.84576505422592 -0.53355550765991 0.00000001269327
vn -0.84576523303986 -0.53355520963669 -0.00000001269326
vn 0 0 -1
vn 0 -1 0.00000034678808
vn -0.00000011559689 -1 -0.00000007706459
vn 0 -1 0
vn 0.00000002667622 -1 -0.00000005335241
vn 0.00000010899137 -1 0.00000001981659
vn -0.00000042385582 -1 -0.00000007706459
vn 0.10682551562786 0.90006130933762 0.42246651649475
vn -0.16968543827534 0.8501033782959 0.4985288977623
vn -0.00000001146285 0.97673308849335 -0.21445864439011
vn 0 0.97673308849335 -0.21445862948894
vn -0.00000002239228 0.90801501274109 -0.41893762350082
vn -0.00000004478457 0.90801501274109 -0.41893768310547
vn -0.15832974016666 0.73130488395691 0.66341906785965
vn 0.25545212626457 0.65747809410095 0.70884889364243
vn -0.89254939556122 0.4509496986866 -0.00000001042568
vn -0.89254939556122 0.4509496986866 -0.00000001042568
vn 0.89254939556122 0.4509496986866 -0.00000001042568
vn 0.89254939556122 0.4509496986866 -0.00000001042568
vn 0 -1 -0.00000002311938
vn 0.7071093916893 0 0.70710414648056
vn 0.7071093916893 0 0.7071042060852
vn -0.70710676908493 0.70710676908493 -0.0000000363286
vn -0.70710676908493 0.70710676908493 -0.0000000363286
vn 0.70710676908493 0.70710676908493 -0.0000000363286
vn 0.70710676908493 0.70710676908493 -0.0000000363286
vn -0.83205032348633 0 -0.55470019578934
vn -0.83205020427704 -0.00000040476007 -0.55470037460327
vn -0.54729634523392 0.54729634523392 -0.63319307565689
vn -0.59348624944687 0.50345319509506 -0.62794023752213
vn 0.59348648786545 0.50345349311829 -0.62793976068497
vn 0.5472965836525 0.5472965836525 -0.63319259881973
vn -0.47665306925774 0.41412881016731 0.77543485164642
vn -0.45445412397385 0.45445412397385 0.76612198352814
vn 0.44885686039925 0.44885686039925 0.77269339561462
vn 0.48230159282684 0.41903311014175 0.76928305625916
vn 0 0 1
# 61 normals

vt 0.47808438539505 0.86274260282516 0
vt 0.20387780666351 0.86274266242981 0
vt 0.20387777686119 0.97975146770477 0
vt 0 1 0
vt 0.47808438539505 0.97975140810013 0
vt 0.09402598440647 0.90755540132523 0
vt 0.09402596950531 0.97975146770477 0
vt 0.20387879014015 0.60676503181458 0
vt 0.47808545827866 0.60676509141922 0
vt 0.47808545827866 0.48975622653961 0
vt 0.20387876033783 0.48975622653961 0
vt 0.56426072120666 0.56280159950256 0
vt 0.56426072120666 0.48975622653961 0
vt 0.64180088043213 0.79568994045258 0
vt 0.64180088043213 0.67382043600082 0
vt 0.56875550746918 0.67382025718689 0
vt 0.56875538825989 0.79568982124329 0
vt 0.03332900255919 0.38531243801117 0
vt 0.36186492443085 0.38531231880188 0
vt 0.36186492443085 0.36252975463867 0
vt 0.03332895040512 0.36252987384796 0
vt 0.36186480522156 0.34040701389313 0
vt 0.36186474561691 0.31864738464355 0
vt 0.03332883864641 0.31864750385284 0
vt 0.0333288833499 0.34040713310242 0
vt 0.36186492443085 0.42919492721558 0
vt 0.36186492443085 0.40743517875671 0
vt 0.03332901000977 0.40743517875671 0
vt 0.03332900255919 0.42919492721558 0
vt 0.38161069154739 0.35255336761475 0
vt 0.38161069154739 0.39528858661652 0
vt 0.40001434087753 0.38367855548859 0
vt 0.40001434087753 0.36416339874268 0
vt 0.80186295509338 0.44520926475525 0
vt 0.86273455619812 0.38433825969696 0
vt 0.86273455619812 0.26259613037109 0
vt 0.43663650751114 0.38433825969696 0
vt 0.52794313430786 0.44520926475525 0
vt 0.52794313430786 0.20172500610352 0
vt 0.43663650751114 0.2625960111618 0
vt 0.80186295509338 0.20172500610352 0
vt 0.47808462381363 0.84185165166855 0
vt 0.4780855178833 0.62765657901764 0
vt 0.20387876033783 0.62765610218048 0
vt 0.20387789607048 0.84185111522675 0
vt 0.1032175719738 0.78091579675674 0
vt 0.10321775078773 0.68859004974365 0
vt 0.55218780040741 0.68821412324905 0
vt 0.55218756198883 0.78129547834396 0
vt 0.36186474561691 0.29913222789764 0
vt 0.03332881629467 0.29913222789764 0
vt 0.56425952911377 0.97975134849548 0
vt 0.56425952911377 0.90670603513718 0
vt 0.09402698278427 0.48975622653961 0
vt 0.09402698278427 0.56195229291916 0
vt 0.19515392184258 0.60868716239929 0
vt 0.09262253344059 0.66837328672409 0
vt 0.09262217581272 0.80113255977631 0
vt 0.195152759552 0.86081993579864 0
vt 0.5646265745163 0.67013841867447 0
vt 0.48897933959961 0.60983741283417 0
vt 0.48897802829742 0.85967111587524 0
vt 0.56462609767914 0.79937124252319 0
vt 0.08580383658409 0.6738178730011 0
vt 0.08580383658409 0.7956874370575 0
vt 0.0136077478528 0.67381775379181 0
vt 0.0136077478528 0.79568731784821 0
# 67 texture coordinates

o turret
usemtl tank_2j
f 4/3/2 5/2/2 6/1/1
f 6/1/1 3/5/1 4/3/2
f 7/6/4 5/2/2 4/3/2
f 4/3/2 8/7/4 7/6/4
f 10/10/9 11/9/8 12/8/7
f 12/8/7 9/11/11 10/10/9
f 10/10/12 13/13/13 14/12/12
f 14/12/12 11/9/15 10/10/12
f 14/16/17 13/15/17 16/14/17
f 16/14/17 15/17/17 14/16/17
f 19/20/18 20/19/18 17/18/18
f 17/18/18 18/21/18 19/20/18
f 23/24/19 24/23/20 21/22/19
f 21/22/19 22/25/21 23/24/19
f 27/28/22 28/27/23 25/26/22
f 25/26/22 26/29/24 27/28/22
f 25/32/25 28/31/25 21/30/25
f 21/30/25 24/33/25 25/32/25
f 16/36/26 13/35/26 10/34/26
f 10/34/27 9/38/27 29/37/27
f 29/37/28 8/40/28 4/39/28
f 10/34/29 29/37/29 4/39/29
f 16/36/30 10/34/30 4/39/30
f 3/41/31 16/36/31 4/39/31
f 30/44/34 31/43/33 35/42/32
f 35/42/32 1/45/35 30/44/34
f 30/44/34 1/45/35 2/46/36
f 2/46/36 32/47/37 30/44/34
f 35/42/32 31/43/33 34/48/38
f 34/48/38 33/49/39 35/42/32
f 20/19/40 28/27/41 27/28/40
f 27/28/40 17/18/41 20/19/40
f 21/22/42 19/20/43 18/21/42
f 18/21/42 22/25/43 21/22/42
f 25/50/44 24/23/44 23/24/44
f 23/24/44 26/51/44 25/50/44
f 15/53/45 16/52/45 3/5/45
f 3/5/46 6/1/46 15/53/46
f 11/9/47 31/43/48 30/44/47
f 30/44/47 12/8/48 11/9/47
f 5/2/49 1/45/50 35/42/49
f 35/42/49 6/1/50 5/2/49
f 36/55/52 29/54/51 9/11/11
f 9/11/11 12/8/7 36/55/52
f 36/57/53 12/56/53 30/44/53
f 30/44/54 32/47/54 36/57/54
f 7/58/55 2/46/55 1/45/55
f 1/45/56 5/59/56 7/58/56
f 11/61/57 14/60/57 34/48/57
f 34/48/38 31/43/33 11/61/58
f 15/63/59 6/62/59 35/42/59
f 35/42/32 33/49/39 15/63/60
f 33/49/17 34/48/17 14/16/17
f 14/16/61 15/17/61 33/49/61
f 20/19/25 19/20/25 21/30/25
f 21/30/25 28/31/25 20/19/25
f 7/65/25 36/64/25 32/47/25
f 32/47/25 2/46/25 7/65/25
f 7/65/25 8/67/25 29/66/25
f 29/66/25 36/64/25 7/65/25

v 48.69729614257812 78.86203002929688 80.8720703125
v 63.99057006835938 78.86203002929688 80.8720703125
v 48.69729614257812 78.86203002929688 66.79345703125
v 63.99057006835938 78.86203002929688 66.79345703125
v 48.69729614257812 71.04422760009766 80.8720703125
v 63.99057006835938 71.04422760009766 80.8720703125
v 48.69729614257812 71.04422760009766 66.79345703125
v 63.99057006835938 71.04422760009766 66.79345703125
# 8 vertices

vn 0 1 0
vn 0 1 0
vn 0 -1 0
vn 1 0 0
vn -1 0 0
vn -1 0 0
# 6 normals

vt 1 1 0
vt 0 0 0
vt 1 0 0
# 3 texture coordinates

o fmnt
usemtl Material #15
f 39/4/62 37/69/62 40/68/62
f 38/70/62 40/68/62 37/69/62
f 42/69/64 41/70/28 44/4/28
f 43/68/28 44/4/28 41/70/28
f 38/70/17 37/69/17 42/68/17
f 41/4/17 42/68/17 37/69/17
f 40/70/65 38/69/65 44/68/65
f 42/4/1 44/68/1 38/69/1
f 39/70/25 40/69/25 43/68/25
f 44/4/25 43/68/25 40/69/25
f 37/70/66 39/69/66 41/68/66
f 43/4/67 41/68/67 39/69/67

v -7.674072265625 44.77779006958008 -274.673583984375
v 7.6192626953125 44.77779006958008 -274.673583984375
v -7.674072265625 44.77779006958008 -288.752197265625
v 7.6192626953125 44.77779006958008 -288.752197265625
v -7.674072265625 36.95998764038086 -274.673583984375
v 7.6192626953125 36.95998764038086 -274.673583984375
v -7.674072265625 36.95998764038086 -288.752197265625
v 7.6192626953125 36.95998764038086 -288.752197265625
# 8 vertices

# 0 normal

# 0 texture coordinate

o muzzle01
usemtl Material #15
f 47/4/62 45/69/62 48/68/62
f 46/70/62 48/68/62 45/69/62
f 50/69/64 49/70/28 52/4/28
f 51/68/28 52/4/28 49/70/28
f 46/70/17 45/69/17 50/68/17
f 49/4/17 50/68/17 45/69/17
f 48/70/65 46/69/65 52/68/65
f 50/4/1 52/68/1 46/69/1
f 47/70/25 48/69/25 51/68/25
f 52/4/25 51/68/25 48/69/25
f 45/70/66 47/69/66 49/68/66
f 51/4/67 49/68/67 47/69/67

