v -37.28812789916992 42.30928802490234 -121.72980499267578
v -42.98230743408203 90.28640747070312 34.66907501220703
v -22.18006134033203 17.56526565551758 -129.04812622070312
v -63.08498764038086 51.37958526611328 168.03713989257812
v -51.05983734130859 71.10091400146484 105.01439666748047
v -47.19308090209961 33.63887023925781 114.83605194091797
v -50.65533065795898 0.00000762939453 -85.58448028564453
v -58.66963577270508 7.06044387817383 -79.54531860351562
v -63.06850433349609 71.10091400146484 154.50946044921875
v -58.66778182983398 7.06044387817383 34.90876007080078
v -50.65435028076172 0.00000762939453 36.50067901611328
v -87.00344848632812 51.37957000732422 168.03707885742188
v -87.00144958496094 71.10091400146484 154.509521484375
v -58.2133674621582 71.11114501953125 -27.75069808959961
v -87.00360107421875 7.06044769287109 34.90868377685547
v -87.03780364990234 71.14608001708984 -7.96844863891602
v -87.00349426269531 7.06045532226562 -59.58481597900391
v -87.04006958007812 42.41691589355469 -87.45404052734375
v -87.00257110595703 17.56526565551758 -84.28923034667969
v 63.08498764038086 51.37958526611328 168.03713989257812
v 47.19308090209961 33.63887023925781 114.83605194091797
v 51.05983734130859 71.10091400146484 105.01439666748047
v 42.98230743408203 90.28640747070312 34.66907501220703
v 58.2133674621582 71.11114501953125 -27.75069808959961
v 63.06850433349609 71.10091400146484 154.50946044921875
v 87.00144958496094 71.10091400146484 154.509521484375
v 87.00344848632812 51.37957000732422 168.03707885742188
v 87.00360107421875 7.06044769287109 34.90868377685547
v 58.66778182983398 7.06044387817383 34.90876007080078
v 58.66963577270508 7.06044387817383 -79.54531860351562
v 50.65533065795898 0.00000762939453 -85.58448028564453
v 22.18006134033203 17.56526565551758 -129.04812622070312
v 87.03780364990234 71.14608001708984 -7.96844863891602
v 87.00349426269531 7.06045532226562 -59.58481597900391
v 37.28812789916992 42.30928802490234 -121.72980499267578
v 87.04006958007812 42.41691589355469 -87.45404052734375
v 87.00257110595703 17.56526565551758 -84.28923034667969
v -15.49869251251221 42.26968002319336 -354.16061401367188
v -6.85984802246094 22.55173492431641 -324.59890747070312
v -6.73580121994019 65.6416015625 -354.16055297851562
v -11.92509460449219 17.56526565551758 -129.04812622070312
v -13.09556198120117 90.28640747070312 34.66907501220703
v 15.49869251251221 42.26968002319336 -354.16061401367188
v 6.85984802246094 22.55173492431641 -324.59890747070312
v 11.92509460449219 17.56526565551758 -129.04812622070312
v 6.73580121994019 65.6416015625 -354.16055297851562
v 13.09556198120117 90.28640747070312 34.66907501220703
v -25.00838851928711 42.28948593139648 -121.75817108154297
v 25.00838851928711 42.28948593139648 -121.75817108154297
v -46.19288635253906 24.10536193847656 96.70952606201172
v 46.19288635253906 24.10536575317383 96.70952606201172
v 50.65435028076172 0.00000762939453 36.50067901611328
v 38.47334289550781 0.00000762939453 92.73509979248047
v 40.39371490478516 11.00689315795898 108.52207183837891
v -40.39371490478516 11.00689315795898 108.52207183837891
v -38.47334289550781 0.00000762939453 92.73509979248047
v -115.43809509277344 42.47834777832031 -67.88970947265625
v -100.2938232421875 69.27124786376953 -4.10397338867188
v -100.2938232421875 69.27125549316406 134.6517333984375
v -100.2938232421875 50.28526306152344 147.93194580078125
v -115.48031616210938 17.56526565551758 -64.62580871582031
v -100.2938232421875 12.03334045410156 34.45951080322266
v -115.48031616210938 17.56526565551758 11.37697219848633
v -115.38519287109375 60.6075553894043 -17.76639556884766
v -87.03781127929688 71.14608001708984 -7.96844863891602
v -87.00349426269531 7.06045532226562 -59.58481216430664
v -87.0025634765625 17.56526565551758 -84.28923034667969
v -87.00347900390625 7.06045532226562 -59.58481979370117
v 115.43809509277344 42.47834777832031 -67.88970947265625
v 100.2938232421875 69.27124786376953 -4.10397338867188
v 100.2938232421875 69.27125549316406 134.6517333984375
v 100.2938232421875 50.28526306152344 147.93194580078125
v 115.48031616210938 17.56526565551758 -64.62580871582031
v 100.2938232421875 12.03334045410156 34.45951080322266
v 115.48031616210938 17.56526565551758 11.37697219848633
v 115.38519287109375 60.6075553894043 -17.76639556884766
v 87.03781127929688 71.14608001708984 -7.96844863891602
v 87.00349426269531 7.06045532226562 -59.58481216430664
v 87.0025634765625 17.56526565551758 -84.28923034667969
v 87.00347900390625 7.06045532226562 -59.58481979370117
# 80 vertices

vt 0.5269650220871 0.91376549005508 0
vt 0.5802925825119 0.65343731641769 0
vt 0.51082098484039 0.76803547143936 0
vt 0 1 0
vt 0.63572978973389 0.99229687452316 0
vt 0.68194806575775 0.98008453845978 0
vt 0.6697336435318 0.93387424945831 0
vt 0.62348747253418 0.94609385728836 0
vt 0.24016773700714 0.90398156642914 0
vt 0.24016749858856 0.62354201078415 0
vt 0.19240856170654 0.6235436797142 0
vt 0.18348610401154 0.90397953987122 0
vt 0.8841347694397 0.07352113723755 0
vt 0.88413608074188 0.20393896102905 0
vt 0.89554584026337 0.19748735427856 0
vt 0.89554405212402 0.0752215385437 0
vt 0.16061747074127 0.73561561107636 0
vt 0.15608584880829 0.77634978294373 0
vt 0.1414555311203 0.90822196006775 0
vt 0.61430966854095 0.80329656600952 0
vt 0.63832819461823 0.90219521522522 0
vt 0.62854492664337 0.53799450397491 0
vt 0.51923668384552 0.99116891622543 0
vt 0.38051170110703 0.2332626581192 0
vt 0.29971998929977 0.32696545124054 0
vt 0.32404208183289 0.32622826099396 0
vt 0.68615257740021 0.57751160860062 0
vt 0.68615233898163 0.90218460559845 0
vt 0.92581379413605 0.17616438865662 0
vt 0.92581379413605 0.0752215385437 0
vt 0.77591061592102 0.20393896102905 0
vt 0.77591145038605 0.07352113723755 0
vt 0.5629380941391 0.46362864971161 0
vt 0.45676827430725 0.40611028671265 0
vt 0.51274502277374 0.5990075469017 0
vt 0.57424569129944 0.63217049837112 0
vt 0.58975613117218 0.42134547233582 0
vt 0.45118492841721 0.34661018848419 0
vt 0.24258083105087 0.3066018819809 0
vt 0.23596352338791 0.35973751544952 0
vt 0.74360489845276 0.41869461536407 0
vt 0.81418824195862 0.6632267832756 0
vt 0.81424069404602 0.47440421581268 0
vt 0.79326319694519 0.42503249645233 0
vt 0.72555339336395 0.92922723293304 0
vt 0.32286489009857 0.91376578807831 0
vt 0.33059364557266 0.99116891622543 0
vt 0.43228566646576 0.73571884632111 0
vt 0.49186056852341 0.7313814163208 0
vt 0.43228566646576 0.40782678127289 0
vt 0.43260765075684 0.33795189857483 0
vt 0.43454587459564 0.39569342136383 0
vt 0.52495181560516 0.32622814178467 0
vt 0.46848237514496 0.2332626581192 0
vt 0.44814550876617 0.2332626581192 0
vt 0.4008481502533 0.2332626581192 0
vt 0.26953679323196 0.65343731641769 0
vt 0.33900886774063 0.76803576946259 0
vt 0.21410024166107 0.99229794740677 0
vt 0.22634240984917 0.94609481096268 0
vt 0.1800961792469 0.93387544155121 0
vt 0.1678820848465 0.98008579015732 0
vt 0.24016773700714 0.90398180484772 0
vt 0.18348634243011 0.90397989749908 0
vt 0.19240856170654 0.62354373931885 0
vt 0.76450228691101 0.0752215385437 0
vt 0.76450049877167 0.19748735427856 0
vt 0.16061747074127 0.73561525344849 0
vt 0.14145565032959 0.90822231769562 0
vt 0.15608584880829 0.77634984254837 0
vt 0.61430978775024 0.80329668521881 0
vt 0.62854468822479 0.53799450397491 0
vt 0.54927408695221 0.32696545124054 0
vt 0.6861526966095 0.57751172780991 0
vt 0.73423278331757 0.0752215385437 0
vt 0.73423290252686 0.17616438865662 0
vt 0.66166663169861 0.29594039916992 0
vt 0.83917617797852 0.29594039916992 0
vt 0.84109807014465 0.25658881664276 0
vt 0.65974473953247 0.25658881664276 0
vt 0.28266572952271 0.46362996101379 0
vt 0.27135914564133 0.63217210769653 0
vt 0.33285927772522 0.59900885820389 0
vt 0.38883548974991 0.40611135959625 0
vt 0.25584799051285 0.421346783638 0
vt 0.39441931247711 0.34661149978638 0
vt 0.60968959331512 0.35973727703094 0
vt 0.60641324520111 0.3066018819809 0
vt 0.81418824195862 0.66322702169418 0
vt 0.79326331615448 0.4250328540802 0
vt 0.8142409324646 0.47440457344055 0
vt 0.74360513687134 0.41869497299194 0
vt 0.35374402999878 0.73138266801834 0
vt 0.41331887245178 0.73571991920471 0
vt 0.41331803798676 0.4078277349472 0
vt 0.41105818748474 0.39569509029388 0
vt 0.41299659013748 0.3379533290863 0
vt 0.45108783245087 0.76803576946259 0
vt 0.39874148368835 0.76803576946259 0
vt 0.15363442897797 0.59505921602249 0
vt 0.20774295926094 0.57481080293655 0
vt 0.16336843371391 0.18624258041382 0
vt 0.11457669734955 0.13182497024536 0
vt 0.07752268016338 0.91399705410004 0
vt 0.06481131911278 0.13530611991882 0
vt 0.15363439917564 0.595059633255 0
vt 0.11457698047161 0.13182532787323 0
vt 0.16336870193481 0.18624293804169 0
vt 0.20774295926094 0.57481116056442 0
vt 0.94811761379242 0.04754281044006 0
vt 0.93799388408661 0.43850350379944 0
vt 0.98566162586212 0.43850350379944 0
vt 0.97553813457489 0.04754281044006 0
vt 0.07752266526222 0.91399705410004 0
vt 0.06481158733368 0.13530647754669 0
vt 0.03763855993748 0.01757407188416 0
vt 0.02037278190255 0.08859419822693 0
vt 0.08232505619526 0.08859407901764 0
vt 0.06505915522575 0.01757407188416 0
vt 0.03788650780916 0.13530611991882 0
vt 0.02517544478178 0.91399681568146 0
vt 0.6764669418335 0.3667858839035 0
vt 0.67282509803772 0.3298305273056 0
vt 0.63781952857971 0.33624088764191 0
vt 0.61575698852539 0.4591668844223 0
vt 0.82437586784363 0.3667858839035 0
vt 0.88508605957031 0.45916676521301 0
vt 0.86302328109741 0.33624076843262 0
vt 0.8280177116394 0.3298305273056 0
vt 0.87113189697266 0.01344859600067 0
vt 0.78891456127167 0.01344859600067 0
vt 0.2238107919693 0.12307667732239 0
vt 0.16942429542542 0.16537606716156 0
vt 0.32826364040375 0.22269284725189 0
vt 0.23032319545746 0.07330310344696 0
vt 0.16128432750702 0.06951224803925 0
vt 0.15502214431763 0.1191725730896 0
vt 0.66493618488312 0.1454222202301 0
vt 0.43823635578156 0.06900560855865 0
vt 0.3611456155777 0.18333256244659 0
vt 0.63838827610016 0.18334865570068 0
vt 0.35343039035797 0.21008050441742 0
vt 0.67805445194244 0.21015894412994 0
vt 0.71083080768585 0.13065826892853 0
vt 0.71256339550018 0.15284621715546 0
vt 0.68544828891754 0.19218814373016 0
vt 0.18865120410919 0.01908385753632 0
vt 0.24055445194244 0.01218235492706 0
vt 0.44506084918976 0.04147350788116 0
vt 0.42832982540131 0.04073870182037 0
vt 0.429319024086 0.01216757297516 0
vt 0.32396137714386 0.15931951999664 0
vt 0.38215005397797 0.07329118251801 0
vt 0.34312617778778 0.19915211200714 0
vt 0.9783194065094 0.52900236845016 0
vt 0.9783194065094 0.71786028146744 0
vt 0.95732414722443 0.47962749004364 0
vt 0.85023617744446 0.63216453790665 0
vt 0.90765511989594 0.47330188751221 0
vt 0.88974225521088 0.98393541574478 0
vt 0.85032641887665 0.95689874887466 0
# 161 texture coordinates

o turret
usemtl 06 - Default
f 2/3 14/2 5/1
f 13/7 12/6 4/5
f 4/5 9/8 13/7
f 4/11 12/10 15/9
f 15/9 10/12 4/11
f 8/15 7/14 11/13
f 11/13 10/16 8/15
f 4/11 10/12 6/17
f 50/18 6/17 10/12
f 10/12 11/19 50/18
f 14/22 9/21 5/20
f 4/5 6/23 5/1
f 5/1 9/8 4/5
f 7/26 8/25 3/24
f 9/21 14/22 16/27
f 16/27 13/28 9/21
f 10/16 15/30 17/29
f 17/29 8/15 10/16
f 11/13 7/14 31/31
f 31/31 52/32 11/13
f 14/35 1/34 18/33
f 18/33 16/36 14/35
f 1/34 3/38 19/37
f 19/37 18/33 1/34
f 19/39 3/24 8/25
f 8/25 17/40 19/39
f 13/28 16/27 18/41
f 19/44 17/43 15/42
f 18/41 19/44 15/42
f 13/28 18/41 15/42
f 13/28 15/42 12/45
f 6/23 21/47 22/46
f 22/46 5/1 6/23
f 14/35 2/49 42/48
f 1/34 14/35 42/48
f 48/50 1/34 42/48
f 41/51 3/38 1/34
f 1/34 48/52 41/51
f 45/55 32/54 31/53
f 41/56 45/55 31/53
f 3/24 41/56 31/53
f 7/26 3/24 31/53
f 23/58 22/46 24/57
f 26/61 25/60 20/59
f 20/59 27/62 26/61
f 20/65 29/64 28/63
f 28/63 27/10 20/65
f 30/67 29/66 52/32
f 52/32 31/31 30/67
f 20/65 21/68 29/64
f 51/70 52/69 29/64
f 29/64 21/68 51/70
f 24/72 22/71 25/21
f 22/46 21/47 20/59
f 20/59 25/60 22/46
f 31/53 32/54 30/73
f 25/21 26/28 33/74
f 33/74 24/72 25/21
f 34/76 28/75 29/66
f 29/66 30/67 34/76
f 6/79 50/78 51/77
f 51/77 21/80 6/79
f 24/83 33/82 36/81
f 36/81 35/84 24/83
f 35/84 36/81 37/85
f 37/85 32/86 35/84
f 37/88 34/87 30/73
f 30/73 32/54 37/88
f 26/28 27/45 28/89
f 28/89 34/91 37/90
f 28/89 37/90 36/92
f 26/28 28/89 36/92
f 26/28 36/92 33/74
f 47/94 23/93 24/83
f 47/94 24/83 35/84
f 49/95 47/94 35/84
f 49/96 35/84 32/86
f 32/86 45/97 49/96
f 42/98 2/3 5/1
f 42/98 5/1 22/46
f 22/46 23/58 47/99
f 42/98 22/46 47/99
f 39/102 41/101 48/100
f 48/100 38/103 39/102
f 38/103 48/100 42/104
f 42/104 40/105 38/103
f 44/108 43/107 49/106
f 49/106 45/109 44/108
f 45/112 41/111 39/110
f 39/110 44/113 45/112
f 43/107 46/115 47/114
f 47/114 49/106 43/107
f 38/118 43/117 44/116
f 44/116 39/119 38/118
f 38/118 40/105 46/120
f 46/120 43/117 38/118
f 40/105 42/104 47/121
f 47/121 46/120 40/105
f 51/124 54/123 53/122
f 53/122 52/125 51/124
f 50/128 11/127 56/126
f 56/126 55/129 50/128
f 52/32 53/131 56/130
f 56/130 11/13 52/32
f 56/126 53/122 54/123
f 54/123 55/129 56/126
f 54/123 51/77 50/78
f 50/78 55/129 54/123
f 65/134 18/133 57/132
f 67/136 61/135 57/132
f 57/132 18/137 67/136
f 58/140 62/139 60/138
f 60/138 59/141 58/140
f 13/143 65/142 58/140
f 58/140 59/141 13/143
f 12/144 60/138 62/139
f 59/141 60/138 12/145
f 12/145 13/146 59/141
f 66/148 61/135 67/147
f 67/147 68/148 66/148
f 12/144 62/139 15/149
f 15/151 62/150 61/135
f 61/135 66/148 15/151
f 64/152 57/132 61/135
f 61/135 63/153 64/152
f 61/135 62/150 63/153
f 62/139 58/140 64/152
f 64/152 63/153 62/139
f 58/154 65/134 57/132
f 57/132 64/152 58/154
f 15/156 66/155 68/155
f 15/156 68/155 67/157
f 67/157 18/159 65/158
f 15/156 67/157 65/158
f 12/160 15/156 65/158
f 12/160 65/158 13/161
f 77/134 69/132 36/133
f 79/136 36/137 69/132
f 69/132 73/135 79/136
f 70/140 71/141 72/138
f 72/138 74/139 70/140
f 26/143 71/141 70/140
f 70/140 77/142 26/143
f 27/144 74/139 72/138
f 71/141 26/146 27/145
f 27/145 72/138 71/141
f 78/148 80/148 79/147
f 79/147 73/135 78/148
f 27/144 28/149 74/139
f 28/151 78/148 73/135
f 73/135 74/150 28/151
f 76/152 75/153 73/135
f 73/135 69/132 76/152
f 73/135 75/153 74/150
f 74/139 75/153 76/152
f 76/152 70/140 74/139
f 70/154 76/152 69/132
f 69/132 77/134 70/154
f 27/160 26/161 77/158
f 77/158 36/159 79/157
f 80/155 78/155 28/156
f 79/157 80/155 28/156
f 77/158 79/157 28/156
f 27/160 77/158 28/156

v 67.39749145507812 74.17241668701172 141.02264404296875
v 82.69094848632812 74.17241668701172 141.02264404296875
v 67.39749145507812 74.17241668701172 126.94403076171875
v 82.69094848632812 74.17241668701172 126.94403076171875
v 67.39749145507812 66.3546142578125 141.02264404296875
v 82.69094848632812 66.3546142578125 141.02264404296875
v 67.39749145507812 66.3546142578125 126.94403076171875
v 82.69094848632812 66.3546142578125 126.94403076171875
# 8 vertices

vn 0 1 0
vn 0 0 1
vn 0 0 -1
vn 0 -1 0
vn 0 -1 0
vn -0.71405273675919 0 0.70009195804596
vn -0.71405273675919 0 -0.70009195804596
vn 0 0 1
vn 1 0 0
vn 1 0 0
vn 0 0 -1
vn -1 0 0
vn -1 0 0
# 13 normals

vt 1 1 0
vt 0 0 0
vt 1 0 0
# 3 texture coordinates

o fmnt001
usemtl Default
f 83/4/1 81/163/1 84/162/1
f 82/164/1 84/162/1 81/163/1
f 86/163/5 85/164/4 88/4/4
f 87/162/4 88/4/4 85/164/4
f 82/164/8 81/163/8 86/162/8
f 85/4/8 86/162/8 81/163/8
f 84/164/9 82/163/9 88/162/9
f 86/4/10 88/162/10 82/163/10
f 83/164/11 84/163/11 87/162/11
f 88/4/11 87/162/11 84/163/11
f 81/164/12 83/163/12 85/162/12
f 87/4/13 85/162/13 83/163/13

v -7.646728515625 59.55283355712891 -347.12124633789062
v 7.646728515625 59.55283355712891 -347.12124633789062
v -7.646728515625 59.55283355712891 -361.19985961914062
v 7.646728515625 59.55283355712891 -361.19985961914062
v -7.646728515625 51.73503112792969 -347.12124633789062
v 7.646728515625 51.73503112792969 -347.12124633789062
v -7.646728515625 51.73503112792969 -361.19985961914062
v 7.646728515625 51.73503112792969 -361.19985961914062
# 8 vertices

vn 0 0 0
vn 0 1 0
# 2 normals

# 0 texture coordinate

o muzzle01
usemtl Default
f 91/4/1 89/163/1 92/162/1
f 90/164/1 92/162/1 89/163/1
f 94/163/5 93/164/4 96/4/4
f 95/162/4 96/4/4 93/164/4
f 90/164/8 89/163/8 94/162/8
f 93/4/8 94/162/8 89/163/8
f 92/164/9 90/163/9 96/162/9
f 94/4/10 96/162/10 90/163/10
f 91/164/11 92/163/11 95/162/11
f 96/4/11 95/162/11 92/163/11
f 89/164/12 91/163/12 93/162/12
f 95/4/13 93/162/13 91/163/13

