# WaveFront *.obj file (generated by Cinema 4D)

v 84.6162109375 99.10660552978516 311.00439453125
v 120.48583984375 162.86735534667969 -195.08544921875
v 120.48583984375 146.7939453125 -217.58837890625
v 163.385009765625 162.86735534667969 -166.005859375
v 88.15673828125 162.86735534667969 46.45361328125
v 59.451416015625 81.43370819091797 311.00439453125
v 163.385009765625 162.86735534667969 -19.6806640625
v 184.900146484375 146.7939453125 -19.68017578125
v 184.900390625 45.00997161865234 -301.775146484375
v 59.451416015625 0 229.5703125
v 184.900390625 146.79403686523438 -217.58837890625
v 184.900390625 0 -193.884765625
v 184.900390625 0 229.5703125
v 184.900146484375 146.7939453125 -174.59521484375
v 184.900390625 73.82720947265625 -311.004150390625
v 59.451416015625 117.52104187011719 -178.27197265625
v 59.451416015625 45.00997161865234 -301.775146484375
v 59.45166015625 146.7939453125 -217.58837890625
v 118.7978515625 71.43370819091797 311.00439453125
v 59.451416015625 48.86022186279297 311.00439453125
v 59.451416015625 73.82720947265625 -311.004150390625
v 59.451416015625 21.0184268951416 -178.27197265625
v 59.451416015625 20.99661636352539 154.10400390625
v 59.451416015625 81.43370819091797 154.10400390625
v 184.900390625 48.86022186279297 311.00439453125
v 184.900390625 83.37270355224609 301.19384765625
v 59.451416015625 0 -193.884765625
v 184.900390625 58.86017990112305 -311.004150390625
v 184.900390625 87.16647338867188 -302.810546875
v 59.451416015625 58.86017990112305 -311.004150390625
v 59.451416015625 87.16647338867188 -302.810546875
v 90.34765625 110.67229461669922 301.37353515625
v 124.163330078125 83.34014892578125 301.35888671875
v 184.900390625 71.43370056152344 311.00439453125
v -84.6162109375 99.10663604736328 311.00439453125
v -120.4859619140625 162.86734008789062 -195.0859375
v -120.4859619140625 146.79393005371094 -217.58837890625
v -163.3848876953125 162.86734008789062 -166.005859375
v -88.15673828125 162.86735534667969 46.45361328125
v -59.451416015625 81.43373870849609 311.00439453125
v -163.385009765625 162.86735534667969 -19.6806640625
v -184.9000244140625 146.7939453125 -19.68017578125
v -184.9002685546875 45.00994491577148 -301.775146484375
v -59.451416015625 0.00002006968862 229.5703125
v -184.9002685546875 146.79402160644531 -217.58837890625
v -184.9002685546875 -0.00001694993443 -193.884765625
v -184.9002685546875 0.00002006968862 229.5703125
v -184.9000244140625 146.79393005371094 -174.59521484375
v -184.9002685546875 73.82717895507812 -311.004150390625
v -59.451416015625 117.52102661132812 -178.27197265625
v -59.451416015625 45.00994491577148 -301.775146484375
v -59.45166015625 146.79393005371094 -217.58837890625
v -118.7978515625 71.43373870849609 311.00439453125
v -59.451416015625 48.86024856567383 311.00439453125
v -59.451416015625 73.82717895507812 -311.004150390625
v -59.451416015625 21.01841163635254 -178.27197265625
v -59.451416015625 20.99662971496582 154.10400390625
v -59.451416015625 81.43372344970703 154.10400390625
v -184.9002685546875 48.86024856567383 311.00439453125
v -184.9002685546875 83.37272644042969 301.19384765625
v -59.451416015625 -0.00001694993443 -193.884765625
v -184.9002685546875 58.86015319824219 -311.004150390625
v -184.9002685546875 87.16645050048828 -302.810546875
v -59.451416015625 58.86015319824219 -311.004150390625
v -59.451416015625 87.16645050048828 -302.810546875
v -90.34765625 110.67231750488281 301.37353515625
v -124.1632080078125 83.34017181396484 301.35888671875
v -184.9002685546875 71.43373107910156 311.00439453125
# 68 vertices

vn 0.41789531707764 0.9084951877594 0
vn 0.59849900007248 0.80112355947494 0
vn 0.46407145261765 0.87773489952087 0.11924392729998
vn 0 0 0
vn 0.34393331408501 0.93045443296432 0.12635053694248
vn 0.14724981784821 0.80817687511444 -0.57023471593857
vn 0.35757920145988 0.76493030786514 -0.53574132919312
vn 0.36208215355873 0.76102697849274 -0.53826993703842
vn 0 -1 0
vn 0.04848181456327 0.95202952623367 -0.30214121937752
vn 0 -0.93509286642075 0.35440281033516
vn 0 -0.85749399662018 0.51449400186539
vn 0 -0.98417460918427 0.17720140516758
vn 1 0 0
vn 1 0.0000003056509 0.00000189286447
vn 1 0.00000045847634 0.00000283929671
vn 1 0.00000091695267 0.00000567859342
vn 1 0.00000166315192 0
vn 1 0.00000166315192 0
vn 1 0.0000005587616 -0.00000065042121
vn 1 0 0
vn 0 0 -1
vn 0 0 -1
vn 0 -1 0
vn -0.00000142130523 1 0.00000212946384
vn 0.56292688846588 0.58011549711227 -0.58870983123779
vn -0.00000003480909 0.81561845541 -0.57859015464783
vn 0 0.81935864686966 -0.57328128814697
vn 0.56834095716476 0.57842993736267 -0.58515584468842
vn 0 0.81935858726501 -0.57328134775162
vn 0.56324404478073 0.58005720376968 -0.58846396207809
vn -0.00000116455794 0.8193581700325 -0.57328194379807
vn 0.57105380296707 0.57575386762619 -0.58515387773514
vn 0 -0.92290782928467 -0.3850209414959
vn 0.55096727609634 0.56818503141403 -0.61122894287109
vn -1 0 0
vn 0.55611616373062 0.57624709606171 -0.59889405965805
vn -1 0 0
vn 0.6972873210907 0.71679174900055 0
vn 1 0 0
vn 0 0 -1
vn -1 0.00000006917219 0.00000281635721
vn 0.69647020101547 0 -0.7175857424736
vn -1 0.00000178328219 0.00000074395399
vn 0.50566279888153 0 -0.86273121833801
vn -1 0.00000075070193 -0.00000565070422
vn 1 0 0
vn 0 0 -1
vn 0.77761000394821 0 -0.62874686717987
vn 1 0 0
vn 1 0 0
vn 0.34431925415993 0.79276996850967 0.50295126438141
vn 0.50092738866806 0 -0.8654893040657
vn 0.24288100004196 0.82765591144562 0.50595897436142
vn 0.19699956476688 0 -0.98040360212326
vn 0.00000105952734 0.98102122545242 0.19390033185482
vn 0.50278151035309 0 -0.86441349983215
vn 0 -0.55451434850693 -0.83217418193817
vn 1 0 0
vn 0 0 -1
vn 0 0.52339416742325 -0.85209065675735
vn 0.75208127498627 0 -0.65907037258148
vn 0 0.52339416742325 -0.85209065675735
vn 1 0 0
vn 0.25961890816689 0.53472632169724 0.80415534973145
vn 0.10102472454309 0.46306961774826 0.8805456161499
vn 1 0 0
vn 0.49172487854958 0 -0.87075060606003
vn 0.00000007265221 0.62947261333466 0.7770226597786
vn 0.66129559278488 0 -0.75012540817261
vn 0.00175911292899 0.63487404584885 0.77261364459991
vn 0.50841253995895 0 -0.86111360788345
vn -0.24134600162506 0.76929181814194 0.59155917167664
vn 0.81878584623337 0 -0.57409900426865
vn -0.13554535806179 0.39436462521553 0.90890264511108
vn 0 0 -1
vn 0 0 1
vn 0.79481947422028 0 -0.60684591531754
vn 0 0 1
vn 0.51452726125717 0 -0.85747402906418
vn 1 0 0
vn 0.49857813119888 0 -0.86684477329254
vn 0.04345307871699 0.99404096603394 0.09997216612101
vn 0.64894896745682 0 -0.76083195209503
vn -0.02894801087677 0.99453884363174 0.10027237981558
vn 0.50078952312469 0 -0.86556905508041
vn 1 0 0
vn 0 0 -1
vn 0.71983510255814 0 -0.69414514303207
vn -0.00000011228867 -1 -0.00006562006456
vn 1 0 0
vn 0.0000001283299 -1 -0.00006553398271
vn 1 0 0
vn 0 0 -1
vn 0.69129717350006 0 -0.72257053852081
vn -0.0000002566598 -1 0
vn 0.50935405492783 0 -0.86055701971054
vn -0.0000001283299 -1 0.00000009725144
vn 1 0 0
vn -0.41789618134499 0.90849477052689 -0.00000026743379
vn -0.34393444657326 0.93045401573181 0.12635046243668
vn -0.46407264471054 0.87773430347443 0.1192437633872
vn 0 0 -1
vn -0.59849894046783 0.80112355947494 -0.0000000789089
vn 0.76093345880508 0 -0.6488299369812
vn -0.14725242555141 0.80817437171936 -0.57023757696152
vn -0.06477376073599 0.95143359899521 -0.30096256732941
vn -0.36208835244179 0.76102244853973 -0.53827208280563
vn 1 0 0
vn -0.3575798869133 0.76493066549301 -0.5357403755188
vn 1 0 0
vn 0 -0.93509286642075 0.35440284013748
vn 0 -0.98417460918427 0.17720147967339
vn 0 -0.85749393701553 0.51449406147003
vn 0.50208306312561 0 -0.86481940746307
vn 0.18427024781704 0 -0.98287564516068
vn -1 0.0000005587616 -0.00000065042121
vn 0 0.00000000000023 -1
vn 0 0.00097653223202 -0.99999952316284
vn 0.00000000046565 0.00000005960102 -1
vn -1 0.00000030565093 0.0000018928647
vn 0 0.00024413317442 -1
vn -1 0.00000045847636 0.00000283929694
vn 0 0 -1
vn -1 0.00000091695273 0.00000567859388
vn -1 0.00000166315192 -0.00000000000016
vn -1 0.00000166315192 -0.00000000000015
vn 0 -1 0.00000008742278
vn 0 -1 0.00000008742278
vn 0.00000142131057 1 0.00000212946384
vn 0 0.81935858726501 -0.57328140735626
vn 0.00000025554442 0.81514585018158 -0.57925581932068
vn 0 0.81935858726501 -0.57328140735626
vn 0.00000116608146 0.8193581700325 -0.57328200340271
vn 0 -0.92290788888931 -0.38502085208893
vn 1 0.00000006917217 0.00000281635675
vn 1 0.00000178328219 0.00000074395388
vn 1 0.00000075070204 -0.00000565070468
vn -0.34432056546211 0.79276978969574 0.50295072793961
vn -0.00000108146583 0.98102122545242 0.19390025734901
vn 0 -0.55451428890228 -0.83217418193817
vn 0 0.52339392900467 -0.85209083557129
vn -0.25961980223656 0.53472691774368 0.80415463447571
vn -0.00175910629332 0.63487422466278 0.77261346578598
vn -0.00000007532248 0.62947279214859 0.77702248096466
vn 0 0 1
vn 0.00000010472242 -0.80209463834763 -0.59719699621201
vn 0.00000010472198 -0.80209463834763 -0.59719693660736
# 148 normals

vt 0.56270480155945 0.62651908397675 0
vt 0.57108473777771 0.59955185651779 0
vt 0.4199481010437 0.59955239295959 0
vt 0 1 0
vt 0.41994822025299 0.6265195608139 0
vt 0.61805355548859 0.6683714389801 0
vt 0.57638573646545 0.60536104440689 0
vt 0.59107542037964 0.66837155818939 0
vt 0.23130080103874 0.15887594223022 0
vt 0.13827833533287 0.15888428688049 0
vt 0.13828805088997 0.28176820278168 0
vt 0.23132023215294 0.28175806999207 0
vt 0.75283932685852 0.36797690391541 0
vt 0.76086211204529 0.35490894317627 0
vt 0.76086091995239 0.34024798870087 0
vt 0.75182008743286 0.32668220996857 0
vt 0.66937005519867 0.42640030384064 0
vt 0.64612817764282 0.28260922431946 0
vt 0.6272554397583 0.4264075756073 0
vt 0.47550457715988 0.42643511295319 0
vt 0.23132023215294 0.28268361091614 0
vt 0.16117292642593 0.36436438560486 0
vt 0.1515576839447 0.33055758476257 0
vt 0.15156027674675 0.35267007350922 0
vt 0.77694129943848 0.28166878223419 0
vt 0.79160380363464 0.2816709280014 0
vt 0.79161441326141 0.15878462791443 0
vt 0.77694869041443 0.15878140926361 0
vt 0.64610636234283 0.15879774093628 0
vt 0.64612817764282 0.28168368339539 0
vt 0.61805951595306 0.60553050041199 0
vt 0.61805379390717 0.7279172539711 0
vt 0.71952426433563 0.72792023420334 0
vt 0.71952855587006 0.60553586483002 0
vt 0.76063358783722 0.15877902507782 0
vt 0.76064133644104 0.28166842460632 0
vt 0.30522066354752 0.1377329826355 0
vt 0.23130080103874 0.15831434726715 0
vt 0.64610636234283 0.15823602676392 0
vt 0.63080275058746 0.13766491413116 0
vt 0.76081132888794 0.10054278373718 0
vt 0.76080870628357 0.08588182926178 0
vt 0.75278043746948 0.07281684875488 0
vt 0.75177669525146 0.11411225795746 0
vt 0.66928279399872 0.01443779468536 0
vt 0.63078308105469 0.0431262254715 0
vt 0.30521780252457 0.07853770256042 0
vt 0.15152296423912 0.07854878902435 0
vt 0.15152564644814 0.11045730113983 0
vt 0.09387965500355 0.65755009651184 0
vt 0.10088311135769 0.69961738586426 0
vt 0.09372715651989 0.59955358505249 0
vt 0.80694246292114 0.28167235851288 0
vt 0.80694782733917 0.15878629684448 0
vt 0.07924284040928 0.66189700365067 0
vt 0.08647425472736 0.70510631799698 0
vt 0.07897214591503 0.59962493181229 0
vt 0.10088373720646 0.87245726585388 0
vt 0.08647488057613 0.86696845293045 0
vt 0.06000943481922 0.67241513729095 0
vt 0.03842245042324 0.72918277978897 0
vt 0.0695822685957 0.72917866706848 0
vt 0.06000311672688 0.60918879508972 0
vt 0.03841222822666 0.60918992757797 0
vt 0.35542732477188 0.69991320371628 0
vt 0.35542804002762 0.87215977907181 0
vt 0.06958259642124 0.84289634227753 0
vt 0.95596742630005 0.519351541996 0
vt 0.8396430015564 0.51935225725174 0
vt 0.83964538574219 0.84452068805695 0
vt 0.95596981048584 0.84451991319656 0
vt 0.95596694946289 0.46022045612335 0
vt 0.83964276313782 0.4602210521698 0
vt 0.95596587657928 0.30672109127045 0
vt 0.83964157104492 0.30672180652618 0
vt 0.56270599365234 0.94555234909058 0
vt 0.41994935274124 0.94555288553238 0
vt 0.41994947195053 0.9725199341774 0
vt 0.5710860490799 0.97251933813095 0
vt 0.6180545091629 0.903699696064 0
vt 0.59107625484467 0.90369975566864 0
vt 0.57638704776764 0.96671003103256 0
vt 0.23130050301552 0.15887594223022 0
vt 0.231320053339 0.28175818920136 0
vt 0.13828814029694 0.28176832199097 0
vt 0.13827812671661 0.15888428688049 0
vt 0.16117253899574 0.36436426639557 0
vt 0.1515599489212 0.35267007350922 0
vt 0.15155756473541 0.33055746555328 0
vt 0.231320053339 0.28268361091614 0
vt 0.47550451755524 0.42643511295319 0
vt 0.76086056232452 0.34024798870087 0
vt 0.760861992836 0.35490906238556 0
vt 0.75283920764923 0.36797678470612 0
vt 0.75181972980499 0.32668220996857 0
vt 0.66936981678009 0.42640030384064 0
vt 0.64612782001495 0.28260922431946 0
vt 0.62725508213043 0.42640769481659 0
vt 0.77694094181061 0.28166890144348 0
vt 0.77694857120514 0.15878140926361 0
vt 0.79161417484283 0.15878462791443 0
vt 0.79160368442535 0.28167104721069 0
vt 0.64612782001495 0.28168380260468 0
vt 0.61806094646454 0.96654015779495 0
vt 0.71952450275421 0.84414994716644 0
vt 0.61805427074432 0.84415370225906 0
vt 0.71952974796295 0.96653407812119 0
vt 0.76064121723175 0.28166854381561 0
vt 0.64610636234283 0.15823614597321 0
vt 0.23130050301552 0.15831434726715 0
vt 0.305220246315 0.13773310184479 0
vt 0.63080275058746 0.13766503334045 0
vt 0.63078272342682 0.0431262254715 0
vt 0.75278007984161 0.07281696796417 0
vt 0.76080858707428 0.08588194847107 0
vt 0.76081097126007 0.10054290294647 0
vt 0.7517763376236 0.11411237716675 0
vt 0.66928255558014 0.01443779468536 0
vt 0.15152513980865 0.11045742034912 0
vt 0.15152275562286 0.07854890823364 0
vt 0.30521738529205 0.07853782176971 0
vt 0.09388057887554 0.91452485322952 0
vt 0.09372843801975 0.97252112627029 0
vt 0.80694210529327 0.28167247772217 0
vt 0.07924382388592 0.91017800569534 0
vt 0.07897342741489 0.97245007753372 0
vt 0.03842283785343 0.84289216995239 0
vt 0.06001029908657 0.89966005086899 0
vt 0.03841350972652 0.9628849029541 0
vt 0.06000433862209 0.96288627386093 0
vt 0.95597076416016 0.98688405752182 0
vt 0.95597052574158 0.93892997503281 0
vt 0.83964586257935 0.93893074989319 0
vt 0.83964610099792 0.9868848323822 0
# 134 texture coordinates

o hull
usemtl 24 - Default
f 8/3/3 14/2/2 4/1/1
f 4/1/1 7/5/5 8/3/3
f 4/1/8 14/7/7 3/6/6
f 3/6/6 2/8/10 4/1/8
f 28/15/14 15/14/14 29/13/14
f 9/16/14 28/15/14 29/13/14
f 9/16/14 29/13/14 11/17/15
f 12/18/16 9/16/14 11/17/15
f 12/18/16 11/17/15 14/19/17
f 12/18/18 14/19/18 8/20/18
f 13/21/19 12/18/19 8/20/19
f 13/21/20 8/20/20 26/22/20
f 26/22/14 34/24/14 25/23/14
f 13/21/21 26/22/21 25/23/21
f 14/7/25 11/31/25 3/6/25
f 31/33/28 18/32/27 3/6/6
f 29/34/30 31/33/28 3/6/6
f 11/31/32 29/34/32 3/6/32
f 27/39/36 10/38/36 23/37/36
f 23/37/38 22/40/38 27/39/38
f 31/43/38 21/42/38 30/41/38
f 31/43/38 30/41/38 17/44/38
f 18/45/42 31/43/42 17/44/42
f 18/45/44 17/44/44 27/39/44
f 16/46/46 18/45/46 27/39/46
f 16/46/38 27/39/38 22/40/38
f 24/47/38 23/37/38 10/38/38
f 6/48/38 24/47/38 10/38/38
f 6/48/38 10/38/38 20/49/38
f 33/50/52 8/3/3 7/5/5
f 7/5/5 32/51/54 33/50/52
f 26/52/56 8/3/3 33/50/52
f 32/51/54 1/56/66 19/55/65
f 19/55/65 33/50/52 32/51/54
f 33/50/52 19/55/65 34/57/69
f 34/57/71 26/52/71 33/50/71
f 1/56/66 32/51/54 66/58/73
f 66/58/73 35/59/75 1/56/66
f 6/62/77 20/61/77 19/60/77
f 19/60/79 1/56/79 6/62/79
f 25/64/79 34/63/79 19/60/79
f 19/60/79 20/61/79 25/64/79
f 32/51/54 7/5/5 5/65/83
f 32/51/54 5/65/83 39/66/85
f 39/66/85 66/58/73 32/51/54
f 6/62/79 1/56/66 35/59/75
f 35/59/79 40/67/79 6/62/79
f 22/70/90 23/69/90 57/68/90
f 57/68/92 56/71/92 22/70/92
f 23/69/79 24/73/79 58/72/79
f 58/72/79 57/68/79 23/69/79
f 24/73/96 6/75/96 40/74/96
f 40/74/98 58/72/98 24/73/98
f 42/78/102 41/77/101 38/76/100
f 38/76/100 48/79/104 42/78/102
f 38/76/108 36/81/107 37/80/106
f 37/80/106 48/82/110 38/76/108
f 59/89/38 68/88/38 60/87/38
f 47/90/36 59/89/36 60/87/36
f 47/90/117 60/87/117 42/91/117
f 63/94/38 49/93/38 62/92/38
f 63/94/38 62/92/38 43/95/38
f 45/96/121 63/94/38 43/95/38
f 45/96/121 43/95/38 46/97/123
f 48/98/125 45/96/121 46/97/123
f 42/91/126 48/98/126 46/97/126
f 47/90/127 42/91/127 46/97/127
f 48/82/130 37/80/130 45/104/130
f 37/80/106 52/106/132 65/105/131
f 37/80/106 65/105/131 63/107/133
f 45/104/134 37/80/134 63/107/134
f 57/111/14 44/110/14 61/109/14
f 61/109/21 56/112/21 57/111/21
f 50/113/14 56/112/14 61/109/14
f 64/116/14 55/115/14 65/114/14
f 51/117/14 64/116/14 65/114/14
f 51/117/136 65/114/136 52/118/136
f 61/109/137 51/117/137 52/118/137
f 50/113/138 61/109/138 52/118/138
f 40/120/14 54/119/14 44/110/14
f 44/110/14 57/111/14 58/121/14
f 40/120/14 44/110/14 58/121/14
f 2/8/10 3/6/6 18/32/27
f 2/8/10 18/32/27 52/106/132
f 36/81/107 2/8/10 52/106/132
f 36/81/107 52/106/132 37/80/106
f 67/122/139 66/58/73 41/77/101
f 41/77/101 42/78/102 67/122/139
f 60/123/140 67/122/139 42/78/102
f 66/58/73 67/122/139 53/125/143
f 53/125/143 35/59/75 66/58/73
f 67/122/144 60/123/144 68/126/144
f 68/126/145 53/125/143 67/122/139
f 53/128/146 54/127/146 40/67/146
f 40/67/79 35/59/79 53/128/79
f 59/129/146 54/127/146 53/128/146
f 53/128/79 68/130/79 59/129/79
f 66/58/73 39/66/85 41/77/101
f 7/5/5 4/1/1 2/8/10
f 5/65/83 7/5/5 2/8/10
f 36/81/107 38/76/100 41/77/101
f 36/81/107 41/77/101 39/66/85
f 2/8/10 36/81/107 39/66/85
f 5/65/83 2/8/10 39/66/85
f 16/133/147 50/132/147 52/131/147
f 52/131/148 18/134/148 16/133/148
f 22/70/23 56/71/23 50/132/23
f 50/132/22 16/133/22 22/70/22

usemtl tracks
f 25/11/12 20/10/12 10/9/11
f 10/9/11 13/12/13 25/11/12
f 21/27/22 15/26/22 28/25/22
f 28/25/23 30/28/23 21/27/23
f 13/12/13 10/9/11 27/29/24
f 27/29/24 12/30/24 13/12/13
f 12/30/34 27/29/34 17/35/34
f 17/35/34 9/36/34 12/30/34
f 28/25/58 9/36/58 17/35/58
f 17/35/58 30/28/58 28/25/58
f 29/53/61 15/26/61 21/27/61
f 21/27/63 31/54/63 29/53/63
f 59/85/114 47/84/113 44/83/112
f 44/83/112 54/86/114 59/85/114
f 55/101/23 64/100/23 62/99/23
f 62/99/23 49/102/23 55/101/23
f 47/84/113 46/103/129 61/29/128
f 61/29/128 44/83/112 47/84/113
f 46/103/135 43/108/135 51/35/135
f 51/35/135 61/29/135 46/103/135
f 62/99/141 64/100/141 51/35/141
f 51/35/141 43/108/141 62/99/141
f 63/124/142 65/54/142 55/101/142
f 55/101/142 49/102/142 63/124/142

v -14.99998474121094 165 -59.31591033935547
v 15.00001525878906 165 -59.31591033935547
v -14.99998474121094 165 -89.31591033935547
v 15.00001525878906 165 -89.31591033935547
v -14.99998474121094 195 -59.31591033935547
v 15.00001525878906 195 -59.31591033935547
v -14.99998474121094 195 -89.31591033935547
v 15.00001525878906 195 -89.31591033935547
# 8 vertices

vn 0 -1 0
vn 0 1 0
# 2 normals

vt 1 0 0
vt 0 0 0
vt 1 1 0
# 3 texture coordinates

o mount
usemtl tracks
f 72/4/24 70/136/24 69/135/24
f 69/135/24 71/137/149 72/4/24
f 76/137/150 75/4/150 73/136/150
f 73/136/150 74/135/150 76/137/150
f 69/136/146 70/135/146 74/137/146
f 74/137/79 73/4/79 69/136/79
f 76/137/14 74/4/14 70/136/14
f 70/136/14 72/135/14 76/137/14
f 72/136/23 71/135/23 75/137/23
f 75/137/22 76/4/22 72/136/22
f 71/136/38 69/135/38 73/137/38
f 73/137/38 75/4/38 71/136/38

