# WaveFront *.obj file (generated by Cinema 4D)

v 70.3402099609375 86.45158386230469 -71.85983276367188
v 84.149658203125 0 68.39016723632812
v 42.07470703125 56.10000228881836 110.46511840820312
v 49.499755859375 57.86785507202148 -165.75851440429688
v 70.340087890625 86.45158386230469 68.39016723632812
v 49.499755859375 24.86785125732422 -131.25851440429688
v 49.499755859375 57.86785507202148 -131.25851440429688
v 49.499755859375 24.86785125732422 -165.75851440429688
v 42.07470703125 0 110.46511840820312
v 84.149658203125 0 -71.85983276367188
v 34.499755859375 57.86785507202148 -180.75851440429688
v 34.499755859375 24.86785125732422 -180.75851440429688
v 84.1497802734375 70.15000915527344 -71.85983276367188
v 84.149658203125 70.14999389648438 68.39016723632812
v 3.5771484375 32.02325057983398 -180.75851440429688
v 3.5771484375 32.02325057983398 -411.75851440429688
v 12.921875 50.71245956420898 -411.75851440429688
v 12.921875 50.71246719360352 -180.75851440429688
v 8.4996337890625 57.86785507202148 -411.75851440429688
v 8.4996337890625 57.86785507202148 -180.75851440429688
v 0 98.17478942871094 68.39041137695312
v -70.3402099609375 86.45158386230469 -71.85983276367188
v -84.149658203125 0.00000476837158 68.39016723632812
v -42.07470703125 56.10000991821289 110.46511840820312
v -49.499755859375 57.86783981323242 -165.75851440429688
v -70.340087890625 86.45158386230469 68.39016723632812
v -49.499755859375 24.86783981323242 -131.25851440429688
v -49.499755859375 57.86783981323242 -131.25851440429688
v -49.499755859375 24.86783599853516 -165.75851440429688
v -42.07470703125 0.00000858306885 110.46511840820312
v -84.149658203125 -0.00000762939453 -71.85983276367188
v -34.499755859375 57.86783981323242 -180.75851440429688
v -34.499755859375 24.86783218383789 -180.75851440429688
v -84.1497802734375 70.14999389648438 -71.85983276367188
v -84.149658203125 70.14999389648438 68.39016723632812
v -3.5771484375 32.02323150634766 -180.75851440429688
v -3.5771484375 32.02321243286133 -411.75851440429688
v -12.921875 50.71242141723633 -411.75851440429688
v -12.921875 50.71244812011719 -180.75851440429688
v -8.4996337890625 57.86781692504883 -411.75851440429688
v -8.4996337890625 57.86783981323242 -180.75851440429688
v 0 98.17483520507812 -71.86007690429688
v 38.026123046875 91.83723449707031 -50.57760620117188
v 38.038818359375 91.83511352539062 -0.40451049804688
v -38.0262451171875 91.83726501464844 -50.57760620117188
v -38.038818359375 91.83517456054688 -0.40451049804688
v -0.0003662109375 103.4736328125 -56.76803588867188
v -33.0950927734375 97.70513916015625 -46.84103393554688
v -33.1060791015625 97.70330810546875 -3.53317260742188
v -0.0003662109375 103.66229248046875 12.81375122070312
v 33.1060791015625 97.70320129394531 -3.53341674804688
v 33.0950927734375 97.70503234863281 -46.84103393554688
v -0.000244140625 98.1749267578125 -61.96945190429688
v -0.000244140625 98.17491149902344 18.33767700195312
# 54 vertices

vt 0.38488507270813 0.56732946634293 0
vt 0.4913586974144 0.56735634803772 0
vt 0.53525269031525 0.49852049350739 0
vt 0 1 0
vt 0.2405421435833 0.49852073192596 0
vt 0.53705298900604 0.64835977554321 0
vt 0.67331779003143 0.54585182666779 0
vt 0.67975211143494 0.42807054519653 0
vt 0.67975425720215 0.35872662067413 0
vt 0.53525269031525 0.30621886253357 0
vt 0.53525269031525 0.45362651348114 0
vt 0.24054220318794 0.30621886253357 0
vt 0.24054220318794 0.45362651348114 0
vt 0.11550715565681 0.42356705665588 0
vt 0.11550715565681 0.30646479129791 0
vt 0.12721765041351 0.73515099287033 0
vt 0.24006989598274 0.64835977554321 0
vt 0.12721765041351 0.56125956773758 0
vt 0.74476313591003 0.54585176706314 0
vt 0.74476325511932 0.47751271724701 0
vt 0.67331790924072 0.47751259803772 0
vt 0.79064416885376 0.62160021066666 0
vt 0.82934725284576 0.64095205068588 0
vt 0.84416544437408 0.57691520452499 0
vt 0.77582633495331 0.5769150853157 0
vt 0.78869211673737 0.54585200548172 0
vt 0.78869223594666 0.47751271724701 0
vt 0.77582621574402 0.63075810670853 0
vt 0.94206511974335 0.3974484205246 0
vt 0.94207096099854 0.81004351377487 0
vt 0.97544860839844 0.81004363298416 0
vt 0.9754501581192 0.39744853973389 0
vt 0.92928469181061 0.39744853973389 0
vt 0.9292905330658 0.81004369258881 0
vt 0.01128915511072 0.56125956773758 0
vt 0.01128915511072 0.73515105247498 0
vt 0.67331779003143 0.75091928243637 0
vt 0.53525292873383 0.79830223321915 0
vt 0.67975234985352 0.86712247133255 0
vt 0.53525292873383 0.84319633245468 0
vt 0.53525280952454 0.99060410261154 0
vt 0.67975473403931 0.93646663427353 0
vt 0.24054193496704 0.99060410261154 0
vt 0.24054196476936 0.84319633245468 0
vt 0.11550650000572 0.87325567007065 0
vt 0.11550650000572 0.99114006757736 0
vt 0.74476301670074 0.750867664814 0
vt 0.67331767082214 0.81920677423477 0
vt 0.74476289749146 0.81920689344406 0
vt 0.77582633495331 0.66596180200577 0
vt 0.77582621574402 0.71980434656143 0
vt 0.79064428806305 0.67511993646622 0
vt 0.84416520595551 0.71980452537537 0
vt 0.82934749126434 0.65576833486557 0
vt 0.78869187831879 0.81920689344406 0
vt 0.78869199752808 0.75086778402328 0
vt 0.24054196476936 0.79830199480057 0
vt 0.8989292383194 0.39744877815247 0
vt 0.89892435073853 0.81004369258881 0
vt 0.88614892959595 0.39744830131531 0
vt 0.85276389122009 0.39744818210602 0
vt 0.85276246070862 0.81004273891449 0
vt 0.88613986968994 0.81004285812378 0
vt 0.92049956321716 0.85620522499084 0
vt 0.93718945980072 0.82282376289368 0
vt 0.8910299539566 0.82282483577728 0
vt 0.90772140026093 0.85620540380478 0
vt 0.98822700977325 0.8100438117981 0
vt 0.98822844028473 0.39744853973389 0
vt 0.51926481723785 0.25282788276672 0
vt 0.63908278942108 0.33320260047913 0
vt 0.63907992839813 0.01170170307159 0
vt 0.51926362514496 0.09207808971405 0
vt 0.46324449777603 0.09207844734192 0
vt 0.43888884782791 0.11643481254578 0
vt 0.438889503479 0.22847175598145 0
vt 0.46324551105499 0.2528281211853 0
vt 0.98737478256226 0.09207463264465 0
vt 0.90699863433838 0.01169979572296 0
vt 0.98737597465515 0.2528247833252 0
vt 0.90700125694275 0.3332005739212 0
vt 0.51610946655273 0.64835983514786 0
vt 0.49135851860046 0.72941952943802 0
vt 0.38548862934113 0.7294459939003 0
vt 0.34605723619461 0.64835977554321 0
vt 0.47866928577423 0.58373618125916 0
vt 0.39493507146835 0.58371472358704 0
vt 0.36365628242493 0.64807420969009 0
vt 0.4976812005043 0.64807420969009 0
vt 0.394935131073 0.71243262290955 0
vt 0.47866928577423 0.71241110563278 0
# 91 texture coordinates

o turret
usemtl tank_2j
f 1/3 43/2 44/1
f 44/1 5/5 1/3
f 1/3 7/7 42/6
f 10/10 6/9 7/8
f 7/8 13/11 10/10
f 13/11 14/13 2/12
f 2/12 10/10 13/11
f 2/12 14/13 3/14
f 3/14 9/15 2/12
f 3/18 21/17 24/16
f 6/21 8/20 4/19
f 4/19 7/7 6/21
f 12/24 15/23 18/22
f 18/22 11/25 12/24
f 11/26 4/19 8/20
f 8/20 12/27 11/26
f 1/3 13/11 7/8
f 5/5 14/13 13/11
f 13/11 1/3 5/5
f 5/5 21/17 3/18
f 3/14 14/13 5/5
f 18/22 20/28 11/25
f 16/31 17/30 18/29
f 18/29 15/32 16/31
f 20/33 18/29 17/30
f 17/30 19/34 20/33
f 9/35 3/18 24/16
f 24/16 30/36 9/35
f 22/38 42/6 28/37
f 31/41 34/40 28/39
f 28/39 27/42 31/41
f 34/40 31/41 23/43
f 23/43 35/44 34/40
f 23/43 30/46 24/45
f 24/45 35/44 23/43
f 27/48 28/37 25/47
f 25/47 29/49 27/48
f 7/7 4/19 11/25
f 7/7 11/25 20/28
f 7/7 20/28 41/50
f 28/37 7/7 41/50
f 28/37 41/50 32/51
f 28/37 32/51 25/47
f 33/53 32/51 39/52
f 39/52 36/54 33/53
f 32/56 33/55 29/49
f 29/49 25/47 32/56
f 22/38 28/39 34/40
f 26/57 22/38 34/40
f 34/40 35/44 26/57
f 26/57 24/16 21/17
f 24/45 26/57 35/44
f 36/54 15/23 12/24
f 12/24 33/53 36/54
f 39/52 32/51 41/50
f 41/58 20/33 19/34
f 19/34 40/59 41/58
f 37/62 36/61 39/60
f 39/60 38/63 37/62
f 19/34 17/65 16/64
f 16/64 37/67 38/66
f 19/34 16/64 38/66
f 40/59 19/34 38/66
f 41/58 40/59 38/63
f 38/63 39/60 41/58
f 37/68 16/31 15/32
f 15/32 36/69 37/68
f 42/6 7/7 28/37
f 10/72 31/71 27/70
f 27/70 6/73 10/72
f 12/75 8/74 6/73
f 27/70 29/77 33/76
f 6/73 27/70 33/76
f 12/75 6/73 33/76
f 10/72 2/79 9/78
f 10/72 9/78 30/80
f 30/80 23/81 31/71
f 10/72 30/80 31/71
f 43/2 1/3 42/6
f 42/6 53/82 43/2
f 53/82 42/6 22/38
f 22/38 45/83 53/82
f 45/83 22/38 26/57
f 26/57 46/84 45/83
f 21/17 54/85 46/84
f 46/84 26/57 21/17
f 21/17 5/5 44/1
f 44/1 54/85 21/17
f 50/88 51/87 52/86
f 52/86 47/89 50/88
f 47/89 48/91 49/90
f 49/90 50/88 47/89
f 48/91 47/89 53/82
f 53/82 45/83 48/91
f 49/90 48/91 45/83
f 45/83 46/84 49/90
f 50/88 49/90 46/84
f 46/84 54/85 50/88
f 51/87 50/88 54/85
f 54/85 44/1 51/87
f 52/86 51/87 44/1
f 44/1 43/2 52/86
f 47/89 52/86 43/2
f 43/2 53/82 47/89

v 48.43365478515625 89.16436767578125 87.49580383300781
v 63.72686767578125 89.16436767578125 87.49580383300781
v 48.43365478515625 89.16436767578125 73.41719055175781
v 63.72686767578125 89.16436767578125 73.41719055175781
v 48.43365478515625 81.34656524658203 87.49580383300781
v 63.72686767578125 81.34656524658203 87.49580383300781
v 48.43365478515625 81.34656524658203 73.41719055175781
v 63.72686767578125 81.34656524658203 73.41719055175781
# 8 vertices

vn 0 1 0
vn 0 0 1
vn 0 0 -1
vn 0 -1 0
vn 0 -1 0
vn -0.71405273675919 0 0.70009195804596
vn -0.71405273675919 0 -0.70009195804596
vn 0 0 1
vn 1 0 0
vn 1 0 0
vn 0 0 -1
vn -1 0 0
vn -1 0 0
# 13 normals

vt 1 1 0
vt 0 0 0
vt 1 0 0
# 3 texture coordinates

o fmnt
usemtl Default
f 57/4/1 55/93/1 58/92/1
f 56/94/1 58/92/1 55/93/1
f 60/93/5 59/94/4 62/4/4
f 61/92/4 62/4/4 59/94/4
f 56/94/8 55/93/8 60/92/8
f 59/4/8 60/92/8 55/93/8
f 58/94/9 56/93/9 62/92/9
f 60/4/10 62/92/10 56/93/10
f 57/94/11 58/93/11 61/92/11
f 62/4/11 61/92/11 58/93/11
f 55/94/12 57/93/12 59/92/12
f 61/4/13 59/92/13 57/93/13

v -7.64697265625 51.91935348510742 -405.90658569335938
v 7.646240234375 51.91935348510742 -405.90658569335938
v -7.64697265625 51.91935348510742 -419.98519897460938
v 7.646240234375 51.91935348510742 -419.98519897460938
v -7.64697265625 44.1015510559082 -405.90658569335938
v 7.646240234375 44.1015510559082 -405.90658569335938
v -7.64697265625 44.1015510559082 -419.98519897460938
v 7.646240234375 44.1015510559082 -419.98519897460938
# 8 vertices

vn 0 -1 0
vn 0 0 0
vn 0 1 0
vn 0 0 0
# 4 normals

# 0 texture coordinate

o muzzle01
usemtl Default
f 65/4/1 63/93/1 66/92/1
f 64/94/1 66/92/1 63/93/1
f 68/93/5 67/94/4 70/4/4
f 69/92/4 70/4/4 67/94/4
f 64/94/8 63/93/8 68/92/8
f 67/4/8 68/92/8 63/93/8
f 66/94/9 64/93/9 70/92/9
f 68/4/10 70/92/10 64/93/10
f 65/94/11 66/93/11 69/92/11
f 70/4/11 69/92/11 66/93/11
f 63/94/12 65/93/12 67/92/12
f 69/4/13 67/92/13 65/93/13

