v -27.04931640625 24.26601791381836 -315.26416015625
v -48.5244140625 89.51253509521484 123.973876953125
v -54.3408203125 50.39900207519531 165.7578125
v 31.052734375 27.7253303527832 -317.2724609375
v 27.09912109375 54.92022705078125 -333.0546875
v 50.7451171875 47.67942810058594 168.6630859375
v 44.12060546875 92.23210144042969 121.068603515625
v 73.2373046875 61.53878021240234 -1.87158203125
v 34.9345703125 0.21892605721951 119.37060546875
v 88.67626953125 31.1140022277832 0.044677734375
v -73.2373046875 61.53855514526367 -1.872802734375
v -38.79345703125 62.69404220581055 102.049560546875
v -36.71142578125 71.94288635253906 -1.37841796875
v -28.9423828125 32.32239151000977 -172.444091796875
v -44.40576171875 30.2432918548584 137.411865234375
v -54.34228515625 34.59246444702148 149.274658203125
v -44.11767578125 76.46534729003906 104.633056640625
v -34.9345703125 0.21892605721951 119.37060546875
v -88.6767578125 31.11426162719727 0.0458984375
v -29.078125 62.23773193359375 -129.341796875
v -26.58251953125 -0.1781455129385 -131.422607421875
v -72.83349609375 -0.08652468770742 -0.00048828125
v 50.7470703125 31.8699951171875 152.177001953125
v 48.5224609375 73.74286651611328 107.53564453125
v 36.71142578125 71.94288635253906 -1.37841796875
v 29.0791015625 62.23839569091797 -129.34228515625
v 26.58251953125 -0.1781455129385 -131.422607421875
v 28.94140625 32.32159423828125 -172.443359375
v 72.83349609375 -0.08652468770742 -0.00048828125
v -31.094482421875 51.46072006225586 -331.046630859375
v -31.054931640625 27.72563171386719 -317.27197265625
v 27.046875 24.2657413482666 -315.2646484375
v 19.90869140625 31.36096572875977 -276.234619140625
v -19.91015625 31.36117744445801 -276.234619140625
v 31.09326171875 51.46060943603516 -331.046875
v -16.217041015625 51.15603637695312 -275.771484375
v 16.9482421875 50.6783447265625 -275.771484375
v -27.10009765625 54.92030334472656 -333.054443359375
v -32.64013671875 95.01936340332031 -1.380126953125
v 0 57.02490615844727 -275.771484375
v -36.652587890625 91.01938629150391 -1.3798828125
v 32.64013671875 95.01936340332031 -1.380126953125
v 38.79150390625 62.6929931640625 102.048828125
v 36.652587890625 91.01938629150391 -1.3798828125
v -44.1201171875 92.23210144042969 121.068603515625
v -50.7451171875 47.67943572998047 168.6630859375
v 54.3408203125 50.39899444580078 165.7578125
v 48.52490234375 89.51253509521484 123.973876953125
v -50.7470703125 31.86999320983887 152.177001953125
v -48.5224609375 73.74287414550781 107.53564453125
v 44.40771484375 30.24441909790039 137.41259765625
v 54.34228515625 34.59246444702148 149.274658203125
v 44.11767578125 76.46533203125 104.633056640625
# 53 vertices

vn -0.27407255768776 0.95836061239243 0.08018236607313
vn 0 -0.63839226961136 0.76971119642258
vn -0.98284494876862 0.15990924835205 -0.09189590066671
vn -0.91520476341248 0.32923302054405 -0.23239168524742
vn -0.95461821556091 0.25015786290169 -0.16163265705109
vn 0.57735025882721 0.57735025882721 -0.57735025882721
vn -0.97894996404648 0.18467530608177 -0.08690205216408
vn -0.27175354957581 0.95825308561325 -0.08888769894838
vn -0.57735025882721 -0.57735025882721 0.57735025882721
vn -0.99979817867279 0.00308216596022 -0.0198505744338
vn -0.17194207012653 0.98407006263733 0.04518918693066
vn 0.00351530034095 0.9970737695694 0.07636445015669
vn -0.33760851621628 0.93289017677307 0.12544499337673
vn 0 -0.54112714529037 0.84094077348709
vn 0 -0.99999868869782 0.00162798783276
vn 0 -0.97611445188522 -0.21725687384605
vn -0.00000103027048 -0.90031057596207 -0.43524804711342
vn -0.68052512407303 -0.65409761667252 -0.33021485805511
vn -0.76833462715149 -0.40616419911385 -0.4946640431881
vn -1 0 0
vn -0.75806128978729 -0.41960126161575 -0.49927738308907
vn -0.99485778808594 0.0730873644352 -0.07011586427689
vn -0.99485391378403 0.07317318022251 -0.07008107751608
vn -0.9948616027832 0.07300155609846 -0.07015065848827
vn 1 0.00000090920673 -0.00000090920673
vn -0.99114191532135 0.0030467750039 -0.13277187943459
vn -0.2771272957325 0.95669400691986 -0.08909001201391
vn 0 0.70710676908493 -0.70710676908493
vn -0.33857241272926 0.93555361032486 -0.10053922981024
vn 0.9997985959053 0.003082170384 -0.01983181014657
vn 0.95849794149399 0.14153696596622 0.24748535454273
vn 0.95837026834488 0.14209076762199 0.24766241014004
vn -1 0.0000000008058 0
vn 0.95862525701523 0.14098311960697 0.24730822443962
vn 0.32769623398781 0.94055044651032 0.08933114260435
vn 0.47762602567673 0.86587804555893 0.148756980896
vn 0.57735025882721 0.57735025882721 -0.57735025882721
vn 0.99114191532135 0.00304679642431 -0.13277189433575
vn -0.00000146913078 -0.78381252288818 -0.62099754810333
vn -0.00000293826156 -0.78381156921387 -0.62099874019623
vn 0 -1 0
vn 0 0.9965854883194 0.08256734162569
vn 0 0.99054896831512 -0.13715946674347
vn 0 -0.99999672174454 0.0025588250719
vn 0 -0.99999672174454 0.00255882483907
vn -0.00000026486208 -0.51505553722382 0.85715681314468
vn 0 -0.51505601406097 0.85715651512146
vn 0 0 1
vn -0.00000052972422 -0.51505500078201 0.85715717077255
vn 0.00000001771168 -0.99398577213287 0.10950919985771
vn -0.00000000761929 -0.85262787342072 0.52251863479614
vn 0.00000001630363 -0.9059876203537 0.42330420017242
vn 0.00001171420536 -0.99399399757385 0.10943472385406
vn 0.57735055685043 0.57735013961792 -0.57735013961792
vn -0.00000005265785 -0.72176337242126 0.69213992357254
vn -0.00000001974695 -0.72176349163055 0.69213980436325
vn 0.00000095367432 1 0.00000000045214
vn 0.00000003934488 0.73005247116089 0.68339109420776
vn 0.00000005124931 0.73005253076553 0.68339097499847
vn 0.00000001281229 0.73005247116089 0.68339109420776
vn 0 0.73005247116089 0.68339109420776
vn 0.57735413312912 0.57734835147858 -0.57734835147858
vn 0.00000005409942 0.56655526161194 -0.82402378320694
vn 0 0.72163635492325 -0.69227236509323
vn 0.00000006074379 0.72163647413254 -0.6922721862793
vn -0.00032786981319 0.72377669811249 -0.69003421068192
vn -0.00000230815363 0.3795525431633 -0.92517018318176
vn -0.00000337635697 0.18440073728561 -0.98285114765167
vn -0.00000678665174 0.18438090384006 -0.98285484313965
vn 0 0.95447069406509 0.29830476641655
vn -1 0 0
vn 0.00001571008579 0.95446759462357 0.29831466078758
vn -1 0 -0.00000000043517
vn -0.85750788450241 -0.4358352124691 0.27336397767067
vn -0.85779839754105 -0.4350537955761 0.27369713783264
vn -0.89163774251938 0.45265027880669 -0.00948077160865
vn 0.00000095367432 1 -0.00000095385644
vn -0.89195251464844 0.45202314853668 -0.00978441350162
vn 0 -1 0
vn -0.84981274604797 0.44861587882042 0.2766986489296
vn 0 -0.4862879216671 0.87379860877991
vn -0.8498398065567 0.44854232668877 0.27673465013504
vn -0.84913766384125 -0.43667468428612 -0.29712024331093
vn -0.85097360610962 -0.43166598677635 -0.29917952418327
vn 0 -1 0
vn 0.7570988535881 -0.41702422499657 -0.50288379192352
vn 0 0 1
vn 0.76748609542847 -0.41069322824478 -0.49223586916924
vn 0.93720775842667 -0.17949226498604 -0.29903867840767
vn 0.97045058012009 -0.09311001002789 -0.22261224687099
vn 0.70710676908493 0.70710676908493 0
vn 0.9948582649231 0.07307653129101 -0.07012025266886
vn 0.99486261606216 0.0729798823595 -0.0701594427228
vn 0.27406448125839 0.95836156606674 0.08019807934761
vn 0.27175113558769 0.95825445652008 -0.08888027817011
vn 0.00000090937959 0.00000090937959 -1
vn 0.27703535556793 0.95672166347504 -0.08907921612263
vn 0.34884098172188 0.93156605958939 -0.10244332253933
vn 0.85778802633286 -0.43508565425873 0.27367886900902
vn 0.85751557350159 -0.43581864237785 0.27336633205414
vn -1 0 0
vn 0.8588781952858 0.41878393292427 -0.29486984014511
vn 0.85841572284698 0.42010328173637 -0.29433944821358
vn 0.88882088661194 0.44525691866875 -0.10836869478226
vn 0.89196050167084 0.4520078599453 -0.00976266339421
vn 0 0.00130642636213 0.99999916553497
vn 0.84979945421219 0.44864103198051 0.2766986489296
vn 0.84979498386383 0.44865310192108 0.27669280767441
vn -1 0 0
vn 0.85097289085388 -0.43166762590408 -0.29917928576469
vn -1 0 0
vn 0.84914255142212 -0.43666109442711 -0.29712623357773
vn 0.98438960313797 0.15294866263866 -0.08708476275206
vn 0.00135403929744 -0.70710611343384 0.70710611343384
vn 0.98752444982529 0.12786257266998 -0.09190528839827
vn -0.00000521640732 -0.9838747382164 0.17885902523994
vn 0.00000000032842 -0.65430444478989 0.75623124837875
vn -0.00000341300097 -0.98387509584427 0.17885690927505
vn -0.70710676908493 -0.70710676908493 0
vn -0.95479208230972 0.14802354574203 0.25780057907104
vn -0.95435982942581 0.1723475754261 0.24391309916973
vn -0.70158559083939 -0.66741806268692 0.24966138601303
vn 0.70155930519104 -0.66745245456696 0.24964328110218
vn -0.00001388974306 -0.99995714426041 0.00925948936492
vn -0.00000531636078 -0.99995714426041 0.00925545487553
vn -0.5970156788826 0.78507459163666 0.16501566767693
vn 0.59746086597443 0.78494882583618 0.16399943828583
vn -0.00000427383156 -0.5019348859787 -0.86490541696548
vn -0.00000922119034 -0.50194454193115 -0.86489981412888
vn -0.00000460250612 -0.50194871425629 -0.86489737033844
vn -0.00000428838757 -0.50195264816284 -0.86489510536194
vn -0.00001037290986 -0.50194305181503 -0.8649006485939
vn 0 0.70710676908493 -0.70710676908493
vn -0.00000923527114 -0.50195735692978 -0.86489236354828
vn 0 0 1
vn -0.70600455999374 0.70820611715317 -0.00131111044902
vn -0.69491302967072 0.69709092378616 0.17652247846127
vn 0.7060045003891 0.70820611715317 -0.00130055868067
vn 0.69459468126297 0.69674986600876 -0.1791029125452
vn -0.52723205089569 -0.83909046649933 -0.1339907348156
vn 0 0 1
vn -0.52971744537354 -0.04591358080506 -0.84693056344986
vn 1 0 0
vn 0.52723145484924 -0.83909076452255 -0.1339912712574
vn 0.52970749139786 -0.04593539610505 -0.84693562984467
vn -0.66988915205002 0.53573751449585 -0.51403683423996
vn -0.66987019777298 0.53575444221497 -0.51404392719269
vn -0.74154996871948 -0.48418545722961 0.46440076828003
vn -0.74149835109711 -0.48423898220062 0.4644273519516
vn 0.66988933086395 0.5357318520546 -0.51404243707657
vn 0.66987025737762 0.53573960065842 -0.5140592455864
vn 0.74149894714355 -0.48422628641129 0.46443969011307
vn 0.74154937267303 -0.48419842123985 0.46438825130463
vn 0.6949103474617 0.69708830118179 0.17654325067997
vn -0.69459468126297 0.69674986600876 -0.1791029125452
vn -0.00047599140089 -0.00000000045394 -0.99999988079071
vn 0 0.73005449771881 0.68338894844055
vn 0 0.73005449771881 0.68338894844055
vn 0.00000005488088 0.73005449771881 0.68338894844055
vn 0.00000005306516 0.73005449771881 0.68338894844055
vn 1 0 0
vn 0.62737411260605 0 -0.77871799468994
# 162 normals

vt 0.21324855089188 0.51673203706741 0
vt 0.27175724506378 0.49197173118591 0
vt 0.19917169213295 0.3341338634491 0
vt 0 1 0
vt 0.33992820978165 0.96921229362488 0
vt 0.30339634418488 0.72465807199478 0
vt 0.27424496412277 0.80745905637741 0
vt 0.3068054318428 0.97695815563202 0
vt 0.27645099163055 0.51112872362137 0
vt 0.30612713098526 0.50287622213364 0
vt 0.3041672706604 0.32275092601776 0
vt 0.27523356676102 0.49440908432007 0
vt 0.15019685029984 0.88139975070953 0
vt 0.10440148413181 0.97734147310257 0
vt 0.1333247423172 0.97774827480316 0
vt 0.94466316699982 0.47088205814362 0
vt 0.7009459733963 0.47088205814362 0
vt 0.77832901477814 0.69076627492905 0
vt 0.86728000640869 0.6907662153244 0
vt 0.24044036865234 0.16471564769745 0
vt 0.21722912788391 0.17828452587128 0
vt 0.22403436899185 0.25882494449615 0
vt 0.25026351213455 0.26042866706848 0
vt 0.27818244695663 0.15882062911987 0
vt 0.28791093826294 0.25455558300018 0
vt 0.36914199590683 0.96586537361145 0
vt 0.43398630619049 0.32274603843689 0
vt 0.43198627233505 0.50286078453064 0
vt 0.46288126707077 0.49440491199493 0
vt 0.05112320184708 0.88487136363983 0
vt 0.01784726977348 0.91650170087814 0
vt 0.04156167060137 0.98385578393936 0
vt 0.07366681098938 0.97761988639832 0
vt 0.05978048592806 0.88109850883484 0
vt 0.46158045530319 0.51107555627823 0
vt 0.77438235282898 0.77832865715027 0
vt 0.87122845649719 0.77833008766174 0
vt 0.42331874370575 0.50326520204544 0
vt 0.31483733654022 0.50327038764954 0
vt 0.7643551826477 0.27116012573242 0
vt 0.8812540769577 0.27116012573242 0
vt 0.74850559234619 0.21255242824554 0
vt 0.89710056781769 0.21255469322205 0
vt 0.29480063915253 0.08911097049713 0
vt 0.28419363498688 0.1139577627182 0
vt 0.45396107435226 0.11395764350891 0
vt 0.44335734844208 0.08911228179932 0
vt 0.28419679403305 0.15216410160065 0
vt 0.45395767688751 0.15216410160065 0
vt 0.45997190475464 0.15882062911987 0
vt 0.45024394989014 0.25455558300018 0
vt 0.44287210702896 0.29930782318115 0
vt 0.4428768157959 0.26121234893799 0
vt 0.29527813196182 0.26121258735657 0
vt 0.29528224468231 0.29930925369263 0
vt 0.08051715791225 0.31514286994934 0
vt 0.09843921661377 0.5238670706749 0
vt 0.15690273046494 0.52669268846512 0
vt 0.13396075367928 0.28637540340424 0
vt 0.19446739554405 0.77209460735321 0
vt 0.10650864243507 0.55628824234009 0
vt 0.48789131641388 0.26042854785919 0
vt 0.51412463188171 0.25882506370544 0
vt 0.52092146873474 0.17828381061554 0
vt 0.49771392345428 0.16471552848816 0
vt 0.46624940633774 0.49192774295807 0
vt 0.52478408813477 0.51662635803223 0
vt 0.53867053985596 0.33401560783386 0
vt 0.43473929166794 0.72461956739426 0
vt 0.39980268478394 0.96937078237534 0
vt 0.6573075056076 0.314901471138 0
vt 0.60383117198944 0.28618860244751 0
vt 0.58114063739777 0.52653151750565 0
vt 0.63960039615631 0.5236439704895 0
vt 0.46403127908707 0.80737000703812 0
vt 0.54377508163452 0.7719514966011 0
vt 0.63156235218048 0.55607527494431 0
vt 0.43198049068451 0.97694104909897 0
vt 0.1503569483757 0.82196927070618 0
vt 0.13841238617897 0.75557637214661 0
vt 0.07179099321365 0.75557637214661 0
vt 0.05984798073769 0.82192677259445 0
vt 0.19139462709427 0.91771912574768 0
vt 0.15877768397331 0.88540232181549 0
vt 0.16632223129272 0.98457837104797 0
vt 0.19762921333313 0.92484885454178 0
vt 0.01146957650781 0.92350429296494 0
vt 0.85611653327942 0.95199054479599 0
vt 0.78949511051178 0.95199054479599 0
vt 0.05313940346241 0.82856678962708 0
vt 0.05298461019993 0.87443226575851 0
vt 0.15703108906746 0.87467956542969 0
vt 0.15705260634422 0.82871478796005 0
vt 0.23478624224663 0.1577513217926 0
vt 0.28628104925156 0.3034999370575 0
vt 0.50336790084839 0.15775096416473 0
vt 0.49151748418808 0.26967191696167 0
vt 0.28535562753677 0.26085555553436 0
vt 0.28535914421082 0.2989581823349 0
vt 0.27715426683426 0.14990866184235 0
vt 0.2394055724144 0.15580487251282 0
vt 0.44906878471375 0.26441466808319 0
vt 0.48670941591263 0.27028715610504 0
vt 0.49874871969223 0.15580463409424 0
vt 0.46100002527237 0.14990866184235 0
# 105 texture coordinates

o turret
usemtl tank_2j
f 12/3/1 13/2/1 11/1/1
f 14/7/5 20/6/4 36/5/3
f 36/5/3 34/8/7 14/7/5
f 20/6/8 11/1/8 13/9/8
f 13/12/10 12/11/10 41/10/10
f 36/15/13 40/14/12 38/13/11
f 27/18/16 29/17/15 22/16/15
f 22/16/15 21/19/17 27/18/16
f 12/22/19 15/21/18 16/20/18
f 16/20/21 50/23/21 12/22/21
f 50/23/22 16/20/23 3/24/22
f 3/24/22 2/25/24 50/23/22
f 13/9/26 41/10/26 40/26/26
f 20/6/27 13/9/27 40/26/27
f 40/26/29 36/5/29 20/6/29
f 25/29/30 44/28/30 43/27/30
f 33/32/31 4/31/32 35/30/31
f 35/30/31 37/33/34 33/32/31
f 37/33/36 5/34/35 40/14/12
f 25/35/38 40/26/38 44/28/38
f 38/13/11 40/14/12 5/34/35
f 21/19/17 14/37/40 28/36/39
f 28/36/39 27/18/16 21/19/17
f 40/26/43 39/39/42 42/38/42
f 22/16/15 29/17/15 9/40/44
f 9/40/44 18/41/45 22/16/15
f 18/41/46 9/40/47 51/42/46
f 51/42/46 15/43/49 18/41/46
f 23/46/52 49/45/51 15/44/50
f 15/44/53 51/47/53 23/46/53
f 6/49/56 46/48/55 49/45/51
f 49/45/51 23/46/52 6/49/56
f 2/25/60 3/24/59 47/50/58
f 47/50/58 48/51/61 2/25/60
f 45/54/65 7/53/64 53/52/63
f 53/52/63 17/55/67 45/54/65
f 17/55/67 53/52/63 43/27/68
f 43/27/68 12/11/69 17/55/67
f 42/38/42 39/39/42 12/11/70
f 12/11/72 43/27/72 42/38/72
f 19/58/74 22/57/74 18/56/74
f 18/56/75 15/59/75 19/58/75
f 20/6/4 14/7/5 19/58/76
f 19/58/76 11/1/78 20/6/4
f 12/3/80 11/1/78 19/58/76
f 19/58/76 15/59/82 12/3/80
f 19/58/83 14/7/83 21/60/83
f 21/60/84 22/61/84 19/58/84
f 51/64/86 43/63/86 24/62/86
f 24/62/90 52/65/89 51/64/88
f 24/62/90 48/51/93 47/50/92
f 47/50/92 52/65/89 24/62/90
f 43/68/94 8/67/94 25/66/94
f 26/69/95 25/35/95 8/67/95
f 26/69/97 40/26/97 25/35/97
f 40/26/98 26/69/98 37/70/98
f 10/73/99 51/72/99 9/71/99
f 9/71/100 29/74/100 10/73/100
f 10/73/104 28/75/103 26/69/102
f 26/69/102 8/67/105 10/73/104
f 43/68/107 51/72/107 10/73/107
f 10/73/104 8/67/105 43/68/108
f 10/73/110 29/77/110 27/76/110
f 27/76/112 28/75/112 10/73/112
f 28/75/113 33/78/113 37/70/113
f 37/70/115 26/69/115 28/75/115
f 33/81/116 34/80/116 1/79/116
f 1/79/118 32/82/118 33/81/118
f 36/15/120 30/84/120 31/83/120
f 31/83/121 34/85/121 36/15/121
f 34/85/122 31/83/122 1/86/122
f 33/32/123 32/87/123 4/31/123
f 28/36/124 14/37/124 34/88/124
f 34/88/125 33/89/125 28/36/125
f 38/13/126 30/84/126 36/15/126
f 35/30/127 5/34/35 37/33/36
f 30/92/128 35/91/128 4/90/128
f 4/90/129 31/93/129 30/92/129
f 30/92/130 38/13/130 5/34/130
f 5/34/131 35/91/131 30/92/131
f 4/90/132 32/82/132 1/79/132
f 1/79/134 31/93/134 4/90/134
f 12/11/137 39/39/136 41/10/136
f 40/26/139 42/38/138 44/28/138
f 16/20/18 15/21/18 49/94/140
f 17/55/142 12/11/142 50/95/142
f 23/96/144 51/64/144 52/65/144
f 24/62/145 43/63/145 53/97/145
f 2/98/146 45/54/146 17/55/146
f 17/55/147 50/99/147 2/98/147
f 16/20/148 49/101/148 46/100/148
f 46/100/149 3/24/149 16/20/149
f 7/102/150 48/51/150 24/62/150
f 24/62/151 53/103/151 7/102/151
f 47/50/152 6/105/152 23/104/152
f 23/104/153 52/65/153 47/50/153
f 42/38/138 43/27/154 44/28/138
f 39/39/136 40/26/155 41/10/136
f 7/53/158 45/54/157 2/25/60
f 2/25/60 48/51/61 7/53/158
f 46/48/160 6/49/159 47/50/58
f 47/50/58 3/24/59 46/48/160

v -7.646484375 43.01995849609375 -300.697998046875
v 7.646484375 43.01995849609375 -300.697998046875
v -7.646484375 43.01995849609375 -314.776611328125
v 7.646484375 43.01995849609375 -314.776611328125
v -7.646484375 35.20215606689453 -300.697998046875
v 7.646484375 35.20215606689453 -300.697998046875
v -7.646484375 35.20215606689453 -314.776611328125
v 7.646484375 35.20215606689453 -314.776611328125
# 8 vertices

vn 0 1 0
vn 0.67605042457581 0 0.73685538768768
vn 0.67605042457581 0 -0.73685538768768
vn 0 -1 0
vn 0 -1 0
vn -0.67605042457581 0 0.73685538768768
vn -0.67605042457581 0 -0.73685538768768
vn 0 0 1
vn 1 0 0
vn 1 0 0
vn 0 0 -1
vn -1 0 0
vn -1 0 0
# 13 normals

vt 1 1 0
vt 1 0 0
vt 0 0 0
# 3 texture coordinates

o muzzle01
usemtl Default
f 54/108/163 55/107/163 57/106/163
f 57/106/163 56/4/163 54/108/163
f 58/107/166 60/106/167 61/4/166
f 61/4/166 59/108/166 58/107/166
f 54/108/170 58/4/170 59/106/170
f 59/106/170 55/107/170 54/108/170
f 55/108/171 59/4/171 61/106/171
f 61/106/172 57/107/172 55/108/172
f 57/108/173 61/4/173 60/106/173
f 60/106/173 56/107/173 57/108/173
f 56/108/174 60/4/174 58/106/174
f 58/106/175 54/107/175 56/108/175

v 39.1396484375 64.98586273193359 49.653564453125
v 54.4326171875 64.98586273193359 49.653564453125
v 39.1396484375 64.98586273193359 35.574951171875
v 54.4326171875 64.98586273193359 35.574951171875
v 39.1396484375 57.16806030273438 49.653564453125
v 54.4326171875 57.16806030273438 49.653564453125
v 39.1396484375 57.16806030273438 35.574951171875
v 54.4326171875 57.16806030273438 35.574951171875
# 8 vertices

vn 0 -1 0
vn 0 -1 0
vn 0 -1 0
vn 0 -1 0
vn 0 0 0
vn 0 0 0
vn 0 0 0
vn 0 0 0
vn 0 0 0
# 9 normals

# 0 texture coordinate

o fmnt
usemtl Материал
f 62/108/163 63/107/163 65/106/163
f 65/106/163 64/4/163 62/108/163
f 66/107/166 68/106/167 69/4/166
f 69/4/166 67/108/166 66/107/166
f 62/108/170 66/4/170 67/106/170
f 67/106/170 63/107/170 62/108/170
f 63/108/171 67/4/171 69/106/171
f 69/106/172 65/107/172 63/108/172
f 65/108/173 69/4/173 68/106/173
f 68/106/173 64/107/173 65/108/173
f 64/108/174 68/4/174 66/106/174
f 66/106/175 62/107/175 64/108/175

