# WaveFront *.obj file (generated by Cinema 4D)

v 83.75049591064453 134.63755798339844 -114.83837890625
v 83.87429046630859 119.05832672119141 -114.869140625
v 83.85490417480469 8.58994007110596 187.0576171875
v -83.75049591064453 134.63755798339844 -114.83837890625
v -83.75071716308594 82.26361083984375 -254.8134765625
v -83.85493469238281 0 166.67822265625
v -138.59999084472656 0 -185.97412109375
v -83.752197265625 108.92890930175781 239.33056640625
v -83.75049591064453 134.63755798339844 213.8232421875
v -138.59999084472656 36.71240615844727 216.25390625
v 138.59999084472656 94.33259582519531 216.25390625
v 83.78631591796875 75.78336334228516 216.25390625
v 138.59999084472656 91.44937896728516 -225.5283203125
v -83.77394866943359 91.33736419677734 -225.49755859375
v 83.75049591064453 134.63755798339844 213.8232421875
v 138.59999084472656 0 166.67822265625
v 138.59999084472656 36.71240615844727 216.25390625
v 83.75072479248047 70.75974273681641 -270.50341796875
v 83.75071716308594 82.26361083984375 -254.8134765625
v 83.77395629882812 91.33736419677734 -225.49755859375
v 138.59999084472656 0 -185.97412109375
v 138.59999084472656 82.39828491210938 -254.75439453125
v 138.59999084472656 75.78336334228516 216.25390625
v 83.85478973388672 36.71240615844727 216.25390625
v 83.81366729736328 53.11693572998047 -272.73388671875
v 83.85493469238281 0 -185.97412109375
v -83.75072479248047 70.75975036621094 -270.50341796875
v -138.59999084472656 119.18580627441406 190.458984375
v -138.59999084472656 94.33258819580078 216.25390625
v -83.87429046630859 119.05832672119141 -114.869140625
v -138.59999084472656 38.16903686523438 -261.658203125
v -138.59999084472656 82.39828491210938 -254.75390625
v -138.60000610351562 70.75974273681641 -270.50341796875
v -83.78631591796875 75.78337097167969 216.25390625
v -138.59999084472656 75.78336334228516 216.25390625
v -83.85493469238281 0 -185.97412109375
v -83.75050354003906 102.75871276855469 -253.5068359375
v 83.75049591064453 102.75872039794922 -253.5068359375
v -83.85478973388672 36.71240615844727 216.25390625
v 83.75218963623047 108.92890167236328 239.33056640625
v 83.75218963623047 94.35225677490234 216.25390625
v -83.75218963623047 94.35225677490234 216.25390625
v -138.59999084472656 8.58994102478027 187.0576171875
v -138.59999084472656 91.44937133789062 -225.5283203125
v 83.75218963623047 68.32196044921875 239.33056640625
v 138.59999084472656 38.16903686523438 -261.658203125
v 138.60000610351562 70.75974273681641 -270.50341796875
v -83.75218963623047 68.32196044921875 239.33056640625
v 138.59999084472656 119.18580627441406 190.458984375
v 138.59999084472656 119.18580627441406 -114.83837890625
v -138.59999084472656 119.18580627441406 -114.83837890625
v 83.85493469238281 0 166.67822265625
v -83.85490417480469 8.58994007110596 187.0576171875
v 138.59999084472656 8.58994102478027 187.0576171875
v -138.59999084472656 0 166.67822265625
v 83.85492706298828 38.16903686523438 -261.658203125
v -138.59999084472656 53.11701965332031 -272.73388671875
v -83.85492706298828 38.16903686523438 -261.658203125
v -83.81366729736328 53.11693572998047 -272.73388671875
v 138.59999084472656 53.11701965332031 -272.73388671875
# 60 vertices

vn 0.99999964237213 -0.00002138852506 -0.00084631482605
vn 0.99999767541885 0.00197950890288 -0.00088199210586
vn 0.99999994039536 0.00003693035978 -0.00040993644507
vn 0 0.70710676908493 -0.70710676908493
vn 0.9999857544899 0.00526337465271 -0.00090269814245
vn 0.99996840953827 0.00794587656856 0
vn 0.99996799230576 0.00794767774642 -0.00091376231285
vn 0 -0.69431155920029 0.71967452764511
vn 1 0.00001129222346 -0.00000779319998
vn 0.57735025882721 0.57735025882721 -0.57735025882721
vn 0.99999904632568 0.00091890722979 0.00103652034886
vn 0.99999624490738 0.0017951783957 0.00205925386399
vn 0.99999833106995 0.00119678664487 0.0013728372287
vn 0.06237828731537 0.9980525970459 0
vn 1 0 0
vn -1 0 -0.00000000000001
vn 0 -0.99127775430679 0.13178914785385
vn 0.00000000544673 -0.96463799476624 0.2635782957077
vn 0 -0.98810124397278 -0.15380498766899
vn 0 -0.95151251554489 -0.30760994553566
vn -0.57735025882721 -0.57735025882721 0.57735025882721
vn 0.25278621912003 0.96644169092178 -0.04571181535721
vn 0.00000000967793 -0.79928034543991 0.60095834732056
vn 0.00000000967793 -0.86738663911819 0.49763488769531
vn 0.00000000627328 -0.72022747993469 0.69373792409897
vn 0 -0.70710676908493 0.70710676908493
vn 0 -0.72022747993469 0.69373792409897
vn 0 -0.81320154666901 -0.58198219537735
vn 0.00000031145521 -0.71158373355865 -0.70260125398636
vn -0.0000000959275 0.12542562186718 -0.99210304021835
vn 0 0.1254259198904 -0.99210298061371
vn 0.57735061645508 0.57735008001328 -0.57735008001328
vn -0.00000019185498 0.12542532384396 -0.99210304021835
vn -0.00067160383333 0.8053423166275 -0.59280961751938
vn 0 0.80422592163086 -0.59432369470596
vn -0.00139136728831 0.89274477958679 -0.45056053996086
vn -0.00170869240537 0.89318591356277 -0.44968429207802
vn -0.00212295050733 0.97000831365585 -0.2430624216795
vn -0.00211817445233 0.9700089097023 -0.24306021630764
vn -0.00002048513852 0.71725505590439 -0.69681072235107
vn 1 -0.00000026035451 -0.00000022381941
vn 1 -0.00000073881665 -0.00000099712292
vn 1 -0.00000064062863 -0.00000063534344
vn 0 0 -1
vn -0.57902371883392 -0.57398873567581 0.57902371883392
vn -0.00000000023283 1 0
vn 0 0 -1
vn 1 0 0
vn 0 0 1
vn 1 -0.00000001408227 0.0000001085549
vn 1 0.00000025009686 0.0000002996143
vn -0.06191127747297 0 0.99808168411255
vn -0.70710676908493 -0.70710676908493 0
vn -0.00030306578265 -0.8454572558403 0.53404307365417
vn 0 0 1
vn 0 0 1
vn 0 -0.12111474573612 0.99263852834702
vn 0 0 1
vn 1 0 0
vn -0.00232942122966 0.99999725818634 0
vn -0.69640183448792 -0.69640183448792 0.17334645986557
vn -1 -0.00000447138427 0.00000038722186
vn -1 -0.00000273904243 0.00000002968741
vn -1 -0.00000400862154 0.00000004453112
vn -0.99999767541885 0.00197907909751 -0.00088176998543
vn -0.99999964237213 -0.00002205295095 -0.00084604101721
vn -0.99999994039536 0.00003653679596 -0.00040960180922
vn 0 -0.70710676908493 0.70710676908493
vn -0.99996840953827 0.00794587656856 0
vn -0.9999857544899 0.00526306359097 -0.00090262503363
vn -0.99996799230576 0.00794767774642 -0.00091373495525
vn 0 -0.60770642757416 0.79416179656982
vn -1 0.00001090171827 -0.00000750687605
vn 0.00005902295743 0.00005902271005 -1
vn -0.99999904632568 0.00091881369008 0.00103641476016
vn -1 -0.00000018788397 -0.00000021193168
vn -0.99999833106995 0.00119672412984 0.00137276691385
vn -0.99999624490738 0.00179517851211 0.00205925456248
vn -0.00000000409431 -0.98017537593842 0.19813196361065
vn 0 -0.98017537593842 0.19813196361065
vn 0 -0.68957656621933 0.72421282529831
vn -0.25278621912003 0.96644169092178 -0.04571181163192
vn -0.00000001107556 -0.83493328094482 0.5503511428833
vn -0.0000000137514 -0.72022747993469 0.69373798370361
vn -0.00000002215112 -0.83493334054947 0.5503511428833
vn -0.00000031188335 -0.71158373355865 -0.70260125398636
vn 0.00769716594368 0 0.99997037649155
vn 0 -0.70087713003159 0.71328204870224
vn 0.0000000873419 0.12542560696602 -0.99210304021835
vn 0.00000019213022 0.12542527914047 -0.99210304021835
vn -0.00000001744642 0.1254259198904 -0.99210298061371
vn 0.00113469641656 0.86602485179901 -0.4999997317791
vn -0.00000011364619 0.80423474311829 -0.59431171417236
vn 0.00066891306778 0.80534678697586 -0.59280359745026
vn 0.00184916215949 0.91688239574432 -0.39915311336517
vn 0 -0.6653705239296 0.74651324748993
vn -0.44608491659164 0.64450925588608 0.62097996473312
vn 0 -0.65804094076157 0.7529821395874
vn -0.43719175457954 0.63345927000046 0.63842988014221
vn 0.00212293700315 0.97000831365585 -0.2430624961853
vn 0.00211806036532 0.9700089097023 -0.24306021630764
vn -1 0 0
vn 0 -0.51994693279266 0.85419857501984
vn -1 0 0
vn 0 1 0
vn -0.70710676908493 -0.70710676908493 0
vn 0 0 1
vn -1 0.00000025009095 0.00000029960933
vn -1 -0.00000001408622 0.00000010855159
vn -0.57734942436218 -0.57735067605972 0.57735067605972
vn -1 -0.00000026035846 -0.00000022382275
vn -0.70710676908493 -0.70710676908493 0
vn -1 -0.00000064062863 -0.00000063534344
vn -1 0 0
vn -1 -0.00000073881665 -0.00000099712292
vn 0.00030318525387 -0.84545707702637 0.53404331207275
vn 0.21821708977222 0.8728683590889 0.43644252419472
vn -1 0 -0.00000000000001
vn 0.00232942122966 0.99999725818634 0
vn 1 -0.00000187287185 -0.00000014907981
vn 1 -0.00000019988438 0
vn 1 -0.00000273904243 0.0000000296874
vn 1 -0.00000400862154 0.00000004453111
vn -0.00000002136644 0.46909350156784 -0.8831484913826
vn 0.00000002136637 0.46909332275391 -0.88314861059189
vn -1 0 0
vn 0 0.97457808256149 -0.22404818236828
vn 0 0.99717539548874 -0.07510823756456
vn 0 0.99362421035767 -0.11274291574955
vn -0.00000004097525 0.97457808256149 -0.22404822707176
vn 0 1 0
vn 0.00000001509216 0.7043217420578 0.70988094806671
vn 0.00000003018431 0.70432168245316 0.70988100767136
vn 1 0.0000000140104 -0.0000000140104
vn 0 0.70432180166244 0.70988082885742
vn -0.57734948396683 -0.57735067605972 0.57735067605972
vn 0 -0.20552712678909 0.9786514043808
vn 0 -0.31010764837265 0.95070147514343
vn 0 -0.58963960409164 0.80766648054123
vn 0.44608491659164 0.64450937509537 0.62097984552383
vn 0 0 1
vn 0.43719160556793 0.63345909118652 0.63843011856079
vn -0.70710676908493 -0.70710676908493 0
vn 0.99999636411667 0.00175254396163 0.00204546912573
vn 1 0.00000000000083 -0.00000000000083
vn -0.99999636411667 0.00175254361238 0.00204546959139
vn -0.00207234546542 0.955262362957 -0.29575255513191
vn -0.0021176293958 0.95523822307587 -0.29583004117012
vn 0.00211750203744 0.95528626441956 -0.29567494988441
vn 0.00207082391717 0.95526170730591 -0.2957546710968
vn -0.00047599140089 -0.00000000045394 -0.99999988079071
vn 1 0 0
vn 0 0 0
vn 0.00000045597795 -0.59533631801605 -0.80347657203674
vn 0.00000091195585 -0.5953374505043 -0.80347579717636
vn -0.00000045660477 -0.59533631801605 -0.80347657203674
vn -0.00000091320948 -0.5953374505043 -0.80347579717636
vn 0 0 -1
vn 0 -0.99999535083771 -0.00304789049551
vn 0 -0.99999535083771 -0.00304789072834
vn 0.0000000051226 0.12542533874512 -0.99210304021835
vn 0 0.12542526423931 -0.992103099823
vn 0 -0.59533739089966 -0.80347579717636
vn 0 -0.59533739089966 -0.80347579717636
vn 1 -0.00000447138382 0.00000038722183
vn -1 -0.00000019988438 0
vn -1 -0.00000187287185 -0.00000014907981
# 167 normals

vt 0.11601360142231 0.801677942276 0
vt 0.09043695032597 0.79103702306747 0
vt 0.0891070663929 0.80979645252228 0
vt 0 1 0
vt 0.21752953529358 0.77700316905975 0
vt 0.51857924461365 0.76273864507675 0
vt 0.21760484576225 0.76273828744888 0
vt 0.07466398179531 0.82022941112518 0
vt 0.56509590148926 0.78387331962585 0
vt 0.58210134506226 0.78387320041656 0
vt 0.58893418312073 0.7627392411232 0
vt 0.55174624919891 0.76273965835571 0
vt 0.14904472231865 0.246901512146 0
vt 0.14904099702835 0.29745900630951 0
vt 0.47471803426743 0.29748737812042 0
vt 0.47472149133682 0.24692988395691 0
vt 0.17833235859871 0.533955514431 0
vt 0.46110188961029 0.48283052444458 0
vt 0.48310548067093 0.5344859957695 0
vt 0.12861770391464 0.29745769500732 0
vt 0.12862005829811 0.24690020084381 0
vt 0.09118282794952 0.24689877033234 0
vt 0.09118200838566 0.29745638370514 0
vt 0.55299961566925 0.29749143123627 0
vt 0.55300092697144 0.24693393707275 0
vt 0.57018136978149 0.29749143123627 0
vt 0.58660447597504 0.29749155044556 0
vt 0.58660435676575 0.24683785438538 0
vt 0.5701812505722 0.24689590930939 0
vt 0.60468971729279 0.29749143123627 0
vt 0.60457146167755 0.24683773517609 0
vt 0.07268008589745 0.48324394226074 0
vt 0.1783906519413 0.48324429988861 0
vt 0.07264694571495 0.53404825925827 0
vt 0.03207740187645 0.43189990520477 0
vt 0.03207752108574 0.41776168346405 0
vt 0.04054674506187 0.40473508834839 0
vt 0.48519617319107 0.46021413803101 0
vt 0.48519617319107 0.44302558898926 0
vt 0.48519617319107 0.40849542617798 0
vt 0.43925750255585 0.37280166149139 0
vt 0.45814192295074 0.38076138496399 0
vt 0.11247332394123 0.37280178070068 0
vt 0.07582029700279 0.4575423002243 0
vt 0.05216345191002 0.45161437988281 0
vt 0.52263450622559 0.81070673465729 0
vt 0.05510012805462 0.24683558940887 0
vt 0.05510012805462 0.29745638370514 0
vt 0.56986737251282 0.5482394695282 0
vt 0.58852636814117 0.55617129802704 0
vt 0.54318010807037 0.52237641811371 0
vt 0.09044483304024 0.58099746704102 0
vt 0.1160257011652 0.57036662101746 0
vt 0.08912238478661 0.56223744153976 0
vt 0.51857829093933 0.609339594841 0
vt 0.21753031015396 0.59508109092712 0
vt 0.21760314702988 0.60934615135193 0
vt 0.07468344271183 0.55179882049561 0
vt 0.56509447097778 0.58820563554764 0
vt 0.55174517631531 0.60933947563171 0
vt 0.58893311023712 0.60933929681778 0
vt 0.58209979534149 0.58820539712906 0
vt 0.14903900027275 0.29739892482758 0
vt 0.47471612691879 0.29746305942535 0
vt 0.47472393512726 0.24690568447113 0
vt 0.14904743432999 0.24684154987335 0
vt 0.08384667336941 0.93684655427933 0
vt 0.36661630868912 0.98797160387039 0
vt 0.06184313446283 0.98850208520889 0
vt 0.12862193584442 0.24683845043182 0
vt 0.0911837220192 0.24683558940887 0
vt 0.09118187427521 0.29739320278168 0
vt 0.12861660122871 0.29739594459534 0
vt 0.55299890041351 0.29747211933136 0
vt 0.55300176143646 0.24691474437714 0
vt 0.57018136978149 0.24691486358643 0
vt 0.5701812505722 0.2975105047226 0
vt 0.58660411834717 0.2975686788559 0
vt 0.58660435676575 0.24691498279572 0
vt 0.60468947887421 0.24691522121429 0
vt 0.60457110404968 0.29756891727448 0
vt 0.05240402370691 0.9264799952507 0
vt 0.02983709797263 0.97854667901993 0
vt 0.36655789613724 0.93726032972336 0
vt 0.47226893901825 0.93725997209549 0
vt 0.47230207920074 0.98806422948837 0
vt 0.05975244194269 0.86251145601273 0
vt 0.08680675923824 0.83477741479874 0
vt 0.10569117963314 0.82681757211685 0
vt 0.43247556686401 0.82681769132614 0
vt 0.05975244194269 0.91423016786575 0
vt 0.05975244194269 0.89704161882401 0
vt 0.4691287279129 0.91155821084976 0
vt 0.49278545379639 0.90563029050827 0
vt 0.51287150382996 0.88591593503952 0
vt 0.50440216064453 0.85875099897385 0
vt 0.51287138462067 0.8717777132988 0
vt 0.52263283729553 0.56137293577194 0
vt 0.05510053038597 0.24683547019958 0
vt 0.05510052293539 0.29745626449585 0
vt 0.98131453990936 0.36862432956696 0
vt 0.91182339191437 0.33384430408478 0
vt 0.58852553367615 0.33483099937439 0
vt 0.54317951202393 0.36862623691559 0
vt 0.08730028569698 0.76274335384369 0
vt 0.08729858696461 0.60934674739838 0
vt 0.05411680787802 0.60934674739838 0
vt 0.05411873757839 0.76274406909943 0
vt 0.62477588653564 0.76283299922943 0
vt 0.62477493286133 0.60924506187439 0
vt 0.49254804849625 0.47247219085693 0
vt 0.51510798931122 0.52452248334885 0
vt 0.03795163333416 0.24680399894714 0
vt 0.03796979039907 0.29745638370514 0
vt 0.03797020018101 0.24683547019958 0
vt 0.03795203566551 0.29748773574829 0
vt 0.61788249015808 0.78387296199799 0
vt 0.61788094043732 0.5882049202919 0
vt 0.63291239738464 0.24684298038483 0
vt 0.63294470310211 0.29747521877289 0
vt 0.63291192054749 0.29756379127502 0
vt 0.63294446468353 0.24693155288696 0
vt 0.98131513595581 0.52237498760223 0
vt 0.03783313930035 0.76280200481415 0
vt 0.03783109039068 0.6092894077301 0
vt 0.02079348638654 0.60925185680389 0
vt 0.02079565450549 0.76284003257751 0
vt 0.56986665725708 0.34276294708252 0
vt 0.91182422637939 0.55715560913086 0
# 129 texture coordinates

o hull
usemtl 24 - Default
f 19/3/3 38/2/2 20/1/1
f 1/7/7 15/6/6 2/5/5
f 19/3/3 18/8/9 38/2/2
f 45/11/13 12/10/12 41/9/11
f 41/9/11 40/12/15 45/11/13
f 15/19/22 49/18/22 2/17/22
f 2/17/38 50/33/38 13/32/38
f 13/32/39 20/34/39 2/17/39
f 46/37/43 60/36/42 47/35/41
f 50/33/15 49/18/15 11/38/15
f 50/33/15 11/38/15 23/39/15
f 50/33/15 23/39/15 17/40/15
f 17/40/15 54/42/15 16/41/15
f 17/40/15 16/41/15 21/43/15
f 50/33/15 17/40/15 21/43/15
f 13/44/48 50/33/15 21/43/15
f 22/45/51 13/44/15 21/43/50
f 47/35/41 22/45/51 21/43/50
f 46/37/43 47/35/41 21/43/50
f 11/46/54 40/12/54 41/9/54
f 49/18/60 50/33/60 2/17/60
f 24/51/64 52/50/63 3/49/62
f 5/54/67 14/53/66 37/52/65
f 4/57/71 30/56/70 9/55/69
f 5/54/67 37/52/65 27/58/73
f 48/61/77 8/60/76 42/59/75
f 42/59/75 34/62/78 48/61/77
f 9/69/82 30/68/82 28/67/82
f 9/69/97 28/67/97 29/82/97
f 29/82/99 8/83/99 9/69/99
f 44/85/100 51/84/100 30/68/100
f 30/68/101 14/86/101 44/85/101
f 55/89/102 43/88/102 10/87/102
f 7/90/102 55/89/102 10/87/102
f 29/91/104 28/67/104 51/84/104
f 35/92/102 29/91/102 51/84/102
f 10/87/102 35/92/102 51/84/102
f 7/90/102 10/87/102 51/84/102
f 7/90/102 51/84/102 44/93/104
f 7/90/109 44/93/104 32/94/108
f 7/90/109 32/94/108 33/95/111
f 31/96/113 7/90/109 33/95/111
f 57/97/115 31/96/113 33/95/111
f 29/98/116 42/59/116 8/60/116
f 28/67/119 30/68/119 51/84/119
f 6/103/122 36/102/121 58/101/120
f 58/101/120 39/104/123 6/103/122
f 27/107/124 37/106/124 38/105/124
f 38/105/125 18/108/125 27/107/125
f 4/57/129 1/7/128 38/105/127
f 38/105/130 37/106/130 4/57/130
f 9/55/131 15/6/131 1/7/128
f 1/7/128 4/57/129 9/55/131
f 8/60/132 40/12/133 15/6/132
f 15/6/132 9/55/135 8/60/132
f 8/60/56 48/61/138 45/11/137
f 45/11/137 40/12/56 8/60/56
f 39/110/139 24/109/139 45/11/139
f 45/11/137 48/61/138 39/110/139
f 11/111/140 49/18/140 15/19/140
f 15/19/142 40/112/142 11/111/142
f 45/11/13 24/117/144 12/10/12
f 34/62/78 39/118/146 48/61/77
f 2/5/5 20/1/1 38/2/2
f 38/2/2 1/7/7 2/5/5
f 37/52/65 14/53/66 30/56/70
f 30/56/70 4/57/71 37/52/65
f 58/101/159 56/123/160 24/51/159
f 24/51/159 39/104/159 58/101/159
f 27/107/161 18/108/161 25/124/161
f 25/124/162 59/125/162 27/107/162
f 25/124/163 56/127/163 58/126/163
f 58/126/164 59/125/164 25/124/164
f 39/104/123 53/128/165 6/103/122
f 56/123/167 26/129/166 52/50/63
f 52/50/63 24/51/64 56/123/167

usemtl tracks
f 21/15/19 16/14/18 52/13/17
f 52/13/17 26/16/20 21/15/19
f 24/22/25 3/21/24 54/20/23
f 54/20/23 17/23/27 24/22/25
f 46/24/28 21/15/19 26/16/20
f 26/16/20 56/25/29 46/24/28
f 18/28/30 47/27/31 60/26/30
f 60/26/30 25/29/33 18/28/30
f 22/30/36 47/27/35 18/28/34
f 18/28/34 19/31/37 22/30/36
f 23/48/56 12/47/56 24/22/56
f 24/22/56 17/23/58 23/48/56
f 7/65/19 36/64/20 6/63/79
f 6/63/79 55/66/80 7/65/19
f 39/72/84 10/71/27 43/70/83
f 43/70/83 53/73/85 39/72/84
f 31/75/28 58/74/86 36/64/20
f 36/64/20 7/65/19 31/75/28
f 27/78/89 59/77/90 57/76/89
f 57/76/89 33/79/91 27/78/89
f 27/78/94 33/79/93 32/80/92
f 32/80/92 5/81/95 27/78/94
f 35/99/56 10/71/56 39/72/56
f 39/72/56 34/100/56 35/99/56
f 11/114/56 41/113/56 12/47/56
f 12/47/56 23/48/56 11/114/56
f 42/116/56 29/115/56 35/99/56
f 35/99/56 34/100/56 42/116/56
f 22/30/36 19/31/37 20/119/147
f 20/119/147 13/120/148 22/30/36
f 44/122/150 14/121/149 5/81/95
f 5/81/95 32/80/92 44/122/150
f 16/14/18 54/20/23 3/21/24
f 3/21/24 52/13/17 16/14/18
f 6/63/79 53/73/85 43/70/83
f 43/70/83 55/66/80 6/63/79
f 60/26/154 46/24/28 56/25/29
f 56/25/29 25/29/155 60/26/154
f 58/74/86 31/75/28 57/76/156
f 57/76/156 59/77/157 58/74/86

v -14.28571319580078 133.40676879882812 25.59228515625
v 14.28571319580078 133.40676879882812 25.59228515625
v -14.28571319580078 133.40676879882812 -2.97900390625
v 14.28571319580078 133.40676879882812 -2.97900390625
v -14.28571319580078 161.97821044921875 25.59228515625
v 14.28571319580078 161.97821044921875 25.59228515625
v -14.28571319580078 161.97821044921875 -2.97900390625
v 14.28571319580078 161.97821044921875 -2.97900390625
# 8 vertices

vn 0 -1 0
vn 0 -1 0
vn 0 -1 0
vn 0 1 0
vn 0 0 -1
vn 0 0 -1
# 6 normals

vt 1 1 0
vt 1 0 0
vt 0 0 0
# 3 texture coordinates

o mount03
usemtl tracks
f 61/131/168 63/130/169 64/4/168
f 64/4/168 62/132/168 61/131/168
f 65/132/131 66/131/131 68/130/131
f 68/130/131 67/4/131 65/132/131
f 61/132/58 62/131/58 66/130/58
f 66/130/56 65/4/56 61/132/56
f 62/132/15 64/131/15 68/130/15
f 68/130/15 66/4/15 62/132/15
f 64/132/172 63/131/172 67/130/172
f 67/130/173 68/4/173 64/132/173
f 63/132/102 61/131/102 65/130/102
f 65/130/102 67/4/102 63/132/102

