# WaveFront *.obj file (generated by Cinema 4D)

v 82.5 148.5 99
v 82.5 148.5 -49.5
v -82.5 148.5 -49.5
v -82.5 148.5 99
v -82.5 148.5 198
v 82.5 148.5 198
v 82.5 115.5 -49.5
v -82.5 115.5 -49.5
v 82.5 66 -148.5
v 82.5 115.5 198
v 82.5 115.5 99
v 132 115.5 99
v 82.5 115.5 -198
v 132 115.5 -198
v 132 115.5 231
v 82.5 115.5 231
v -82.5 115.5 198
v -82.5 66.00000762939453 198
v 82.5 66 198
v 82.5 66 231
v 132 66 231
v 132 82.5 -231
v 82.5 82.5 -231
v 132 49.5 -231
v 82.5 49.5 -231
v 132 0.00004196166992 -148.5
v 82.5 0.00004196166992 -148.5
v 132 0.00003814697266 198
v 82.5 0.00003814697266 198
v -132 115.5 -49.5
v -82.5 65.99999237060547 -148.5
v -82.5 115.5 99
v -132 115.50001525878906 99
v -82.5 115.49998474121094 -198
v -132 115.49998474121094 -198
v -132 115.50003051757812 231
v -82.5 115.50003051757812 231
v -82.5 66.00002288818359 231
v -132 66.00002288818359 231
v -132 82.49996948242188 -231
v -82.5 82.49996948242188 -231
v -132 49.49997711181641 -231
v -82.5 49.49997711181641 -231
v -132 0.00003051757812 -148.5
v -82.5 0.00003051757812 -148.5
v -132 0.00005340576172 198
v -82.5 0.00005340576172 198
v 132 115.5 -49.5
# 48 vertices

vt 0.71339404582977 0.23160207271576 0
vt 0.71339416503906 0.40425992012024 0
vt 0.90523624420166 0.40425992012024 0
vt 0 1 0
vt 0.90523612499237 0.23160195350647 0
vt 0.71339404582977 0.11649680137634 0
vt 0.90523612499237 0.11649680137634 0
vt 0.90523612499237 0.44262826442719 0
vt 0.96278870105743 0.44262826442719 0
vt 0.71339416503906 0.44262826442719 0
vt 0.65584146976471 0.44262826442719 0
vt 0.71339416503906 0.57131987810135 0
vt 0.90523612499237 0.57131975889206 0
vt 0.94360446929932 0.23160207271576 0
vt 0.94360446929932 0.11649680137634 0
vt 0.26436084508896 0.7041916847229 0
vt 0.22599250078201 0.64663910865784 0
vt 0.22599244117737 0.7041916847229 0
vt 0.97440588474274 0.40425992012024 0
vt 0.97440576553345 0.23160207271576 0
vt 0.39865028858185 0.64663910865784 0
vt 0.39865028858185 0.7041916847229 0
vt 0.57130813598633 0.7041916847229 0
vt 0.57130813598633 0.64663922786713 0
vt 0.07251876592636 0.64663910865784 0
vt 0.07251870632172 0.7041916847229 0
vt 0.11088716983795 0.7041916847229 0
vt 0.90523612499237 0.02057576179504 0
vt 0.71339404582977 0.02057576179504 0
vt 0.71339404582977 0.07812833786011 0
vt 0.90523612499237 0.07812833786011 0
vt 0.01496613025665 0.7041916847229 0
vt 0.01496613025665 0.74256014823914 0
vt 0.07251870632172 0.74256014823914 0
vt 0.01496613025665 0.64663910865784 0
vt 0.6255692243576 0.7041916847229 0
vt 0.6255692243576 0.64663922786713 0
vt 0.66393768787384 0.70419180393219 0
vt 0.66393768787384 0.64663910865784 0
vt 0.62015950679779 0.42462456226349 0
vt 0.50829744338989 0.42462456226349 0
vt 0.50829744338989 0.48217713832855 0
vt 0.62015950679779 0.48217713832855 0
vt 0.01963482424617 0.42462456226349 0
vt 0.01963482424617 0.48217713832855 0
vt 0.105429276824 0.48217713832855 0
vt 0.10542915761471 0.42462456226349 0
vt 0.1108872294426 0.5123496055603 0
vt 0.07251876592636 0.58908629417419 0
vt 0.60967659950256 0.6082706451416 0
vt 0.60967659950256 0.56990218162537 0
vt 0.51375555992126 0.5123496055603 0
vt 0.83196592330933 0.65925431251526 0
vt 0.92788696289062 0.67843866348267 0
vt 0.92788696289062 0.64007019996643 0
vt 0.7168607711792 0.60170197486877 0
vt 0.88951849937439 0.60170197486877 0
vt 0.06706081330776 0.3478878736496 0
vt 0.10542915761471 0.3478878736496 0
vt 0.50829744338989 0.34788763523102 0
vt 0.60421848297119 0.36707198619843 0
vt 0.67502558231354 0.11649680137634 0
vt 0.67502558231354 0.23160207271576 0
vt 0.2260890007019 0.85008901357651 0
vt 0.26445734500885 0.79253643751144 0
vt 0.22608888149261 0.79253631830215 0
vt 0.64422452449799 0.23160207271576 0
vt 0.64422452449799 0.40425992012024 0
vt 0.39874672889709 0.85008895397186 0
vt 0.57140445709229 0.85008895397186 0
vt 0.57140457630157 0.7925363779068 0
vt 0.39874684810638 0.79253625869751 0
vt 0.11098371446133 0.79253631830215 0
vt 0.07261525094509 0.85008901357651 0
vt 0.07261525094509 0.79253631830215 0
vt 0.07261525094509 0.75416797399521 0
vt 0.01506244577467 0.75416797399521 0
vt 0.01506268419325 0.79253631830215 0
vt 0.01506268419325 0.85008901357651 0
vt 0.62566566467285 0.85008895397186 0
vt 0.62566566467285 0.7925363779068 0
vt 0.66403388977051 0.85008901357651 0
vt 0.66403412818909 0.79253643751144 0
vt 0.62015950679779 0.07930886745453 0
vt 0.62015950679779 0.02175629138947 0
vt 0.5082973241806 0.02175605297089 0
vt 0.50829744338989 0.07930886745453 0
vt 0.01963476464152 0.07930910587311 0
vt 0.10542921721935 0.07930886745453 0
vt 0.10542909801006 0.02175629138947 0
vt 0.01963476464152 0.02175629138947 0
vt 0.60977303981781 0.92682564258575 0
vt 0.60977292060852 0.8884574174881 0
vt 0.51385188102722 0.98437833786011 0
vt 0.11098371446133 0.9843784570694 0
vt 0.07261525094509 0.90764158964157 0
vt 0.92788696289062 0.73360913991928 0
vt 0.92788696289062 0.69524067640305 0
vt 0.83196592330933 0.71442490816116 0
vt 0.7168607711792 0.77197748422623 0
vt 0.88951849937439 0.77197748422623 0
vt 0.50829744338989 0.15604555606842 0
vt 0.60421848297119 0.13686144351959 0
vt 0.10542909801006 0.156045794487 0
vt 0.06706075370312 0.156045794487 0
# 105 texture coordinates

o hull
usemtl tank_1j
f 2/3 3/2 4/1
f 1/5 2/3 4/1
f 1/5 4/1 5/6
f 1/5 5/6 6/7
f 2/3 48/9 7/8
f 2/3 7/8 8/10
f 2/3 8/10 30/11
f 2/3 30/11 3/2
f 9/13 31/12 8/10
f 8/10 7/8 9/13
f 10/15 11/14 1/5
f 1/5 6/7 10/15
f 11/18 12/17 1/16
f 12/20 48/19 2/3
f 2/3 1/5 12/20
f 13/23 7/22 48/21
f 48/21 14/24 13/23
f 10/27 16/26 15/25
f 10/27 15/25 12/17
f 10/27 12/17 11/18
f 17/30 18/29 19/28
f 5/6 17/30 19/28
f 5/6 19/28 10/31
f 5/6 10/31 6/7
f 19/33 20/32 16/26
f 16/26 10/34 19/33
f 20/32 21/35 15/25
f 15/25 16/26 20/32
f 22/37 23/36 13/23
f 13/23 14/24 22/37
f 24/39 25/38 23/36
f 23/36 22/37 24/39
f 26/42 27/41 25/40
f 25/40 24/43 26/42
f 28/46 21/45 20/44
f 20/44 29/47 28/46
f 15/25 21/49 28/48
f 26/52 24/51 22/50
f 26/52 22/50 14/24
f 26/52 14/24 48/21
f 26/52 48/21 12/17
f 28/48 26/52 12/17
f 15/25 28/48 12/17
f 23/55 25/54 9/53
f 23/55 9/53 7/56
f 13/57 23/55 7/56
f 27/41 29/47 20/58
f 27/41 20/58 19/59
f 27/41 19/59 9/60
f 27/41 9/60 25/61
f 17/62 5/6 4/1
f 4/1 32/63 17/62
f 32/66 4/65 33/64
f 33/67 4/1 3/2
f 3/2 30/68 33/67
f 34/71 35/70 30/69
f 30/69 8/72 34/71
f 17/73 32/66 33/64
f 17/73 33/64 36/74
f 17/73 36/74 37/75
f 18/77 17/76 37/75
f 37/75 38/78 18/77
f 38/78 37/75 36/74
f 36/74 39/79 38/78
f 40/80 35/70 34/71
f 34/71 41/81 40/80
f 42/82 40/80 41/81
f 41/81 43/83 42/82
f 44/86 42/85 43/84
f 43/84 45/87 44/86
f 46/90 47/89 38/88
f 38/88 39/91 46/90
f 35/70 40/93 42/92
f 35/70 42/92 44/94
f 30/69 35/70 44/94
f 30/69 44/94 46/95
f 46/95 39/96 36/74
f 46/95 36/74 33/64
f 30/69 46/95 33/64
f 31/99 43/98 41/97
f 8/100 31/99 41/97
f 34/101 8/100 41/97
f 45/87 43/103 31/102
f 45/87 31/102 18/104
f 45/87 18/104 38/105
f 45/87 38/105 47/89
f 47/89 46/90 44/86
f 44/86 45/87 47/89
f 19/59 18/104 31/102
f 31/102 9/60 19/59
f 28/46 29/47 27/41
f 27/41 26/42 28/46

v -16.5 148.5 99
v 16.5 148.5 99
v -16.5 148.5 66
v 16.5 148.5 66
v -16.5 181.5 99
v 16.5 181.5 99
v -16.5 181.5 66
v 16.5 181.5 66
# 8 vertices

vn 0 -1 0
vn 0 -1 0
vn 0 -1 0
vn 0 -1 0
vn 0 1 0
vn 0 -1 0
vn 0 -1 0
vn 0 0 1
vn -0.57735025882721 -0.57735025882721 0.57735025882721
vn 0 0 1
vn 1 0 0
vn -1 -0.00000004635917 0
vn 0 0 -1
vn 0 0 -1
vn -1 0 0
vn -0.57735025882721 -0.57735025882721 0.57735025882721
vn 1 0 0
# 17 normals

vt 1 1 0
vt 1 0 0
vt 0 0 0
# 3 texture coordinates

o mount
usemtl tank_1j
f 49/107/1 51/106/2 52/4/1
f 52/4/1 50/108/1 49/107/1
f 53/108/5 54/107/5 56/106/5
f 56/106/5 55/4/5 53/108/5
f 49/108/8 50/107/8 54/106/8
f 54/106/10 53/4/10 49/108/10
f 50/108/11 52/107/11 56/106/11
f 56/106/11 54/4/11 50/108/11
f 52/108/13 51/107/13 55/106/13
f 55/106/14 56/4/14 52/108/14
f 51/108/15 49/107/15 53/106/15
f 53/106/15 55/4/15 51/108/15

