<svg viewBox="0 0 56 56" xmlns="http://www.w3.org/2000/svg">
<path fill-rule="evenodd" clip-rule="evenodd" d="M43.375 32.832l-1.068 2.592s2.625 5.618 2.395 5.846l-3.294 3.291c-.22.218-5.945-2.272-5.945-2.272l-2.6 1.073s-2.119 5.827-2.442 5.827h-4.652c-.316 0-2.6-5.81-2.6-5.81l-2.593-1.073s-5.621 2.618-5.845 2.395l-3.294-3.293c-.217-.221 2.272-5.952 2.272-5.952l-1.071-2.589s-5.827-2.12-5.827-2.445v-4.655c0-.309 5.814-2.595 5.814-2.595l1.07-2.593s-2.62-5.622-2.392-5.846l3.29-3.291c.221-.222 5.957 2.267 5.957 2.267l2.588-1.072s2.118-5.826 2.441-5.826h4.651c.314 0 2.6 5.813 2.6 5.813l2.592 1.07s5.618-2.618 5.848-2.392l3.293 3.286c.223.221-2.268 5.956-2.268 5.956l1.07 2.596s5.826 2.115 5.824 2.436v4.652c.002.313-5.814 2.604-5.814 2.604zM18.37 24.146v13.488h12.52V24.146H18.37zm19.258-5.78H25.112v3.853h7.703v9.634h4.814V18.366zM25.112 31.853h3.851v3.853h-3.852v-3.854zm-4.815-5.781h3.852v3.854h-3.852v-3.854z" fill="#fff"/>
</svg>