# WaveFront *.obj file (generated by Cinema 4D)

v 83.75049591064453 134.63755798339844 -114.83837890625
v 83.87429046630859 119.05832672119141 -114.869140625
v 83.85490417480469 8.58994007110596 187.0576171875
v -83.75049591064453 134.63755798339844 -114.83837890625
v -83.75071716308594 82.26361083984375 -254.8134765625
v -83.85493469238281 0 166.67822265625
v -138.59999084472656 0 -185.97412109375
v -83.752197265625 108.92890930175781 239.33056640625
v -83.75049591064453 134.63755798339844 213.8232421875
v -138.59999084472656 36.71240615844727 216.25390625
v 138.59999084472656 94.33259582519531 216.25390625
v 83.78631591796875 75.78336334228516 216.25390625
v 138.59999084472656 91.44937896728516 -225.5283203125
v -83.77394866943359 91.33736419677734 -225.49755859375
v 83.75049591064453 134.63755798339844 213.8232421875
v 138.59999084472656 0 166.67822265625
v 138.59999084472656 36.71240615844727 216.25390625
v 83.75072479248047 70.75974273681641 -270.50341796875
v 83.75071716308594 82.26361083984375 -254.8134765625
v 83.77395629882812 91.33736419677734 -225.49755859375
v 138.59999084472656 0 -185.97412109375
v 138.59999084472656 82.39828491210938 -254.75439453125
v 138.59999084472656 75.78336334228516 216.25390625
v 83.85478973388672 36.71240615844727 216.25390625
v 83.81366729736328 53.11693572998047 -272.73388671875
v 83.85493469238281 0 -185.97412109375
v -83.75072479248047 70.75975036621094 -270.50341796875
v -138.59999084472656 119.18580627441406 190.458984375
v -138.59999084472656 94.33258819580078 216.25390625
v -83.87429046630859 119.05832672119141 -114.869140625
v -138.59999084472656 38.16903686523438 -261.658203125
v -138.59999084472656 82.39828491210938 -254.75390625
v -138.60000610351562 70.75974273681641 -270.50341796875
v -83.78631591796875 75.78337097167969 216.25390625
v -138.59999084472656 75.78336334228516 216.25390625
v -83.85493469238281 0 -185.97412109375
v -83.75050354003906 102.75871276855469 -253.5068359375
v 83.75049591064453 102.75872039794922 -253.5068359375
v -83.85478973388672 36.71240615844727 216.25390625
v 83.75218963623047 108.92890167236328 239.33056640625
v 83.75218963623047 94.35225677490234 216.25390625
v -83.75218963623047 94.35225677490234 216.25390625
v -138.59999084472656 8.58994102478027 187.0576171875
v -138.59999084472656 91.44937133789062 -225.5283203125
v 83.75218963623047 68.32196044921875 239.33056640625
v 138.59999084472656 38.16903686523438 -261.658203125
v 138.60000610351562 70.75974273681641 -270.50341796875
v -83.75218963623047 68.32196044921875 239.33056640625
v 138.59999084472656 119.18580627441406 190.458984375
v 138.59999084472656 119.18580627441406 -114.83837890625
v -138.59999084472656 119.18580627441406 -114.83837890625
v 83.85493469238281 0 166.67822265625
v -83.85490417480469 8.58994007110596 187.0576171875
v 138.59999084472656 8.58994102478027 187.0576171875
v -138.59999084472656 0 166.67822265625
v 83.85492706298828 38.16903686523438 -261.658203125
v -138.59999084472656 53.11701965332031 -272.73388671875
v -83.85492706298828 38.16903686523438 -261.658203125
v -83.81366729736328 53.11693572998047 -272.73388671875
v 138.59999084472656 53.11701965332031 -272.73388671875
# 60 vertices

vn 0.99999964237213 -0.00002138852506 -0.00084631482605
vn 0.99999767541885 0.00197950890288 -0.00088199210586
vn 0.99999994039536 0.00003693035978 -0.00040993644507
vn 0.06376449763775 0.00000000000091 -0.99796497821808
vn 0.9999857544899 0.00526337465271 -0.00090269814245
vn 0.99996840953827 0.00794587656856 0
vn 0.99996799230576 0.00794767774642 -0.00091376231285
vn 0 0 0
vn 1 0.00001129222346 -0.00000779319998
vn 0.99999904632568 0.00091890722979 0.00103652034886
vn 0.99999624490738 0.0017951783957 0.00205925386399
vn 0.99999833106995 0.00119678664487 0.0013728372287
vn 1 0 0
vn 0 -0.99127775430679 0.13178914785385
vn 0.00000000544673 -0.96463799476624 0.2635782957077
vn 0 -0.98810124397278 -0.15380498766899
vn 0 1 0
vn 0 -0.95151251554489 -0.30760994553566
vn 0.25278621912003 0.96644169092178 -0.04571181535721
vn 0.00000000967793 -0.79928034543991 0.60095834732056
vn 0.00000000967793 -0.86738663911819 0.49763488769531
vn 0.00000000627328 -0.72022747993469 0.69373792409897
vn 0 -0.72022747993469 0.69373792409897
vn 0 -0.81320154666901 -0.58198219537735
vn 0.70710676908493 0.70710676908493 0
vn 0.00000031145521 -0.71158373355865 -0.70260125398636
vn -0.0000000959275 0.12542562186718 -0.99210304021835
vn 0 0.1254259198904 -0.99210298061371
vn -0.00000019185498 0.12542532384396 -0.99210304021835
vn -0.00067160383333 0.8053423166275 -0.59280961751938
vn 0 0.80422592163086 -0.59432369470596
vn -0.00139136728831 0.89274477958679 -0.45056053996086
vn 0 0 -1
vn -0.00170869240537 0.89318591356277 -0.44968429207802
vn -0.00212295050733 0.97000831365585 -0.2430624216795
vn -0.00211817445233 0.9700089097023 -0.24306021630764
vn 1 -0.00000026035451 -0.00000022381941
vn 1 -0.00000073881665 -0.00000099712292
vn 1 -0.00000064062863 -0.00000063534344
vn 1 0 0
vn 1 0 0
vn 1 -0.00000001408227 0.0000001085549
vn 1 0.00000025009686 0.0000002996143
vn -0.00030306578265 -0.8454572558403 0.53404307365417
vn 1 0.00000000020351 -0.00000000000001
vn 0 0 1
vn 0 0 1
vn -0.00232942122966 0.99999725818634 0
vn -1 -0.00000447138427 0.00000038722186
vn -1 -0.00000273904243 0.00000002968741
vn -1 -0.00000400862154 0.00000004453112
vn -0.99999767541885 0.00197907909751 -0.00088176998543
vn -0.99999964237213 -0.00002205295095 -0.00084604101721
vn -0.99999994039536 0.00003653679596 -0.00040960180922
vn -0.99996840953827 0.00794587656856 0
vn -0.9999857544899 0.00526306359097 -0.00090262503363
vn -0.99996799230576 0.00794767774642 -0.00091373495525
vn -1 0.00001090171827 -0.00000750687605
vn -0.99999904632568 0.00091881369008 0.00103641476016
vn -1 -0.00000018788397 -0.00000021193168
vn -0.99999833106995 0.00119672412984 0.00137276691385
vn -0.99999624490738 0.00179517851211 0.00205925456248
vn 0.0165196377784 0.99986356496811 0
vn -0.00000000409431 -0.98017537593842 0.19813196361065
vn 0 -0.98017537593842 0.19813196361065
vn -0.25278621912003 0.96644169092178 -0.04571181163192
vn -0.00000001107556 -0.83493328094482 0.5503511428833
vn -0.0000000137514 -0.72022747993469 0.69373798370361
vn -0.00000002215112 -0.83493334054947 0.5503511428833
vn -0.00000031188335 -0.71158373355865 -0.70260125398636
vn 1 0.00000000000025 -0.00000000000006
vn 0.0000000873419 0.12542560696602 -0.99210304021835
vn 0.00000019213022 0.12542527914047 -0.99210304021835
vn -0.00000001744642 0.1254259198904 -0.99210298061371
vn 0.00113469641656 0.86602485179901 -0.4999997317791
vn -0.00000011364619 0.80423474311829 -0.59431171417236
vn 0.00066891306778 0.80534678697586 -0.59280359745026
vn 0.00184916215949 0.91688239574432 -0.39915311336517
vn 1 0.00000000000241 0
vn -0.44608491659164 0.64450925588608 0.62097996473312
vn -0.43719175457954 0.63345927000046 0.63842988014221
vn 0.00212293700315 0.97000831365585 -0.2430624961853
vn 0.00211806036532 0.9700089097023 -0.24306021630764
vn -1 0 0
vn -1 0 0
vn 0 0 -1
vn -1 0.00000025009095 0.00000029960933
vn -1 -0.00000001408622 0.00000010855159
vn -1 -0.00000026035846 -0.00000022382275
vn -1 -0.00000064062863 -0.00000063534344
vn -1 -0.00000073881665 -0.00000099712292
vn 1 0 0
vn 0.00030318525387 -0.84545707702637 0.53404331207275
vn 0.00232942122966 0.99999725818634 0
vn 1 -0.00000187287185 -0.00000014907981
vn 1 -0.00000019988438 0
vn 1 -0.00000273904243 0.0000000296874
vn 1 -0.00000400862154 0.00000004453111
vn -0.00000002136644 0.46909350156784 -0.8831484913826
vn 0.00000002136637 0.46909332275391 -0.88314861059189
vn 0 0.97457808256149 -0.22404818236828
vn 0 0.99717539548874 -0.07510823756456
vn 0 0.99362421035767 -0.11274291574955
vn 0.0039719180204 0.99999213218689 -0.00006312771438
vn -0.00000004097525 0.97457808256149 -0.22404822707176
vn 0 1 0
vn 0.00000001509216 0.7043217420578 0.70988094806671
vn 0.00000003018431 0.70432168245316 0.70988100767136
vn 0 0.70432180166244 0.70988082885742
vn 0 -0.20552712678909 0.9786514043808
vn 0 -0.31010764837265 0.95070147514343
vn 0 -0.58963960409164 0.80766648054123
vn 0 1 0
vn 0.44608491659164 0.64450937509537 0.62097984552383
vn 0.43719160556793 0.63345909118652 0.63843011856079
vn 0.00000023836851 0.99985545873642 -0.01700224168599
vn 0.99999636411667 0.00175254396163 0.00204546912573
vn -0.99999636411667 0.00175254361238 0.00204546959139
vn -0.00207234546542 0.955262362957 -0.29575255513191
vn -0.0021176293958 0.95523822307587 -0.29583004117012
vn 0.00211750203744 0.95528626441956 -0.29567494988441
vn 0.00207082391717 0.95526170730591 -0.2957546710968
vn 0.01738907210529 0.9998487830162 0
vn 0.00000045597795 -0.59533631801605 -0.80347657203674
vn 0.00000091195585 -0.5953374505043 -0.80347579717636
vn -0.00000045660477 -0.59533631801605 -0.80347657203674
vn -0.00000091320948 -0.5953374505043 -0.80347579717636
vn 0 -0.99999535083771 -0.00304789049551
vn 0 -0.99999535083771 -0.00304789072834
vn 0.0000000051226 0.12542533874512 -0.99210304021835
vn 0 0.12542526423931 -0.992103099823
vn 0 -0.59533739089966 -0.80347579717636
vn 0 -0.59533739089966 -0.80347579717636
vn 1 -0.00000447138382 0.00000038722183
vn -1 -0.00000019988438 0
vn -1 -0.00000187287185 -0.00000014907981
# 136 normals

vt 0.11601360142231 0.801677942276 0
vt 0.09043695032597 0.79103702306747 0
vt 0.0891070663929 0.80979645252228 0
vt 0 1 0
vt 0.21752953529358 0.77700316905975 0
vt 0.51857924461365 0.76273864507675 0
vt 0.21760484576225 0.76273828744888 0
vt 0.07466398179531 0.82022941112518 0
vt 0.56509590148926 0.78387331962585 0
vt 0.58210134506226 0.78387320041656 0
vt 0.58893418312073 0.7627392411232 0
vt 0.55174624919891 0.76273965835571 0
vt 0.14904472231865 0.246901512146 0
vt 0.14904099702835 0.29745900630951 0
vt 0.47471803426743 0.29748737812042 0
vt 0.47472149133682 0.24692988395691 0
vt 0.17833235859871 0.533955514431 0
vt 0.46110188961029 0.48283052444458 0
vt 0.48310548067093 0.5344859957695 0
vt 0.12861770391464 0.29745769500732 0
vt 0.12862005829811 0.24690020084381 0
vt 0.09118282794952 0.24689877033234 0
vt 0.09118200838566 0.29745638370514 0
vt 0.55299961566925 0.29749143123627 0
vt 0.55300092697144 0.24693393707275 0
vt 0.57018136978149 0.29749143123627 0
vt 0.58660447597504 0.29749155044556 0
vt 0.58660435676575 0.24683785438538 0
vt 0.5701812505722 0.24689590930939 0
vt 0.60468971729279 0.29749143123627 0
vt 0.60457146167755 0.24683773517609 0
vt 0.07268008589745 0.48324394226074 0
vt 0.1783906519413 0.48324429988861 0
vt 0.07264694571495 0.53404825925827 0
vt 0.03207740187645 0.43189990520477 0
vt 0.03207752108574 0.41776168346405 0
vt 0.04054674506187 0.40473508834839 0
vt 0.48519617319107 0.46021413803101 0
vt 0.48519617319107 0.44302558898926 0
vt 0.48519617319107 0.40849542617798 0
vt 0.43925750255585 0.37280166149139 0
vt 0.45814192295074 0.38076138496399 0
vt 0.11247332394123 0.37280178070068 0
vt 0.07582029700279 0.4575423002243 0
vt 0.05216345191002 0.45161437988281 0
vt 0.52263450622559 0.81070673465729 0
vt 0.05510012805462 0.24683558940887 0
vt 0.05510012805462 0.29745638370514 0
vt 0.56986737251282 0.5482394695282 0
vt 0.58852636814117 0.55617129802704 0
vt 0.54318010807037 0.52237641811371 0
vt 0.09044483304024 0.58099746704102 0
vt 0.1160257011652 0.57036662101746 0
vt 0.08912238478661 0.56223744153976 0
vt 0.51857829093933 0.609339594841 0
vt 0.21753031015396 0.59508109092712 0
vt 0.21760314702988 0.60934615135193 0
vt 0.07468344271183 0.55179882049561 0
vt 0.56509447097778 0.58820563554764 0
vt 0.55174517631531 0.60933947563171 0
vt 0.58893311023712 0.60933929681778 0
vt 0.58209979534149 0.58820539712906 0
vt 0.14903900027275 0.29739892482758 0
vt 0.47471612691879 0.29746305942535 0
vt 0.47472393512726 0.24690568447113 0
vt 0.14904743432999 0.24684154987335 0
vt 0.08384667336941 0.93684655427933 0
vt 0.36661630868912 0.98797160387039 0
vt 0.06184313446283 0.98850208520889 0
vt 0.12862193584442 0.24683845043182 0
vt 0.0911837220192 0.24683558940887 0
vt 0.09118187427521 0.29739320278168 0
vt 0.12861660122871 0.29739594459534 0
vt 0.55299890041351 0.29747211933136 0
vt 0.55300176143646 0.24691474437714 0
vt 0.57018136978149 0.24691486358643 0
vt 0.5701812505722 0.2975105047226 0
vt 0.58660411834717 0.2975686788559 0
vt 0.58660435676575 0.24691498279572 0
vt 0.60468947887421 0.24691522121429 0
vt 0.60457110404968 0.29756891727448 0
vt 0.05240402370691 0.9264799952507 0
vt 0.02983709797263 0.97854667901993 0
vt 0.36655789613724 0.93726032972336 0
vt 0.47226893901825 0.93725997209549 0
vt 0.47230207920074 0.98806422948837 0
vt 0.05975244194269 0.86251145601273 0
vt 0.08680675923824 0.83477741479874 0
vt 0.10569117963314 0.82681757211685 0
vt 0.43247556686401 0.82681769132614 0
vt 0.05975244194269 0.91423016786575 0
vt 0.05975244194269 0.89704161882401 0
vt 0.4691287279129 0.91155821084976 0
vt 0.49278545379639 0.90563029050827 0
vt 0.51287150382996 0.88591593503952 0
vt 0.50440216064453 0.85875099897385 0
vt 0.51287138462067 0.8717777132988 0
vt 0.52263283729553 0.56137293577194 0
vt 0.05510053038597 0.24683547019958 0
vt 0.05510052293539 0.29745626449585 0
vt 0.98131453990936 0.36862432956696 0
vt 0.91182339191437 0.33384430408478 0
vt 0.58852553367615 0.33483099937439 0
vt 0.54317951202393 0.36862623691559 0
vt 0.08730028569698 0.76274335384369 0
vt 0.08729858696461 0.60934674739838 0
vt 0.05411680787802 0.60934674739838 0
vt 0.05411873757839 0.76274406909943 0
vt 0.62477588653564 0.76283299922943 0
vt 0.62477493286133 0.60924506187439 0
vt 0.49254804849625 0.47247219085693 0
vt 0.51510798931122 0.52452248334885 0
vt 0.03795163333416 0.24680399894714 0
vt 0.03796979039907 0.29745638370514 0
vt 0.03797020018101 0.24683547019958 0
vt 0.03795203566551 0.29748773574829 0
vt 0.61788249015808 0.78387296199799 0
vt 0.61788094043732 0.5882049202919 0
vt 0.63291239738464 0.24684298038483 0
vt 0.63294470310211 0.29747521877289 0
vt 0.63291192054749 0.29756379127502 0
vt 0.63294446468353 0.24693155288696 0
vt 0.98131513595581 0.52237498760223 0
vt 0.03783313930035 0.76280200481415 0
vt 0.03783109039068 0.6092894077301 0
vt 0.02079348638654 0.60925185680389 0
vt 0.02079565450549 0.76284003257751 0
vt 0.56986665725708 0.34276294708252 0
vt 0.91182422637939 0.55715560913086 0
# 129 texture coordinates

o hull
usemtl 24 - Default
f 19/3/3 38/2/2 20/1/1
f 1/7/7 15/6/6 2/5/5
f 19/3/3 18/8/9 38/2/2
f 45/11/12 12/10/11 41/9/10
f 41/9/10 40/12/13 45/11/12
f 15/19/19 49/18/19 2/17/19
f 2/17/35 50/33/35 13/32/35
f 13/32/36 20/34/36 2/17/36
f 46/37/39 60/36/38 47/35/37
f 50/33/13 49/18/13 11/38/13
f 50/33/13 11/38/13 23/39/13
f 50/33/13 23/39/13 17/40/13
f 17/40/13 54/42/13 16/41/13
f 17/40/13 16/41/13 21/43/13
f 50/33/13 17/40/13 21/43/13
f 13/44/41 50/33/13 21/43/13
f 22/45/43 13/44/13 21/43/42
f 47/35/37 22/45/43 21/43/42
f 46/37/39 47/35/37 21/43/42
f 11/46/44 40/12/44 41/9/44
f 49/18/48 50/33/48 2/17/48
f 24/51/51 52/50/50 3/49/49
f 5/54/54 14/53/53 37/52/52
f 4/57/57 30/56/56 9/55/55
f 5/54/54 37/52/52 27/58/58
f 48/61/61 8/60/60 42/59/59
f 42/59/59 34/62/62 48/61/61
f 9/69/66 30/68/66 28/67/66
f 9/69/80 28/67/80 29/82/80
f 29/82/81 8/83/81 9/69/81
f 44/85/82 51/84/82 30/68/82
f 30/68/83 14/86/83 44/85/83
f 55/89/84 43/88/84 10/87/84
f 7/90/84 55/89/84 10/87/84
f 29/91/85 28/67/85 51/84/85
f 35/92/84 29/91/84 51/84/84
f 10/87/84 35/92/84 51/84/84
f 7/90/84 10/87/84 51/84/84
f 7/90/84 51/84/84 44/93/85
f 7/90/88 44/93/85 32/94/87
f 7/90/88 32/94/87 33/95/89
f 31/96/90 7/90/88 33/95/89
f 57/97/91 31/96/90 33/95/89
f 29/98/93 42/59/93 8/60/93
f 28/67/94 30/68/94 51/84/94
f 6/103/97 36/102/96 58/101/95
f 58/101/95 39/104/98 6/103/97
f 27/107/99 37/106/99 38/105/99
f 38/105/100 18/108/100 27/107/100
f 4/57/103 1/7/102 38/105/101
f 38/105/105 37/106/105 4/57/105
f 9/55/106 15/6/106 1/7/102
f 1/7/102 4/57/103 9/55/106
f 8/60/107 40/12/108 15/6/107
f 15/6/107 9/55/109 8/60/107
f 8/60/46 48/61/111 45/11/110
f 45/11/110 40/12/46 8/60/46
f 39/110/112 24/109/112 45/11/112
f 45/11/110 48/61/111 39/110/112
f 11/111/114 49/18/114 15/19/114
f 15/19/115 40/112/115 11/111/115
f 45/11/12 24/117/117 12/10/11
f 34/62/62 39/118/118 48/61/61
f 2/5/5 20/1/1 38/2/2
f 38/2/2 1/7/7 2/5/5
f 37/52/52 14/53/53 30/56/56
f 30/56/56 4/57/57 37/52/52
f 58/101/128 56/123/129 24/51/128
f 24/51/128 39/104/128 58/101/128
f 27/107/130 18/108/130 25/124/130
f 25/124/131 59/125/131 27/107/131
f 25/124/132 56/127/132 58/126/132
f 58/126/133 59/125/133 25/124/133
f 39/104/98 53/128/134 6/103/97
f 56/123/136 26/129/135 52/50/50
f 52/50/50 24/51/51 56/123/136

usemtl tracks
f 21/15/16 16/14/15 52/13/14
f 52/13/14 26/16/18 21/15/16
f 24/22/22 3/21/21 54/20/20
f 54/20/20 17/23/23 24/22/22
f 46/24/24 21/15/16 26/16/18
f 26/16/18 56/25/26 46/24/24
f 18/28/27 47/27/28 60/26/27
f 60/26/27 25/29/29 18/28/27
f 22/30/32 47/27/31 18/28/30
f 18/28/30 19/31/34 22/30/32
f 23/48/46 12/47/46 24/22/46
f 24/22/46 17/23/47 23/48/46
f 7/65/16 36/64/18 6/63/64
f 6/63/64 55/66/65 7/65/16
f 39/72/68 10/71/23 43/70/67
f 43/70/67 53/73/69 39/72/68
f 31/75/24 58/74/70 36/64/18
f 36/64/18 7/65/16 31/75/24
f 27/78/72 59/77/73 57/76/72
f 57/76/72 33/79/74 27/78/72
f 27/78/77 33/79/76 32/80/75
f 32/80/75 5/81/78 27/78/77
f 35/99/46 10/71/46 39/72/46
f 39/72/46 34/100/46 35/99/46
f 11/114/46 41/113/46 12/47/46
f 12/47/46 23/48/46 11/114/46
f 42/116/46 29/115/46 35/99/46
f 35/99/46 34/100/46 42/116/46
f 22/30/32 19/31/34 20/119/119
f 20/119/119 13/120/120 22/30/32
f 44/122/122 14/121/121 5/81/78
f 5/81/78 32/80/75 44/122/122
f 16/14/15 54/20/20 3/21/21
f 3/21/21 52/13/14 16/14/15
f 6/63/64 53/73/69 43/70/67
f 43/70/67 55/66/65 6/63/64
f 60/26/124 46/24/24 56/25/26
f 56/25/26 25/29/125 60/26/124
f 58/74/70 31/75/24 57/76/126
f 57/76/126 59/77/127 58/74/70

v -14.28571319580078 133.40676879882812 25.59228515625
v 14.28571319580078 133.40676879882812 25.59228515625
v -14.28571319580078 133.40676879882812 -2.97900390625
v 14.28571319580078 133.40676879882812 -2.97900390625
v -14.28571319580078 161.97821044921875 25.59228515625
v 14.28571319580078 161.97821044921875 25.59228515625
v -14.28571319580078 161.97821044921875 -2.97900390625
v 14.28571319580078 161.97821044921875 -2.97900390625
# 8 vertices

vn 0 -1 0
vn 0 -1 0
vn 0 -1 0
vn 0.70710676908493 0 -0.70710676908493
vn 0 0 -1
vn 0 0 -1
# 6 normals

vt 1 1 0
vt 1 0 0
vt 0 0 0
# 3 texture coordinates

o mount03
usemtl tracks
f 61/131/137 63/130/138 64/4/137
f 64/4/137 62/132/137 61/131/137
f 65/132/106 66/131/106 68/130/106
f 68/130/106 67/4/106 65/132/106
f 61/132/47 62/131/47 66/130/47
f 66/130/46 65/4/46 61/132/46
f 62/132/13 64/131/13 68/130/13
f 68/130/13 66/4/13 62/132/13
f 64/132/141 63/131/141 67/130/141
f 67/130/142 68/4/142 64/132/142
f 63/132/84 61/131/84 65/130/84
f 65/130/84 67/4/84 63/132/84

