v 70.3402099609375 86.45158386230469 -71.85983276367188
v 70.340087890625 86.45158386230469 68.39016723632812
v 49.499755859375 24.86785125732422 -165.75851440429688
v 84.1497802734375 70.15000915527344 -71.85983276367188
v 84.149658203125 70.14999389648438 68.39016723632812
v 8.4996337890625 57.86785507202148 -411.75851440429688
v 0 98.17478942871094 68.39041137695312
v -70.3402099609375 86.45158386230469 -71.85983276367188
v -70.340087890625 86.45158386230469 68.39016723632812
v -84.1497802734375 70.14999389648438 -71.85983276367188
v -84.149658203125 70.14999389648438 68.39016723632812
v 0 98.17483520507812 -71.86007690429688
v 38.026123046875 91.83723449707031 -50.57760620117188
v 38.038818359375 91.83511352539062 -0.40451049804688
v -38.0262451171875 91.83726501464844 -50.57760620117188
v -38.038818359375 91.83517456054688 -0.40451049804688
v -0.0003662109375 103.4736328125 -56.76803588867188
v -33.0950927734375 97.70513916015625 -46.84103393554688
v -33.1060791015625 97.70330810546875 -3.53317260742188
v -0.0003662109375 103.66229248046875 12.81375122070312
v 33.1060791015625 97.70320129394531 -3.53341674804688
v 33.0950927734375 97.70503234863281 -46.84103393554688
v -0.000244140625 98.1749267578125 -61.96945190429688
v -0.000244140625 98.17491149902344 18.33767700195312
v 49.499755859375 57.86785507202148 -131.25851440429688
v 12.921875 50.71246719360352 -180.75851440429688
v -49.499755859375 57.86783981323242 -131.25851440429688
v 12.921875 50.71245956420898 -411.75851440429688
v 84.149658203125 0 68.39016723632812
v -84.149658203125 0.0000057220459 68.39016723632812
v -42.07470703125 56.10000991821289 110.46511840820312
v 34.499755859375 24.86785125732422 -180.75851440429688
v 34.499755859375 57.86785507202148 -180.75851440429688
v 42.07470703125 56.10000228881836 110.46511840820312
v 8.4996337890625 57.86785507202148 -180.75851440429688
v 42.07470703125 0 110.46511840820312
v -34.499755859375 57.86783981323242 -180.75851440429688
v -3.5771484375 32.02323150634766 -180.75851440429688
v -3.5771484375 32.02321624755859 -411.75851440429688
v -12.921875 50.71244812011719 -180.75851440429688
v -8.4996337890625 57.86784744262695 -180.75851440429688
v 3.5771484375 32.02325057983398 -180.75851440429688
v -49.499755859375 24.86783981323242 -131.25851440429688
v 49.499755859375 24.86785507202148 -131.25851440429688
v -34.499755859375 24.86783218383789 -180.75851440429688
v -42.07470703125 0.00000858306885 110.46511840820312
v 84.149658203125 0 -71.85983276367188
v 49.499755859375 57.86785507202148 -165.75851440429688
v -49.499755859375 57.86783981323242 -165.75851440429688
v -49.499755859375 24.86783599853516 -165.75851440429688
v -8.4996337890625 57.86781692504883 -411.75851440429688
v -84.149658203125 -0.00000762939453 -71.85983276367188
v -12.921875 50.71242523193359 -411.75851440429688
v 3.5771484375 32.02325057983398 -411.75851440429688
# 54 vertices

vn 0.16439801454544 0.98639410734177 0.00000064139215
vn 0.16439835727215 0.98639404773712 -0.0000020159514
vn 0.1632072776556 0.97924828529358 -0.12015049904585
vn 0 0 0
vn 0.16024887561798 0.96149772405624 0.22325414419174
vn 0.02868768014014 0.96464508771896 -0.26198640465736
vn 0.02505210600793 0.98370081186295 -0.1780591160059
vn 0.86377465724945 0 -0.5038782954216
vn 0.9999874830246 0.00499993748963 0
vn 0.96534293889999 -0.00000167982466 -0.26098468899727
vn 0.98487132787704 -0.00000111536326 -0.17328724265099
vn 0.86377400159836 -0.00000150308131 -0.50387942790985
vn 1 -0.00000087006623 0.00000043518827
vn 1 0 0.00000087037654
vn 0 0 0
vn 0.67127680778503 0.1582415997982 0.72411811351776
vn 0.64582979679108 0.23820118606091 0.72537171840668
vn 0.70710676908493 0 0.70710676908493
vn 0.70710676908493 0 0.70710676908493
vn -0.06369443237782 0.73679858446121 0.6731054186821
vn -0.00000018541479 0.9523983001709 0.30485656857491
vn 0.00000006410968 0.70710617303848 0.70710742473602
vn 1 0 0
vn 0.70710676908493 0.70710676908493 0
vn 0 0 -1
vn 0.70710676908493 0 -0.70710676908493
vn 0 0 -1
vn 0.70710676908493 0 -0.70710676908493
vn 0.66039025783539 0.55943709611893 -0.50091397762299
vn 0.75162100791931 0.63672125339508 -0.17219707369804
vn 0.73691499233246 0.6242635846138 -0.25932857394218
vn 0.7630187869072 0.64637631177902 0.00000073443749
vn 0.76301866769791 0.64637649059296 0.00000069927546
vn 0.12700068950653 0.76200026273727 0.63500106334686
vn 0.54526799917221 0.46191298961639 0.69951355457306
vn 1 0 0
vn 0.89442485570908 -0.44721829891205 0.00000001477058
vn 0.89442491531372 -0.44721814990044 0
vn 0.85065251588821 0.5257283449173 -0.00000001736359
vn 0.85065275430679 0.52572798728943 0
vn 0 0 1
vn -0.0301559381187 0.97629499435425 -0.21433307230473
vn -0.16320779919624 0.97924780845642 -0.12015381455421
vn -0.86377400159836 -0.00000151829761 -0.50387936830521
vn -0.98487132787704 -0.00000112059627 -0.17328722774982
vn -0.96534293889999 -0.000001687706 -0.26098465919495
vn 1 0.00000000020351 -0.00000000000001
vn -0.86377465724945 0 -0.5038782954216
vn -1 -0.0000008700664 0.00000043518838
vn -1 0 0.0000008703766
vn -0.70710676908493 0 0.70710676908493
vn -0.70710676908493 0 0.70710676908493
vn -1 0 0
vn -1 0 0
vn 0 1 0
vn -0.00000014671843 1 -0.00000004446013
vn 0.0165196377784 0.99986356496811 0
vn -0.00000022440362 1 0.00000018587022
vn -0.00000029879138 1 0.00000010309527
vn 1 0.00000000000025 -0.00000000000006
vn -0.70710676908493 0 -0.70710676908493
vn -0.75162124633789 0.6367210149765 -0.17219713330269
vn -0.66039049625397 0.55943673849106 -0.50091403722763
vn -0.73691529035568 0.62426322698593 -0.25932860374451
vn -0.7630187869072 0.64637631177902 0.0000006671043
vn 1 0.00000000000241 0
vn -0.16211864352226 0.97271031141281 0.16598851978779
vn -0.54526805877686 0.46191304922104 0.69951349496841
vn -0.00000044880724 1 0
vn -0.0000022440363 1 -0.00000013211073
vn -0.89442491531372 -0.44721814990044 0.00000003161265
vn -0.89442485570908 -0.44721829891205 0.00000004425772
vn 0 0 -1
vn 0 0 -1
vn -0.8506526350975 0.52572816610336 -0.00000006969398
vn -0.85065287351608 0.52572780847549 -0.00000005202505
vn 1 0 0
vn 0.00000479883283 -1 0
vn 0.00000266601819 -1 0.00000006605536
vn 0.00000003379109 -0.92242282629013 -0.38618141412735
vn 0.00000013403809 -0.92242276668549 -0.38618165254593
vn -0.00000011057094 -1 0.00000011057094
vn -0.00000014374221 -1 0.00000011057094
vn 0.00000015412995 -1 0.00000020083523
vn 0.00000027642929 -1 -0.00000000670186
vn 0.0039719180204 0.99999213218689 -0.00006312771438
vn 0 -1 0
vn -0.00000010199796 -1 -0.00000002353797
vn -0.00000002719919 -1 0.00000009519744
vn 0.0000000453323 -1 0.00000007845941
vn -0.05546931177378 0.99846041202545 -0.00000641181941
vn -0.16439978778362 0.98639380931854 -0.00000024143878
vn 0 1 0
vn -0.16439916193485 0.98639386892319 0.00000156458862
vn -0.00000064203493 1 0.00000243585419
vn 0.50016283988953 0.86593097448349 -0.00079984089825
vn 0.50118696689606 0.86533898115158 -0.00009055574628
vn 0.05872987210751 0.99827229976654 -0.0018058802234
vn 0.00000023836851 0.99985545873642 -0.01700224168599
vn -0.05915992707014 0.99824690818787 -0.00180476624519
vn -0.17379480600357 0.98478096723557 -0.0013354907278
vn -0.17171412706375 0.9851468205452 -0.0000019084307
vn -0.11049553006887 0.70227354764938 -0.70327985286713
vn 0.10883016139269 0.70331519842148 -0.70249825716019
vn -0.3152217566967 0.67344063520432 -0.66866499185562
vn -0.31175330281258 0.68276590108871 -0.66078782081604
vn 0.01738907210529 0.9998487830162 0
vn -0.76551896333694 0.64341330528259 -0.00016601243988
vn -0.76551502943039 0.64341795444489 -0.00016699172556
vn -0.76552283763886 0.64340871572495 -0.00016503313964
vn -0.4213579595089 0.65980386734009 0.62218672037125
vn -0.42047414183617 0.67606300115585 0.60509532690048
vn -0.42200699448586 0.64317709207535 0.63893139362335
vn 0.42179179191589 0.65754020214081 0.62428563833237
vn 0.42956471443176 0.64066338539124 0.63641542196274
vn 0.41381123661995 0.67409336566925 0.6118483543396
vn 0.76551991701126 0.64341217279434 -0.00016674638027
vn 0.76551896333694 0.64341330528259 -0.00016649665486
vn 0.31512621045113 0.6747612953186 -0.66737741231918
vn 0.31635028123856 0.68425357341766 -0.65705370903015
vn 0.45604410767555 0.74011981487274 -0.49421298503876
vn 1 0 0
# 122 normals

vt 0.38488507270813 0.56732946634293 0
vt 0.4913586974144 0.56735634803772 0
vt 0.53525269031525 0.49852049350739 0
vt 0 1 0
vt 0.2405421435833 0.49852073192596 0
vt 0.53705298900604 0.64835977554321 0
vt 0.67331779003143 0.54585182666779 0
vt 0.67975211143494 0.42807054519653 0
vt 0.67975425720215 0.35872662067413 0
vt 0.53525269031525 0.30621886253357 0
vt 0.53525269031525 0.45362651348114 0
vt 0.24054220318794 0.30621886253357 0
vt 0.24054220318794 0.45362651348114 0
vt 0.11550715565681 0.42356705665588 0
vt 0.11550715565681 0.30646479129791 0
vt 0.12721765041351 0.73515099287033 0
vt 0.24006989598274 0.64835977554321 0
vt 0.12721765041351 0.56125956773758 0
vt 0.74476313591003 0.54585176706314 0
vt 0.74476325511932 0.47751271724701 0
vt 0.67331790924072 0.47751259803772 0
vt 0.79064416885376 0.62160021066666 0
vt 0.82934725284576 0.64095205068588 0
vt 0.84416544437408 0.57691520452499 0
vt 0.77582633495331 0.5769150853157 0
vt 0.78869211673737 0.54585200548172 0
vt 0.78869223594666 0.47751271724701 0
vt 0.77582621574402 0.63075810670853 0
vt 0.94206511974335 0.3974484205246 0
vt 0.94207096099854 0.81004351377487 0
vt 0.97544860839844 0.81004363298416 0
vt 0.9754501581192 0.39744853973389 0
vt 0.92928469181061 0.39744853973389 0
vt 0.9292905330658 0.81004369258881 0
vt 0.01128915511072 0.56125956773758 0
vt 0.01128915511072 0.73515105247498 0
vt 0.67331779003143 0.75091928243637 0
vt 0.53525292873383 0.79830223321915 0
vt 0.67975234985352 0.86712247133255 0
vt 0.53525292873383 0.84319633245468 0
vt 0.53525280952454 0.99060410261154 0
vt 0.67975473403931 0.93646663427353 0
vt 0.24054193496704 0.99060410261154 0
vt 0.24054196476936 0.84319633245468 0
vt 0.11550650000572 0.87325567007065 0
vt 0.11550650000572 0.99114006757736 0
vt 0.74476301670074 0.750867664814 0
vt 0.67331767082214 0.81920677423477 0
vt 0.74476289749146 0.81920689344406 0
vt 0.77582621574402 0.71980434656143 0
vt 0.77582633495331 0.66596180200577 0
vt 0.79064428806305 0.67511993646622 0
vt 0.84416520595551 0.71980452537537 0
vt 0.82934749126434 0.65576833486557 0
vt 0.78869187831879 0.81920689344406 0
vt 0.78869199752808 0.75086778402328 0
vt 0.24054196476936 0.79830199480057 0
vt 0.8989292383194 0.39744877815247 0
vt 0.89892435073853 0.81004369258881 0
vt 0.88614892959595 0.39744830131531 0
vt 0.85276389122009 0.39744818210602 0
vt 0.85276246070862 0.81004273891449 0
vt 0.88613986968994 0.81004285812378 0
vt 0.92049956321716 0.85620522499084 0
vt 0.93718945980072 0.82282376289368 0
vt 0.8910299539566 0.82282483577728 0
vt 0.90772140026093 0.85620540380478 0
vt 0.98822700977325 0.8100438117981 0
vt 0.98822844028473 0.39744853973389 0
vt 0.51926481723785 0.25282788276672 0
vt 0.63908278942108 0.33320260047913 0
vt 0.63907992839813 0.01170170307159 0
vt 0.51926362514496 0.09207808971405 0
vt 0.46324449777603 0.09207844734192 0
vt 0.43888884782791 0.11643481254578 0
vt 0.438889503479 0.22847175598145 0
vt 0.46324551105499 0.2528281211853 0
vt 0.98737478256226 0.09207463264465 0
vt 0.90699863433838 0.01169979572296 0
vt 0.98737597465515 0.2528247833252 0
vt 0.90700125694275 0.3332005739212 0
vt 0.51610946655273 0.64835983514786 0
vt 0.49135851860046 0.72941952943802 0
vt 0.38548862934113 0.7294459939003 0
vt 0.34605723619461 0.64835977554321 0
vt 0.47866928577423 0.58373618125916 0
vt 0.39493507146835 0.58371472358704 0
vt 0.36365628242493 0.64807420969009 0
vt 0.4976812005043 0.64807420969009 0
vt 0.394935131073 0.71243262290955 0
vt 0.47866928577423 0.71241110563278 0
# 91 texture coordinates

o turret
usemtl tank_2j
f 1/3/3 13/2/2 14/1/1
f 14/1/1 2/5/5 1/3/3
f 1/3/3 25/7/7 12/6/6
f 47/10/8 44/9/8 25/8/8
f 25/8/12 4/11/11 47/10/10
f 4/11/11 5/13/14 29/12/13
f 29/12/13 47/10/10 4/11/11
f 29/12/18 5/13/17 34/14/16
f 34/14/16 36/15/19 29/12/18
f 34/18/22 7/17/21 31/16/20
f 44/21/23 3/20/23 48/19/23
f 48/19/23 25/7/23 44/21/23
f 32/24/25 42/23/25 26/22/25
f 26/22/25 33/25/25 32/24/25
f 33/26/26 48/19/26 3/20/26
f 3/20/28 32/27/28 33/26/28
f 1/3/31 4/11/30 25/8/29
f 2/5/33 5/13/32 4/11/30
f 4/11/30 1/3/31 2/5/33
f 2/5/5 7/17/21 34/18/34
f 34/14/16 5/13/17 2/5/35
f 26/22/25 35/28/25 33/25/25
f 54/31/37 28/30/37 26/29/37
f 26/29/38 42/32/38 54/31/38
f 35/33/39 26/29/39 28/30/39
f 28/30/40 6/34/40 35/33/40
f 36/35/41 34/18/41 31/16/41
f 31/16/41 46/36/41 36/35/41
f 8/38/43 12/6/6 27/37/42
f 52/41/46 10/40/45 27/39/44
f 27/39/48 43/42/48 52/41/48
f 10/40/45 52/41/46 30/43/49
f 30/43/49 11/44/50 10/40/45
f 30/43/51 46/46/51 31/45/51
f 31/45/52 11/44/52 30/43/52
f 43/48/53 27/37/53 49/47/53
f 49/47/54 50/49/54 43/48/54
f 37/50/56 49/47/55 27/37/42
f 25/7/7 48/19/55 33/25/55
f 25/7/7 33/25/55 35/28/58
f 25/7/7 35/28/58 41/51/59
f 27/37/42 25/7/7 41/51/59
f 37/50/56 27/37/42 41/51/59
f 45/53/25 37/50/25 40/52/25
f 40/52/25 38/54/25 45/53/25
f 37/56/61 45/55/61 50/49/61
f 50/49/61 49/47/61 37/56/61
f 8/38/64 27/39/63 10/40/62
f 9/57/65 8/38/64 10/40/62
f 10/40/62 11/44/65 9/57/65
f 9/57/67 31/16/20 7/17/21
f 31/45/68 9/57/68 11/44/68
f 38/54/25 42/23/25 32/24/25
f 32/24/25 45/53/25 38/54/25
f 40/52/25 37/50/25 41/51/25
f 41/58/69 35/33/69 6/34/69
f 6/34/70 51/59/70 41/58/70
f 39/62/71 38/61/71 40/60/71
f 40/60/72 53/63/72 39/62/72
f 6/34/25 28/65/25 54/64/25
f 54/64/25 39/67/25 53/66/25
f 6/34/74 54/64/74 53/66/74
f 51/59/25 6/34/25 53/66/25
f 41/58/75 51/59/75 53/63/75
f 53/63/76 40/60/76 41/58/76
f 39/68/78 54/31/78 42/32/78
f 42/32/79 38/69/79 39/68/79
f 12/6/6 25/7/7 27/37/42
f 47/72/80 52/71/80 43/70/80
f 43/70/81 44/73/81 47/72/81
f 32/75/82 3/74/82 44/73/82
f 43/70/83 50/77/83 45/76/83
f 44/73/84 43/70/84 45/76/84
f 32/75/85 44/73/85 45/76/85
f 47/72/87 29/79/87 36/78/87
f 47/72/88 36/78/88 46/80/88
f 46/80/89 30/81/89 52/71/89
f 47/72/90 46/80/90 52/71/90
f 13/2/2 1/3/3 12/6/6
f 12/6/6 23/82/91 13/2/2
f 23/82/91 12/6/6 8/38/43
f 8/38/43 15/83/92 23/82/91
f 15/83/92 8/38/43 9/57/67
f 9/57/67 16/84/94 15/83/92
f 7/17/21 24/85/95 16/84/94
f 16/84/94 9/57/67 7/17/21
f 7/17/21 2/5/5 14/1/1
f 14/1/1 24/85/95 7/17/21
f 20/88/98 21/87/97 22/86/96
f 22/86/96 17/89/100 20/88/98
f 17/89/100 18/91/102 19/90/101
f 19/90/101 20/88/98 17/89/100
f 18/91/105 17/89/104 23/82/103
f 23/82/103 15/83/106 18/91/105
f 19/90/108 18/91/109 15/83/108
f 15/83/108 16/84/110 19/90/108
f 20/88/111 19/90/112 16/84/111
f 16/84/111 24/85/113 20/88/111
f 21/87/114 20/88/115 24/85/114
f 24/85/114 14/1/116 21/87/114
f 22/86/96 21/87/97 14/1/117
f 14/1/117 13/2/118 22/86/96
f 17/89/104 22/86/120 13/2/119
f 13/2/119 23/82/103 17/89/104

v -84.149658203125 0 68.39013671875
v 84.149658203125 0 68.39013671875
v -84.149658203125 0 -71.85986328125
v 84.149658203125 0 -71.85986328125
v -84.149658203125 86.45158386230469 68.39013671875
v 84.149658203125 86.45158386230469 68.39013671875
v -84.149658203125 86.45158386230469 -71.85986328125
v 84.149658203125 86.45158386230469 -71.85986328125
# 8 vertices

vn 0 -1 0
vn 0 0 1
vn 0 0 -1
vn -0.71405273675919 0 0.70009195804596
vn -0.71405273675919 0 -0.70009195804596
vn 0 0 1
vn 0 0 -1
# 7 normals

vt 1 1 0
vt 1 0 0
vt 0 0 0
# 3 texture coordinates

o Box01
usemtl tank_2j
f 55/93/87 57/92/123 58/4/87
f 58/4/87 56/94/87 55/93/87
f 59/94/55 60/93/55 62/92/55
f 62/92/55 61/4/55 59/94/55
f 55/94/128 56/93/128 60/92/128
f 60/92/41 59/4/41 55/94/41
f 56/94/23 58/93/23 62/92/23
f 62/92/23 60/4/23 56/94/23
f 58/94/25 57/93/25 61/92/25
f 61/92/129 62/4/129 58/94/129
f 57/94/54 55/93/54 59/92/54
f 59/92/54 61/4/54 57/94/54

v -49.499755859375 24.86785507202148 -131.25830078125
v 49.499755859375 24.86785507202148 -131.25830078125
v -49.499755859375 24.86785507202148 -165.75830078125
v 49.499755859375 24.86785507202148 -165.75830078125
v -49.499755859375 57.86783981323242 -131.25830078125
v 49.499755859375 57.86783981323242 -131.25830078125
v -49.499755859375 57.86783981323242 -165.75830078125
v 49.499755859375 57.86783981323242 -165.75830078125
# 8 vertices

vn 0 0 1
vn 0 0 -1
vn 0.67794418334961 0 0.73511338233948
vn 0.67794418334961 0 -0.73511338233948
# 4 normals

# 0 texture coordinate

o Box03
usemtl tank_2j
f 63/93/87 65/92/123 66/4/87
f 66/4/87 64/94/87 63/93/87
f 67/94/55 68/93/55 70/92/55
f 70/92/55 69/4/55 67/94/55
f 63/94/128 64/93/128 68/92/128
f 68/92/41 67/4/41 63/94/41
f 64/94/23 66/93/23 70/92/23
f 70/92/23 68/4/23 64/94/23
f 66/94/25 65/93/25 69/92/25
f 69/92/129 70/4/129 66/94/129
f 65/94/54 63/93/54 67/92/54
f 67/92/54 69/4/54 65/94/54

v -49.4998779296875 0 110.46484375
v 42.0745849609375 0 110.46484375
v -49.4998779296875 0 -131.2587890625
v 42.0745849609375 0 -131.2587890625
v -49.4998779296875 57.86783981323242 110.46484375
v 42.0745849609375 57.86783981323242 110.46484375
v -49.4998779296875 57.86783981323242 -131.2587890625
v 42.0745849609375 57.86783981323242 -131.2587890625
# 8 vertices

vn 0 0 1
vn 0 0 -1
vn 0.73564529418945 0 0.6773669719696
vn 0.73564529418945 0 -0.6773669719696
# 4 normals

# 0 texture coordinate

o Box02
usemtl tank_2j
f 71/93/87 73/92/123 74/4/87
f 74/4/87 72/94/87 71/93/87
f 75/94/55 76/93/55 78/92/55
f 78/92/55 77/4/55 75/94/55
f 71/94/128 72/93/128 76/92/128
f 76/92/41 75/4/41 71/94/41
f 72/94/23 74/93/23 78/92/23
f 78/92/23 76/4/23 72/94/23
f 74/94/25 73/93/25 77/92/25
f 77/92/129 78/4/129 74/94/129
f 73/94/54 71/93/54 75/92/54
f 75/92/54 77/4/54 73/94/54

v 48.43365478515625 89.16436767578125 87.49580383300781
v 63.72686767578125 89.16436767578125 87.49580383300781
v 48.43365478515625 89.16436767578125 73.41719055175781
v 63.72686767578125 89.16436767578125 73.41719055175781
v 48.43365478515625 81.34656524658203 87.49580383300781
v 63.72686767578125 81.34656524658203 87.49580383300781
v 48.43365478515625 81.34656524658203 73.41719055175781
v 63.72686767578125 81.34656524658203 73.41719055175781
# 8 vertices

vn 0 0 1
vn 0 0 -1
vn 0 -1 0
vn 0.71389430761337 0 0.7002534866333
vn 0.71389430761337 0 -0.7002534866333
vn 1 0 0
vn -1 0 0
# 7 normals

# 0 texture coordinate

o fmnt
usemtl Default
f 81/4/55 79/94/55 82/92/55
f 80/93/55 82/92/55 79/94/55
f 84/94/140 83/93/87 86/4/87
f 85/92/87 86/4/87 83/93/87
f 80/93/41 79/94/41 84/92/41
f 83/4/41 84/92/41 79/94/41
f 82/93/143 80/94/143 86/92/143
f 84/4/23 86/92/23 80/94/23
f 81/93/25 82/94/25 85/92/25
f 86/4/25 85/92/25 82/94/25
f 79/93/54 81/94/54 83/92/54
f 85/4/144 83/92/144 81/94/144

v -7.64697265625 51.91935348510742 -405.90658569335938
v 7.646240234375 51.91935348510742 -405.90658569335938
v -7.64697265625 51.91935348510742 -419.98519897460938
v 7.646240234375 51.91935348510742 -419.98519897460938
v -7.64697265625 44.1015510559082 -405.90658569335938
v 7.646240234375 44.1015510559082 -405.90658569335938
v -7.64697265625 44.1015510559082 -419.98519897460938
v 7.646240234375 44.1015510559082 -419.98519897460938
# 8 vertices

vn 0 1 0
vn 0 1 0
vn 0 1 0
vn 0 1 0
vn 0 1 0
vn 0 1 0
# 6 normals

# 0 texture coordinate

o muzzle01
usemtl Default
f 89/4/55 87/94/55 90/92/55
f 88/93/55 90/92/55 87/94/55
f 92/94/140 91/93/87 94/4/87
f 93/92/87 94/4/87 91/93/87
f 88/93/41 87/94/41 92/92/41
f 91/4/41 92/92/41 87/94/41
f 90/93/143 88/94/143 94/92/143
f 92/4/23 94/92/23 88/94/23
f 89/93/25 90/94/25 93/92/25
f 94/4/25 93/92/25 90/94/25
f 87/93/54 89/94/54 91/92/54
f 93/4/144 91/92/144 89/94/144

