# WaveFront *.obj file (generated by Cinema 4D)

v 99 117.59529113769531 295.47216796875
v 99 73.5 -305.25
v 99 165 74.25
v 165 58.5 -305.25
v 99 45.47507858276367 -297.2001953125
v 165 73.5 -305.25
v 96.639404296875 105.5 305.25
v 89 164.99998474121094 -110.5498046875
v 99 49.50000381469727 305.25
v -99 117.59531402587891 295.47216796875
v -165 58.49997711181641 -305.25
v -165 49.50002670288086 305.25
v -165 131.99998474121094 -156.75
v -165 72.50001525878906 305.25
v -165 73.49997711181641 -305.25
v -96.639404296875 105.50002288818359 305.25
v -89 164.99996948242188 -110.55029296875
v -99 132 74.25
v 99 58.5 -305.25
v 165 0 -206.25
v 99 0 222.75
v 165 45.47507858276367 -297.2001953125
v -99 73.49997711181641 -305.25
v -165 -0.0000180309471 -206.25
v -99 0.00001947342389 222.75
v -99 85.34602355957031 -296.7119140625
v 99 132 -156.75
v 165 85.34605407714844 -296.7119140625
v 165 132 74.25
v 165 84.59528350830078 295.47216796875
v 165 72.49999237060547 305.25
v 165 49.5 305.25
v 99 132 74.25
v 99 85.34604644775391 -296.7119140625
v 99 49.5 -262.25
v -99 49.50003051757812 305.25
v 89 165 74.25
v -165 84.59530639648438 295.47216796875
v -165 85.34602355957031 -296.7119140625
v -165 132 74.25
v -99 49.49997711181641 -262.25
v -99 132 -156.75
v -99 159.18760681152344 -118.6875
v 99 57.94815063476562 -262.25
v -99 57.94812774658203 -262.25
v -99 165 74.25
v -89 165 74.25
v 99 0 -206.25
v 165 0 222.75
v 165 132 -156.75
v 99 159.18760681152344 74.25
v -99 58.49997711181641 -305.25
v -99 -0.0000180309471 -206.25
v -99 45.47505187988281 -297.2001953125
v -165 45.47505187988281 -297.2001953125
v 99 159.18760681152344 -118.6875
v -99 159.18760681152344 74.25
v -165 0.00001947342389 222.75
# 58 vertices

vn 0.1958704739809 0.87423819303513 0.4442323744297
vn 0.22541077435017 0.95263755321503 0.20413643121719
vn 0.43921914696693 0.87843811511993 0.18823657929897
vn 0 0.70710676908493 -0.70710676908493
vn 0.43921920657158 0.87843811511993 0.18823659420013
vn 0 -0.69431155920029 0.71967452764511
vn 0 0 1
vn 0 0 1
vn -0.15351939201355 0.31229931116104 0.9374971985817
vn 0.57735025882721 0.57735025882721 -0.57735025882721
vn 0.15351936221123 0.3122992515564 0.9374971985817
vn 0 0 1
vn 0.06237828731537 0.9980525970459 0
vn 0.04888625442982 0.32419326901436 0.94472688436508
vn -1 0 -0.00000000000001
vn -0.0733679458499 0.31926503777504 0.94482111930847
vn -0.57735025882721 -0.57735025882721 0.57735025882721
vn 0 0 -1
vn 0 -0.70710676908493 0.70710676908493
vn -0.00000005072797 0.97699451446533 -0.21326446533203
vn 0 0.98708748817444 -0.16018216311932
vn 0 1 0
vn 0 1 0
vn -0.00000015043842 0.94868332147598 -0.31622764468193
vn -0.00000007521921 0.94868332147598 -0.31622761487961
vn 0.57735061645508 0.57735008001328 -0.57735008001328
vn -1 0 0
vn 0 0.20363093912601 -0.97904771566391
vn 0 -0.27326548099518 -0.96193867921829
vn 0 0.30720975995064 -0.95164185762405
vn 1 0 0
vn -0.00002048513852 0.71725505590439 -0.69681072235107
vn 0 0 -1
vn -0.57902371883392 -0.57398873567581 0.57902371883392
vn -0.00000000023283 1 0
vn 1 0 0
vn 0 0 -1
vn 0 0 1
vn 0 -0.89442723989487 -0.4472134411335
vn -0.06191127747297 0 0.99808168411255
vn -0.70710676908493 -0.70710676908493 0
vn -0.00000003844791 -0.85749292373657 0.51449579000473
vn 0 -0.85749292373657 0.51449573040009
vn 0 0 1
vn 0 -0.12111474573612 0.99263852834702
vn 1 0 0
vn 0 -1 0
vn -0.69640183448792 -0.69640183448792 0.17334645986557
vn 0 -1 0
vn -0.19647708535194 0.82976937294006 0.52237874269485
vn -0.22541074454784 0.95263755321503 0.20413634181023
vn -0.14851647615433 0.98453783988953 0.0928875207901
vn 0 -0.70710676908493 0.70710676908493
vn 0 -0.60770642757416 0.79416179656982
vn 0.20896406471729 0.97403419017792 0.08712901175022
vn 0.00005902295743 0.00005902271005 -1
vn -0.00000006759036 0.58470749855042 -0.81124418973923
vn 0 0.58470726013184 -0.81124436855316
vn 0 -0.52572923898697 -0.85065197944641
vn 0 -0.68957656621933 0.72421282529831
vn 0.29986944794655 0.59973877668381 0.74188387393951
vn 0.00769716594368 0 0.99997037649155
vn 0 -0.70087713003159 0.71328204870224
vn 0.13373112678528 0.97887164354324 -0.15468133985996
vn -0.18035052716732 0.96122699975967 -0.2086057215929
vn 0 -0.6653705239296 0.74651324748993
vn 0.50251913070679 0.86456608772278 -0.00000003569332
vn 0 -0.65804094076157 0.7529821395874
vn 0.50251960754395 0.86456578969955 0
vn -1 0 0
vn -1 0 0
vn 0 -0.51994693279266 0.85419857501984
vn -0.00000013486303 -1 0.00000000672193
vn 0 1 0
vn 0.00000011559689 -1 0.00000009410707
vn -0.70710676908493 -0.70710676908493 0
vn 0 0 -1
vn -0.43921914696693 0.87843811511993 0.18823650479317
vn -0.43921911716461 0.87843817472458 0.18823650479317
vn 0 0 1
vn -0.57734942436218 -0.57735067605972 0.57735067605972
vn -0.70710676908493 -0.70710676908493 0
vn 0 0 -1
vn -1 0 0
vn -0.00000023119378 1 -0.00000006605536
vn -0.00000022820848 0.98708742856979 -0.16018223762512
vn -0.00000015191691 0.97699451446533 -0.213264554739
vn 0.21821708977222 0.8728683590889 0.43644252419472
vn -0.00000010966484 0.94868332147598 -0.3162277340889
vn 0 0.94868332147598 -0.31622779369354
vn -1 0 -0.00000000000001
vn 1 0 0
vn 0 0.20363104343414 -0.97904771566391
vn 0 0.30720987915993 -0.95164179801941
vn 0 -0.27326542139053 -0.96193867921829
vn -1 0 0
vn -1 0 0
vn 1 0.0000000140104 -0.0000000140104
vn -0.57734948396683 -0.57735067605972 0.57735067605972
vn 0 -0.89442729949951 -0.44721338152885
vn 0 -0.85749286413193 0.51449584960938
vn 0.00000004956175 -0.85749286413193 0.51449584960938
vn 0 0 1
vn -0.70710676908493 -0.70710676908493 0
vn 0 -1 0.00000008742278
vn 0 0.58470755815506 -0.81124418973923
vn 1 0.00000000000083 -0.00000000000083
vn 0 -0.52572911977768 -0.85065203905106
vn 1 0 0.00000002621407
vn 0.52823263406754 0 0.84909969568253
vn 0.53364688158035 0 0.84570741653442
vn -0.29986950755119 0.59973883628845 0.74188381433487
vn 0.4947447180748 0 0.86903834342957
vn -0.50251960754395 0.86456578969955 0
vn -0.50251859426498 0.864566385746 -0.00000007138649
vn 0.49474468827248 0 0.86903840303421
vn 0.48698633909225 0 0.87340956926346
vn 0.48698630928993 0 0.8734096288681
vn 0.46166071295738 -0.29733979701996 0.83573824167252
vn -0.08393255621195 0 0.99647146463394
vn 0.53327220678329 0 0.84594368934631
vn 0.00000152468601 0.81372916698456 -0.58124417066574
vn 0 0 0
vn 0 0.8137458562851 -0.58122086524963
vn 0 0.81373238563538 -0.58123970031738
vn 0 0.81849551200867 -0.57451289892197
vn -0.00000009461553 0.81849545240402 -0.57451301813126
# 127 normals

vt 0.27736580371857 0.41342055797577 0
vt 0.27740323543549 0.61872279644012 0
vt 0.34407842159271 0.61851739883423 0
vt 0 1 0
vt 0.34400367736816 0.41321432590485 0
vt 0.09731650352478 0.3442040681839 0
vt 0.03719664365053 0.3442040681839 0
vt 0.03719664365053 0.36515486240387 0
vt 0.33779561519623 0.36515474319458 0
vt 0.33779561519623 0.34420394897461 0
vt 0.2776757478714 0.34420394897461 0
vt 0.27552533149719 0.39521467685699 0
vt 0.0994668006897 0.39521467685699 0
vt 0.376096367836 0.37842154502869 0
vt 0.40076750516891 0.37842154502869 0
vt 0.40076750516891 0.31853044033051 0
vt 0.37082195281982 0.37842154502869 0
vt 0.61038637161255 0.37842166423798 0
vt 0.61038637161255 0.31853044033051 0
vt 0.73739349842072 0.37842166423798 0
vt 0.73739349842072 0.31853055953979 0
vt 0.61038553714752 0.01686024665833 0
vt 0.70612108707428 0.08405721187592 0
vt 0.73739302158356 0.05919516086578 0
vt 0.7653397321701 0.13775515556335 0
vt 0.75172960758209 0.13775432109833 0
vt 0.75173139572144 0.19764626026154 0
vt 0.76534152030945 0.19764673709869 0
vt 0.73739349842072 0.27619481086731 0
vt 0.74514138698578 0.26544523239136 0
vt 0.74514138698578 0.25183355808258 0
vt 0.73783671855927 0.2400141954422 0
vt 0.65530478954315 0.19874823093414 0
vt 0.26601254940033 0.19874823093414 0
vt 0.20002162456512 0.27551341056824 0
vt 0.19114863872528 0.26453769207001 0
vt 0.19114863872528 0.24366664886475 0
vt 0.73783671855927 0.13775408267975 0
vt 0.65530478954315 0.13775336742401 0
vt 0.65530478954315 0.19764518737793 0
vt 0.73783671855927 0.19764518737793 0
vt 0.26601260900497 0.13775479793549 0
vt 0.19114863872528 0.13775408267975 0
vt 0.19114863872528 0.19764518737793 0
vt 0.26601254940033 0.19764518737793 0
vt 0.1911484003067 0.09172713756561 0
vt 0.26601260900497 0.13664424419403 0
vt 0.65530478954315 0.13664281368256 0
vt 0.70612108707428 0.09172356128693 0
vt 0.09762644767761 0.41342055797577 0
vt 0.09758901596069 0.61872285604477 0
vt 0.10668182373047 0.61872237920761 0
vt 0.26831030845642 0.61872237920761 0
vt 0.77858984470367 0.19764697551727 0
vt 0.77859032154083 0.13775646686554 0
vt 0.33790338039398 0.3826699256897 0
vt 0.26831030845642 0.78641748428345 0
vt 0.10668182373047 0.78641766309738 0
vt 0.27924704551697 0.79394656419754 0
vt 0.30398678779602 0.8287205696106 0
vt 0.3039915561676 0.61871528625488 0
vt 0.27924239635468 0.61860805749893 0
vt 0.73783624172211 0.0953756570816 0
vt 0.74514091014862 0.08355617523193 0
vt 0.74514091014862 0.06994450092316 0
vt 0.88788866996765 0.4265683889389 0
vt 0.70821535587311 0.4265683889389 0
vt 0.70821523666382 0.94154107570648 0
vt 0.88788890838623 0.94154107570648 0
vt 0.37082195281982 0.38749599456787 0
vt 0.03098869696259 0.41321432590485 0
vt 0.03091383352876 0.61851757764816 0
vt 0.40076744556427 0.31853044033051 0
vt 0.40076744556427 0.3784214258194 0
vt 0.376096367836 0.3784214258194 0
vt 0.37082207202911 0.3784214258194 0
vt 0.61038649082184 0.37842166423798 0
vt 0.61038649082184 0.31853044033051 0
vt 0.73739349842072 0.31853044033051 0
vt 0.70612108707428 0.08405709266663 0
vt 0.73739302158356 0.05919504165649 0
vt 0.76534140110016 0.1976466178894 0
vt 0.75173151493073 0.19764614105225 0
vt 0.75172960758209 0.13775420188904 0
vt 0.19114863872528 0.24366652965546 0
vt 0.26601254940033 0.19874799251556 0
vt 0.20002162456512 0.27551329135895 0
vt 0.74514138698578 0.251833319664 0
vt 0.74514138698578 0.26544511318207 0
vt 0.73739349842072 0.27619469165802 0
vt 0.73783671855927 0.24001395702362 0
vt 0.65530478954315 0.19874799251556 0
vt 0.73783671855927 0.13775396347046 0
vt 0.73783671855927 0.19764494895935 0
vt 0.65530478954315 0.19764494895935 0
vt 0.65530478954315 0.13775324821472 0
vt 0.26601254940033 0.1377546787262 0
vt 0.26601254940033 0.19764494895935 0
vt 0.19114863872528 0.19764494895935 0
vt 0.19114863872528 0.13775396347046 0
vt 0.1911484003067 0.09172701835632 0
vt 0.70612108707428 0.09172344207764 0
vt 0.65530478954315 0.13664269447327 0
vt 0.26601254940033 0.13664412498474 0
vt 0.77858984470367 0.19764685630798 0
vt 0.77859032154083 0.13775634765625 0
vt 0.03708887845278 0.38267004489899 0
vt 0.09574508666992 0.79394668340683 0
vt 0.0957498550415 0.61860817670822 0
vt 0.07100057601929 0.61871546506882 0
vt 0.07100534439087 0.82872074842453 0
vt 0.74514091014862 0.08355593681335 0
vt 0.73783624172211 0.09537553787231 0
vt 0.74514091014862 0.06994438171387 0
vt 0.09760761260986 0.79549187421799 0
vt 0.27738475799561 0.79549181461334 0
vt 0.27738475799561 0.83793711662292 0
vt 0.09760761260986 0.83793705701828 0
vt 0.2773848772049 0.95490109920502 0
vt 0.09760737419128 0.95490115880966 0
vt 0.2773848772049 0.96256721019745 0
vt 0.09760737419128 0.96256726980209 0
vt 0.37082207202911 0.38749587535858 0
# 123 texture coordinates

o hull
usemtl 24 - Default
f 29/3/3 3/2/2 1/1/1
f 1/1/1 30/5/5 29/3/3
f 14/8/9 12/7/8 36/6/7
f 9/11/7 32/10/12 31/9/11
f 9/11/7 31/9/11 7/12/14
f 36/6/7 9/11/7 7/12/14
f 36/6/7 7/12/14 16/13/16
f 14/8/9 36/6/7 16/13/16
f 29/16/18 33/15/18 51/14/18
f 51/14/18 3/17/18 29/16/18
f 29/16/22 50/19/21 27/18/20
f 27/18/23 33/15/23 29/16/23
f 28/21/25 34/20/24 27/18/20
f 27/18/20 50/19/21 28/21/25
f 34/24/27 44/23/27 27/22/27
f 4/31/31 6/30/31 28/29/31
f 22/32/31 4/31/31 28/29/31
f 20/33/31 22/32/31 28/29/31
f 50/19/31 29/16/31 20/33/31
f 20/33/31 28/29/31 50/19/31
f 49/34/31 20/33/31 29/16/31
f 49/34/36 29/16/36 30/35/36
f 49/34/36 30/35/36 31/36/36
f 49/34/36 31/36/36 32/37/36
f 48/48/27 21/47/27 9/46/27
f 9/46/27 35/49/27 48/48/27
f 47/52/52 46/51/51 10/50/50
f 47/52/52 10/50/50 1/1/1
f 1/1/1 3/2/2 37/53/55
f 47/52/52 1/1/1 37/53/55
f 31/9/11 30/56/61 1/1/1
f 1/1/1 7/12/14 31/9/11
f 7/12/14 1/1/1 10/50/50
f 10/50/50 16/13/16 7/12/14
f 47/52/52 37/53/55 8/57/64
f 8/57/64 17/58/65 47/52/52
f 33/61/31 27/60/31 56/59/31
f 56/59/31 51/62/31 33/61/31
f 56/59/67 8/57/64 37/53/55
f 37/53/55 51/62/69 56/59/67
f 19/64/27 5/63/27 35/49/27
f 19/64/27 35/49/27 44/23/27
f 44/23/70 34/24/70 2/65/70
f 19/64/71 44/23/71 2/65/71
f 35/68/73 9/67/73 36/66/73
f 36/66/75 41/69/75 35/68/75
f 5/63/71 48/48/71 35/49/71
f 3/17/77 51/14/77 37/70/77
f 40/72/79 38/71/78 10/50/50
f 10/50/50 46/51/51 40/72/79
f 57/75/18 18/74/18 40/73/18
f 40/73/83 46/76/83 57/75/83
f 40/73/23 18/74/23 42/77/23
f 42/77/87 13/78/86 40/73/85
f 39/79/89 13/78/86 42/77/87
f 42/77/87 26/20/90 39/79/89
f 26/81/92 42/22/92 45/80/92
f 58/86/27 12/85/27 14/36/27
f 58/86/71 14/36/71 38/87/71
f 58/86/27 38/87/27 40/73/27
f 39/90/27 15/89/27 11/88/27
f 39/90/27 11/88/27 55/91/27
f 39/90/27 55/91/27 24/92/27
f 24/92/27 40/73/97 13/78/27
f 13/78/27 39/90/27 24/92/27
f 58/86/27 40/73/27 24/92/27
f 53/103/31 41/102/31 36/101/31
f 36/101/31 25/104/31 53/103/31
f 14/8/9 16/13/16 10/50/50
f 10/50/50 38/107/112 14/8/9
f 18/110/70 57/109/70 43/108/70
f 43/108/27 42/111/27 18/110/27
f 43/108/115 57/109/114 47/52/52
f 47/52/52 17/58/65 43/108/115
f 41/102/31 54/113/31 52/112/31
f 45/80/31 41/102/31 52/112/31
f 45/80/31 52/112/31 23/114/31
f 45/80/31 23/114/31 26/81/31
f 43/115/122 17/58/65 8/57/64
f 43/115/124 8/57/124 56/116/124
f 43/115/125 56/116/125 27/117/125
f 42/118/125 43/115/125 27/117/125
f 42/118/126 27/117/126 44/119/126
f 45/120/127 42/118/127 44/119/127
f 45/120/83 44/119/83 35/121/83
f 35/121/18 41/122/18 45/120/18
f 54/113/31 41/102/31 53/103/31
f 46/76/18 47/123/18 57/75/18

usemtl tracks
f 4/27/29 19/26/29 2/25/28
f 2/25/28 6/28/30 4/27/29
f 20/40/39 48/39/39 5/38/39
f 5/38/39 22/41/39 20/40/39
f 32/44/42 9/43/42 21/42/42
f 21/42/43 49/45/43 32/44/43
f 21/42/47 48/39/47 20/40/47
f 20/40/49 49/45/49 21/42/49
f 2/25/57 34/55/57 28/54/57
f 28/54/58 6/28/30 2/25/28
f 5/38/59 19/26/29 4/27/29
f 4/27/29 22/41/59 5/38/59
f 11/83/95 15/82/94 23/25/93
f 23/25/93 52/84/95 11/83/95
f 24/95/100 55/94/100 54/93/100
f 54/93/100 53/96/100 24/95/100
f 12/99/101 58/98/101 25/97/101
f 25/97/102 36/100/102 12/99/102
f 25/97/105 58/98/105 24/95/105
f 24/95/105 53/96/105 25/97/105
f 23/25/93 15/82/94 39/105/106
f 39/105/106 26/106/106 23/25/106
f 54/93/108 55/94/108 11/83/95
f 11/83/95 52/84/95 54/93/108

v -16.5 165 0
v 16.5 165 0
v -16.5 165 -33
v 16.5 165 -33
v -16.5 198 0
v 16.5 198 0
v -16.5 198 -33
v 16.5 198 -33
# 8 vertices

vn 0 -1 0
vn 0 1 0
vn 1 0 0
# 3 normals

vt 1 0 0
vt 0 0 0
vt 1 1 0
# 3 texture coordinates

o mount
usemtl Default
f 62/4/49 60/125/49 59/124/49
f 59/124/49 61/126/47 62/4/49
f 66/126/23 65/4/23 63/125/23
f 63/125/23 64/124/23 66/126/23
f 59/125/12 60/124/12 64/126/12
f 64/126/7 63/4/7 59/125/7
f 66/126/31 64/4/31 60/125/31
f 60/125/31 62/124/31 66/126/31
f 62/125/18 61/124/18 65/126/18
f 65/126/83 66/4/83 62/125/83
f 61/125/27 59/124/27 63/126/27
f 63/126/27 65/4/27 61/125/27

