v 55.15164947509766 61.19035339355469 73.53806304931641
v 47.70420074462891 71.92070770263672 -88.65746307373047
v 46.93308639526367 30.42925834655762 -195.27299499511719
v 55.5438232421875 0.01010704040527 -79.91574096679688
v 21.77506828308105 47.74816513061523 -200.99794006347656
v 43.43902206420898 43.42658233642578 -186.72561645507812
v 31.26952743530273 71.90824890136719 -88.65131378173828
v 75.06667327880859 20.57475662231445 -100.01406860351562
v 96.02197265625 20.43782424926758 -1.89315795898438
v 55.2822265625 20.59908676147461 100.07699584960938
v 70.20148468017578 83.33683776855469 -1.75468134880066
v 33.30164337158203 20.45515251159668 -100.00473022460938
v 21.5201473236084 32.19459533691406 -212.89256286621094
v 71.2291259765625 0.01010704040527 -1.79754638671875
v 38.6878662109375 0.01010894775391 68.2010498046875
v 43.004150390625 67.1724853515625 78.83111572265625
v 58.46813201904297 64.59642791748047 -90.28115844726562
v 37.33742523193359 31.5283088684082 -206.07290649414062
v 32.49452209472656 49.0030403137207 -195.20254516601562
v 65.72783660888672 20.58703994750977 92.45998382568359
v 59.1634521484375 90.73751831054688 -1.73838818073273
v 49.33468246459961 0.01010874193162 60.65158843994141
v -55.15164947509766 61.19036102294922 73.53805541992188
v -47.70420074462891 71.92070007324219 -88.657470703125
v -46.93308639526367 30.42924118041992 -195.27299499511719
v -55.5438232421875 0.01010005362332 -79.91574096679688
v -21.77506828308105 47.74814605712891 -200.99794006347656
v -43.43902206420898 43.42656707763672 -186.72561645507812
v -31.26952743530273 71.90824127197266 -88.65132141113281
v -75.06667327880859 20.57474708557129 -100.01406860351562
v -96.02197265625 20.43782424926758 -1.89315974712372
v -55.2822265625 20.59909629821777 100.07699584960938
v -70.20148468017578 83.33683776855469 -1.75468862056732
v -33.30164337158203 20.45514297485352 -100.00473022460938
v -21.5201473236084 32.19457626342773 -212.89256286621094
v -71.2291259765625 0.01010688301176 -1.79754638671875
v -38.6878662109375 0.01011491008103 68.2010498046875
v -43.004150390625 67.17249298095703 78.83110809326172
v -58.46813201904297 64.59642028808594 -90.28116607666016
v -37.33742523193359 31.52829170227051 -206.07290649414062
v -32.49452209472656 49.00302505493164 -195.20254516601562
v -65.72783660888672 20.5870475769043 92.45998382568359
v -59.1634521484375 90.73751831054688 -1.73839616775513
v -49.33468246459961 0.01011404395103 60.65158843994141
# 44 vertices

vt 0.53343617916107 0.21935510635376 0
vt 0.53342199325562 0.0884735584259 0
vt 0.34403514862061 0.11127686500549 0
vt 0 1 0
vt 0.38220459222794 0.19123244285583 0
vt 0.70726597309113 0.19419813156128 0
vt 0.72596120834351 0.10362792015076 0
vt 0.97228860855103 0.15826332569122 0
vt 0.94723510742188 0.13327395915985 0
vt 0.92552351951599 0.16806054115295 0
vt 0.94451701641083 0.18417179584503 0
vt 0.72333836555481 0.24979996681213 0
vt 0.71182954311371 0.21950483322144 0
vt 0.90422010421753 0.14846241474152 0
vt 0.92128038406372 0.12262666225433 0
vt 0.98029184341431 0.20015168190002 0
vt 0.79227423667908 0.32966732978821 0
vt 0.83235895633698 0.40299141407013 0
vt 0.97356331348419 0.26175975799561 0
vt 0.98342621326447 0.23449957370758 0
vt 0.74918174743652 0.30480432510376 0
vt 0.69363570213318 0.2670111656189 0
vt 0.69368350505829 0.34777081012726 0
vt 0.54791343212128 0.02835583686829 0
vt 0.70070910453796 0.04167401790619 0
vt 0.51164972782135 0.03059482574463 0
vt 0.38488256931305 0.04312241077423 0
vt 0.15839046239853 0.69427824020386 0
vt 0.03388839960098 0.73792719841003 0
vt 0.01883725821972 0.75915318727493 0
vt 0.31413060426712 0.94701820611954 0
vt 0.31413060426712 0.72555041313171 0
vt 0.01883728802204 0.91341543197632 0
vt 0.15839043259621 0.97829043865204 0
vt 0.03388841450214 0.93464136123657 0
vt 0.1585276722908 0.519082903862 0
vt 0.25751197338104 0.49534571170807 0
vt 0.25751221179962 0.32907664775848 0
vt 0.15852800011635 0.30533957481384 0
vt 0.32101505994797 0.1207287311554 0
vt 0.36556559801102 0.21345734596252 0
vt 0.54242467880249 0.2425400018692 0
vt 0.36192053556442 0.03292667865753 0
vt 0.32117205858231 0.10145044326782 0
vt 0.52719509601593 0.24328374862671 0
vt 0.0851518958807 0.33742868900299 0
vt 0.08515168726444 0.48699367046356 0
vt 0.53052854537964 0.61915332078934 0
vt 0.37929701805115 0.64727711677551 0
vt 0.34112823009491 0.72723293304443 0
vt 0.5305153131485 0.75003486871719 0
vt 0.70435857772827 0.64430904388428 0
vt 0.7230544090271 0.73487913608551 0
vt 0.96938133239746 0.68024206161499 0
vt 0.94160938262939 0.65433382987976 0
vt 0.92261624336243 0.67044508457184 0
vt 0.94432806968689 0.7052316069603 0
vt 0.72043037414551 0.58870708942413 0
vt 0.70892190933228 0.61900234222412 0
vt 0.91837334632874 0.71587908267975 0
vt 0.90131306648254 0.69004344940186 0
vt 0.97738432884216 0.63835352659225 0
vt 0.98051857948303 0.60400575399399 0
vt 0.97065544128418 0.5767457485199 0
vt 0.82945013046265 0.43551504611969 0
vt 0.78936576843262 0.5088392496109 0
vt 0.69363582134247 0.55741137266159 0
vt 0.7491819858551 0.51961821317673 0
vt 0.69368374347687 0.47665154933929 0
vt 0.54500710964203 0.81015247106552 0
vt 0.69780278205872 0.7968333363533 0
vt 0.38197600841522 0.79538720846176 0
vt 0.5087434053421 0.80791395902634 0
vt 0.59179675579071 0.35173726081848 0
vt 0.591796875 0.31995511054993 0
vt 0.41982966661453 0.29781854152679 0
vt 0.41982960700989 0.52660381793976 0
vt 0.591796875 0.47268521785736 0
vt 0.59179699420929 0.50446712970734 0
vt 0.31810820102692 0.71778118610382 0
vt 0.36265784502029 0.62505233287811 0
vt 0.53951680660248 0.59596830606461 0
vt 0.35901385545731 0.80558300018311 0
vt 0.31826519966125 0.7370593547821 0
vt 0.52428734302521 0.59522467851639 0
# 85 texture coordinates

o turret
usemtl nowide_tex
f 20/3 9/2 11/1
f 11/1 1/5 20/3
f 9/2 8/7 17/6
f 17/6 11/1 9/2
f 19/10 18/9 13/8
f 13/8 5/11 19/10
f 19/10 5/11 7/12
f 7/12 2/13 19/10
f 6/14 17/6 8/7
f 8/7 3/15 6/14
f 8/18 12/17 13/16
f 13/16 18/20 3/19
f 8/18 13/16 3/19
f 7/12 5/11 13/16
f 13/16 12/17 7/12
f 12/23 8/22 4/21
f 8/7 9/2 14/24
f 14/24 4/25 8/7
f 22/27 14/26 9/2
f 9/2 20/3 22/27
f 37/30 44/29 36/28
f 36/28 26/32 4/31
f 37/30 36/28 4/31
f 15/33 37/30 4/31
f 15/33 4/31 14/34
f 22/35 15/33 14/34
f 16/38 38/37 32/36
f 32/36 10/39 16/38
f 1/5 16/41 10/40
f 10/40 20/3 1/5
f 17/6 2/13 21/42
f 21/42 11/1 17/6
f 2/13 17/6 6/14
f 6/14 19/10 2/13
f 3/15 18/9 19/10
f 19/10 6/14 3/15
f 20/3 10/44 15/43
f 15/43 22/27 20/3
f 16/41 1/5 11/1
f 11/1 21/45 16/41
f 15/46 10/39 32/36
f 32/36 37/47 15/46
f 42/50 23/49 33/48
f 33/48 31/51 42/50
f 31/51 33/48 39/52
f 39/52 30/53 31/51
f 41/56 27/55 35/54
f 35/54 40/57 41/56
f 41/56 24/59 29/58
f 29/58 27/55 41/56
f 28/61 25/60 30/53
f 30/53 39/52 28/61
f 25/64 40/63 35/62
f 30/65 25/64 35/62
f 30/65 35/62 34/66
f 29/58 34/66 35/62
f 35/62 27/55 29/58
f 34/69 26/68 30/67
f 34/69 12/23 4/21
f 4/21 26/68 34/69
f 30/53 26/71 36/70
f 36/70 31/51 30/53
f 44/72 42/50 31/51
f 31/51 36/73 44/72
f 21/76 2/75 7/74
f 43/77 21/76 7/74
f 43/77 7/74 29/78
f 43/77 29/78 24/79
f 23/49 42/50 32/80
f 32/80 38/81 23/49
f 39/52 33/48 43/82
f 43/82 24/59 39/52
f 24/59 41/56 28/61
f 28/61 39/52 24/59
f 25/60 28/61 41/56
f 41/56 40/57 25/60
f 42/50 44/72 37/83
f 37/83 32/84 42/50
f 38/81 43/85 33/48
f 33/48 23/49 38/81
f 21/76 43/77 38/37
f 38/37 16/38 21/76
f 12/23 34/69 29/78
f 29/78 7/74 12/23

v 50.69483947753906 83.75121307373047 61.776123046875
v 65.98805236816406 83.75121307373047 61.776123046875
v 50.69483947753906 83.75121307373047 47.69744873046875
v 65.98805236816406 83.75121307373047 47.69744873046875
v 50.69483947753906 75.93341064453125 61.776123046875
v 65.98805236816406 75.93341064453125 61.776123046875
v 50.69483947753906 75.93341064453125 47.69744873046875
v 65.98805236816406 75.93341064453125 47.69744873046875
# 8 vertices

vn 0 1 0
vn 0 -1 0
vn 0 -1 0
vn 0 -1 0
vn 0 -1 0
vn 0 -1 0
vn 0 -1 0
vn 0 0 1
vn 0 0 0
vn 0 0 0
vn 1 0 0
vn 0 0 0
vn 1 0 0
vn 0 0 0
vn 0 0 -1
vn 0 0 0
vn -1 0 0
vn -1 0 0
# 18 normals

vt 1 1 0
vt 0 0 0
vt 1 0 0
# 3 texture coordinates

o fmnt
usemtl nowide_tex
f 47/4/1 45/87/1 48/86/1
f 46/88/1 48/86/1 45/87/1
f 50/87/5 49/88/4 52/4/4
f 51/86/4 52/4/4 49/88/4
f 46/88/8 45/87/8 50/86/8
f 49/4/8 50/86/8 45/87/8
f 48/88/11 46/87/11 52/86/11
f 50/4/13 52/86/13 46/87/13
f 47/88/15 48/87/15 51/86/15
f 52/4/15 51/86/15 48/87/15
f 45/88/17 47/87/17 49/86/17
f 51/4/18 49/86/18 47/87/18

