# WaveFront *.obj file (generated by Cinema 4D)

v -88.15674591064453 109.10660552978516 311.00408935546875
v -120.48593139648438 162.86735534667969 -195.0858154296875
v -120.48593139648438 146.79396057128906 -217.58872985839844
v -163.38494873046875 162.86735534667969 -166.00613403320312
v -88.15674591064453 162.86735534667969 46.45361328125
v -59.45151138305664 81.43370056152344 311.00408935546875
v -163.38496398925781 162.86735534667969 -19.68062591552734
v -59.45152282714844 146.79396057128906 -217.58872985839844
v -184.90007019042969 146.79396057128906 -174.59524536132812
v -184.90007019042969 146.79396057128906 -19.68044853210449
v -59.45151138305664 48.86022567749023 311.00405883789062
v -184.90028381347656 48.86022567749023 311.00405883789062
v -59.45151138305664 48.86018371582031 -311.0042724609375
v -184.90028381347656 48.86018371582031 -311.0042724609375
v -184.90028381347656 81.43370056152344 311.00405883789062
v -59.45151138305664 81.43365478515625 -311.0042724609375
v -184.90028381347656 81.43365478515625 -311.0042724609375
v -59.45151138305664 0 229.57038879394531
v -184.90028381347656 0 229.57038879394531
v -184.90028381347656 146.79405212402344 -217.58869934082031
v -184.90028381347656 0 -193.884765625
v -59.45151138305664 0 -193.884765625
v -122.33840179443359 81.43370056152344 311.00408935546875
v -59.45151138305664 81.43370056152344 154.10398864746094
v -59.45151138305664 20.99661827087402 154.10401916503906
v -59.45151138305664 21.01842880249023 -178.27203369140625
v -59.45151138305664 117.52104949951172 -178.27200317382812
v 88.15673828125 109.10660552978516 311.00408935546875
v 120.48593139648438 162.86735534667969 -195.08578491210938
v 120.48593139648438 146.7939453125 -217.58869934082031
v 163.38491821289062 162.86735534667969 -166.006103515625
v 88.15673828125 162.86735534667969 46.45362091064453
v 59.45150375366211 81.43370056152344 311.00405883789062
v 163.38494873046875 162.86735534667969 -19.68061065673828
v 59.45152282714844 146.7939453125 -217.58869934082031
v 184.90005493164062 146.7939453125 -174.59521484375
v 184.90005493164062 146.7939453125 -19.68043327331543
v 59.45151138305664 48.86022186279297 311.00405883789062
v 184.90025329589844 48.86022186279297 311.00405883789062
v 59.45151138305664 48.86017990112305 -311.00424194335938
v 184.90025329589844 48.86017990112305 -311.00424194335938
v 184.90025329589844 81.43370056152344 311.00405883789062
v 59.45151138305664 81.43364715576172 -311.00424194335938
v 184.90025329589844 81.43364715576172 -311.00424194335938
v 59.45151138305664 0 229.57038879394531
v 184.90025329589844 0 229.57038879394531
v 184.90025329589844 146.79403686523438 -217.58866882324219
v 184.90025329589844 0 -193.88473510742188
v 59.45151138305664 0 -193.88473510742188
v 122.33839416503906 81.43370056152344 311.00405883789062
v 59.45150375366211 81.43370056152344 154.10398864746094
v 59.45150375366211 20.99661636352539 154.10401916503906
v 59.45150375366211 21.0184268951416 -178.27200317382812
v 59.45151138305664 117.52103424072266 -178.27198791503906
# 54 vertices

vn -0.59849905967712 0.8011234998703 -0.00000003120568
vn -0.59849888086319 0.80112361907959 0
vn -0.41789537668228 0.90849512815475 -0.00000002178902
vn 0 -0.63839226961136 0.76971119642258
vn -0.29054459929466 0.95201432704926 0.09619028866291
vn 0.57735025882721 0.57735025882721 -0.57735025882721
vn -0.36208513379097 0.76102554798126 -0.53826993703842
vn -0.35758313536644 0.76492804288864 -0.53574186563492
vn -0.1841933131218 0.80252236127853 -0.56747752428055
vn -0.12412575632334 0.80744254589081 -0.57674026489258
vn -0.57735025882721 -0.57735025882721 0.57735025882721
vn 0.00000001899378 0.98858469724655 -0.15066620707512
vn -0.03473964706063 0.9962186217308 0.07963422685862
vn 0 -0.54112714529037 0.84094077348709
vn -0.20241302251816 0.95385432243347 0.22179010510445
vn 0.00000006416485 -0.00000057647867 1
vn 0 -0.00000046844215 1
vn 0 0 1
vn 0 -0.85749280452728 0.51449596881866
vn 0 -0.93509232997894 0.35440421104431
vn -1 0 0
vn 0 -0.98417448997498 0.17720212042332
vn -1 0 0
vn -1 0.00000089987094 -0.0000001451405
vn 1 0.00000090920673 -0.00000090920673
vn 0 0 -1
vn 0 0.70710676908493 -0.70710676908493
vn 0 -1 0
vn 0 -1 0
vn 0.00000119821857 0.95377117395401 -0.30053380131721
vn 0.00000142131057 1 0.00000212945042
vn -1 0.0000000008058 0
vn 0.00000086434073 0.8193576335907 -0.57328271865845
vn 0 -0.92290788888931 -0.38502082228661
vn 0.57735025882721 0.57735025882721 -0.57735025882721
vn 1 0 0
vn 1 0 0
vn 0 -1 0
vn -1 0.00000080233895 0.00000496873599
vn -1 0 0
vn -1 0.00000145525769 0
vn 0 0.81935787200928 -0.57328236103058
vn 0 0 1
vn 0.0000000866249 0.81561827659607 -0.57859033346176
vn 0 0.81935793161392 -0.57328230142593
vn 0.57735055685043 0.57735013961792 -0.57735013961792
vn 0.00000095367432 1 0.00000000045214
vn 0 -0.00000093688436 1
vn 0.57735413312912 0.57734835147858 -0.57734835147858
vn -0.00032786981319 0.72377669811249 -0.69003421068192
vn -0.57757806777954 0.77312207221985 0.26207971572876
vn -0.60754960775375 0.75044721364975 0.26021608710289
vn 0 -0.00000093688431 1
vn -0.00000009261575 0.98102122545242 0.19390024244785
vn -1 0 0
vn -1 0.00000179974188 -0.00000029028101
vn -1 0 -0.00000000043517
vn 0.00000001511203 0.99278903007507 -0.11987461894751
vn 0.03474005311728 0.99219566583633 0.11975330859423
vn 0.00000095367432 1 -0.00000095385644
vn 1 0.00000028637157 -0.00000007785902
vn 0 -1 0
vn 0.00000006283302 -0.80209678411484 -0.59719407558441
vn 0 -0.4862879216671 0.87379860877991
vn -0.00000002094434 -0.80209684371948 -0.59719395637512
vn 0.59849917888641 0.80112344026566 -0.00000006212635
vn 0.29054471850395 0.95201426744461 0.09619028121233
vn 0.41789549589157 0.90849512815475 -0.00000004337905
vn 0.59849894046783 0.80112355947494 0
vn 0 -1 0
vn 0.36208543181419 0.76102530956268 -0.53827005624771
vn 0.18656162917614 0.79944866895676 -0.5710312128067
vn 0.24511352181435 0.79061013460159 -0.56111937761307
vn 0 0 1
vn 0.35758325457573 0.76492792367935 -0.53574192523956
vn 0.70710676908493 0.70710676908493 0
vn 0.27066087722778 0.93541496992111 0.22746761143208
vn 0 -0.00000055139816 1
vn 0.00000008555314 -0.00000082394217 1
vn 0.00000090937959 0.00000090937959 -1
vn 0 -0.85749286413193 0.51449590921402
vn 0 -0.98417448997498 0.17720210552216
vn 0 -0.93509232997894 0.35440418124199
vn 1 0.00000083559468 -0.00000013477337
vn -1 0 0
vn 0 0 -1
vn 0 0.00130642636213 0.99999916553497
vn -1 0 0
vn -0.0000012132208 0.95377117395401 -0.30053380131721
vn -0.00000142131114 1 0.00000212945088
vn -1 0 0
vn -0.00000089295725 0.8193576335907 -0.57328271865845
vn 0 -0.92290788888931 -0.38502079248428
vn 0.00135403929744 -0.70710611343384 0.70710611343384
vn -1 -0.00000036336306 0
vn 0.00000000032842 -0.65430444478989 0.75623124837875
vn -1 -0.00000036296831 -0.00000000002382
vn -0.70710676908493 -0.70710676908493 0
vn 1 0.00000074502913 0.00000461382615
vn 1 0.00000135131097 0
vn 0 0.81935787200928 -0.57328236103058
vn 0 0.81935793161392 -0.57328224182129
vn -1 0.00000007905904 -0.00000059509705
vn -1 0.00000000000005 0.00000010109662
vn -1 -0.00000023422106 0.00000014053269
vn -1 -0.00000009368842 0
vn 0 0 1
vn 0 0.81373518705368 -0.58123582601547
vn 0 0.70710676908493 -0.70710676908493
vn 0.60754978656769 0.75044709444046 0.26021608710289
vn 0 0 1
vn 0.57757824659348 0.77312195301056 0.26207971572876
vn 0 0.98102128505707 0.19390019774437
vn 0 0 1
vn 1 0.00000167118935 -0.00000026954675
vn 1 0 0
vn -1 0 0
vn -1 0.00000028637163 -0.00000007785903
vn 0.0000000732737 0.81373506784439 -0.58123594522476
vn 0.00000025987197 0.81373572349548 -0.58123499155045
vn 0.00000012832972 0.00000015811789 -1
vn 0.0000002566594 0.00000031623574 -1
vn -0.00000001603513 -1 -0.00006562005001
vn 0.00000000000002 0.00000050494788 1
vn 0 0.00000050494793 1
vn -0.00047599140089 -0.00000000045394 -0.99999988079071
vn -0.00000048779827 0 1
vn 1 0 0
vn 0 0 0
# 129 normals

vt 0.60237157344818 0.9557893872261 0
vt 0.75882744789124 0.95578944683075 0
vt 0.75015294551849 0.92870932817459 0
vt 0 1 0
vt 0.60237181186676 0.92870932817459 0
vt 0.76358139514923 0.95009076595306 0
vt 0.80744779109955 0.88538366556168 0
vt 0.77952003479004 0.88538348674774 0
vt 0.53557956218719 0.85273283720016 0
vt 0.26295274496078 0.85273277759552 0
vt 0.23500466346741 0.82374203205109 0
vt 0.23500466346741 0.88725459575653 0
vt 0.24683421850204 0.32961857318878 0
vt 0.24683409929276 0.2029219865799 0
vt 0.34250783920288 0.20292401313782 0
vt 0.34250831604004 0.32961869239807 0
vt 0.3425081372261 0.32961797714233 0
vt 0.77017545700073 0.32961797714233 0
vt 0.26026356220245 0.41185998916626 0
vt 0.26026374101639 0.37896251678467 0
vt 0.93113040924072 0.20292246341705 0
vt 0.93113040924072 0.32961905002594 0
vt 0.89823246002197 0.32961905002594 0
vt 0.89823269844055 0.20292246341705 0
vt 0.77017569541931 0.20292246341705 0
vt 0.77017545700073 0.32961857318878 0
vt 0.80744779109955 0.95043873786926 0
vt 0.92259299755096 0.95043975114822 0
vt 0.41872495412827 0.18171775341034 0
vt 0.75440764427185 0.18169438838959 0
vt 0.77017569541931 0.20292174816132 0
vt 0.34250771999359 0.20292329788208 0
vt 0.79411458969116 0.47787249088287 0
vt 0.75069344043732 0.47787225246429 0
vt 0.88845980167389 0.37896454334259 0
vt 0.8884596824646 0.41186225414276 0
vt 0.59423744678497 0.47787165641785 0
vt 0.92259299755096 0.82374292612076 0
vt 0.80744826793671 0.82374209165573 0
vt 0.75440728664398 0.08423173427582 0
vt 0.88846004009247 0.15357518196106 0
vt 0.41872477531433 0.1206796169281 0
vt 0.26026374101639 0.12068021297455 0
vt 0.26026433706284 0.15357768535614 0
vt 0.20210713148117 0.95043879747391 0
vt 0.20210716128349 0.82374203205109 0
vt 0.25632339715958 0.89648324251175 0
vt 0.59737515449524 0.95615094900131 0
vt 0.25632339715958 0.95966762304306 0
vt 0.77952182292938 0.64201444387436 0
vt 0.53557956218719 0.67466527223587 0
vt 0.88845980167389 0.12067782878876 0
vt 0.79411506652832 0.05466711521149 0
vt 0.16087040305138 0.20171880722046 0
vt 0.16087040305138 0.15229749679565 0
vt 0.04078458994627 0.15229737758636 0
vt 0.04078458994627 0.20171880722046 0
vt 0.60237157344818 0.57160872220993 0
vt 0.60237169265747 0.59868878126144 0
vt 0.75015294551849 0.59868878126144 0
vt 0.75882732868195 0.57160866260529 0
vt 0.8074494600296 0.64201468229294 0
vt 0.76459419727325 0.57661467790604 0
vt 0.26295280456543 0.67466539144516 0
vt 0.23500466346741 0.64014369249344 0
vt 0.23500466346741 0.70365613698959 0
vt 0.24683332443237 0.32961440086365 0
vt 0.34250736236572 0.32961511611938 0
vt 0.34250831604004 0.20292282104492 0
vt 0.24683433771133 0.20291757583618 0
vt 0.34250700473785 0.3296160697937 0
vt 0.26026314496994 0.37896358966827 0
vt 0.26026296615601 0.41186106204987 0
vt 0.770174741745 0.32961905002594 0
vt 0.89823281764984 0.20292246341705 0
vt 0.89823198318481 0.32961916923523 0
vt 0.93113017082214 0.32961928844452 0
vt 0.77017509937286 0.32961809635162 0
vt 0.77017605304718 0.20292150974274 0
vt 0.80745005607605 0.57695955038071 0
vt 0.9225949048996 0.57696038484573 0
vt 0.41872525215149 0.18171799182892 0
vt 0.34250795841217 0.20292377471924 0
vt 0.75440776348114 0.18169486522675 0
vt 0.75069272518158 0.47787344455719 0
vt 0.79411387443542 0.47787368297577 0
vt 0.88845896720886 0.41186332702637 0
vt 0.88845920562744 0.37896573543549 0
vt 0.59423696994781 0.47787272930145 0
vt 0.92259466648102 0.7036572098732 0
vt 0.80744910240173 0.70365625619888 0
vt 0.75440716743469 0.08423209190369 0
vt 0.88846015930176 0.15357565879822 0
vt 0.26026403903961 0.12068021297455 0
vt 0.26026433706284 0.15357780456543 0
vt 0.20210701227188 0.57695943117142 0
vt 0.20210716128349 0.70365613698959 0
vt 0.25620871782303 0.63076490163803 0
vt 0.59710216522217 0.57080686092377 0
vt 0.25620871782303 0.56758058071136 0
vt 0.88846015930176 0.12067806720734 0
vt 0.79411494731903 0.05466794967651 0
vt 0.16087040305138 0.29918146133423 0
vt 0.04078458249569 0.29918146133423 0
vt 0.16087013483047 0.63486385345459 0
vt 0.04078443348408 0.63486385345459 0
vt 0.16087013483047 0.69590222835541 0
vt 0.04078443348408 0.69590210914612 0
vt 0.16087013483047 0.85436308383942 0
vt 0.04078441858292 0.85436308383942 0
vt 0.23500463366508 0.95043879747391 0
vt 0.23500466346741 0.57695943117142 0
# 112 texture coordinates

o hull
usemtl 07 - Default
f 4/3/3 9/2/2 10/1/1
f 10/1/1 7/5/5 4/3/3
f 3/7/9 9/6/8 4/3/7
f 4/3/7 2/8/10 3/7/9
f 2/8/12 4/3/3 7/5/5
f 7/5/5 5/9/13 2/8/12
f 5/9/13 7/5/5 1/10/15
f 1/10/18 23/12/17 6/11/16
f 15/19/24 21/18/24 19/17/23
f 19/17/23 12/20/23 15/19/23
f 9/6/31 3/7/30 20/27/30
f 20/27/30 3/7/30 17/28/33
f 22/31/36 26/30/36 25/29/36
f 25/29/37 18/32/37 22/31/37
f 21/18/39 9/34/39 20/33/39
f 14/35/40 21/18/40 20/33/40
f 20/33/23 17/36/23 14/35/23
f 21/18/41 10/37/41 9/34/41
f 17/28/42 3/7/42 16/38/42
f 16/38/45 3/7/9 8/39/44
f 22/31/37 13/41/37 27/40/37
f 27/40/37 26/30/37 22/31/37
f 18/32/37 25/29/37 24/42/37
f 18/32/36 24/42/36 6/43/36
f 6/43/37 11/44/37 18/32/37
f 11/46/48 23/12/48 12/45/48
f 2/8/10 8/39/44 3/7/9
f 7/5/51 10/48/51 23/47/51
f 23/47/52 1/10/15 7/5/5
f 23/12/17 11/46/53 6/11/16
f 15/49/54 23/47/54 10/48/54
f 15/19/24 10/37/56 21/18/24
f 5/9/13 32/51/59 29/50/58
f 29/50/58 2/8/12 5/9/13
f 13/41/37 16/52/37 27/40/37
f 16/52/61 8/53/61 27/40/61
f 8/56/63 35/55/63 54/54/63
f 54/54/65 27/57/65 8/56/65
f 31/60/68 34/59/67 37/58/66
f 37/58/66 36/61/69 31/60/68
f 30/62/73 29/50/72 31/60/71
f 31/60/71 36/63/75 30/62/73
f 29/50/58 32/51/59 34/59/67
f 34/59/67 31/60/68 29/50/58
f 32/51/59 28/64/77 34/59/67
f 28/64/79 33/66/79 50/65/78
f 42/73/37 39/72/37 46/71/37
f 46/71/37 48/74/84 42/73/84
f 36/63/90 47/80/89 30/62/89
f 47/80/89 44/81/92 30/62/89
f 49/25/95 45/83/95 52/82/95
f 52/82/97 53/84/97 49/25/97
f 48/74/99 47/86/99 36/85/99
f 41/88/37 44/87/37 47/86/37
f 47/86/37 48/74/37 41/88/37
f 48/74/100 36/85/100 37/89/100
f 44/81/101 43/90/101 30/62/101
f 43/90/102 35/91/102 30/62/102
f 49/25/103 53/84/103 54/92/103
f 54/92/23 40/93/23 49/25/23
f 45/83/104 51/42/104 52/82/104
f 45/83/105 38/95/105 33/94/105
f 33/94/106 51/42/106 45/83/106
f 38/97/107 39/96/107 50/65/107
f 29/50/72 30/62/73 35/91/108
f 34/59/67 28/64/77 50/98/110
f 50/98/112 37/99/112 34/59/112
f 50/65/78 33/66/79 38/97/18
f 42/100/113 37/99/113 50/98/113
f 42/73/84 48/74/84 37/89/115
f 40/93/117 54/92/117 43/101/117
f 43/101/118 54/92/118 35/102/118
f 2/8/12 29/50/58 35/91/119
f 35/91/120 8/39/44 2/8/10
f 27/57/121 54/54/121 53/103/121
f 53/103/122 26/104/122 27/57/122
f 26/104/123 53/103/123 52/105/123
f 52/105/123 25/106/123 26/104/123
f 25/106/124 52/105/124 51/107/124
f 51/107/125 24/108/125 25/106/125
f 24/108/28 51/107/28 33/109/28
f 33/109/28 6/110/28 24/108/28
f 23/12/127 15/111/127 12/45/127
f 39/96/18 42/112/18 50/65/18
f 6/11/16 33/66/79 28/64/79
f 28/64/79 1/10/18 6/11/16
f 1/10/15 28/64/77 32/51/59
f 32/51/59 5/9/13 1/10/15

usemtl track
f 18/15/20 11/14/19 12/13/19
f 12/13/19 19/16/22 18/15/20
f 14/23/26 17/22/26 16/21/26
f 16/21/26 13/24/26 14/23/26
f 22/25/28 18/15/20 19/16/22
f 19/16/22 21/26/29 22/25/28
f 13/24/34 22/25/34 21/26/34
f 21/26/34 14/23/34 13/24/34
f 45/69/83 46/68/82 39/67/81
f 39/67/81 38/70/81 45/69/83
f 41/76/26 40/75/26 43/21/26
f 43/21/26 44/77/86 41/76/26
f 49/79/28 48/78/28 46/68/82
f 46/68/82 45/69/83 49/79/28
f 40/75/93 41/76/93 48/78/93
f 48/78/93 49/79/93 40/75/93

v -15 165 -59.31600189208984
v 15 165 -59.31600189208984
v -15 165 -89.31600189208984
v 15 165 -89.31600189208984
v -15 195 -59.31600189208984
v 15 195 -59.31600189208984
v -15 195 -89.31600189208984
v 15 195 -89.31600189208984
# 8 vertices

vn 0 -1 0
vn 0 -1 0
vn 0 1 0
vn 0 -1 0
vn 0 -1 0
vn 0 -1 0
vn -0.57735025882721 -0.57735025882721 0.57735025882721
vn -1 -0.00000004635917 0
vn -0.57735025882721 -0.57735025882721 0.57735025882721
vn 1 0 0
# 10 normals

vt 1 1 0
vt 1 0 0
vt 0 0 0
# 3 texture coordinates

o mount
usemtl track
f 55/114/28 57/113/29 58/4/28
f 58/4/28 56/115/28 55/114/28
f 59/115/132 60/114/132 62/113/132
f 62/113/132 61/4/132 59/115/132
f 55/115/107 56/114/107 60/113/107
f 60/113/18 59/4/18 55/115/18
f 56/115/37 58/114/37 62/113/37
f 62/113/37 60/4/37 56/115/37
f 58/115/26 57/114/26 61/113/26
f 61/113/86 62/4/86 58/115/86
f 57/115/23 55/114/23 59/113/23
f 59/113/23 61/4/23 57/115/23

