# WaveFront *.obj file (generated by Cinema 4D)

v 99 148.5 -99
v -99 148.5 -99
v 165 99 264
v 99 148.5 264
v -99 148.5 264
v 99 99 49.5
v 165 99 -231
v 165 86.97213745117188 -255.0556640625
v 99 33 198
v -165 99 264
v -99 86.97213745117188 -255.0556640625
v 99 148.5 49.5
v 165 99 49.5
v 99 99 -231
v 165 43 264
v 99 76.68761444091797 -259.970703125
v 99 43 264
v -99 148.5 49.5
v -99 99 49.5
v -99 99 -231
v -165 99.00000762939453 49.5
v -165 43 264
v -165 0 -148.5
v -165 76.68761444091797 -259.970703125
v -99 33 198
v -99 82.5 264
v -99 28.52786445617676 255.0556640625
v 99 33 -148.5
v -99 33 -148.5
v 165 0 -148.5
v 165 0 198
v 99 0 -148.5
v -165 99 -231
v -99 0 198
v 99 0 198
v 99 82.5 264
v -165 0 198
v -99 0 -148.5
v 165 76.68761444091797 -259.970703125
v -99 76.68761444091797 -259.970703125
v 99 86.97213745117188 -255.0556640625
v -165 86.97213745117188 -255.0556640625
v 99 89.04849243164062 -231
v -99 89.04849243164062 -231
v 99 148.5 165.01220703125
v 165 99 165.01220703125
v -99 148.5 165.01220703125
v -165 99 165.01220703125
v 141.147705078125 99 264
v -141.147705078125 99 264
v 141.147705078125 99 165.01220703125
v -141.147705078125 99 165.01220703125
v 165 28.52786445617676 255.0556640625
v 99 28.52786445617676 255.0556640625
v -165 28.52786445617676 255.0556640625
v -99 43 264
# 56 vertices

vn 0 0.98395353555679 -0.17842480540276
vn 0 0.93632918596268 -0.35112345218658
vn 0 0.68821847438812 -0.72550350427628
vn 0 0.93632918596268 -0.35112345218658
vn 0.57735025882721 0.57735025882721 -0.57735025882721
vn -0.12403473258018 0.99227786064148 0
vn -0.25242191553116 0.96761727333069 0.00000001111471
vn 0.25242191553116 0.96761727333069 0
vn 0.2095291018486 0.97780239582062 0
vn -0.57735025882721 -0.57735025882721 0.57735025882721
vn 0.60000002384186 0.80000001192093 0
vn 1 0 0
vn 0 0 -1
vn 1 0 0
vn 0 1 0
vn 0 0.89442670345306 -0.44721451401711
vn 0 0.89442670345306 -0.44721451401711
vn 0.99998533725739 0.00383124081418 -0.00383124081418
vn 0 0.89442670345306 -0.44721451401711
vn 0 1 0
vn 0 0.99999505281448 -0.00313903833739
vn 1 0 0
vn 0 -0.79848462343216 0.60201525688171
vn 0 -0.89442700147629 0.44721400737762
vn 0.57735097408295 0.57734990119934 -0.57734990119934
vn 0 -0.73817622661591 0.67460787296295
vn 0 0 1
vn 0 0 -1
vn 0 -0.80000001192093 0.60000002384186
vn 0 -0.82386416196823 -0.56678730249405
vn -1 0 0
vn -0.57734870910645 -0.57735103368759 0.57735103368759
vn 1 0 0
vn 0.5773503780365 0.57735019922256 -0.57735019922256
vn 0 0 -1
vn -0.59999996423721 0.80000001192093 0.00000002641936
vn 1 0 0
vn -0.59999996423721 0.80000001192093 0.00000005283871
vn 0 0 -1
vn 0 1 0
vn -1 0 0
vn 1 0 0
vn 0.00000005779845 1 -0.00000001359963
vn 0.00000011559689 1 -0.00000002719927
vn 0 0 -1
vn 0 1 0
vn 0 0 0
vn 0.00390619039536 0.99998474121094 -0.00390648888424
vn 0 -0.95222628116608 0.30539345741272
vn 0 -0.98827308416367 0.15269672870636
vn 1 0 0
vn 0 -0.6712931394577 0.74119192361832
vn 0.00000005678275 0 -1
vn 0 1 0
vn 1 0 0
vn 1 0 0
vn 0 0.74660110473633 -0.66527199745178
vn 0 -1 0
vn 0 -1 0
vn 0.00383154093288 0.00383154093288 -0.99998533725739
vn 0 1 0
vn 0 0 -1
vn 0 1 0
vn 0 0.43119516968727 -0.90225869417191
vn 0 0.43119516968727 -0.90225869417191
vn 0 1 0
vn -0.57734972238541 -0.57735055685043 0.57735055685043
vn 0 0.76446139812469 -0.64466953277588
vn 0 -0.82716655731201 -0.56195682287216
vn 1 0 0
vn 1 0 0
vn 0 0 -1
vn -0.76138716936111 0.64829742908478 0
vn 0.76138716936111 0.64829742908478 0
vn 1 0 0
vn 0.76138716936111 0.64829742908478 0
vn 0 1 0
vn 1 0.00000001401047 -0.00000001401047
vn 0 0 1
vn 0 -0.52573388814926 0.85064911842346
vn 0 -0.52573388814926 0.85064911842346
vn 0 -0.52573382854462 0.85064911842346
vn 0 0 -1
vn 1 0 0
vn 0 0 0
vn 0 0 1
# 86 normals

vt 0.25848209857941 0.75063413381577 0
vt 0.25848281383514 0.57309728860855 0
vt 0.13207566738129 0.57437890768051 0
vt 0 1 0
vt 0.13207495212555 0.74935132265091 0
vt 0.49520981311798 0.57309812307358 0
vt 0.39163565635681 0.573097884655 0
vt 0.39163506031036 0.75063437223434 0
vt 0.49520921707153 0.75063472986221 0
vt 0.49520885944366 0.82460826635361 0
vt 0.39163482189178 0.82460790872574 0
vt 0.23365694284439 0.98885124921799 0
vt 0.23365694284439 0.92954212427139 0
vt 0.18917506933212 0.98885124921799 0
vt 0.14012444019318 0.79501837491989 0
vt 0.39163482189178 0.79501849412918 0
vt 0.48572033643723 0.98885101079941 0
vt 0.48572033643723 0.9295420050621 0
vt 0.50988876819611 0.98885101079941 0
vt 0.50988876819611 0.92954188585281 0
vt 0.10021156072617 0.84057849645615 0
vt 0.12985533475876 0.9295420050621 0
vt 0.41158407926559 0.84057849645615 0
vt 0.50733721256256 0.91873353719711 0
vt 0.511754155159 0.90949159860611 0
vt 0.06834703683853 0.20488226413727 0
vt 0.12567034363747 0.20488226413727 0
vt 0.12567040324211 0.14557325839996 0
vt 0.06834703683853 0.14557325839996 0
vt 0.64314579963684 0.75063520669937 0
vt 0.64314651489258 0.57309871912003 0
vt 0.58396756649017 0.57309824228287 0
vt 0.58396685123444 0.75063508749008 0
vt 0.71712017059326 0.57309883832932 0
vt 0.71711957454681 0.75063556432724 0
vt 0.55862820148468 0.20488309860229 0
vt 0.55862832069397 0.14557409286499 0
vt 0.43704271316528 0.14557373523712 0
vt 0.43704259395599 0.20488274097443 0
vt 0.86374592781067 0.28117322921753 0
vt 0.86374592781067 0.25151872634888 0
vt 0.55237352848053 0.25151872634888 0
vt 0.55237340927124 0.28117322921753 0
vt 0.91501724720001 0.27715444564819 0
vt 0.92305481433868 0.29015946388245 0
vt 0.92305481433868 0.32565498352051 0
vt 0.49521005153656 0.49912452697754 0
vt 0.39163601398468 0.49912416934967 0
vt 0.31664317846298 0.42770349979401 0
vt 0.31664377450943 0.48701250553131 0
vt 0.36112552881241 0.48701226711273 0
vt 0.3916357755661 0.52871370315552 0
vt 0.14012539386749 0.52871215343475 0
vt 0.06457974016666 0.42770540714264 0
vt 0.06458015739918 0.48701441287994 0
vt 0.04041155427694 0.48701465129852 0
vt 0.04041113704443 0.42770564556122 0
vt 0.13871547579765 0.33874130249023 0
vt 0.03854569047689 0.40765523910522 0
vt 0.04296260327101 0.41689717769623 0
vt 0.12567061185837 0.20488440990448 0
vt 0.12567061185837 0.14557540416718 0
vt 0.06834745407104 0.14557540416718 0
vt 0.0683473944664 0.20488440990448 0
vt 0.55862832069397 0.14557456970215 0
vt 0.43704271316528 0.14557504653931 0
vt 0.43704289197922 0.20488405227661 0
vt 0.55862843990326 0.20488345623016 0
vt 0.55237329006195 0.48875486850739 0
vt 0.8637455701828 0.48875486850739 0
vt 0.86374568939209 0.45910036563873 0
vt 0.55237329006195 0.45910024642944 0
vt 0.92305445671082 0.45011425018311 0
vt 0.92305445671082 0.41461873054504 0
vt 0.91501700878143 0.46311914920807 0
vt 0.56887125968933 0.20488309860229 0
vt 0.56887125968933 0.14557409286499 0
vt 0.56887149810791 0.20488345623016 0
vt 0.56887149810791 0.14557445049286 0
vt 0.12444581091404 0.57181936502457 0
vt 0.1244450956583 0.75191086530685 0
vt 0.03479702025652 0.57308655977249 0
vt 0.03479630500078 0.7506428360939 0
vt 0.14057385921478 0.76910096406937 0
vt 0.13828957080841 0.77797573804855 0
vt 0.01745719462633 0.77470833063126 0
vt 0.14057505130768 0.55462962388992 0
vt 0.13829076290131 0.54575461149216 0
vt 0.017458088696 0.54902106523514 0
vt 0.12985533475876 0.9509761929512 0
vt 0.04090255498886 0.92954188585281 0
vt 0.04090255498886 0.95097595453262 0
vt 0.50939786434174 0.44913601875305 0
vt 0.50939762592316 0.42770183086395 0
vt 0.42044496536255 0.42770266532898 0
vt 0.42044520378113 0.44913673400879 0
vt 0.58396756649017 0.51480424404144 0
vt 0.49521005153656 0.51480412483215 0
vt 0.49520909786224 0.80892866849899 0
vt 0.58396661281586 0.80892902612686 0
vt 0.37596374750137 0.48701190948486 0
vt 0.17433708906174 0.98885148763657 0
vt 0.6785637140274 0.80981367826462 0
vt 0.67856347560883 0.7506348490715 0
vt 0.62835109233856 0.78842669725418 0
vt 0.62835121154785 0.80981379747391 0
vt 0.67856419086456 0.57309943437576 0
vt 0.62835228443146 0.5353068113327 0
vt 0.05305875092745 0.14557325839996 0
vt 0.05305875092745 0.20488226413727 0
vt 0.05305922776461 0.14557540416718 0
vt 0.05305922776461 0.20488440990448 0
vt 0.04894012212753 0.86621433496475 0
vt 0.04090255498886 0.87921923398972 0
vt 0.4500880241394 0.33873903751373 0
vt 0.50939726829529 0.37737905979156 0
vt 0.50135970115662 0.36437439918518 0
vt 0.67856514453888 0.513920545578 0
vt 0.62835276126862 0.51391971111298 0
# 119 texture coordinates

o hull
usemtl 24 - Default
f 20/3/2 2/2/1 1/1/1
f 1/1/1 14/5/4 20/3/2
f 12/8/8 18/7/7 47/6/6
f 47/6/6 45/9/9 12/8/8
f 12/8/8 45/9/9 46/10/11
f 46/10/11 13/11/11 12/8/8
f 12/14/13 13/13/13 6/12/13
f 6/16/14 14/15/14 1/1/14
f 1/1/14 12/8/14 6/16/14
f 7/18/15 14/17/15 6/12/15
f 6/12/15 13/13/15 7/18/15
f 7/18/16 8/20/17 41/19/16
f 41/19/16 14/17/19 7/18/16
f 13/13/14 46/22/14 31/21/14
f 31/21/14 30/23/14 13/13/14
f 39/25/14 8/24/14 7/18/14
f 30/23/14 39/25/14 7/18/14
f 30/23/14 7/18/14 13/13/22
f 5/32/27 26/31/27 36/30/27
f 36/30/27 4/33/27 5/32/27
f 36/30/29 26/31/29 25/34/29
f 25/34/29 9/35/29 36/30/29
f 32/42/31 35/41/31 9/40/31
f 9/40/31 28/43/31 32/42/31
f 9/40/31 35/41/31 54/44/31
f 9/40/31 54/44/31 17/45/31
f 9/40/31 17/45/31 36/46/31
f 48/47/36 47/6/6 18/7/7
f 18/7/7 21/48/38 48/47/36
f 18/51/39 19/50/39 21/49/39
f 19/52/41 18/7/41 2/2/41
f 2/2/31 20/53/31 19/52/31
f 33/54/43 21/49/44 19/50/43
f 19/50/43 20/55/46 33/54/43
f 33/54/16 20/55/19 11/56/16
f 11/56/16 42/57/19 33/54/16
f 23/58/41 21/49/41 33/54/31
f 33/54/31 42/60/31 24/59/31
f 23/58/41 33/54/31 24/59/31
f 25/71/14 34/70/14 38/69/14
f 38/69/22 29/72/22 25/71/22
f 25/71/22 26/74/22 56/73/22
f 25/71/56 56/73/56 27/75/56
f 25/71/56 27/75/56 34/70/56
f 25/71/58 29/72/58 28/43/58
f 28/43/59 9/40/59 25/71/59
f 14/5/13 43/81/13 44/80/13
f 44/80/13 20/3/13 14/5/13
f 43/81/69 28/83/69 29/82/69
f 29/82/69 44/80/69 43/81/69
f 43/81/31 14/5/31 41/84/31
f 41/84/31 16/85/31 43/81/31
f 28/83/41 43/81/41 16/85/41
f 16/85/31 32/86/31 28/83/31
f 44/80/14 40/88/14 11/87/14
f 11/87/22 20/3/22 44/80/22
f 29/82/14 38/89/14 40/88/14
f 40/88/14 44/80/14 29/82/14
f 3/91/15 46/22/46 51/90/15
f 51/90/15 49/92/15 3/91/15
f 48/95/15 10/94/15 50/93/15
f 50/93/46 52/96/46 48/95/46
f 50/97/73 5/32/73 47/6/73
f 47/6/73 52/98/73 50/97/73
f 51/99/74 45/9/74 4/33/74
f 4/33/76 49/100/76 51/99/76
f 47/101/27 48/95/27 52/96/27
f 51/90/27 46/22/27 45/102/27
f 49/105/27 17/104/27 15/103/27
f 15/103/27 3/106/27 49/105/27
f 50/108/79 56/107/79 26/31/79
f 26/31/27 5/32/27 50/108/27
f 1/1/1 2/2/1 18/7/7
f 18/7/7 12/8/8 1/1/1
f 47/6/6 5/32/15 4/33/15
f 4/33/15 45/9/9 47/6/6
f 3/91/14 15/114/14 53/113/14
f 3/91/14 53/113/14 31/21/14
f 46/22/56 3/91/14 31/21/14
f 37/115/31 48/95/31 21/49/31
f 21/49/31 23/58/31 37/115/31
f 55/117/31 22/116/31 10/94/31
f 55/117/41 10/94/41 48/95/41
f 37/115/31 55/117/31 48/95/31
f 50/108/27 10/119/27 22/118/27
f 22/118/86 56/107/86 50/108/86
f 49/105/27 4/33/27 36/30/27
f 36/30/27 17/104/27 49/105/27

usemtl tracks
f 35/28/24 31/27/24 53/26/23
f 53/26/23 54/29/26 35/28/24
f 32/38/30 16/37/30 39/36/30
f 39/36/30 30/39/30 32/38/30
f 55/63/23 37/62/50 34/61/49
f 34/61/49 27/64/52 55/63/23
f 38/67/30 23/66/30 24/65/30
f 24/65/30 40/68/30 38/67/30
f 38/67/59 34/61/49 37/62/50
f 37/62/50 23/66/58 38/67/59
f 35/28/58 32/38/58 30/39/58
f 30/39/59 31/27/59 35/28/59
f 8/76/64 39/36/64 16/37/64
f 16/37/65 41/77/65 8/76/65
f 11/78/64 40/68/64 24/65/64
f 24/65/65 42/79/65 11/78/65
f 17/109/80 54/29/26 53/26/23
f 53/26/81 15/110/81 17/109/81
f 27/64/52 56/112/81 22/111/82
f 22/111/82 55/63/23 27/64/52

v -16.5 148.65562438964844 49.5
v 16.5 148.65562438964844 49.5
v -16.5 148.65562438964844 16.5
v 16.5 148.65562438964844 16.5
v -16.5 181.65562438964844 49.5
v 16.5 181.65562438964844 49.5
v -16.5 181.65562438964844 16.5
v 16.5 181.65562438964844 16.5
# 8 vertices

vn 0 -1 0
vn 0 1 0
vn 0 0 -1
# 3 normals

vt 1 0 0
vt 0 0 0
vt 1 1 0
# 3 texture coordinates

o mount
usemtl tracks
f 60/4/59 58/121/59 57/120/59
f 57/120/59 59/122/58 60/4/59
f 64/122/15 63/4/15 61/121/15
f 61/121/15 62/120/15 64/122/15
f 57/121/86 58/120/86 62/122/86
f 62/122/27 61/4/27 57/121/27
f 64/122/14 62/4/14 58/121/14
f 58/121/14 60/120/14 64/122/14
f 60/121/13 59/120/13 63/122/13
f 63/122/89 64/4/89 60/121/89
f 59/121/31 57/120/31 61/122/31
f 61/122/31 63/4/31 59/121/31

